<svg width="32" height="32" viewBox="0 0 32 32" fill="none" xmlns="http://www.w3.org/2000/svg">
<path d="M16.5 31C24.5081 31 31 24.5081 31 16.5C31 8.49187 24.5081 2 16.5 2C8.49187 2 2 8.49187 2 16.5C2 24.5081 8.49187 31 16.5 31Z" fill="url(#paint0_linear_564_16060)"/>
<path d="M16 0.000249863C7.16345 0.000249863 0 7.16367 0 16.0002C0 24.8368 7.16345 32.0002 16 32.0002C24.8366 32.0002 32 24.8368 32 16.0002C32 7.16367 24.8366 0.000249863 16 0.000249863ZM22.8041 23.4724C22.6309 23.658 22.3917 23.7487 22.0866 23.7487C21.8863 23.7458 21.6918 23.681 21.5299 23.5631C21.3597 23.4365 21.226 23.2672 21.1423 23.0724L15.9959 10.2724L14.1072 14.9775H15.0227C15.2789 14.98 15.524 15.083 15.7052 15.2641C15.8864 15.4453 15.9893 15.6904 15.9918 15.9466V15.9713C15.99 16.2278 15.8873 16.4733 15.7059 16.6546C15.5246 16.836 15.2792 16.9386 15.0227 16.9404H13.3072L10.833 23.0765C10.7492 23.2714 10.6155 23.4406 10.4454 23.5672C10.2837 23.6857 10.0891 23.7506 9.88867 23.7528C9.58352 23.7528 9.3402 23.6621 9.17116 23.4765C8.99234 23.2764 8.89778 23.0149 8.90723 22.7466C8.90836 22.6201 8.93066 22.4946 8.9732 22.3755L11.2206 16.9445H10.2639C10.0077 16.9421 9.76266 16.8392 9.58146 16.658C9.40026 16.4768 9.29736 16.2317 9.29486 15.9755V15.9631C9.29667 15.7067 9.39935 15.4612 9.58069 15.2799C9.76204 15.0985 10.0075 14.9958 10.2639 14.994H12.0454L14.4 9.29508C14.7052 8.61879 15.1588 8.28889 15.7567 8.28889H16.2351C16.833 8.28889 17.2866 8.61879 17.5918 9.29508L23.0021 22.3755C23.0505 22.4916 23.073 22.6168 23.068 22.7425C23.068 23.0477 22.9773 23.2868 22.8041 23.4724Z" fill="url(#paint1_linear_564_16060)"/>
<defs>
<linearGradient id="paint0_linear_564_16060" x1="28.4117" y1="2.4674" x2="2.08153" y2="25.638" gradientUnits="userSpaceOnUse">
<stop stop-color="#F565D9"/>
<stop offset="1" stop-color="#49E9FF"/>
</linearGradient>
<linearGradient id="paint1_linear_564_16060" x1="27.9303" y1="5.96284" x2="4.12164" y2="25.9943" gradientUnits="userSpaceOnUse">
<stop stop-color="#574352"/>
<stop offset="1" stop-color="#1F3F42"/>
</linearGradient>
</defs>
</svg>
