<svg width="32" height="32" viewBox="0 0 32 32" fill="none" xmlns="http://www.w3.org/2000/svg">
<circle cx="16" cy="16" r="16" fill="#1B2233"/>
<path d="M15.9415 24.7987C16.2759 24.7814 16.5633 25.0353 16.5868 25.3643C16.6102 25.6933 16.3463 25.9761 16.0119 25.9991C15.6775 26.0165 15.39 25.7683 15.3666 25.4393C15.349 25.1046 15.6071 24.8218 15.9415 24.7987Z" fill="#275DDF"/>
<path d="M21.6375 24.7179C21.4909 24.4986 21.1976 24.4351 20.9746 24.5794C20.7576 24.7236 20.6931 25.018 20.8338 25.2373C20.9805 25.4509 21.2738 25.5143 21.4967 25.3701C21.7197 25.2258 21.7842 24.9372 21.6375 24.7179Z" fill="#275DDF"/>
<path d="M10.9374 24.5332C11.172 24.6486 11.2659 24.9372 11.1486 25.1681C11.0313 25.3989 10.7379 25.4913 10.5033 25.3758C10.2686 25.2604 10.1748 24.9776 10.2921 24.7467C10.4094 24.5101 10.6969 24.412 10.9374 24.5332Z" fill="#275DDF"/>
<path d="M12.4275 14.5369C11.6121 14.5831 10.9843 15.2699 11.0313 16.0722C11.0723 16.8455 11.7235 17.4515 12.5096 17.4515C13.3309 17.4573 13.9938 16.8051 13.9938 15.9971C13.9997 15.1891 13.3368 14.5369 12.5155 14.5369H12.4275Z" fill="#275DDF"/>
<path d="M5.00049 16.0029C5.01222 16.2626 5.24101 16.4646 5.505 16.4473C5.76899 16.43 5.97432 16.2107 5.95672 15.9509C5.93912 15.6912 5.71619 15.4892 5.45221 15.5065C5.18822 15.5181 4.98876 15.7432 5.00049 16.0029Z" fill="#275DDF"/>
<path d="M12.7677 22.9287C12.9496 22.5709 12.8029 22.1322 12.4392 21.9533C12.0755 21.7744 11.6297 21.9187 11.4478 22.2765C11.2659 22.6344 11.4126 23.073 11.7763 23.2519C12.14 23.4308 12.5859 23.2865 12.7677 22.9287Z" fill="#275DDF"/>
<path d="M7.38234 20.1814C7.66393 20.0025 8.03938 20.0776 8.22711 20.3546C8.40897 20.6316 8.3327 21.001 8.05111 21.1857C7.76953 21.3646 7.39408 21.2896 7.20635 21.0125C7.01863 20.7355 7.10076 20.3604 7.38234 20.1814Z" fill="#275DDF"/>
<path d="M7.49966 16.0202C7.52312 16.4242 7.86924 16.7301 8.27989 16.707C8.69054 16.6839 9.00146 16.3376 8.97799 15.9394C8.95453 15.5354 8.60841 15.2295 8.19776 15.2526C7.78711 15.2757 7.47619 15.6162 7.49966 16.0202Z" fill="#275DDF"/>
<path d="M7.46445 11.8185C7.16527 11.6685 7.04207 11.3106 7.1946 11.0105C7.34712 10.7162 7.71084 10.595 8.01589 10.745C8.31508 10.8951 8.43827 11.2529 8.28575 11.553C8.13322 11.8474 7.76364 11.9686 7.46445 11.8185Z" fill="#275DDF"/>
<path d="M11.5416 18.4615C11.2835 18.0633 10.7438 17.9537 10.339 18.2134C9.9342 18.4731 9.82274 19.0041 10.0867 19.3965C10.3449 19.7948 10.8846 19.9044 11.2893 19.6447C11.6941 19.3908 11.8056 18.8598 11.5416 18.4615Z" fill="#275DDF"/>
<path d="M19.4613 22.011C19.8016 21.7917 20.265 21.884 20.4879 22.2188C20.7109 22.5535 20.617 23.0095 20.2768 23.2288C19.9365 23.4481 19.4731 23.3558 19.2501 23.021C19.0213 22.6805 19.1152 22.2303 19.4613 22.011Z" fill="#275DDF"/>
<path d="M19.5726 17.4631C18.7571 17.5093 18.0532 16.8917 18.0121 16.0895C17.9652 15.2872 18.5929 14.5947 19.4083 14.5543H19.4904C20.3059 14.5543 20.9688 15.2064 20.9688 16.0145C20.9746 16.7821 20.3587 17.4227 19.5726 17.4631Z" fill="#275DDF"/>
<path d="M14.2519 17.515C13.6887 17.515 13.1784 17.8267 12.9261 18.3173C12.5565 19.0329 12.8498 19.9102 13.5831 20.2796C14.3106 20.6432 15.2023 20.3546 15.5718 19.6332C15.6774 19.4254 15.7302 19.2003 15.7302 18.9752C15.7302 18.1672 15.0673 17.515 14.2519 17.515Z" fill="#275DDF"/>
<path d="M24.5357 20.1815C24.8349 20.3315 24.9522 20.6951 24.7997 20.9895C24.6471 21.2838 24.2775 21.3993 23.9784 21.2492C23.6792 21.0991 23.5618 20.7413 23.7085 20.447C23.8669 20.1526 24.2306 20.0314 24.5357 20.1815Z" fill="#275DDF"/>
<path d="M20.3941 18.5712C20.1771 18.9925 20.3531 19.5062 20.7813 19.7198C21.2096 19.9275 21.7317 19.7602 21.9487 19.3388C22.1658 18.9175 21.9898 18.4038 21.5615 18.1903C21.1333 17.9768 20.6112 18.1499 20.3941 18.5712Z" fill="#275DDF"/>
<path d="M16.8507 21.8379C16.8272 21.3646 16.4166 21.001 15.9355 21.0299C15.4545 21.053 15.0908 21.457 15.1142 21.9302C15.1377 22.4035 15.5483 22.7671 16.0294 22.7383C16.5104 22.7152 16.88 22.3112 16.8507 21.8379Z" fill="#275DDF"/>
<path d="M11.2189 12.2803C11.6471 12.4938 11.8231 13.0075 11.6061 13.4288C11.389 13.8501 10.8669 14.0232 10.4387 13.8097C10.0104 13.5962 9.83443 13.0825 10.0515 12.6612C10.2685 12.2399 10.7906 12.0667 11.2189 12.2803Z" fill="#275DDF"/>
<path d="M16.927 17.7632C16.2406 18.2018 16.0529 19.1022 16.4987 19.7774C16.7745 20.1872 17.2379 20.4354 17.7366 20.4354C18.024 20.4354 18.3056 20.3546 18.5461 20.1988C19.2325 19.7601 19.4202 18.8598 18.9744 18.1845C18.5285 17.5092 17.6134 17.3245 16.927 17.7632Z" fill="#275DDF"/>
<path d="M19.074 13.6827C18.7045 14.4042 17.8128 14.6928 17.0853 14.3292C16.352 13.9655 16.0587 13.0883 16.4283 12.3726C16.7979 11.6512 17.6896 11.3626 18.417 11.7262C19.1444 12.084 19.4436 12.9498 19.0799 13.6712C19.0799 13.677 19.0799 13.677 19.074 13.6827Z" fill="#275DDF"/>
<path d="M20.4586 13.5385C20.7167 13.9367 21.2564 14.0464 21.6612 13.7866C22.066 13.5269 22.1774 12.9959 21.9134 12.6035C21.6553 12.2053 21.1156 12.0956 20.7108 12.3553C20.306 12.6093 20.1946 13.1402 20.4586 13.5385Z" fill="#275DDF"/>
<path d="M24.5003 15.974C24.5238 16.378 24.2129 16.7185 23.8022 16.7416C23.3916 16.7647 23.0455 16.4588 23.022 16.0548C22.9985 15.6508 23.3095 15.3103 23.7201 15.2872C24.1249 15.2641 24.4769 15.5758 24.5003 15.974Z" fill="#275DDF"/>
<path d="M26.0435 16.0491C26.0552 16.3088 26.284 16.5108 26.548 16.4935C26.812 16.4762 27.0114 16.2568 26.9997 15.9971C26.9821 15.7374 26.7592 15.5354 26.4952 15.5527C26.2312 15.5643 26.0317 15.7893 26.0435 16.0491Z" fill="#275DDF"/>
<path d="M24.6179 11.8186C24.3363 11.9975 23.9608 11.9224 23.7731 11.6454C23.5912 11.3684 23.6675 10.999 23.9491 10.8143C24.2307 10.6354 24.6061 10.7104 24.7939 10.9875C24.9816 11.2645 24.8994 11.6396 24.6179 11.8186Z" fill="#275DDF"/>
<path d="M10.3565 7.28791C10.5032 7.50145 10.7965 7.56494 11.0194 7.42065C11.2423 7.27636 11.3069 6.98202 11.1543 6.76847C11.0077 6.55492 10.7144 6.49144 10.4914 6.63573C10.2744 6.78001 10.2098 7.06859 10.3565 7.28791Z" fill="#275DDF"/>
<path d="M21.0628 7.46682C20.8282 7.35139 20.7343 7.06281 20.8517 6.83195C20.969 6.60109 21.2623 6.50875 21.497 6.62418C21.7316 6.73961 21.8255 7.02241 21.7082 7.25327C21.5908 7.48991 21.3034 7.58802 21.0628 7.46682Z" fill="#275DDF"/>
<path d="M15.073 14.2426C15.7594 13.7982 15.9471 12.8978 15.5013 12.2225C15.2255 11.807 14.7621 11.5588 14.2576 11.5646C13.9701 11.5646 13.6885 11.6454 13.448 11.8012C12.7616 12.2456 12.5681 13.146 13.0198 13.8213C13.4715 14.4965 14.3866 14.6812 15.073 14.2426Z" fill="#275DDF"/>
<path d="M12.5389 9.98898C12.1986 10.2083 11.7352 10.116 11.5123 9.78121C11.2894 9.44646 11.3832 8.99051 11.7235 8.77119C12.0637 8.55187 12.5272 8.64422 12.7501 8.97896C12.9789 9.31371 12.885 9.76966 12.5389 9.98898Z" fill="#275DDF"/>
<path d="M15.3489 6.63572C15.3723 6.9647 15.6598 7.21864 15.9942 7.20133C16.3286 7.17824 16.5867 6.89544 16.5691 6.56069C16.5456 6.23172 16.2582 5.98354 15.9238 6.00085C15.5894 6.02394 15.3254 6.30674 15.3489 6.63572Z" fill="#275DDF"/>
<path d="M16.0002 10.9701C15.5191 10.999 15.1085 10.6354 15.085 10.1621C15.0557 9.68886 15.4253 9.28485 15.9063 9.26177C16.3873 9.23868 16.798 9.59651 16.8215 10.0698C16.8508 10.5373 16.4812 10.947 16.0002 10.9701Z" fill="#275DDF"/>
<path d="M19.2382 9.06554C19.0505 9.42338 19.1972 9.86201 19.5609 10.0467C19.9305 10.2314 20.3763 10.0813 20.564 9.72349C20.7459 9.36566 20.5992 8.92703 20.2355 8.74811C19.8718 8.56342 19.4259 8.70771 19.2382 9.06554Z" fill="#275DDF"/>
</svg>
