<svg width="32" height="33" viewBox="0 0 32 33" fill="none" xmlns="http://www.w3.org/2000/svg">
<path d="M16 32.0028C24.8366 32.0028 32 24.8394 32 16.0028C32 7.16626 24.8366 0.00281906 16 0.00281906C7.16344 0.00281906 0 7.16626 0 16.0028C0 24.8394 7.16344 32.0028 16 32.0028Z" fill="black"/>
<path d="M9.07044 26.1652L12.1503 20.8319L15.2301 15.5174L18.2911 10.1841L18.7981 9.339L19.0234 10.1841L19.9624 13.6957L18.9108 15.5174L15.831 20.8319L12.7699 26.1652H16.4507L19.5305 20.8319L21.1268 18.0713L21.8779 20.8319L23.3051 26.1652H26.6103L25.1831 20.8319L23.7558 15.5174L23.3803 14.1464L25.6713 10.1841H22.3286L22.2159 9.78969L21.0516 5.43287L20.9014 4.8695H17.6901L17.615 4.98219L14.6103 10.1841L11.5306 15.5174L8.46951 20.8319L5.38969 26.1652H9.07044Z" fill="white"/>
</svg>
