<svg width="32" height="32" viewBox="0 0 32 32" fill="none" xmlns="http://www.w3.org/2000/svg">
<path d="M16 32C24.8366 32 32 24.8366 32 16C32 7.16344 24.8366 0 16 0C7.16344 0 0 7.16344 0 16C0 24.8366 7.16344 32 16 32Z" fill="#C2B9EB"/>
<path fill-rule="evenodd" clip-rule="evenodd" d="M22.9359 12.3435C22.9362 11.6837 22.7799 11.0333 22.4798 10.4456C22.1798 9.85801 21.7446 9.34996 21.21 8.96325L24.0296 6.13333L22.3428 6.14297L20.1027 8.39125C19.6776 8.24809 19.232 8.17527 18.7834 8.17566H11.0713V19.139L20.3564 9.81998C20.9025 10.1633 21.3224 10.6747 21.553 11.2771C21.7835 11.8796 21.8123 12.5406 21.635 13.1609C21.4576 13.7811 21.0837 14.327 20.5695 14.7165C20.0553 15.106 19.4285 15.318 18.7834 15.3207H18.5379L8.20741 25.6889H9.88462L11.91 23.6562H18.7834C19.6932 23.6532 20.577 23.3524 21.2998 22.7999C22.0226 22.2474 22.5447 21.4735 22.7863 20.5964C23.0279 19.7193 22.9757 18.7872 22.6378 17.9425C22.2999 17.0978 21.6948 16.3869 20.9149 15.9184C21.5314 15.5474 22.0415 15.0232 22.3956 14.3968C22.7498 13.7704 22.9359 13.0631 22.9359 12.3435ZM12.3026 16.1905V9.29947H18.8586C18.9693 9.29942 19.0799 9.30553 19.1899 9.31779L12.3026 16.1905ZM21.6098 19.5316C21.6098 21.181 20.2932 22.5227 18.6746 22.5227H13.0471L18.8956 16.563C19.6385 16.6255 20.3305 16.9659 20.8336 17.5161C21.3367 18.0664 21.6139 18.7861 21.6098 19.5316Z" fill="#4520E6"/>
</svg>
