<svg width="32" height="32" viewBox="0 0 32 32" fill="none" xmlns="http://www.w3.org/2000/svg">
<circle cx="16" cy="16" r="16" fill="#37A37F"/>
<path d="M20.859 11.1845C20.2992 9.46162 18.5739 9.19726 16.5206 9.44009L15.991 7L14.4285 7.31845L14.9444 9.69424L14.5315 9.78071L13.7 9.964L13.1811 7.57236L11.6196 7.8904L12.1485 10.3299L11.4831 10.4768C11.3736 10.5003 11.2649 10.5232 11.157 10.5452L11.1551 10.5376L9 10.9758L9.34475 12.5621L10.1268 12.393L10.38 12.3427L10.4689 12.3289C10.4765 12.3283 10.4792 12.3302 10.4792 12.3302C11.112 12.2015 11.3939 12.5089 11.5193 12.798L12.1228 15.5778C12.1665 15.5691 12.2238 15.5592 12.2903 15.5546L12.1252 15.5885L12.9701 19.4828C12.9835 19.6778 12.932 20.0036 12.49 20.0943L12.4811 20.099L12.3939 20.1204L11.8238 20.2355L11.3542 20.3254L11.4287 22.1625L13.462 21.7483L14.5802 21.5296L15.1166 23.9974L16.6774 23.6797L16.1472 21.2379C16.5777 21.159 16.993 21.0778 17.3979 20.995L17.9248 23.4257L19.4873 23.1072L18.9529 20.6436L19.2936 20.5511C19.3495 20.5353 19.4049 20.5194 19.4598 20.5033L19.7835 20.404L20.0953 20.2994C22.0302 19.6195 23.2069 18.5898 22.9698 16.5703C22.7442 14.6446 21.6271 13.9924 20.0621 13.9557C20.8405 13.3576 21.239 12.5153 20.9052 11.3339L20.859 11.1845ZM19.8185 16.9067C20.0714 18.0693 18.8265 18.6845 17.6065 19.0347L17.355 19.1035L16.9855 19.1937L16.6345 19.27L15.7935 19.4343L15.0842 16.1644L15.8991 15.9836L16.2416 15.9132L16.4827 15.8683L16.7315 15.8271L16.9855 15.7911C18.1794 15.6384 19.4687 15.7141 19.7881 16.7878L19.8185 16.9067ZM18.0904 12.4414C18.3272 13.534 17.2172 14.0714 16.1703 14.363L15.9475 14.4219L15.7297 14.4738L15.52 14.5197L15.0514 14.6116L14.7592 14.6676L14.1157 11.702L14.8719 11.5333L15.1913 11.4697C15.2281 11.4629 15.2652 11.4563 15.3026 11.4498L15.5303 11.4134C16.568 11.2623 17.7549 11.2989 18.0602 12.3234L18.0904 12.4414Z" fill="white"/>
</svg>
