<svg width="32" height="32" viewBox="0 0 32 32" fill="none" xmlns="http://www.w3.org/2000/svg">
<path d="M30.4126 19.594C28.4281 27.5533 20.3658 32.3971 12.4046 30.4123C4.44688 28.4281 -0.397518 20.3661 1.58786 12.4075C3.57149 4.44736 11.6338 -0.39685 19.5925 1.58743C27.553 3.57171 32.3971 11.6345 30.4124 19.5942L30.4126 19.594Z" fill="url(#paint0_radial_4_721)"/>
<circle cx="16" cy="16" r="16" fill="#3F3C36"/>
<path d="M19.8859 17.5942L22.1471 19.8531L22.146 19.8542L16 26L9.8528 19.8528L12.1158 17.5961L16 21.48L19.8859 17.5942ZM16.0001 13.6923L18.3064 15.9988H18.3056L18.3077 15.9999L18.3066 16.0012L16.0001 18.3077L13.6955 16.0029L13.6923 15.9996L13.6955 15.9964L14.0994 15.5924L14.2953 15.3966L16.0001 13.6923ZM23.7401 13.7409L26 16.0008L23.74 18.2609L21.48 16.0009L23.7401 13.7409ZM8.26008 13.7396L10.52 15.9995L8.25992 18.2596L6 16L8.26008 13.7396ZM16 6L22.146 12.1458L19.886 14.4058L16 10.52L12.1159 14.404L9.856 12.144L16 6Z" fill="#F7D15B"/>
<defs>
<radialGradient id="paint0_radial_4_721" cx="0" cy="0" r="1" gradientUnits="userSpaceOnUse" gradientTransform="translate(860.579 2051.98) scale(2932.22)">
<stop stop-color="#2C2C2C"/>
<stop offset="0.585226" stop-color="#1C1C1C"/>
<stop offset="1" stop-color="#212121"/>
</radialGradient>
</defs>
</svg>
