<svg width="32" height="32" viewBox="0 0 32 32" fill="none" xmlns="http://www.w3.org/2000/svg">
<path d="M16 32C24.8368 32 32 24.8368 32 16C32 7.1632 24.8368 0 16 0C7.1632 0 0 7.1632 0 16C0 24.8368 7.1632 32 16 32Z" fill="#0E362E"/>
<path fill-rule="evenodd" clip-rule="evenodd" d="M8.58041 21.9007C8.32182 21.7427 8.10809 21.521 7.95967 21.2568C7.81126 20.9927 7.73313 20.6948 7.73276 20.3918V16.9554C7.73325 16.8257 7.76788 16.6983 7.83318 16.5861C7.89848 16.4739 7.99215 16.3809 8.10477 16.3164C8.2174 16.2519 8.34502 16.2182 8.47481 16.2186C8.6046 16.219 8.732 16.2536 8.8442 16.3188L16.5979 20.8402C16.8211 20.97 17.0062 21.156 17.1349 21.3798C17.2636 21.6035 17.3313 21.8571 17.3313 22.1152V25.6747C17.3317 25.7909 17.3092 25.906 17.265 26.0136C17.2209 26.1211 17.1559 26.2188 17.0739 26.3011C16.9919 26.3835 16.8944 26.4488 16.7871 26.4934C16.6797 26.538 16.5647 26.561 16.4485 26.561C16.2847 26.5608 16.1242 26.5158 15.9842 26.4309L8.58041 21.9007ZM20.138 15.378C20.3608 15.5082 20.5456 15.6943 20.6742 15.918C20.8029 16.1416 20.8708 16.395 20.8714 16.653V23.8774C20.8715 23.982 20.8438 24.0848 20.7909 24.175C20.738 24.2653 20.662 24.3398 20.5706 24.3909L18.8736 25.3458C18.852 25.358 18.8289 25.3675 18.805 25.3739V21.3625C18.8049 21.107 18.7386 20.8559 18.6126 20.6337C18.4865 20.4115 18.305 20.2257 18.0857 20.0946L11.2764 16.0216V11.4932C11.2769 11.3634 11.3115 11.236 11.3768 11.1239C11.4421 11.0117 11.5358 10.9187 11.6484 10.8542C11.761 10.7896 11.8886 10.7559 12.0184 10.7563C12.1482 10.7568 12.2756 10.7913 12.3878 10.8566L20.138 15.378ZM23.5321 10.0423C23.7558 10.1721 23.9415 10.3583 24.0705 10.5824C24.1995 10.8065 24.2673 11.0605 24.2673 11.3191V21.8708C24.2662 21.9771 24.2368 22.0813 24.1821 22.1725C24.1274 22.2637 24.0493 22.3386 23.956 22.3896L22.3468 23.2583V15.9126C22.3467 15.6578 22.2807 15.4073 22.1553 15.1855C22.0299 14.9636 21.8493 14.7779 21.6311 14.6464L14.6705 10.4714V6.1769C14.671 6.04682 14.7049 5.91906 14.769 5.80583C14.8678 5.63692 15.0294 5.51398 15.2185 5.46389C15.4077 5.4138 15.609 5.44064 15.7784 5.53852L23.5321 10.0423Z" fill="#00D395"/>
</svg>
