<svg width="32" height="32" viewBox="0 0 32 32" fill="none" xmlns="http://www.w3.org/2000/svg">
<path d="M32 16C32 24.8366 24.8366 32 16 32C7.16344 32 0 24.8366 0 16C0 7.16344 7.16344 0 16 0C24.8366 0 32 7.16344 32 16Z" fill="#008DE4"/>
<path d="M16 0C7.16344 0 0 7.16344 0 16C0 24.8366 7.16344 32 16 32C24.8366 32 32 24.8366 32 16C32 7.16344 24.8366 0 16 0ZM7.3654 16.0827C7.52222 15.4302 7.75975 14.35 9.41708 14.35H15.8957C15.8957 14.35 15.8284 14.6962 15.623 15.5511C15.4662 16.2036 15.2287 17.2837 13.5713 17.2837H7.09269C7.09269 17.2837 7.16 16.9376 7.3654 16.0827ZM24.231 16.0678C23.7012 18.9315 22.3782 21.1259 20.1548 22.1525C19.1526 22.6161 18.2048 22.875 15.978 22.875H9.66456L10.1901 19.9428L15.7404 19.9451C19.078 19.9509 19.9681 18.5035 20.4015 17.2352C20.564 16.7593 20.9404 15.2917 20.9526 14.4235C20.9763 12.7287 20.1448 11.7078 17.3327 11.7078L11.6229 11.7009L12.1473 8.76988H18.4749C24.0374 8.76988 25.0204 11.8034 24.231 16.0678Z" fill="#163040"/>
</svg>
