<svg width="32" height="32" viewBox="0 0 32 32" fill="none" xmlns="http://www.w3.org/2000/svg">
<path d="M32 16C32 24.8366 24.8366 32 16 32C7.16344 32 0 24.8366 0 16C0 7.16344 7.16344 0 16 0C24.8366 0 32 7.16344 32 16Z" fill="white"/>
<path d="M16 8.2L12.625 12.85L16 23.05L19.375 12.85L16 8.2Z" fill="black"/>
<path d="M10.7875 21.175L15.325 23.95L12.175 14.3875L10.7875 21.175Z" fill="black"/>
<path d="M16.6375 23.95L21.175 21.175L19.7875 14.3875L16.6375 23.95Z" fill="black"/>
<path d="M16 0C7.16345 0 0 7.16345 0 16C0 24.8365 7.16345 32 16 32C24.8365 32 32 24.8365 32 16C32 7.16345 24.8365 0 16 0ZM16 25.375L9.77499 21.5875L11.6125 12.6625L16 6.625L20.35 12.625L22.225 21.5875L16 25.375Z" fill="black"/>
</svg>
