<svg width="32" height="32" viewBox="0 0 32 32" fill="none" xmlns="http://www.w3.org/2000/svg">
<path d="M15.6981 29.9742C23.3017 29.9742 29.4656 23.8103 29.4656 16.2067C29.4656 8.60317 23.3017 2.43927 15.6981 2.43927C8.09455 2.43927 1.93065 8.60317 1.93065 16.2067C1.93065 23.8103 8.09455 29.9742 15.6981 29.9742Z" fill="white"/>
<path d="M16 0C7.16344 0 0 7.16345 0 16C0 24.8366 7.16344 32 16 32C24.8366 32 32 24.8366 32 16C32 7.16345 24.8366 0 16 0ZM23.9638 9.4866C24.1697 9.48345 24.372 9.54165 24.5448 9.65379C24.7176 9.76593 24.8531 9.92694 24.9341 10.1163C25.0151 10.3057 25.0379 10.5149 24.9997 10.7173C24.9614 10.9197 24.8638 11.1062 24.7193 11.253C24.5747 11.3997 24.3898 11.5002 24.188 11.5415C23.9862 11.5829 23.7767 11.5632 23.5861 11.4851C23.3955 11.407 23.2324 11.274 23.1176 11.1029C23.0029 10.9319 22.9416 10.7306 22.9416 10.5246C22.9397 10.2514 23.0462 9.98869 23.2379 9.79407C23.4296 9.59946 23.6906 9.48887 23.9638 9.4866ZM23.626 12.5208C23.8018 12.5184 23.9744 12.5683 24.1219 12.6642C24.2693 12.7602 24.3849 12.8978 24.4539 13.0596C24.5229 13.2213 24.5422 13.4 24.5094 13.5728C24.4766 13.7456 24.3931 13.9047 24.2696 14.03C24.1461 14.1552 23.9881 14.2409 23.8158 14.2761C23.6435 14.3113 23.4646 14.2945 23.3018 14.2277C23.1391 14.161 22.9999 14.0473 22.9019 13.9013C22.804 13.7552 22.7517 13.5833 22.7517 13.4074C22.7501 13.1739 22.8413 12.9493 23.0052 12.7831C23.1692 12.6168 23.3925 12.5225 23.626 12.5208ZM22.8007 14.9679C22.8993 14.9686 22.9968 14.9888 23.0877 15.0272C23.1785 15.0657 23.2609 15.1217 23.33 15.192C23.3992 15.2623 23.4538 15.3456 23.4908 15.437C23.5278 15.5285 23.5463 15.6263 23.5454 15.7249V15.7268C23.5461 15.8253 23.5274 15.9229 23.4903 16.0142C23.4533 16.1054 23.3986 16.1885 23.3294 16.2586C23.2603 16.3287 23.178 16.3845 23.0873 16.4228C22.9965 16.4611 22.8991 16.4812 22.8007 16.4819H22.7935C22.5955 16.4768 22.4074 16.3943 22.2695 16.2521C22.1316 16.1099 22.0549 15.9194 22.0559 15.7214C22.0568 15.5233 22.1353 15.3335 22.2746 15.1927C22.4138 15.0518 22.6027 14.9711 22.8007 14.9679ZM21.6804 16.8267C21.8112 16.8248 21.9396 16.8618 22.0492 16.933C22.1589 17.0043 22.2449 17.1065 22.2962 17.2268C22.3476 17.347 22.3621 17.4798 22.3377 17.6083C22.3134 17.7368 22.2514 17.8552 22.1596 17.9483C22.0678 18.0414 21.9504 18.1052 21.8223 18.1314C21.6942 18.1576 21.5612 18.1451 21.4402 18.0955C21.3192 18.0459 21.2157 17.9615 21.1428 17.8529C21.07 17.7443 21.0311 17.6165 21.0311 17.4857C21.0304 17.3998 21.0467 17.3146 21.079 17.235C21.1113 17.1553 21.1589 17.0829 21.2192 17.0217C21.2795 16.9605 21.3513 16.9117 21.4304 16.8783C21.5096 16.8448 21.5945 16.8273 21.6804 16.8267ZM20.7948 13.9246C20.6146 13.9271 20.4377 13.8759 20.2867 13.7775C20.1357 13.6792 20.0173 13.5382 19.9467 13.3724C19.876 13.2066 19.8562 13.0236 19.8899 12.8465C19.9236 12.6695 20.0091 12.5064 20.1357 12.3782C20.2622 12.2499 20.4241 12.1621 20.6007 12.126C20.7772 12.09 20.9605 12.1073 21.1273 12.1757C21.294 12.2441 21.4366 12.3605 21.537 12.5102C21.6374 12.6598 21.6909 12.836 21.6909 13.0162V13.018C21.6923 13.257 21.5987 13.4869 21.4306 13.6569C21.2626 13.8269 21.0338 13.9232 20.7948 13.9246ZM22.6869 19.0295C22.8001 19.0295 22.9108 19.0631 23.0049 19.126C23.099 19.1889 23.1724 19.2783 23.2157 19.3828C23.259 19.4874 23.2703 19.6025 23.2483 19.7135C23.2262 19.8246 23.1717 19.9265 23.0916 20.0066C23.0116 20.0866 22.9096 20.1412 22.7986 20.1632C22.6875 20.1853 22.5725 20.174 22.4679 20.1307C22.3633 20.0874 22.2739 20.014 22.211 19.9199C22.1481 19.8258 22.1145 19.7151 22.1145 19.6019C22.1139 19.5266 22.1283 19.4519 22.1569 19.3822C22.1854 19.3124 22.2276 19.2491 22.2809 19.1958C22.3341 19.1426 22.3975 19.1004 22.4672 19.0719C22.5369 19.0433 22.6116 19.0289 22.6869 19.0295ZM21.1501 11.1556C20.9436 11.1587 20.7409 11.1003 20.5677 10.9879C20.3945 10.8755 20.2586 10.7141 20.1774 10.5242C20.0962 10.3343 20.0734 10.1246 20.1117 9.9217C20.1501 9.7188 20.2479 9.5319 20.3928 9.38478C20.5378 9.23766 20.7231 9.13697 20.9254 9.09554C21.1277 9.0541 21.3378 9.07379 21.5289 9.15209C21.7199 9.23039 21.8834 9.36377 21.9985 9.53525C22.1135 9.70673 22.1749 9.90856 22.1749 10.1151C22.1761 10.2507 22.1506 10.3853 22.0997 10.5111C22.0488 10.6368 21.9736 10.7513 21.8784 10.848C21.7832 10.9446 21.6699 11.0216 21.5449 11.0743C21.4199 11.1271 21.2858 11.1547 21.1501 11.1556ZM20.793 5.50632C21.0366 5.50273 21.2757 5.57165 21.48 5.70431C21.6844 5.83696 21.8446 6.02737 21.9405 6.25133C22.0363 6.47529 22.0634 6.72268 22.0183 6.96207C21.9732 7.20146 21.8579 7.42203 21.6872 7.59576C21.5164 7.76949 21.2978 7.88852 21.0592 7.93773C20.8207 7.98694 20.5728 7.96411 20.3473 7.87214C20.1217 7.78016 19.9286 7.6232 19.7924 7.42119C19.6563 7.21919 19.5833 6.98127 19.5826 6.73767C19.5812 6.57732 19.6113 6.41824 19.6714 6.26955C19.7314 6.12086 19.8202 5.98546 19.9326 5.87109C20.045 5.75673 20.1789 5.66565 20.3265 5.60306C20.4741 5.54047 20.6327 5.50759 20.793 5.50632ZM19.9826 14.5766H19.9853C20.1847 14.577 20.3758 14.6565 20.5166 14.7977C20.6574 14.9389 20.7364 15.1302 20.7363 15.3296C20.7361 15.529 20.6567 15.7202 20.5157 15.8611C20.3746 16.0021 20.1834 16.0812 19.984 16.0812C19.7846 16.0812 19.5933 16.0021 19.4522 15.8611C19.3112 15.7202 19.2318 15.529 19.2317 15.3296C19.2315 15.1302 19.3105 14.9389 19.4513 14.7977C19.5921 14.6565 19.7832 14.577 19.9826 14.5766ZM18.8668 16.4364C19.0381 16.4393 19.2013 16.5094 19.3214 16.6316C19.4415 16.7538 19.5087 16.9184 19.5086 17.0897C19.5085 17.261 19.441 17.4254 19.3208 17.5475C19.2006 17.6695 19.0372 17.7394 18.8659 17.7421H18.865C18.6937 17.7392 18.5304 17.6691 18.4104 17.5469C18.2903 17.4246 18.2231 17.2601 18.2232 17.0888C18.2233 16.9175 18.2907 16.7531 18.411 16.631C18.5312 16.509 18.6946 16.4391 18.8659 16.4364H18.8668ZM19.6378 19.5275C19.6366 19.6223 19.6074 19.7146 19.5539 19.7928C19.5003 19.871 19.4249 19.9316 19.337 19.9671C19.2491 20.0025 19.1526 20.0111 19.0598 19.9919C18.967 19.9727 18.882 19.9265 18.8154 19.859C18.7488 19.7916 18.7036 19.7059 18.6856 19.6129C18.6676 19.5199 18.6774 19.4236 18.714 19.3361C18.7505 19.2487 18.8121 19.174 18.891 19.1215C18.9699 19.0689 19.0625 19.0409 19.1573 19.0409C19.2855 19.0419 19.4081 19.0937 19.4981 19.1849C19.5882 19.2761 19.6384 19.3993 19.6378 19.5275ZM17.61 17.7658C17.7223 17.7645 17.8323 17.7967 17.9263 17.8582C18.0202 17.9197 18.0937 18.0077 18.1375 18.111C18.1814 18.2144 18.1934 18.3284 18.1723 18.4387C18.1511 18.5489 18.0977 18.6504 18.0188 18.7302C17.9398 18.81 17.8389 18.8646 17.7289 18.8869C17.6189 18.9093 17.5047 18.8984 17.4009 18.8558C17.2971 18.8131 17.2083 18.7405 17.1458 18.6472C17.0833 18.554 17.0499 18.4443 17.0499 18.332C17.0493 18.258 17.0633 18.1846 17.0911 18.116C17.119 18.0474 17.1601 17.985 17.2122 17.9324C17.2642 17.8797 17.3262 17.8379 17.3944 17.8093C17.4627 17.7807 17.536 17.7659 17.61 17.7658ZM17.0656 14.0673C17.0668 13.9597 17.0998 13.8549 17.1605 13.766C17.2211 13.6771 17.3067 13.6082 17.4064 13.5679C17.5062 13.5275 17.6156 13.5176 17.721 13.5393C17.8264 13.561 17.9229 13.6134 17.9986 13.6899C18.0742 13.7664 18.1256 13.8636 18.1461 13.9692C18.1667 14.0748 18.1555 14.1841 18.1141 14.2834C18.0726 14.3827 18.0027 14.4675 17.9132 14.5271C17.8236 14.5868 17.7185 14.6186 17.6109 14.6186C17.4656 14.6175 17.3266 14.5588 17.2244 14.4555C17.1222 14.3522 17.0652 14.2126 17.0656 14.0673ZM17.8332 12.6075C17.7379 12.6087 17.6444 12.5816 17.5646 12.5295C17.4847 12.4775 17.4222 12.4028 17.3849 12.3152C17.3476 12.2275 17.3372 12.1307 17.355 12.0371C17.3728 11.9434 17.4181 11.8572 17.4851 11.7894C17.552 11.7216 17.6376 11.6752 17.731 11.6562C17.8244 11.6372 17.9213 11.6463 18.0095 11.6825C18.0976 11.7187 18.173 11.7803 18.2261 11.8594C18.2792 11.9386 18.3075 12.0317 18.3075 12.127C18.3082 12.2536 18.2587 12.3753 18.1698 12.4654C18.0808 12.5555 17.9598 12.6066 17.8332 12.6075ZM18.0003 10.5727C17.9996 10.4659 18.0414 10.3632 18.1164 10.2873C18.1914 10.2113 18.2935 10.1682 18.4003 10.1675H18.4012C18.4541 10.168 18.5063 10.1788 18.555 10.1995C18.6036 10.2201 18.6478 10.2502 18.6848 10.2879C18.7219 10.3256 18.7511 10.3702 18.7709 10.4193C18.7908 10.4683 18.8007 10.5207 18.8002 10.5736V10.5745C18.8006 10.6273 18.7905 10.6797 18.7706 10.7287C18.7507 10.7777 18.7213 10.8223 18.6842 10.8599C18.647 10.8975 18.6029 10.9275 18.5541 10.948C18.5054 10.9686 18.4532 10.9793 18.4003 10.9796L18.4005 10.9796H18.3942L18.394 10.9796C18.3415 10.9787 18.2896 10.9676 18.2414 10.9468C18.1933 10.9259 18.1496 10.8958 18.1131 10.8581C18.0765 10.8204 18.0478 10.7759 18.0284 10.727C18.0091 10.6782 17.9995 10.6261 18.0003 10.5736V10.5727ZM17.4455 9.2188C17.5432 9.21757 17.6391 9.24543 17.7209 9.29883C17.8027 9.35223 17.8669 9.42876 17.9051 9.51869C17.9434 9.60862 17.954 9.70789 17.9357 9.80388C17.9174 9.89987 17.8709 9.98825 17.8023 10.0578C17.7336 10.1273 17.6458 10.1749 17.55 10.1944C17.4543 10.2139 17.3549 10.2045 17.2645 10.1674C17.1741 10.1303 17.0968 10.0671 17.0423 9.98593C16.9879 9.90476 16.9589 9.80924 16.9589 9.71152C16.9584 9.64719 16.9706 9.58341 16.9948 9.52382C17.019 9.46422 17.0548 9.40999 17.1 9.36422C17.1452 9.31846 17.1989 9.28205 17.2582 9.2571C17.3175 9.23214 17.3811 9.21913 17.4455 9.2188ZM17.0657 11.4014C17.066 11.5463 17.0088 11.6855 16.9065 11.7883C16.8043 11.891 16.6654 11.949 16.5204 11.9493H16.5177C16.4097 11.9491 16.3042 11.9168 16.2145 11.8567C16.1248 11.7965 16.055 11.7111 16.0138 11.6113C15.9726 11.5114 15.9619 11.4016 15.983 11.2957C16.0041 11.1898 16.0562 11.0925 16.1325 11.0162C16.2089 10.9398 16.3062 10.8878 16.4121 10.8666C16.518 10.8455 16.6278 10.8562 16.7276 10.8974C16.8275 10.9386 16.9128 11.0085 16.973 11.0982C17.0332 11.1879 17.0654 11.2934 17.0657 11.4014ZM12.2111 17.9294C12.3588 17.932 12.4997 17.9925 12.6033 18.0979C12.707 18.2033 12.765 18.3452 12.765 18.493C12.765 18.6408 12.707 18.7827 12.6033 18.8882C12.4997 18.9936 12.3588 19.0541 12.2111 19.0566V19.0565H12.2047C12.1318 19.0555 12.0597 19.0401 11.9927 19.0112C11.9257 18.9823 11.865 18.9405 11.8142 18.8882C11.7633 18.8359 11.7233 18.7741 11.6963 18.7062C11.6694 18.6384 11.656 18.566 11.6571 18.493V18.4902C11.6562 18.3424 11.714 18.2002 11.8179 18.0951C11.9218 17.9899 12.0632 17.9303 12.2111 17.9294ZM11.7078 16.9842C11.709 16.8895 11.7382 16.7972 11.7918 16.7189C11.8453 16.6407 11.9207 16.5801 12.0086 16.5447C12.0965 16.5092 12.193 16.5006 12.2858 16.5198C12.3786 16.539 12.4636 16.5853 12.5302 16.6527C12.5968 16.7201 12.642 16.8058 12.66 16.8988C12.6781 16.9919 12.6682 17.0882 12.6316 17.1756C12.5951 17.2631 12.5335 17.3377 12.4546 17.3903C12.3757 17.4428 12.2831 17.4708 12.1883 17.4708C12.0601 17.4698 11.9376 17.418 11.8475 17.3268C11.7574 17.2356 11.7072 17.1124 11.7078 16.9842ZM12.632 19.5485C12.762 19.5467 12.8896 19.5837 12.9986 19.6547C13.1076 19.7256 13.193 19.8274 13.2439 19.947C13.2949 20.0667 13.3091 20.1987 13.2848 20.3265C13.2605 20.4542 13.1988 20.5719 13.1075 20.6644C13.0161 20.757 12.8994 20.8203 12.7719 20.8463C12.6445 20.8723 12.5123 20.8599 12.392 20.8105C12.2717 20.7611 12.1688 20.6771 12.0963 20.5691C12.0239 20.4611 11.9853 20.334 11.9853 20.204C11.9846 20.1185 12.0008 20.0336 12.033 19.9544C12.0651 19.8751 12.1126 19.803 12.1727 19.7421C12.2328 19.6812 12.3042 19.6328 12.3831 19.5996C12.4619 19.5663 12.5465 19.549 12.632 19.5485ZM13.8389 14.2187L13.8335 14.2188C13.6342 14.2164 13.4439 14.135 13.3046 13.9923C13.1653 13.8497 13.0883 13.6576 13.0906 13.4582V13.4353C13.0974 13.2889 13.147 13.1476 13.2333 13.0292C13.3196 12.9107 13.4388 12.8201 13.5761 12.7687C13.7134 12.7173 13.8627 12.7074 14.0056 12.7401C14.1485 12.7728 14.2787 12.8468 14.3799 12.9528C14.4812 13.0588 14.5491 13.1922 14.5752 13.3364C14.6014 13.4807 14.5846 13.6294 14.527 13.7642C14.4694 13.899 14.3735 14.0139 14.2511 14.0947C14.1288 14.1755 13.9855 14.2186 13.8389 14.2187ZM14.5206 16.2141C14.5209 16.3633 14.4621 16.5065 14.3572 16.6126C14.2523 16.7186 14.1097 16.7789 13.9605 16.7803H13.9579C13.809 16.778 13.667 16.7171 13.5627 16.6109C13.4584 16.5047 13.4001 16.3617 13.4004 16.2128C13.4008 16.0639 13.4598 15.9211 13.5646 15.8154C13.6694 15.7097 13.8116 15.6495 13.9605 15.6478H13.965C14.1138 15.6493 14.2559 15.7097 14.3601 15.8159C14.4643 15.9221 14.522 16.0653 14.5206 16.2141ZM13.5623 21.3076C13.7607 21.3101 13.9501 21.3907 14.0895 21.5319C14.2289 21.6731 14.3071 21.8636 14.3071 22.062C14.3071 22.2604 14.2289 22.4508 14.0895 22.592C13.9501 22.7332 13.7607 22.8138 13.5623 22.8164H13.5597C13.3616 22.8131 13.1728 22.7319 13.034 22.5905C12.8952 22.4491 12.8176 22.2588 12.8179 22.0607C12.8183 21.8626 12.8965 21.6725 13.0358 21.5316C13.1751 21.3907 13.3642 21.3102 13.5623 21.3076ZM13.7451 17.9433C13.7449 17.8176 13.7819 17.6945 13.8516 17.5898C13.9213 17.4851 14.0204 17.4034 14.1365 17.355C14.2526 17.3067 14.3804 17.2938 14.5038 17.3181C14.6272 17.3424 14.7407 17.4027 14.8298 17.4915C14.9189 17.5802 14.9797 17.6934 15.0045 17.8167C15.0293 17.94 15.0169 18.0679 14.969 18.1842C14.9212 18.3005 14.8399 18.3999 14.7354 18.47C14.631 18.5401 14.5081 18.5777 14.3824 18.5779H14.3797C14.2115 18.5776 14.0503 18.5106 13.9314 18.3917C13.8125 18.2727 13.7455 18.1115 13.7451 17.9433ZM14.574 19.7882C14.5727 19.6895 14.591 19.5914 14.6278 19.4998C14.6647 19.4082 14.7195 19.3248 14.7889 19.2545C14.8583 19.1843 14.9409 19.1285 15.0321 19.0905C15.1232 19.0525 15.221 19.033 15.3198 19.0331C15.4186 19.0332 15.5163 19.053 15.6074 19.0912C15.6984 19.1295 15.7809 19.1855 15.8501 19.2559C15.9194 19.3264 15.9739 19.4099 16.0105 19.5016C16.0471 19.5933 16.0652 19.6914 16.0636 19.7901V19.792C16.0649 19.8907 16.0466 19.9888 16.0097 20.0804C15.9729 20.172 15.9181 20.2554 15.8487 20.3256C15.7793 20.3959 15.6966 20.4516 15.6055 20.4896C15.5144 20.5277 15.4166 20.5472 15.3178 20.547C15.219 20.5469 15.1213 20.5271 15.0303 20.4889C14.9392 20.4506 14.8567 20.3947 14.7875 20.3242C14.7183 20.2538 14.6637 20.1703 14.6271 20.0786C14.5905 19.9869 14.5724 19.8888 14.574 19.79V19.7882ZM15.9043 14.2257C15.7749 14.2269 15.6481 14.1896 15.5399 14.1186C15.4317 14.0476 15.3471 13.9461 15.2967 13.8269C15.2463 13.7077 15.2325 13.5763 15.257 13.4492C15.2815 13.3221 15.3432 13.2052 15.4343 13.1133C15.5254 13.0214 15.6417 12.9586 15.7685 12.9329C15.8953 12.9072 16.0269 12.9198 16.1466 12.969C16.2662 13.0182 16.3686 13.1019 16.4406 13.2094C16.5126 13.3169 16.551 13.4434 16.551 13.5728C16.5511 13.7449 16.4831 13.91 16.362 14.0323C16.2409 14.1546 16.0764 14.2241 15.9043 14.2257ZM16.1441 8.42589C16.2531 8.42589 16.3597 8.45823 16.4504 8.51881C16.5411 8.5794 16.6117 8.66551 16.6535 8.76626C16.6952 8.867 16.7061 8.97786 16.6849 9.08482C16.6636 9.19177 16.6111 9.29001 16.534 9.36712C16.4569 9.44423 16.3586 9.49675 16.2517 9.51802C16.1447 9.53929 16.0338 9.52837 15.9331 9.48664C15.8323 9.44491 15.7462 9.37424 15.6856 9.28357C15.6251 9.1929 15.5927 9.0863 15.5927 8.97725C15.5922 8.90469 15.6061 8.83275 15.6336 8.7656C15.6611 8.69846 15.7017 8.63746 15.753 8.58615C15.8043 8.53484 15.8653 8.49425 15.9324 8.46673C15.9996 8.43922 16.0715 8.42534 16.1441 8.42589ZM15.4746 10.9009C15.4755 11.0719 15.4086 11.2363 15.2885 11.358C15.1684 11.4797 15.0049 11.5489 14.834 11.5503H14.8322C14.7034 11.5517 14.5772 11.5147 14.4695 11.4442C14.3617 11.3737 14.2774 11.2728 14.2272 11.1542C14.177 11.0357 14.1631 10.9049 14.1874 10.7785C14.2116 10.652 14.2729 10.5357 14.3635 10.4441C14.454 10.3526 14.5697 10.2901 14.6959 10.2644C14.8221 10.2388 14.953 10.2513 15.0721 10.3002C15.1911 10.3492 15.293 10.4324 15.3646 10.5393C15.4363 10.6463 15.4746 10.7721 15.4746 10.9009ZM13.803 8.48103C13.8032 8.30701 13.8726 8.14018 13.9957 8.01725C14.1189 7.89432 14.2859 7.82533 14.4599 7.82544C14.6339 7.82556 14.8008 7.89478 14.9238 8.01787C15.0468 8.14097 15.1159 8.30788 15.1159 8.4819C15.1159 8.65593 15.0468 8.82284 14.9238 8.94593C14.8008 9.06903 14.6339 9.13824 14.4599 9.13836C14.2859 9.13848 14.1189 9.06949 13.9957 8.94656C13.8726 8.82363 13.8032 8.65682 13.803 8.48279V8.48103ZM13.5229 10.7924C13.5211 10.9405 13.4754 11.0847 13.3917 11.2069C13.3081 11.3292 13.1902 11.4239 13.0528 11.4793C12.9154 11.5347 12.7647 11.5482 12.6197 11.5181C12.4746 11.4881 12.3417 11.4158 12.2377 11.3104C12.1336 11.205 12.063 11.0712 12.0348 10.9258C12.0066 10.7804 12.022 10.6299 12.0792 10.4932C12.1363 10.3565 12.2325 10.2398 12.3558 10.1577C12.4791 10.0756 12.6239 10.0318 12.772 10.0318C12.8713 10.0324 12.9694 10.0526 13.0609 10.0912C13.1523 10.1297 13.2353 10.1859 13.305 10.2565C13.3748 10.3272 13.4299 10.4108 13.4673 10.5028C13.5047 10.5947 13.5236 10.6931 13.5229 10.7924ZM12.3852 7.60761C12.536 7.60569 12.684 7.64866 12.8104 7.73106C12.9367 7.81346 13.0357 7.93157 13.0948 8.07037C13.1538 8.20917 13.1703 8.3624 13.142 8.51058C13.1138 8.65875 13.0421 8.79518 12.9361 8.90252C12.8302 9.00986 12.6947 9.08326 12.5468 9.11339C12.399 9.14353 12.2456 9.12903 12.1061 9.07175C11.9665 9.01447 11.8472 8.91699 11.7632 8.7917C11.6792 8.66642 11.6343 8.51898 11.6343 8.36814C11.6337 8.26889 11.6526 8.17049 11.69 8.07856C11.7274 7.98662 11.7825 7.90295 11.8522 7.83233C11.922 7.7617 12.0049 7.70551 12.0964 7.66695C12.1878 7.62839 12.286 7.60823 12.3852 7.60761ZM12.3283 13.8809C12.3259 14.0545 12.2722 14.2235 12.174 14.3667C12.0758 14.5099 11.9375 14.6208 11.7764 14.6856C11.6153 14.7504 11.4387 14.7661 11.2687 14.7308C11.0987 14.6954 10.9429 14.6106 10.821 14.487C10.6991 14.3634 10.6164 14.2065 10.5834 14.036C10.5504 13.8655 10.5686 13.6891 10.6356 13.5289C10.7026 13.3687 10.8154 13.232 10.96 13.1357C11.1045 13.0395 11.2743 12.9882 11.4479 12.9882C11.5643 12.989 11.6794 13.0127 11.7867 13.058C11.894 13.1033 11.9912 13.1693 12.073 13.2522C12.1547 13.3351 12.2194 13.4333 12.2632 13.5411C12.307 13.649 12.3291 13.7644 12.3283 13.8809ZM10.5736 17.6914C10.4923 17.6926 10.4125 17.6696 10.3444 17.6254C10.2762 17.5811 10.2227 17.5176 10.1908 17.4428C10.1588 17.3681 10.1498 17.2855 10.1649 17.2057C10.18 17.1258 10.2186 17.0522 10.2756 16.9943C10.3326 16.9364 10.4056 16.8968 10.4852 16.8805C10.5649 16.8642 10.6475 16.8719 10.7228 16.9028C10.798 16.9336 10.8623 16.9861 10.9076 17.0536C10.9529 17.1211 10.9771 17.2005 10.9771 17.2818C10.9775 17.3352 10.9675 17.3882 10.9474 17.4377C10.9274 17.4872 10.8978 17.5322 10.8603 17.5703C10.8228 17.6083 10.7782 17.6386 10.729 17.6594C10.6798 17.6802 10.627 17.691 10.5736 17.6914ZM10.7871 18.5263C10.7985 18.666 10.7538 18.8045 10.6631 18.9113C10.5723 19.018 10.4428 19.0844 10.3031 19.0957C10.1635 19.107 10.025 19.0624 9.91822 18.9716C9.81144 18.8809 9.74508 18.7514 9.73376 18.6117C9.72243 18.472 9.76706 18.3336 9.85782 18.2268C9.94859 18.12 10.078 18.0537 10.2177 18.0423C10.3574 18.031 10.4959 18.0756 10.6027 18.1664C10.7095 18.2571 10.7758 18.3867 10.7871 18.5263ZM11.2519 11.2116C11.2495 11.3847 11.1959 11.5532 11.098 11.6959C11.0001 11.8387 10.8622 11.9493 10.7016 12.0139C10.5409 12.0785 10.3648 12.0941 10.1953 12.0589C10.0258 12.0237 9.87056 11.9391 9.74901 11.8158C9.62745 11.6926 9.54505 11.5361 9.51216 11.3662C9.47927 11.1962 9.49737 11.0203 9.56417 10.8606C9.63097 10.7009 9.74349 10.5645 9.8876 10.4686C10.0317 10.3727 10.2009 10.3215 10.3741 10.3215C10.6085 10.3232 10.8326 10.418 10.9972 10.5849C11.1618 10.7518 11.2534 10.9772 11.2519 11.2116ZM9.99511 7.92705C10.1661 7.9246 10.334 7.97308 10.4774 8.06631C10.6208 8.15955 10.7332 8.29333 10.8004 8.45064C10.8675 8.60794 10.8864 8.78167 10.8545 8.94972C10.8226 9.11776 10.7415 9.27253 10.6214 9.39433C10.5013 9.51614 10.3477 9.59948 10.1802 9.63375C10.0126 9.66801 9.83863 9.65166 9.68037 9.58678C9.52212 9.52189 9.38675 9.41139 9.29147 9.26935C9.19619 9.12731 9.14531 8.96013 9.14531 8.78909C9.14374 8.5621 9.23238 8.34378 9.39173 8.18213C9.55109 8.02047 9.76812 7.92872 9.99511 7.92705ZM6.08482 18.2209C5.84355 18.224 5.60679 18.1553 5.40464 18.0236C5.2025 17.8918 5.0441 17.7029 4.94958 17.4809C4.85507 17.2589 4.82871 17.0138 4.87386 16.7767C4.919 16.5397 5.03361 16.3215 5.20312 16.1497C5.37262 15.978 5.58937 15.8605 5.82579 15.8123C6.06222 15.7641 6.30765 15.7873 6.53087 15.8789C6.7541 15.9705 6.94504 16.1264 7.07943 16.3268C7.21381 16.5272 7.28556 16.7631 7.28556 17.0044C7.28748 17.3249 7.16209 17.633 6.93695 17.8611C6.7118 18.0892 6.40531 18.2186 6.08482 18.2209ZM7.74144 13.3706C7.46896 13.3678 7.20876 13.2569 7.01807 13.0622C6.82737 12.8676 6.7218 12.6052 6.72458 12.3327V12.3307C6.72805 12.1293 6.79094 11.9334 6.90537 11.7676C7.0198 11.6018 7.18066 11.4735 7.36775 11.3988C7.55485 11.3241 7.75984 11.3064 7.95698 11.3478C8.15413 11.3892 8.33464 11.488 8.47586 11.6316C8.61707 11.7753 8.7127 11.9575 8.75072 12.1553C8.78875 12.3531 8.76749 12.5578 8.6896 12.7436C8.61171 12.9294 8.48067 13.088 8.31293 13.1996C8.14519 13.3111 7.94823 13.3706 7.74678 13.3706H7.74144ZM8.81012 16.0487C8.67402 16.0477 8.53944 16.0199 8.41408 15.9669C8.28872 15.9139 8.17504 15.8367 8.07954 15.7398C7.98403 15.6428 7.90858 15.528 7.85749 15.4018C7.8064 15.2757 7.78068 15.1407 7.78179 15.0046V15.0028C7.78523 14.8001 7.84847 14.603 7.96355 14.4362C8.07864 14.2694 8.24045 14.1403 8.42866 14.0651C8.61687 13.9899 8.8231 13.9721 9.02144 14.0137C9.21978 14.0553 9.4014 14.1547 9.54348 14.2992C9.68557 14.4437 9.78179 14.627 9.82006 14.826C9.85834 15.025 9.83696 15.2309 9.75861 15.4178C9.68026 15.6047 9.54843 15.7643 9.37968 15.8766C9.21093 15.9888 9.01279 16.0487 8.81012 16.0487ZM9.77456 20.0342C9.77577 19.9249 9.80928 19.8184 9.87089 19.7281C9.93249 19.6378 10.0194 19.5677 10.1208 19.5267C10.2221 19.4857 10.3333 19.4756 10.4404 19.4977C10.5474 19.5198 10.6456 19.573 10.7225 19.6507C10.7993 19.7284 10.8515 19.8272 10.8724 19.9345C10.8932 20.0418 10.8819 20.1529 10.8398 20.2537C10.7977 20.3546 10.7267 20.4408 10.6357 20.5014C10.5447 20.562 10.4379 20.5943 10.3285 20.5943C10.181 20.5931 10.0399 20.5334 9.93606 20.4285C9.83226 20.3236 9.77421 20.1818 9.77456 20.0342ZM10.7591 22.4007C10.6744 22.4001 10.5906 22.3829 10.5126 22.3499C10.4346 22.317 10.3638 22.269 10.3043 22.2087C10.2448 22.1484 10.1978 22.0769 10.1659 21.9985C10.134 21.92 10.1179 21.836 10.1185 21.7513V21.7495C10.118 21.665 10.1343 21.5811 10.1662 21.5028C10.1981 21.4245 10.2452 21.3532 10.3047 21.2931C10.3642 21.2329 10.4349 21.1851 10.5129 21.1523C10.5909 21.1195 10.6745 21.1024 10.7591 21.1019H10.7627C10.9333 21.1036 11.0963 21.1729 11.2157 21.2947C11.3352 21.4165 11.4014 21.5807 11.3998 21.7513V21.7531C11.4007 21.9239 11.3337 22.0881 11.2136 22.2096C11.0934 22.331 10.9299 22.3998 10.7591 22.4007ZM11.6798 24.3637C11.5302 24.3656 11.3834 24.323 11.258 24.2413C11.1327 24.1596 11.0345 24.0424 10.9759 23.9047C10.9173 23.767 10.901 23.6151 10.929 23.4681C10.957 23.3211 11.0281 23.1857 11.1332 23.0793C11.2383 22.9728 11.3728 22.9 11.5194 22.8701C11.666 22.8402 11.8182 22.8545 11.9566 22.9113C12.095 22.9682 12.2134 23.0649 12.2968 23.1891C12.3801 23.3134 12.4246 23.4597 12.4246 23.6093C12.4246 23.8077 12.3464 23.9981 12.207 24.1393C12.0676 24.2805 11.8782 24.3612 11.6798 24.3637ZM13.2438 26.3687C13.0684 26.3712 12.8963 26.3214 12.7493 26.2258C12.6023 26.1301 12.4871 25.9929 12.4183 25.8316C12.3495 25.6703 12.3302 25.4922 12.3629 25.3199C12.3956 25.1476 12.4788 24.989 12.602 24.8641C12.7251 24.7392 12.8826 24.6538 13.0544 24.6187C13.2262 24.5836 13.4046 24.6004 13.5669 24.6669C13.7291 24.7334 13.8679 24.8467 13.9656 24.9924C14.0633 25.138 14.1154 25.3094 14.1154 25.4848C14.1166 25.7175 14.0256 25.9411 13.8622 26.1068C13.6988 26.2725 13.4764 26.3667 13.2438 26.3687ZM15.1228 24.8284H15.1174C14.8851 24.8277 14.6625 24.7348 14.4985 24.5701C14.3346 24.4055 14.2427 24.1824 14.2431 23.9501C14.2434 23.7177 14.336 23.495 14.5004 23.3308C14.6648 23.1666 14.8877 23.0744 15.1201 23.0744C15.3525 23.0744 15.5753 23.1666 15.7398 23.3308C15.9042 23.495 15.9968 23.7177 15.9971 23.9501C15.9975 24.1824 15.9056 24.4055 15.7417 24.5701C15.5777 24.7348 15.3551 24.8277 15.1228 24.8284ZM15.9883 21.6682C15.9867 21.4337 16.0783 21.2082 16.2429 21.0413C16.4075 20.8744 16.6317 20.7797 16.8661 20.7781C17.1005 20.7797 17.3248 20.8744 17.4894 21.0413C17.654 21.2083 17.7455 21.4337 17.7439 21.6682C17.7455 21.7845 17.724 21.9 17.6806 22.0079C17.6372 22.1158 17.5728 22.214 17.4911 22.2968C17.4095 22.3796 17.3121 22.4454 17.2048 22.4903C17.0975 22.5351 16.9824 22.5583 16.8661 22.5583C16.7498 22.5582 16.6346 22.5351 16.5273 22.4902C16.42 22.4454 16.3227 22.3796 16.241 22.2968C16.1594 22.214 16.095 22.1158 16.0516 22.0078C16.0082 21.8999 15.9867 21.7845 15.9883 21.6682ZM17.3921 26.6847H17.392C17.1234 26.6847 16.8658 26.5779 16.6759 26.388C16.486 26.1981 16.3793 25.9405 16.3793 25.6719C16.3793 25.4033 16.486 25.1457 16.6759 24.9558C16.8659 24.7659 17.1235 24.6592 17.392 24.6592C17.6606 24.6592 17.9182 24.7659 18.1082 24.9558C18.2981 25.1457 18.4048 25.4033 18.4048 25.6719C18.4048 25.9405 18.2981 26.1981 18.1082 26.388C17.9183 26.5779 17.6607 26.6847 17.3921 26.6847ZM19.1398 24.4451C18.9377 24.4481 18.7393 24.3909 18.5697 24.2807C18.4002 24.1706 18.2673 24.0125 18.1879 23.8266C18.1085 23.6408 18.0862 23.4354 18.1238 23.2368C18.1614 23.0382 18.2572 22.8553 18.3991 22.7113C18.541 22.5673 18.7225 22.4688 18.9205 22.4283C19.1186 22.3877 19.3242 22.407 19.5112 22.4837C19.6983 22.5604 19.8583 22.6909 19.9709 22.8588C20.0835 23.0267 20.1436 23.2243 20.1436 23.4264C20.1447 23.5592 20.1195 23.6909 20.0696 23.814C20.0197 23.9371 19.946 24.0491 19.8528 24.1437C19.7596 24.2383 19.6486 24.3137 19.5263 24.3654C19.404 24.4171 19.2726 24.4442 19.1398 24.4451ZM20.6154 20.7835C20.616 20.8912 20.5739 20.9948 20.4982 21.0714C20.4226 21.148 20.3196 21.1914 20.2119 21.1921L20.2039 21.192C20.0972 21.1901 19.9956 21.1459 19.9214 21.0691C19.8472 20.9923 19.8066 20.8892 19.8084 20.7825V20.7814C19.8078 20.728 19.8177 20.6749 19.8377 20.6253C19.8578 20.5758 19.8874 20.5307 19.925 20.4927C19.9626 20.4547 20.0074 20.4245 20.0567 20.4039C20.106 20.3834 20.159 20.3728 20.2124 20.3729C20.2659 20.373 20.3188 20.3837 20.3681 20.4043C20.4174 20.425 20.4621 20.4553 20.4996 20.4934C20.537 20.5315 20.5666 20.5767 20.5865 20.6263C20.6063 20.676 20.6162 20.729 20.6154 20.7825V20.7835ZM20.4307 19.2912H20.4245C20.2759 19.2879 20.1346 19.2264 20.031 19.1199C19.9274 19.0134 19.8698 18.8705 19.8706 18.7219C19.8714 18.5733 19.9306 18.431 20.0354 18.3257C20.1401 18.2203 20.2821 18.1604 20.4307 18.1587H20.4352C20.5839 18.1615 20.7255 18.2227 20.8295 18.3291C20.9334 18.4354 20.9914 18.5784 20.9908 18.7272C20.9902 18.8759 20.9311 19.0184 20.8263 19.124C20.7215 19.2295 20.5794 19.2896 20.4307 19.2912ZM21.4161 19.9318C21.5059 19.9306 21.594 19.9561 21.6692 20.0051C21.7444 20.054 21.8034 20.1243 21.8386 20.2069C21.8738 20.2894 21.8836 20.3806 21.8668 20.4688C21.8501 20.557 21.8075 20.6382 21.7444 20.7021C21.6814 20.766 21.6008 20.8097 21.5128 20.8276C21.4249 20.8456 21.3336 20.837 21.2506 20.8029C21.1675 20.7689 21.0965 20.7109 21.0465 20.6363C20.9965 20.5618 20.9698 20.474 20.9698 20.3843C20.9691 20.2651 21.0157 20.1506 21.0994 20.0657C21.1831 19.9809 21.297 19.9327 21.4161 19.9318ZM22.1985 25.9924C21.9559 25.9961 21.7177 25.9275 21.5142 25.7954C21.3107 25.6633 21.1511 25.4736 21.0557 25.2505C20.9603 25.0274 20.9335 24.781 20.9786 24.5426C21.0236 24.3042 21.1386 24.0846 21.3089 23.9117C21.4791 23.7389 21.697 23.6206 21.9347 23.5719C22.1724 23.5232 22.4192 23.5463 22.6437 23.6383C22.8682 23.7303 23.0603 23.8871 23.1954 24.0885C23.3306 24.29 23.4028 24.5272 23.4028 24.7698C23.4051 25.0916 23.2796 25.4011 23.0538 25.6304C22.828 25.8597 22.5203 25.9899 22.1985 25.9924ZM23.9375 19.0129C23.8099 19.0146 23.6847 18.9784 23.5777 18.9088C23.4708 18.8391 23.387 18.7393 23.3369 18.6219C23.2869 18.5045 23.2729 18.3749 23.2967 18.2495C23.3205 18.1242 23.3811 18.0087 23.4707 17.9179C23.5603 17.827 23.6749 17.7649 23.8 17.7393C23.925 17.7138 24.0548 17.726 24.1729 17.7744C24.2909 17.8229 24.3919 17.9053 24.463 18.0113C24.5341 18.1173 24.572 18.242 24.572 18.3696C24.573 18.539 24.5067 18.7018 24.3878 18.8224C24.2688 18.943 24.1069 19.0115 23.9375 19.0129ZM25.0472 17.3641H25.0436C24.8442 17.3636 24.653 17.2839 24.5122 17.1426C24.3714 17.0013 24.2924 16.8099 24.2927 16.6104C24.2929 16.4109 24.3723 16.2197 24.5135 16.0787C24.6546 15.9377 24.846 15.8585 25.0454 15.8585C25.2449 15.8585 25.4363 15.9377 25.5774 16.0787C25.7186 16.2197 25.798 16.4109 25.7982 16.6104C25.7984 16.8099 25.7195 17.0013 25.5787 17.1426C25.4379 17.2839 25.2467 17.3636 25.0472 17.3641ZM25.8787 15.1796C25.6436 15.1778 25.4188 15.0828 25.2537 14.9155C25.0886 14.7481 24.9968 14.522 24.9982 14.2869C25.0006 14.1133 25.0543 13.9443 25.1525 13.8011C25.2507 13.6579 25.3891 13.5469 25.5502 13.4822C25.7113 13.4174 25.8879 13.4017 26.0579 13.437C26.2279 13.4724 26.3837 13.5572 26.5056 13.6808C26.6275 13.8045 26.7101 13.9614 26.7431 14.1318C26.7761 14.3023 26.758 14.4787 26.691 14.6389C26.624 14.7991 26.5111 14.9359 26.3666 15.0321C26.222 15.1283 26.0523 15.1796 25.8787 15.1796Z" fill="#26283E"/>
</svg>
