<svg width="32" height="32" viewBox="0 0 32 32" fill="none" xmlns="http://www.w3.org/2000/svg">
<path d="M16.9481 30.1038C24.5517 30.1038 30.7156 23.9399 30.7156 16.3364C30.7156 8.73284 24.5517 2.56894 16.9481 2.56894C9.34455 2.56894 3.18065 8.73284 3.18065 16.3364C3.18065 23.9399 9.34455 30.1038 16.9481 30.1038Z" fill="#31CB9E"/>
<path d="M16 -0.000762939C7.163 -0.000762939 -0.000785828 7.16302 -0.000785828 16C-0.000785828 24.837 7.163 32.0008 16 32.0008C24.837 32.0008 32.0008 24.837 32.0008 16C32.0008 7.16302 24.837 -0.000762939 16 -0.000762939ZM16.5354 5.99554C16.5535 5.92934 16.5876 5.8686 16.6347 5.81869C16.6818 5.76878 16.7405 5.73122 16.8055 5.70934C16.8706 5.68745 16.94 5.68191 17.0077 5.69319C17.0754 5.70448 17.1393 5.73225 17.1938 5.77405L22.4516 9.6413C22.5061 9.67973 22.5497 9.73155 22.5783 9.79176C22.6069 9.85197 22.6195 9.91853 22.6148 9.98502C22.6102 10.0515 22.5885 10.1157 22.5518 10.1713C22.5151 10.227 22.4647 10.2722 22.4054 10.3027L14.6156 14.6099L16.5354 5.99554ZM14.8355 25.5021C14.8059 25.545 14.7681 25.5815 14.7243 25.6098C14.6804 25.638 14.6315 25.6573 14.5802 25.6667C14.5289 25.676 14.4763 25.6751 14.4254 25.6641C14.3745 25.6531 14.3262 25.6322 14.2833 25.6025L9.18546 21.686C9.05408 21.5853 8.94809 21.4552 8.87598 21.3061C8.80386 21.1571 8.7676 20.9932 8.77012 20.8277V10.8596C8.76951 10.6961 8.80668 10.5347 8.87873 10.388C8.95077 10.2412 9.05575 10.1131 9.18546 10.0135L14.3079 6.08478C14.3729 6.03981 14.4498 6.01525 14.5287 6.01424C14.6077 6.01322 14.6852 6.0358 14.7513 6.07908C14.8174 6.12236 14.869 6.18437 14.8997 6.25718C14.9303 6.33 14.9385 6.41029 14.9233 6.48779L12.9235 15.8405L14.8986 25.1995C14.9089 25.2516 14.9086 25.3052 14.8978 25.3572C14.8869 25.4092 14.8658 25.4584 14.8355 25.5021ZM22.4516 22.3567L17.1876 26.2239V26.2301C17.1324 26.2712 17.0679 26.298 16.9999 26.308C16.9318 26.318 16.8623 26.3109 16.7976 26.2874C16.733 26.264 16.6752 26.2248 16.6294 26.1734C16.5836 26.1221 16.5513 26.0602 16.5354 25.9932L14.6156 17.3788L22.4085 21.686C22.4682 21.7174 22.5189 21.7637 22.5556 21.8203C22.5923 21.8769 22.6138 21.942 22.6181 22.0093C22.6225 22.0766 22.6094 22.1439 22.5803 22.2048C22.5511 22.2656 22.5068 22.3179 22.4516 22.3567ZM23.23 20.0555C23.2304 20.1276 23.2117 20.1985 23.1757 20.261C23.1397 20.3235 23.0876 20.3752 23.025 20.4109C22.9623 20.4467 22.8913 20.465 22.8192 20.4642C22.7471 20.4634 22.6765 20.4433 22.6147 20.4062L14.9233 16.0005L22.6147 11.5918C22.6761 11.5538 22.7466 11.5329 22.8188 11.5315C22.891 11.53 22.9623 11.548 23.0252 11.5835C23.0881 11.619 23.1403 11.6708 23.1763 11.7335C23.2123 11.7961 23.2309 11.8672 23.23 11.9395L23.23 20.0555Z" fill="#D0FFF1"/>
</svg>
