<svg width="32" height="32" viewBox="0 0 32 32" fill="none" xmlns="http://www.w3.org/2000/svg">
<path d="M16.561 30.333C24.1646 30.333 30.3285 24.1691 30.3285 16.5656C30.3285 8.96204 24.1646 2.79814 16.561 2.79814C8.95745 2.79814 2.79356 8.96204 2.79356 16.5656C2.79356 24.1691 8.95745 30.333 16.561 30.333Z" fill="#2A5ADA"/>
<path d="M11.3879 13.3343V18.6657L16 21.3314L20.6121 18.6657V13.3343L16 10.6686L11.3879 13.3343Z" fill="#B6C9FA"/>
<path d="M16 0C7.16345 0 0 7.16345 0 16C0 24.8365 7.16345 32 16 32C24.8365 32 32 24.8365 32 16C32 7.16345 24.8365 0 16 0ZM23.9971 20.6121L22.3046 21.5853L17.7348 24.2509L16.0423 25.2242L14.3498 24.2509L9.69544 21.5853L8.00293 20.6121V11.3879L9.69544 10.4147L14.3075 7.74905L16 6.77585L17.6925 7.74905L22.3046 10.4147L23.9971 11.3879V20.6121Z" fill="#B6C9FA"/>
</svg>
