<svg width="32" height="32" viewBox="0 0 32 32" fill="none" xmlns="http://www.w3.org/2000/svg">
<path d="M15.7675 29.5349C23.371 29.5349 29.5349 23.371 29.5349 15.7675C29.5349 8.1639 23.371 2 15.7675 2C8.1639 2 2 8.1639 2 15.7675C2 23.371 8.1639 29.5349 15.7675 29.5349Z" fill="#54B0A1"/>
<path d="M16 0C7.16344 0 0 7.16345 0 16C0 24.8365 7.16344 32 16 32C24.8366 32 32 24.8365 32 16C32 7.16345 24.8366 0 16 0ZM15.2933 20.8H13.8357V17.5675L8.1248 13.2693V20.8H6.66666V12.0533C6.6674 11.8955 6.71188 11.741 6.79515 11.607C6.87842 11.473 6.99723 11.3646 7.13837 11.2941C7.27951 11.2235 7.43745 11.1934 7.59464 11.2073C7.75183 11.2211 7.90212 11.2782 8.0288 11.3723L14.9547 16.5867C15.0596 16.6657 15.1448 16.768 15.2036 16.8855C15.2623 17.0031 15.2931 17.1326 15.2933 17.264V20.8ZM25.3771 20.8H23.9189V13.2693L18.208 17.5675V20.8H16.7504V17.264C16.7507 17.1326 16.7814 17.0031 16.8401 16.8855C16.8989 16.768 16.9841 16.6657 17.0891 16.5867L24.0149 11.3744C24.1415 11.2804 24.2916 11.2233 24.4486 11.2094C24.6056 11.1955 24.7634 11.2254 24.9044 11.2957C25.0455 11.366 25.1643 11.474 25.2478 11.6078C25.3312 11.7415 25.3759 11.8957 25.3771 12.0533L25.3771 20.8Z" fill="#B8E6DD"/>
</svg>
