<svg width="32" height="32" viewBox="0 0 32 32" fill="none" xmlns="http://www.w3.org/2000/svg">
<path d="M16 32C24.8366 32 32 24.8366 32 16C32 7.16344 24.8366 0 16 0C7.16344 0 0 7.16344 0 16C0 24.8366 7.16344 32 16 32Z" fill="#2E3440"/>
<path d="M20.0607 9.84766C15.8682 6.88829 11.4291 6.14842 10.1138 8.03913L6.36127 13.5668C5.41584 15.1741 7.41104 19.4542 11.6757 22.2607C15.9233 25.0558 20.3073 25.9599 21.6226 24.0692L25.404 18.4792C25.6296 18.1334 25.7342 17.7177 25.7328 17.254V17.1946C25.6855 15.1244 23.52 12.1096 20.0607 9.84766ZM9.94938 11.3274C9.93358 11.2506 9.92785 11.1845 9.98955 11.1481C10.0946 11.086 10.1623 11.1683 10.196 11.2452C10.431 11.7512 10.7046 12.2384 11.0146 12.7022C12.0245 14.2271 13.5277 15.7547 15.4572 16.9995C15.4882 17.0277 15.5073 17.0666 15.5104 17.1084C15.5136 17.1502 15.5006 17.1916 15.4741 17.2241C15.3946 17.3125 15.3065 17.3007 15.2106 17.2462C13.2564 15.9434 11.6731 14.2795 10.646 12.6222C10.3841 12.2073 10.1513 11.7746 9.94938 11.3274ZM20.0607 19.5479C20.0435 19.544 20.0274 19.5364 20.0136 19.5255C19.9998 19.5147 19.9885 19.5009 19.9806 19.4852C19.9727 19.4694 19.9685 19.4521 19.9681 19.4346C19.9677 19.417 19.9713 19.3995 19.9785 19.3835C20.0098 19.2845 20.0908 19.3002 20.1429 19.3013C20.2958 19.3523 20.9455 19.5414 20.9649 19.5479C20.9822 19.5516 20.9984 19.5591 21.0124 19.5699C21.0264 19.5807 21.0378 19.5945 21.0457 19.6103C21.0536 19.6261 21.0578 19.6435 21.058 19.6611C21.0583 19.6788 21.0546 19.6963 21.0471 19.7123C21.0348 19.7439 21.0111 19.7698 20.9807 19.785C20.9504 19.8002 20.9155 19.8036 20.8827 19.7945C20.8792 19.7933 20.2618 19.6149 20.0607 19.5479ZM23.5955 20.0412C23.0201 20.1233 22.2802 20.0412 21.6226 19.9589C21.5398 19.9374 21.4492 19.8954 21.4577 19.7833C21.4571 19.7621 21.461 19.7409 21.4693 19.7212C21.4775 19.7015 21.4898 19.6839 21.5054 19.6694C21.521 19.6549 21.5395 19.6438 21.5597 19.6371C21.5799 19.6303 21.6014 19.6279 21.6226 19.6301C22.2802 19.7123 22.8779 19.8116 23.5355 19.7294C23.7096 19.7037 23.7599 19.7945 23.7599 19.8767C23.7602 19.8984 23.7561 19.9199 23.7479 19.9399C23.7397 19.96 23.7276 19.9782 23.7123 19.9935C23.697 20.0088 23.6788 20.0209 23.6587 20.0291C23.6387 20.0373 23.6172 20.0414 23.5955 20.0412ZM24.8286 18.1504C24.2554 18.9691 22.9683 19.1755 21.3439 18.8422C20.8334 18.7334 20.3313 18.5886 19.8412 18.409C18.5597 17.9486 17.1635 17.2269 15.786 16.2597C14.3178 15.2503 13.0785 14.1387 12.1587 13.0558C10.6065 11.2282 9.96659 9.48255 10.6892 8.45016C10.6922 8.446 10.6963 8.44299 10.6993 8.43887C11.8617 6.81132 15.8779 7.63493 19.7318 10.3409C22.1374 12.0299 23.9364 14.0055 24.6945 15.653C25.1429 16.6275 25.2231 17.4849 24.8521 18.1024C24.8429 18.1177 24.8383 18.1354 24.8286 18.1504Z" fill="white"/>
<path d="M18.7454 11.8206C16.812 10.5316 14.887 10.1188 14.2687 10.8761C14.2561 10.8916 14.2356 10.8999 14.2241 10.9163C13.6486 11.7384 14.7995 13.4647 16.6902 14.78C18.6632 16.0953 20.6361 16.5063 21.2115 15.6842C21.2226 15.6685 21.2228 15.6473 21.2325 15.6309C21.7324 14.7911 20.5999 13.1107 18.7454 11.8206Z" fill="white"/>
<path d="M10.5312 8.42188L25.0625 18.3438L21.4688 23.6562L6.9375 13.6562L10.5312 8.42188Z" fill="url(#paint0_linear_564_16042)"/>
<path d="M25.0625 18.3438C23.8125 20.1406 19.5937 19.4375 15.6094 16.625C11.5469 13.8906 9.35937 10.2187 10.5312 8.42187C11.7812 6.625 16 7.32812 19.9844 10.1406C24.0469 12.7969 26.2344 16.5469 25.0625 18.3438Z" fill="url(#paint1_linear_564_16042)"/>
<path d="M21.4687 23.5781C20.2187 25.375 16 24.6719 12.0156 21.8594C8.03124 19.0469 5.76562 15.4531 7.01562 13.5781C8.26562 11.7812 12.4844 12.4844 16.4687 15.2969C20.4531 18.1094 22.6406 21.7812 21.4687 23.5781Z" fill="url(#paint2_linear_564_16042)"/>
<path d="M25.0625 18.3438L21.4688 23.6563C20.2188 25.4531 16 24.6719 12.0156 21.9375C11.2344 21.3906 10.6154 20.7854 9.91231 20.1604C10.4592 20.0822 11.0781 19.8281 11.7813 19.0469C13.0313 17.7188 13.6563 17.4063 14.2031 17.4844C14.75 17.4844 15.375 18.0313 16.3906 19.3594C17.4063 20.6875 18.8125 21.0781 19.6719 20.375C19.75 20.2969 19.8281 20.2969 19.9063 20.2188C20.6094 19.6719 20.8438 19.4375 22.1719 16.9375C22.4844 16.3125 23.5781 15.2969 25.0625 15.7656C25.4531 16.7813 25.4531 17.6406 25.0625 18.3438Z" fill="#0E0F23"/>
<path fill-rule="evenodd" clip-rule="evenodd" d="M24.5156 18.0312C23.4219 19.5938 19.5937 18.8125 15.9219 16.2344C12.1719 13.6562 9.98437 10.375 11.0781 8.8125C12.1719 7.25 16 8.03125 19.6719 10.6094C23.3437 13.1875 25.5312 16.4688 24.5156 18.0312ZM21.0781 15.6875C20.5312 16.4688 18.6562 16.0781 16.7812 14.8281C14.9844 13.5781 13.8906 11.9375 14.4375 11.1562C14.9844 10.375 16.8594 10.7656 18.7344 12.0156C20.5312 13.2656 21.625 14.9062 21.0781 15.6875Z" fill="white"/>
<path d="M10.2188 10.2188C10.2188 10.1406 10.1406 10.0625 10.0625 10.1406C9.98438 10.2188 9.90625 10.2188 9.90625 10.2969C9.98438 10.5313 10.0625 10.6875 10.0625 10.8438C10.0625 10.9219 10.1406 11 10.2188 10.9219C10.2969 10.9219 10.375 10.8438 10.2969 10.7656C10.3043 10.5801 10.2779 10.3948 10.2188 10.2188Z" fill="white"/>
<path d="M10.6094 11.4688C10.6094 11.3906 10.5312 11.3125 10.4531 11.3906C10.375 11.4688 10.375 11.4688 10.375 11.5469C11.2344 13.5 13.0312 15.6094 15.375 17.1719C15.4531 17.25 15.5312 17.1719 15.6094 17.1719C15.6875 17.0938 15.6094 17.0156 15.6094 16.9375C13.1875 15.375 11.4688 13.3438 10.6094 11.4688Z" fill="white"/>
<path d="M20.0625 19.125C19.9844 19.125 19.9062 19.125 19.9062 19.2031C19.9062 19.2812 19.9062 19.3594 19.9844 19.3594C20.2188 19.4375 20.5312 19.5156 20.7656 19.5938C20.8438 19.5938 20.9219 19.5938 20.9219 19.5156C20.9219 19.4375 20.9219 19.3594 20.8438 19.3594C20.6094 19.2812 20.2969 19.2031 20.0625 19.125Z" fill="white"/>
<path d="M21.4688 19.4375C21.4273 19.4375 21.3876 19.454 21.3583 19.4833C21.329 19.5126 21.3125 19.5523 21.3125 19.5938C21.3125 19.6352 21.329 19.6749 21.3583 19.7042C21.3876 19.7335 21.4273 19.75 21.4688 19.75C22.0938 19.8281 22.7969 19.9062 23.3438 19.8281C23.3852 19.8281 23.4249 19.8117 23.4542 19.7824C23.4835 19.7531 23.5 19.7133 23.5 19.6719C23.5 19.6304 23.4835 19.5907 23.4542 19.5614C23.4249 19.5321 23.3852 19.5156 23.3438 19.5156C22.7188 19.5938 22.0938 19.5156 21.4688 19.4375Z" fill="white"/>
<defs>
<linearGradient id="paint0_linear_564_16042" x1="13.382" y1="7.01011" x2="16.2637" y2="16.9056" gradientUnits="userSpaceOnUse">
<stop stop-color="#03B8FF"/>
<stop offset="1" stop-color="#FA52A0"/>
</linearGradient>
<linearGradient id="paint1_linear_564_16042" x1="15.743" y1="6.32245" x2="18.6248" y2="16.218" gradientUnits="userSpaceOnUse">
<stop stop-color="#03B8FF"/>
<stop offset="1" stop-color="#FA52A0"/>
</linearGradient>
<linearGradient id="paint2_linear_564_16042" x1="11.0488" y1="7.6895" x2="13.9306" y2="17.5851" gradientUnits="userSpaceOnUse">
<stop stop-color="#03B8FF"/>
<stop offset="1" stop-color="#FA52A0"/>
</linearGradient>
</defs>
</svg>
