<svg width="32" height="32" viewBox="0 0 32 32" fill="none" xmlns="http://www.w3.org/2000/svg">
<path d="M16.0008 32C24.8373 32 32.0008 24.8366 32.0008 16C32.0008 7.16344 24.8373 0 16.0008 0C7.16424 0 0.000793457 7.16344 0.000793457 16C0.000793457 24.8366 7.16424 32 16.0008 32Z" fill="#EFCADC"/>
<path fill-rule="evenodd" clip-rule="evenodd" d="M7.38597 5.48813C9.64911 8.23692 11.4952 10.8263 12.1091 11.6873C12.2126 11.8326 12.2811 11.9287 12.3106 11.968C12.4809 12.195 12.4128 12.4107 12.129 12.5697C11.9701 12.6605 11.6409 12.7513 11.4819 12.7513C11.3003 12.7513 11.0846 12.6605 10.937 12.5129C10.8349 12.4107 10.3922 11.7637 9.39319 10.2085C8.63261 9.01651 7.98555 8.0289 7.9742 8.01754C7.92879 7.99484 7.92879 7.99484 9.31373 10.4696C10.1878 12.0248 10.4716 12.581 10.4716 12.6491C10.4716 12.7967 10.4262 12.8762 10.2446 13.0805C9.93808 13.4211 9.80186 13.807 9.69969 14.613C9.58617 15.5098 9.27967 16.1455 8.40557 17.2239C7.89474 17.8597 7.81527 17.9732 7.6904 18.2343C7.53148 18.5521 7.48607 18.7337 7.46337 19.1424C7.44066 19.5738 7.48607 19.8462 7.61094 20.2549C7.72446 20.6182 7.84933 20.8566 8.15583 21.322C8.41693 21.7306 8.57585 22.0372 8.57585 22.1507C8.57585 22.2415 8.59856 22.2415 9.00723 22.1507C9.98349 21.9236 10.7895 21.5377 11.2322 21.0609C11.5046 20.7657 11.5728 20.6068 11.5728 20.1981C11.5728 19.937 11.5614 19.8803 11.4933 19.7214C11.3798 19.4716 11.1641 19.2673 10.6987 18.9494C10.0857 18.5294 9.82456 18.1889 9.75645 17.7348C9.69969 17.3488 9.7678 17.0877 10.1084 16.3726C10.4603 15.6347 10.5511 15.3282 10.6078 14.5789C10.6419 14.1022 10.6987 13.9092 10.8349 13.7616C10.9825 13.6027 11.1073 13.5459 11.4592 13.5005C12.0382 13.4211 12.4128 13.2735 12.7079 12.9897C12.969 12.7513 13.0826 12.5129 13.0939 12.161L13.1053 11.8999L12.9577 11.741C12.4241 11.128 7.03406 5 7 5C6.99307 5 7.05814 5.08048 7.159 5.20522C7.22325 5.28468 7.30204 5.38212 7.38597 5.48813ZM8.871 19.6305C8.99587 19.4149 8.92776 19.1424 8.72343 19.0062C8.53045 18.8813 8.2353 18.9381 8.2353 19.1084C8.2353 19.1538 8.258 19.1992 8.32611 19.2219C8.42828 19.2786 8.43963 19.3354 8.36017 19.4603C8.2807 19.5851 8.2807 19.6987 8.38287 19.7781C8.5418 19.903 8.75748 19.8349 8.871 19.6305Z" fill="#FF007A"/>
<path d="M12.4923 8.00619C12.2539 7.97213 12.2425 7.96078 12.356 7.94943C12.5717 7.91537 13.0712 7.96078 13.4231 8.04024C14.2405 8.23323 14.9783 8.73271 15.7616 9.60681L15.9659 9.8452L16.2611 9.79979C17.5212 9.59546 18.8153 9.75438 19.8937 10.2539C20.1889 10.3901 20.6543 10.6625 20.711 10.7306C20.7337 10.7534 20.7678 10.9009 20.7905 11.0485C20.87 11.582 20.8359 11.9794 20.6656 12.2859C20.5748 12.4561 20.5748 12.5015 20.6316 12.6491C20.677 12.7626 20.8132 12.8421 20.9381 12.8421C21.2105 12.8421 21.4943 12.4107 21.6305 11.8091L21.6873 11.5707L21.7895 11.6842C22.3684 12.3313 22.8225 13.2281 22.8906 13.8638L22.9133 14.0341L22.8111 13.8865C22.6409 13.6254 22.4819 13.4551 22.2663 13.3075C21.8803 13.0464 21.4716 12.967 20.3932 12.9102C19.4169 12.8535 18.8607 12.774 18.3158 12.5924C17.3849 12.2859 16.9081 11.8885 15.807 10.4241C15.3189 9.77709 15.0124 9.42518 14.7059 9.13003C14.0361 8.48297 13.3664 8.14241 12.4923 8.00619Z" fill="#FF007A"/>
<path d="M20.9494 9.44789C20.9721 9.01651 21.0289 8.73272 21.1538 8.47162C21.1992 8.36946 21.2446 8.27864 21.2559 8.27864C21.2673 8.27864 21.2446 8.3581 21.2105 8.44892C21.1197 8.69866 21.1084 9.05057 21.1651 9.44789C21.2446 9.95872 21.2786 10.0268 21.8235 10.5831C22.0733 10.8442 22.3684 11.1734 22.4819 11.3096L22.6749 11.5593L22.4819 11.3777C22.2435 11.1507 21.6987 10.7193 21.5738 10.6625C21.4943 10.6171 21.483 10.6171 21.4262 10.6739C21.3808 10.7193 21.3694 10.7874 21.3694 11.1166C21.3581 11.6275 21.29 11.9453 21.1197 12.2745C21.0289 12.4448 21.0175 12.4107 21.097 12.2178C21.1538 12.0702 21.1651 12.0021 21.1651 11.5139C21.1651 10.5263 21.0516 10.2879 20.3591 9.89061C20.1889 9.78844 19.8937 9.64087 19.7234 9.56141C19.5418 9.48194 19.4056 9.41383 19.4169 9.41383C19.4396 9.39113 20.1094 9.58411 20.3705 9.69763C20.7678 9.85656 20.8359 9.86791 20.8813 9.85656C20.9154 9.8225 20.9381 9.73168 20.9494 9.44789Z" fill="#FF007A"/>
<path d="M12.2425 8.69866C12.1744 9.45923 12.4809 10.4809 12.9577 11.1393C13.3323 11.6502 13.9112 12.0475 14.3426 12.0929C14.6264 12.1156 14.7059 12.0248 14.581 11.8431C14.3994 11.5934 14.1837 11.1961 14.1269 11.0258C14.0929 10.9236 14.0134 10.6058 13.9566 10.3333C13.7637 9.40247 13.5593 9.02786 13.1053 8.75542C12.935 8.65325 12.5831 8.51703 12.3787 8.48297L12.2652 8.46027L12.2425 8.69866Z" fill="#FF007A"/>
<path d="M20.3705 16.0774C18.1228 15.1693 17.3282 14.386 17.3282 13.0578C17.3282 12.8648 17.3395 12.7059 17.3395 12.7059C17.3471 12.7059 17.3849 12.7362 17.4396 12.7799C17.4669 12.8017 17.4984 12.827 17.5325 12.8535C17.9866 13.2167 18.4974 13.3756 19.9164 13.58C20.7451 13.7049 21.2219 13.7957 21.6532 13.9432C23.0268 14.3973 23.8782 15.3282 24.0826 16.5882C24.1393 16.9515 24.1053 17.644 24.0144 18.0072C23.935 18.291 23.7079 18.8132 23.6512 18.8246C23.6398 18.8246 23.6171 18.7678 23.6171 18.677C23.5944 18.2002 23.356 17.7461 22.9587 17.3942C22.4819 16.9856 21.8689 16.6791 20.3705 16.0774Z" fill="#FF007A"/>
<path d="M18.6677 15.9752C18.7018 16.066 18.7585 16.2817 18.7812 16.452C18.9628 17.5191 18.4066 18.3932 17.2828 18.7451C17.1692 18.7905 16.7152 18.8813 16.2724 18.9494C15.3756 19.1084 14.967 19.2105 14.5697 19.4035C14.2859 19.5397 13.934 19.7441 13.9567 19.7668C13.968 19.7781 14.0361 19.7554 14.1042 19.7327C14.615 19.5511 15.1827 19.4603 16.0341 19.4149C16.3188 19.3959 16.6352 19.369 16.811 19.354L16.8968 19.3467C17.6574 19.2446 18.1909 19.0175 18.5996 18.5975C18.8266 18.3591 18.9628 18.1434 19.0764 17.8369C19.1445 17.644 19.1558 17.5645 19.1558 17.2239C19.1558 16.872 19.1558 16.8039 19.0764 16.5882C18.9742 16.3044 18.8607 16.1001 18.7131 15.9298L18.6109 15.8049L18.6677 15.9752Z" fill="#FF007A"/>
<path d="M19.8142 18.2797C19.5191 17.6326 19.451 17.0196 19.6099 16.4407C19.6326 16.3839 19.6553 16.3271 19.678 16.3271C19.7007 16.3271 19.7688 16.3612 19.8369 16.4066C19.9732 16.4974 20.257 16.6564 20.9835 17.0537C21.903 17.5532 22.4252 17.9391 22.7884 18.3818C23.1063 18.7678 23.2993 19.2105 23.3901 19.7554C23.4469 20.0619 23.4128 20.7998 23.3333 21.1063C23.0836 22.0712 22.516 22.8431 21.6873 23.2859C21.5624 23.354 21.4603 23.3994 21.4489 23.3994C21.4376 23.3994 21.483 23.2859 21.5511 23.1496C21.8235 22.5707 21.8576 22.0145 21.6533 21.3901C21.5284 21.0041 21.2673 20.5387 20.7451 19.7554C20.1207 18.8473 19.9732 18.6089 19.8142 18.2797Z" fill="#FF007A"/>
<path d="M14.1837 20.3911C13.2301 20.55 12.1971 21.0495 11.3571 21.7534L11.1187 21.9804L11.3344 22.0144C12.4696 22.1847 12.7761 22.3437 13.5707 23.161C14.0248 23.6264 14.1837 23.7286 14.5583 23.8307C15.1146 23.9783 15.6594 23.7172 15.8524 23.2177C15.9319 22.9907 15.9205 22.6274 15.8297 22.4458C15.6027 22.0031 14.9329 21.8669 14.6151 22.1847C14.354 22.4458 14.4334 22.8545 14.7626 22.9226C14.8308 22.934 14.8308 22.9339 14.7399 22.8885C14.5924 22.8204 14.5243 22.7296 14.5243 22.582C14.5129 22.2301 14.9102 22.0485 15.2735 22.2074C15.5459 22.3323 15.6481 22.4912 15.6481 22.7637C15.6481 23.1837 15.2848 23.5129 14.8648 23.4561C14.6378 23.4221 14.3653 23.2859 14.2178 23.1156C13.8545 22.7069 13.9907 22.0371 14.5129 21.7874C14.9102 21.5944 15.4324 21.6512 15.8411 21.9123C16.3065 22.2188 16.5108 22.4912 16.9082 23.4107C17.0444 23.7172 17.2033 24.0464 17.2828 24.16C17.6574 24.7276 18.1228 25.0113 18.6677 25.0113C18.9742 25.0113 19.2012 24.9659 19.485 24.8184C19.6894 24.7162 19.9959 24.5119 19.9732 24.4892C19.9732 24.4802 19.9168 24.4995 19.8429 24.5247C19.8231 24.5315 19.8018 24.5387 19.7802 24.5459C19.1785 24.773 18.5655 24.7616 18.2136 24.5005C17.9866 24.3302 17.805 24.0124 17.7141 23.6037L17.703 23.539C17.6815 23.4142 17.6373 23.1588 17.6006 22.9112C17.4758 22.128 17.3509 21.7761 17.0784 21.3674C16.7946 20.9474 16.2497 20.6068 15.6481 20.4479C15.2735 20.3457 14.5924 20.323 14.1837 20.3911Z" fill="#FF007A"/>
<path fill-rule="evenodd" clip-rule="evenodd" d="M12.8555 14.3292C12.935 14.0341 13.1961 13.7389 13.4685 13.6594C13.6502 13.6027 14.0021 13.6367 14.1723 13.7276C14.5016 13.8978 14.7399 14.2725 14.6832 14.5449C14.6264 14.8741 14.0929 15.1465 13.4685 15.1465C13.1507 15.1465 13.0372 15.1011 12.9123 14.9422C12.8328 14.84 12.8101 14.5108 12.8555 14.3292ZM14.0815 13.8411C14.2518 13.9432 14.2859 14.0908 14.1951 14.227C14.1269 14.3179 13.9226 14.4087 13.775 14.4087C13.548 14.4087 13.3096 14.2497 13.3096 14.1022C13.3096 13.807 13.775 13.6481 14.0815 13.8411Z" fill="#FF007A"/>
</svg>
