<svg width="32" height="32" viewBox="0 0 32 32" fill="none" xmlns="http://www.w3.org/2000/svg">
<path d="M17.7223 30.4782C25.3259 30.4782 31.4897 24.3143 31.4897 16.7107C31.4897 9.1072 25.3259 2.9433 17.7223 2.9433C10.1187 2.9433 3.95485 9.1072 3.95485 16.7107C3.95485 24.3143 10.1187 30.4782 17.7223 30.4782Z" fill="white"/>
<path d="M16 0C7.16345 0 0 7.16345 0 16C0 24.8365 7.16345 32 16 32C24.8365 32 32 24.8365 32 16C32 7.16345 24.8365 0 16 0ZM26.074 13.4754L25.3403 13.8483C25.0683 13.9878 24.8435 14.2044 24.694 14.471C24.5444 14.7375 24.4768 15.0423 24.4996 15.3471C24.5153 15.5633 24.5241 15.7828 24.5241 16.0017C24.5228 20.6766 20.6749 24.5231 16 24.5231C14.2008 24.523 12.4477 23.9538 10.9916 22.8968L12.4972 22.1297L12.5825 22.0847C13.6252 22.6691 14.8006 22.9759 15.9959 22.9759C19.8226 22.9759 22.9722 19.8284 22.9742 16.0017C22.9742 15.695 22.9544 15.3887 22.9149 15.0846L11.188 21.0598L8.7619 22.2961L5.92596 23.741V22.0009L8.78168 20.5457L10.1693 19.8372L26.074 11.7393V13.4754ZM26.074 9.99712L23.2054 11.459L21.8177 12.1662L9.46765 18.4585L8.77963 18.809L8.08206 19.1649L5.92596 20.2641V18.5226L6.65833 18.1489C6.93056 18.0097 7.15566 17.7932 7.30545 17.5266C7.45524 17.26 7.52306 16.9551 7.50043 16.6502C7.48407 16.4347 7.47589 16.2185 7.47589 16.0017V16.001C7.47589 11.3247 11.3237 7.4769 16 7.4769C17.7987 7.47686 19.5514 8.04588 21.007 9.10249L20.7997 9.20819L19.4114 9.91528C18.3712 9.33437 17.1996 9.02944 16.0082 9.02953C12.1835 9.02953 9.03464 12.1743 9.02988 15.999C9.02985 16.3038 9.04967 16.6084 9.0892 16.9106L20.8038 10.9436L23.2299 9.70731L26.074 8.25698V9.99712Z" fill="black"/>
</svg>
