<svg width="32" height="32" viewBox="0 0 32 32" fill="none" xmlns="http://www.w3.org/2000/svg">
<path d="M32 16C32 24.8366 24.8366 32 16 32C7.16344 32 0 24.8366 0 16C0 7.16344 7.16344 0 16 0C24.8366 0 32 7.16344 32 16Z" fill="white"/>
<path d="M16 0C7.16345 0 0 7.16344 0 16C0 24.8366 7.16345 32 16 32C24.8365 32 32 24.8366 32 16C32 7.16344 24.8365 0 16 0ZM21.0496 23.8824C19.8649 24.6568 18.5155 25.1434 17.1093 25.3033C12.788 25.816 9.43354 23.3697 7.99802 20.8648H11.9237V15.9137C13.286 17.276 14.6337 18.6236 15.9813 19.9713C17.3436 18.609 18.6913 17.276 20.0536 15.9137V20.8502H24.0086C23.2322 22.0953 22.2654 23.106 21.0496 23.8824Z" fill="#2E2E34"/>
<path d="M16.0106 17.2028C13.9599 15.152 11.9384 13.1452 9.90229 11.0944V18.9606C9.82905 18.9606 9.77045 18.9752 9.72651 18.9752H7.25094C7.13376 18.9752 7.07516 18.9459 7.04587 18.8287C6.70219 17.7106 6.56811 16.5386 6.65036 15.3717C6.79685 13.3796 7.48532 11.5925 8.77436 10.0544C10.1952 8.34054 11.997 7.24192 14.1942 6.81712C17.0946 6.26048 19.7313 6.93431 22.0164 8.82393C23.7596 10.2595 24.8142 12.1198 25.2244 14.3463C25.5027 15.8551 25.3855 17.3346 24.9461 18.7994C24.9021 18.9166 24.8582 18.9606 24.7264 18.9606H22.0897V11.1091C20.0682 13.1598 18.0467 15.1666 16.0106 17.2028Z" fill="#F26722"/>
</svg>
