<svg width="32" height="32" viewBox="0 0 32 32" fill="none" xmlns="http://www.w3.org/2000/svg">
<path d="M17.3352 30.2847C24.9388 30.2847 31.1026 24.1208 31.1026 16.5172C31.1026 8.91365 24.9388 2.74976 17.3352 2.74976C9.73165 2.74976 3.56775 8.91365 3.56775 16.5172C3.56775 24.1208 9.73165 30.2847 17.3352 30.2847Z" fill="#0F61FF"/>
<path d="M16 0C7.16345 0 0 7.16345 0 16C0 24.8365 7.16345 32 16 32C24.8365 32 32 24.8365 32 16C32 7.16345 24.8365 0 16 0ZM21.6447 22.8529C21.3036 23.573 20.7238 24.1528 20.0037 24.4939C19.2645 24.8496 18.4531 25.0301 17.6328 25.0211C16.3786 25.0211 15.4645 24.7279 14.8905 24.1226C14.3165 23.5174 14.0388 22.8841 14.0388 22.1853C14.0295 21.9627 14.0836 21.742 14.1948 21.5489C14.2871 21.3786 14.427 21.2388 14.5973 21.1464C14.793 21.0419 15.0118 20.9883 15.2337 20.9905C15.4564 20.9807 15.6772 21.0348 15.8701 21.1464C16.0404 21.2388 16.1802 21.3786 16.2726 21.5489C16.3771 21.7446 16.4307 21.9634 16.4285 22.1853C16.4285 22.4942 16.3505 22.7437 16.2101 22.9278C16.0795 23.109 15.895 23.2444 15.6829 23.3146C15.8545 23.5455 16.1322 23.7171 16.5034 23.8263C16.8663 23.9318 17.2424 23.9843 17.6203 23.9823C18.1217 23.9886 18.6134 23.8429 19.0304 23.5642C19.4484 23.2866 19.7573 22.8685 19.96 22.3257C20.1628 21.7829 20.2533 21.1652 20.2533 20.4663C20.2533 19.7083 20.1441 19.0718 19.9288 18.5446C19.7105 18.0018 19.4016 17.5993 18.9836 17.3529C18.5759 17.0951 18.1025 16.9608 17.6202 16.966C17.2958 16.966 16.909 17.1064 16.4285 17.3685L15.555 17.7865V17.3529L19.5045 12.0868H14.0388V17.5557C14.0388 18.0049 14.1324 18.3762 14.3321 18.6725C14.5349 18.9658 14.8437 19.1062 15.2462 19.1062C15.5706 19.1062 15.867 18.997 16.1602 18.7817C16.4501 18.5631 16.7057 18.3023 16.9183 18.008C16.9373 17.9585 16.9697 17.9153 17.0119 17.8832C17.0472 17.8543 17.0911 17.8379 17.1367 17.8364C17.2337 17.843 17.3258 17.8814 17.3987 17.9456C17.49 18.0476 17.5401 18.18 17.5391 18.3169C17.5391 18.3793 17.5079 18.4729 17.4923 18.5945C17.274 19.1062 16.9641 19.493 16.5627 19.7551C16.1735 20.017 15.7152 20.1571 15.2462 20.1575C14.0544 20.1575 13.2464 19.9266 12.7816 19.4618C12.3324 18.997 12.1015 18.3605 12.1015 17.5713V12.0868H9.3125V11.0636H12.1171V8.7394L11.4807 8.10298V7.57574H13.34L14.0357 7.9314V11.048L21.2703 11.0324L21.9816 11.7437L17.5547 16.1924C17.8222 16.0847 18.1038 16.0164 18.3908 15.9896C18.8712 15.9896 19.4141 16.1456 20.0006 16.4544C20.5756 16.7234 21.0601 17.1537 21.3951 17.6929C21.7195 18.2202 21.9379 18.7162 22.0315 19.1966C22.1251 19.6771 22.1875 20.0951 22.1875 20.4819C22.1912 21.3035 22.0054 22.1148 21.6447 22.8529Z" fill="#B6C9FA"/>
</svg>
