<svg width="32" height="32" viewBox="0 0 32 32" fill="none" xmlns="http://www.w3.org/2000/svg">
<path d="M32 16C32 24.8366 24.8366 32 16 32C7.16344 32 0 24.8366 0 16C0 7.16344 7.16344 0 16 0C24.8366 0 32 7.16344 32 16Z" fill="white"/>
<path d="M16 0C7.16345 0 0 7.16345 0 16C0 24.8365 7.16345 32 16 32C24.8366 32 32 24.8365 32 16C32 7.16345 24.8366 0 16 0ZM6.25474 7.34175C8.52528 4.8353 11.3266 3.36093 14.6882 3.00708C17.3421 2.7122 19.878 3.24298 22.237 4.51094C22.3255 4.56991 22.4139 4.59939 22.5024 4.65838C22.5024 4.74684 22.5024 4.77634 22.5319 4.80582C21.5883 5.48404 20.6447 6.16225 19.7011 6.81097C18.0793 7.961 16.4574 9.1405 14.8651 10.2905C14.6587 10.438 14.5113 10.4674 14.3343 10.261C13.8036 9.70076 13.2433 9.19946 12.7125 8.6392C12.5651 8.49176 12.4176 8.46228 12.2112 8.55075C10.9433 9.19946 9.94069 10.1136 9.11503 11.2636C9.04907 11.3368 8.98985 11.4157 8.93811 11.4995C8.46631 10.8803 8.02399 10.32 7.58168 9.73025C7.10988 9.111 6.66756 8.49176 6.22525 7.90201C6.07781 7.6956 6.04833 7.54816 6.25474 7.34175ZM7.93553 25.8305C7.72912 26.0074 7.58168 26.0074 7.34578 25.801C5.10472 23.7958 3.68932 21.3189 3.15854 18.3701C2.62776 15.3919 3.09956 12.5611 4.51497 9.87769C4.54446 9.81871 4.60343 9.73026 4.63292 9.67128C4.63292 9.64179 4.66241 9.64179 4.72138 9.61231C6.66756 12.1777 8.64323 14.7431 10.5894 17.3086C10.5474 17.3822 10.498 17.4514 10.442 17.515C9.85223 18.1342 9.26247 18.7534 8.64323 19.3432C8.46631 19.5201 8.43682 19.6676 8.55477 19.874C9.16743 21.0352 10.0343 22.0432 11.0907 22.8227C11.2381 22.9112 11.3561 22.9997 11.533 23.1176C10.7958 23.6779 10.1176 24.1792 9.4394 24.7099C8.93811 25.0933 8.43682 25.4471 7.93553 25.8305ZM18.728 28.7792C15.4844 29.4575 12.4176 28.9562 9.4394 27.3049C12.0933 25.3292 14.6882 23.383 17.3126 21.4368C17.9023 21.9971 18.4626 22.5574 19.0229 23.0881C19.6421 23.6779 19.4062 23.7074 20.2024 23.2651C21.286 22.6474 22.2139 21.79 22.9152 20.7586C22.9447 20.6996 23.0037 20.6407 23.0332 20.5817C23.0037 20.5817 23.0332 20.5817 23.1216 20.5227C24.0652 21.7907 25.0383 23.0881 26.0114 24.3856C24.0653 26.6856 21.6473 28.16 18.728 28.7792ZM27.3384 22.4984C26.7191 21.7022 26.1589 20.965 25.5986 20.2278C24.3012 18.5175 23.0037 16.7778 21.6768 15.0675C21.4998 14.8316 21.4998 14.6842 21.7062 14.4778C22.2665 13.9175 22.7973 13.3572 23.3575 12.797C23.505 12.6495 23.564 12.5021 23.446 12.2957C22.8095 11.0656 21.8898 10.0044 20.7626 9.19947C20.6693 9.12381 20.5708 9.05484 20.4678 8.99306C20.5562 8.9046 20.6447 8.84561 20.7037 8.78665C21.8242 7.93151 22.9447 7.10585 24.0652 6.25072C24.2422 6.10327 24.3896 6.0443 24.596 6.25072C27.3973 8.78665 28.9012 11.9418 29.0487 15.7457C29.1076 17.9573 28.6063 20.0509 27.6038 22.0266C27.4965 22.1725 27.4074 22.3309 27.3384 22.4984Z" fill="#32292E"/>
</svg>
