<svg width="32" height="32" viewBox="0 0 32 32" fill="none" xmlns="http://www.w3.org/2000/svg">
<circle cx="16" cy="16" r="16" fill="#4B5E6A"/>
<g clip-path="url(#clip0_3653_5740)">
<path d="M18.4835 14.9961L20.246 12.0056L24.9965 19.4048L24.9988 20.8243L24.9832 11.0531C24.9777 10.9353 24.9439 10.8205 24.8846 10.7184C24.8254 10.6164 24.7425 10.5301 24.6429 10.4668L16.0901 5.54745C15.9879 5.4989 15.8761 5.47397 15.763 5.4745C15.6499 5.47503 15.5383 5.50102 15.4366 5.55053C15.4102 5.56376 15.3846 5.57855 15.3599 5.59482L15.3302 5.61364L7.02817 10.4244L6.99585 10.4389C6.95281 10.4589 6.91176 10.4828 6.87322 10.5104C6.71752 10.6216 6.6114 10.7892 6.5775 10.9775C6.57231 11.0061 6.56877 11.0349 6.56689 11.0639L6.5799 19.0264L11.0048 12.1681C11.5619 11.2587 12.7757 10.9657 13.9024 10.9816L15.2248 11.0158L7.43266 23.512L8.35127 24.0409L16.2368 11.0283L19.7223 11.0157L11.8571 24.3561L15.1351 26.2426L15.5267 26.4678C15.6957 26.535 15.8832 26.5387 16.0547 26.4783L24.7277 21.4521L23.0687 22.413L18.4835 14.9961ZM19.156 24.6811L15.8455 19.4853L17.8663 16.0563L22.2139 22.9088L19.156 24.6811Z" fill="#2D374B"/>
<path d="M15.8457 19.4854L19.1562 24.681L22.2142 22.9087L17.8668 16.0564L15.8457 19.4854Z" fill="#28A0F0"/>
<path d="M24.9997 20.8245L24.9974 19.4049L20.2469 12.0057L18.4834 14.9959L23.0694 22.4128L24.7284 21.452C24.8088 21.3869 24.8744 21.3056 24.9212 21.2133C24.968 21.1212 24.9948 21.0201 24.9998 20.9168L24.9997 20.8245Z" fill="#28A0F0"/>
<path d="M5.0918 22.1637L7.43339 23.513L15.2256 11.0167L13.9031 10.9825C12.7764 10.9666 11.5626 11.2594 11.0055 12.169L6.58063 19.0273L5.09265 21.3145V22.1644L5.0918 22.1637Z" fill="white"/>
<path d="M19.7229 11.0165L16.2376 11.0291L8.35205 24.0417L11.1082 25.6287L11.8577 24.3575L19.7229 11.0165Z" fill="white"/>
<path d="M26.4675 10.9986C26.4515 10.6389 26.3483 10.2885 26.1668 9.97758C25.9853 9.66667 25.7308 9.40455 25.4254 9.21387L16.7606 4.23105C16.4513 4.07904 16.1112 4 15.7666 4C15.4219 4 15.0819 4.07904 14.7726 4.23105C14.7002 4.26748 6.34619 9.11262 6.34619 9.11262C6.23012 9.16835 6.1191 9.23405 6.01439 9.30896C5.74313 9.50189 5.51911 9.75373 5.35915 10.0456C5.19919 10.3375 5.10745 10.6619 5.09082 10.9943V21.314L6.57879 19.0268L6.56733 11.0646C6.57429 10.9554 6.60538 10.8492 6.65835 10.7535C6.71132 10.6578 6.78485 10.575 6.87365 10.5111C6.91299 10.4829 15.4097 5.56475 15.4367 5.55123C15.5384 5.50172 15.6499 5.47574 15.7631 5.4752C15.8762 5.47467 15.988 5.49961 16.0902 5.54816L24.643 10.4679C24.7426 10.5311 24.8255 10.6174 24.8847 10.7195C24.9439 10.8215 24.9778 10.9363 24.9833 11.0541V20.9179C24.9813 21.0201 24.9574 21.1208 24.9132 21.2131C24.8692 21.3054 24.8059 21.3872 24.7276 21.453L23.0686 22.4139L22.2135 22.9099L19.1554 24.6821L16.0541 26.4795C15.8826 26.54 15.6951 26.5363 15.5261 26.469L11.857 24.3587L11.1075 25.6298L14.405 27.5282C14.5141 27.5901 14.6113 27.6452 14.691 27.69C14.8145 27.7585 14.8986 27.8055 14.9282 27.8198C15.2041 27.9408 15.5023 28.0021 15.8035 27.9999C16.0798 28.0003 16.3536 27.9488 16.6108 27.8481L25.6185 22.6316C25.8726 22.434 26.0803 22.1829 26.227 21.8963C26.3736 21.6097 26.4556 21.2943 26.4672 20.9726L26.4675 10.9986Z" fill="#96BEDC"/>
</g>
<defs>
<clipPath id="clip0_3653_5740">
<rect width="24" height="24" fill="white" transform="translate(4 4)"/>
</clipPath>
</defs>
</svg>
