<svg width="32" height="32" viewBox="0 0 32 32" fill="none" xmlns="http://www.w3.org/2000/svg">
<circle cx="16" cy="16" r="16" fill="#3E2323"/>
<path fill-rule="evenodd" clip-rule="evenodd" d="M25.9996 22.4168C25.9858 22.6875 25.8436 22.9376 25.6141 23.0867C25.403 23.2267 25.0474 23.2267 24.3408 23.2267H19.5502C18.8436 23.2267 18.488 23.2267 18.2815 23.0913C18.0521 22.9422 17.9121 22.6944 17.896 22.4237C17.8846 22.1759 18.0589 21.873 18.4077 21.2696L18.4168 21.2559L20.8075 17.149C21.1586 16.5433 21.3375 16.2428 21.5578 16.1281C21.7987 16.0065 22.0832 16.0065 22.3241 16.1281C22.542 16.2405 22.7118 16.5273 23.0491 17.0986L23.0766 17.1444L25.4765 21.2513C25.4879 21.2719 25.4994 21.2926 25.5109 21.3109C25.8436 21.8822 26.011 22.1759 25.9996 22.4168Z" fill="#E84142"/>
<path fill-rule="evenodd" clip-rule="evenodd" d="M19.5181 12.2162C19.4332 12.5718 19.2427 12.9114 18.8573 13.5836L14.521 21.2513L14.5096 21.2719C14.1287 21.9395 13.9337 22.2791 13.6653 22.5338C13.3739 22.8137 13.0228 23.0156 12.6374 23.1303C12.2864 23.2267 11.8917 23.2267 11.1048 23.2267H7.75968C7.05761 23.2267 6.70888 23.2267 6.4978 23.0913C6.26837 22.9422 6.12841 22.6967 6.11235 22.4259C6.10088 22.1759 6.27296 21.8707 6.6194 21.2627L14.8767 6.70986C15.2277 6.09269 15.4066 5.78295 15.6292 5.66824C15.8701 5.54434 16.1592 5.54434 16.4001 5.66824C16.6249 5.78295 16.8016 6.09039 17.1526 6.70986L18.8504 9.67412L18.8596 9.69018C19.2382 10.3532 19.4309 10.6882 19.5158 11.0415C19.6098 11.4247 19.6098 11.8308 19.5181 12.2162Z" fill="#E84142"/>
</svg>
