<svg width="32" height="32" viewBox="0 0 32 32" fill="none" xmlns="http://www.w3.org/2000/svg">
<path d="M16 0C7.16345 0 0 7.16345 0 16C0 24.8365 7.16345 32 16 32C24.8365 32 32 24.8365 32 16C32 7.16345 24.8365 0 16 0Z" fill="#F2B3A7"/>
<path d="M25.7806 22.035L16.3924 5.80895C16.353 5.73992 16.2959 5.68255 16.2271 5.64266C16.1583 5.60276 16.0802 5.58175 16.0007 5.58175C15.9212 5.58175 15.8431 5.60276 15.7743 5.64266C15.7055 5.68255 15.6484 5.73992 15.6089 5.80895L6.21886 22.035C6.17897 22.1041 6.15797 22.1824 6.15797 22.2622C6.15797 22.342 6.17897 22.4203 6.21886 22.4894L6.22167 22.4878C6.26168 22.5554 6.31855 22.6115 6.38671 22.6506C6.45488 22.6897 6.53202 22.7104 6.6106 22.7107H25.3869C25.4655 22.7107 25.5427 22.6903 25.6111 22.6514C25.6794 22.6126 25.7365 22.5567 25.7768 22.4892L25.7806 22.4914C25.8208 22.4221 25.842 22.3433 25.842 22.2632C25.842 22.183 25.8208 22.1043 25.7806 22.035ZM16.0007 12.167V12.1689L20.0409 19.1537H11.9574L16.0007 12.167Z" fill="#FF4724"/>
</svg>
