<svg width="32" height="32" viewBox="0 0 32 32" fill="none" xmlns="http://www.w3.org/2000/svg">
<circle cx="16" cy="16" r="16" fill="#322B1A"/>
<g clip-path="url(#clip0_3653_5607)">
<path fill-rule="evenodd" clip-rule="evenodd" d="M9.79247 13.8753C9.72001 13.806 9.64346 13.7365 9.57305 13.6672C9.50263 13.5979 9.43031 13.5285 9.35785 13.4592L9.14252 13.2449C9.10731 13.208 9.07006 13.1756 9.03485 13.1386C8.99965 13.1062 8.9583 13.0693 8.92309 13.0367C8.63735 12.7529 8.34996 12.469 8.06817 12.1849C8.36006 12.4645 8.64581 12.7421 8.93769 13.0259L9.03908 13.1322C9.07429 13.1689 9.11154 13.2015 9.14675 13.2383L9.36194 13.4464C9.4344 13.5157 9.50482 13.5851 9.57728 13.6607C9.64974 13.7362 9.72001 13.8061 9.79247 13.8753ZM6.00014 13.8324C6.00014 13.8324 7.03927 13.945 7.54649 14.0208C8.01632 14.0903 9.48612 14.3265 9.48612 14.3265L6.00014 13.8324ZM6.00014 13.8324C6.29202 13.8584 6.58391 13.8908 6.87579 13.9234C7.02481 13.9386 7.16768 13.9558 7.31055 13.971L7.52984 13.9971C7.6023 14.0078 7.67272 14.0187 7.74518 14.0296L8.61469 14.1747L9.04932 14.2506C9.19219 14.2766 9.33506 14.3049 9.48408 14.3309C9.3412 14.3157 9.19219 14.294 9.04932 14.2723L8.61469 14.2073L7.74518 14.073C7.67272 14.0621 7.6023 14.0469 7.52984 14.0361L7.31042 14.0097C7.16754 13.9946 7.01853 13.9728 6.87566 13.9554C6.58377 13.9187 6.29202 13.88 6.00014 13.8324ZM9.38269 14.6099C9.38269 14.6099 8.27314 14.9048 7.89842 15.0175C7.52998 15.1237 6.41415 15.4791 6.41415 15.4791L9.38269 14.6099Z" fill="#CFB66C"/>
<path fill-rule="evenodd" clip-rule="evenodd" d="M9.38244 14.61C9.13613 14.6859 8.89118 14.7596 8.64133 14.829L7.90022 15.037C7.65391 15.1129 7.40896 15.1866 7.16334 15.2625L6.7949 15.3686C6.67277 15.4055 6.54859 15.4379 6.42236 15.4749C6.54436 15.4321 6.66867 15.3882 6.7908 15.3514L7.15924 15.2279C7.40555 15.1476 7.6505 15.0717 7.89612 14.9916C8.14652 14.9266 8.39297 14.8572 8.64337 14.7943C8.88136 14.7314 9.1319 14.6686 9.38244 14.61ZM6.56933 16.1944C6.69132 16.1467 8.09904 15.4598 8.42613 15.2993C8.58988 15.2191 9.06585 15.0422 9.06585 15.0422L6.56933 16.1944Z" fill="#CFB66C"/>
<path fill-rule="evenodd" clip-rule="evenodd" d="M6.56947 16.1944C6.677 16.1516 6.77853 16.0991 6.88196 16.0493L7.18831 15.8997L7.8032 15.5898C8.00789 15.4879 8.20685 15.3755 8.41795 15.2798C8.52561 15.2322 8.63328 15.1932 8.74081 15.1563L8.90456 15.1022C8.96037 15.087 9.01223 15.0696 9.06831 15.0544C8.86362 15.1563 8.64815 15.243 8.44319 15.3426C8.2385 15.4489 8.02918 15.5356 7.81794 15.6309L7.19282 15.9191C6.98294 16.0081 6.77839 16.1034 6.56947 16.1944ZM6.70593 16.7945C6.70593 16.7945 7.98101 16.0121 8.41986 15.7607C8.64966 15.6264 9.39281 15.2405 9.39281 15.2405L6.70593 16.7945Z" fill="#CFB66C"/>
<path fill-rule="evenodd" clip-rule="evenodd" d="M6.70605 16.7948C6.92125 16.656 7.14068 16.5152 7.3601 16.3721L7.68761 16.164C7.79937 16.0947 7.90703 16.0297 8.02098 15.9604C8.13274 15.8909 8.2404 15.8217 8.35421 15.7566C8.40839 15.7216 8.46515 15.6912 8.52396 15.6656L8.69781 15.5746C8.92761 15.4576 9.15741 15.3383 9.39962 15.2365C9.1802 15.3818 8.95449 15.5053 8.72893 15.6331C8.61717 15.6981 8.50322 15.7566 8.39146 15.8217C8.2797 15.8867 8.17204 15.9561 8.05809 16.019C7.94633 16.0883 7.83867 16.1533 7.72486 16.2161L7.3874 16.409L6.70605 16.7948ZM9.38256 15.4119C9.38256 15.4119 8.58974 16.0491 8.33306 16.2528C8.07638 16.4566 7.3208 17.0288 7.3208 17.0288L9.38256 15.4119Z" fill="#CFB66C"/>
<path fill-rule="evenodd" clip-rule="evenodd" d="M13.9325 20.5508L13.5269 19.7467L13.7628 18.741L15.4457 18.0605L14.7295 16.5218L15.0834 14.9677L15.748 13.5762L17.8016 13.2381L19.3105 11.7318L22.5689 11.9897L23.2085 15.6374L21.9768 20.23L21.2751 22.6077L18.4308 22.7204L17.1101 21.7625L15.5638 21.0861L13.9325 20.5508Z" fill="#E2CC85"/>
<path fill-rule="evenodd" clip-rule="evenodd" d="M18.9214 20.5247C18.9214 20.5247 18.528 20.7133 17.857 20.6699C17.6629 20.3968 16.3029 20.269 16.3029 20.269C16.3029 20.269 16.1331 20.2148 15.8329 20.3448C15.5308 20.4734 15.2451 20.4576 14.978 20.5268C14.711 20.5961 14.4458 20.2321 14.2411 20.1562C14.0365 20.0761 13.765 19.8832 13.765 19.8832L13.1919 19.8246L12.041 19.3153L10.2126 17.4081L9.71574 18.2225L9.5625 19.2303L10.1153 20.4245L11.6037 21.8441L14.5059 22.6156L16.2261 22.085L18.381 21.1313L18.9214 20.5247Z" fill="#F1D789"/>
<path fill-rule="evenodd" clip-rule="evenodd" d="M8.61038 13.7842L8.97882 12.6161L9.41781 11.8617L10.8315 11.7382L10.4071 13.0343L9.22527 15.2364L9.71584 17.2022L8.84646 17.6572L8.57927 17.2282L8.36407 16.2442L8.34961 15.1388L8.61038 13.7842Z" fill="#F4ECB4"/>
<path fill-rule="evenodd" clip-rule="evenodd" d="M10.1963 20.4446L9.92516 20.048C9.92516 20.048 9.8527 19.8594 9.89418 19.6946C9.93512 19.5278 9.92925 19.5169 9.90865 19.454C9.88804 19.3912 9.71406 19.1744 9.72443 18.988C9.73466 18.7994 9.70996 18.7365 9.84233 18.5871C9.98097 18.4419 9.93962 18.1905 9.93962 18.1905L10.1198 18.3075L10.1607 18.2425C10.1607 18.2425 10.2269 18.2966 10.2269 18.3812C10.2413 18.2642 10.1813 17.7223 10.3179 17.5988C10.4545 17.4754 10.6967 18.1775 10.6967 18.1775L10.5477 17.1588L10.1646 16.1142L9.48358 15.1606L9.44264 14.1093V14.0183C9.44264 14.0183 9.13001 14.5212 9.04309 14.9184C8.981 15.1914 9.13001 15.523 9.09904 15.9154C9.07406 16.3056 9.04309 16.2751 9.13411 16.4297C9.22512 16.5843 9.44673 16.9022 9.35981 17.1319C9.28326 17.3292 9.02235 17.1905 9.02235 17.1905C9.02235 17.1905 8.97063 17.3508 8.90022 17.4094C8.87538 17.3141 8.8485 17.2534 8.79883 17.1951C8.7946 17.2319 8.78436 17.2818 8.78436 17.2818C8.78436 17.2818 8.73878 17.1322 8.69321 16.9436C8.63125 16.6923 8.56494 16.3607 8.50489 16.183C8.48006 16.2848 8.41797 16.5947 8.41797 16.5947L8.45318 17.0716L8.62293 17.7261L8.78668 18.1548L8.94607 18.6792L9.08457 19.0316L9.19633 19.3003L9.29363 19.9051L9.76346 20.4251L10.014 20.5423L10.1963 20.4446Z" fill="#F3E19D"/>
<path fill-rule="evenodd" clip-rule="evenodd" d="M8.85674 12.8307C8.85674 12.8307 8.51927 13.4307 8.42212 14.0356C8.32496 14.6406 8.2379 15.2798 8.2993 16.1033C8.36139 16.9335 8.47943 17.4427 8.57468 17.8069C8.73843 18.4117 9.16254 19.2526 9.16254 19.2526L9.17701 19.2201C9.10572 19.0786 9.04882 18.9296 9.00725 18.7757C8.9513 18.546 8.93056 18.273 8.87884 18.1494C8.83327 18.0259 8.75671 17.9196 8.71946 17.7679C8.68425 17.6227 8.67852 17.393 8.57045 17.2218C8.52487 17.1524 8.46892 16.9704 8.45241 16.7884C8.43167 16.5152 8.46278 16.2096 8.43794 15.9583C8.39237 15.5399 8.36139 15.2561 8.40274 15.037C8.44409 14.818 8.65955 14.1962 8.79206 13.702C8.87898 13.3856 8.82713 13.119 8.98651 12.8437C9.14589 12.5706 9.24333 12.33 9.2784 12.1632C9.31933 12.0114 8.85674 12.8307 8.85674 12.8307Z" fill="#F2E8B0"/>
<path fill-rule="evenodd" clip-rule="evenodd" d="M10.4569 12.59C10.4569 12.59 10.283 12.6443 10.2002 12.7396C10.1174 12.8306 10.0822 12.9064 9.97042 13.0603C9.85866 13.2142 9.85238 13.3399 9.76123 13.5328C9.67021 13.7214 9.46934 14.0053 9.44451 14.1071C9.41967 14.209 9.37832 14.6858 9.32661 14.9112C9.28103 15.1367 9.37832 15.4141 9.37832 15.4141L9.49623 15.388C9.49623 15.388 9.49623 15.5484 9.61426 15.6569C9.73216 15.763 9.75291 15.297 9.75291 15.297L10.1938 13.7387L10.8582 13.2662L10.9307 12.8847L10.4569 12.59Z" fill="#F5EEC0"/>
<path fill-rule="evenodd" clip-rule="evenodd" d="M10.78 13.2967C10.78 13.2967 10.4674 13.3183 10.3143 13.4354C10.2522 13.483 10.2274 13.522 10.1612 13.5806C10.0391 13.6868 9.91475 13.7843 9.85484 13.9235C9.78852 14.0621 9.71606 14.2724 9.66639 14.669C9.64565 14.8359 9.64565 14.9898 9.63119 15.1242C9.61044 15.3062 9.57947 15.4514 9.59598 15.5528C9.61672 15.7608 9.82168 15.8693 9.84161 16.1054L10.266 15.8801L10.6655 14.2307L11.5143 13.6735L11.034 13.11L10.7795 13.2957L10.78 13.2967Z" fill="#E6DB9D"/>
<path fill-rule="evenodd" clip-rule="evenodd" d="M8.54115 24.4037C8.54293 24.3874 8.5447 24.3711 8.54647 24.3544C8.60843 23.7972 8.61893 23.3749 8.66437 23.1104C8.73056 22.7355 8.77613 22.5961 8.76576 22.4558C8.7513 22.2305 8.73479 22.0658 8.75553 21.8923C8.78651 21.6626 9.00184 21.3895 8.9957 21.2009C8.99147 21.0514 8.91901 20.9539 8.85692 20.8629C8.79483 20.7719 8.74516 20.696 8.74516 20.696C8.74516 20.696 9.16955 20.3904 9.16545 19.1593C9.17412 19.1619 9.18246 19.1655 9.19029 19.1702L9.39934 19.7921L9.54222 19.9741L10.0908 21.0448L10.7967 21.7623L11.8399 22.4969L12.4941 23.2423L12.5603 25.2298L11.7054 26.3915L11.5654 26.657C10.453 26.0723 9.43318 25.3125 8.54115 24.4037Z" fill="#E5CB7A"/>
<path fill-rule="evenodd" clip-rule="evenodd" d="M11.1523 26.3051C11.1523 26.3051 11.1668 26.0581 11.3614 25.8976C11.3925 25.9518 11.4131 26.0039 11.407 26.0428C11.4422 25.9779 11.6885 25.5617 12.2454 25.4533C12.8023 25.3471 12.9368 24.9224 12.9368 24.9224L14.1187 23.7975L15.4705 22.495L17.1141 21.8902L17.8822 21.6929C17.8822 21.6929 17.8967 21.7515 17.8678 21.8815C18.0105 21.8708 18.3272 21.7949 18.6564 21.6734C18.7889 21.6193 18.9132 21.5976 18.9794 21.6692C19.0767 21.7645 19.0911 21.9899 19.0973 22.1242C19.2567 22.0873 19.4409 21.927 19.5885 21.9422C19.8246 21.9682 20.0337 22.2587 20.2738 22.2587C20.5905 22.2587 20.7333 22.0549 20.9549 21.8945C21.0874 21.7992 21.2777 21.6802 21.3854 21.5997C21.6421 21.4024 24.358 20.5333 24.358 20.5333L25.3103 20.5983L25.4635 21.669L25.3816 24.4679C25.3715 24.478 25.3614 24.4886 25.3512 24.4987L21.0216 26.8663L15.0201 27.8295C13.6758 27.5996 12.3785 27.1324 11.1835 26.4478L11.1523 26.3051Z" fill="#D8C173"/>
<path fill-rule="evenodd" clip-rule="evenodd" d="M8.90479 24.7597C8.99007 24.573 9.06676 24.4168 9.08027 24.361C9.09092 24.4735 9.11043 24.7206 9.14973 24.9832C9.06722 24.9097 8.98557 24.8353 8.90479 24.7597Z" fill="#F1D789"/>
<path fill-rule="evenodd" clip-rule="evenodd" d="M13.289 27.3938L14.0652 27.1678L14.1314 27.1895C14.1314 27.1895 14.1666 27.2112 14.1666 27.2848C14.2639 27.2264 14.3467 27.2371 14.4068 27.1982C14.4378 27.2675 14.4687 27.4972 14.6055 27.5254C14.7482 27.558 14.9014 27.4604 15.0567 27.3369C15.2098 27.2091 15.3842 27.0486 15.5162 26.9836C15.5646 27.0768 15.6075 27.1731 15.6446 27.2718C15.8184 27.1266 16.1207 26.5371 16.5512 26.5479C16.6757 26.24 16.8836 25.977 17.1492 25.7915C17.5488 25.5076 17.7992 25.4859 18.1118 25.5119C18.236 25.343 18.389 25.1997 18.5631 25.0893C18.6148 25.111 18.7576 25.202 18.9357 25.1153C19.1158 25.0287 19.3186 24.6927 19.5857 24.6494C19.7296 24.6286 19.8759 24.6608 19.9997 24.7404C19.9997 24.7404 20.7775 23.9319 21.3142 23.6631C21.2935 23.5981 21.2521 23.3532 21.8813 22.8113C21.9165 22.8439 21.8917 22.9349 21.9165 22.9399C21.9268 22.9399 22.0803 22.8706 22.2746 22.7144C22.5148 22.526 22.8024 22.3287 22.9763 22.2745C23.3038 22.1727 23.6512 22.3807 23.6512 22.3807C23.6807 22.359 23.7137 22.3429 23.7485 22.333C23.8312 22.3178 23.8912 22.307 23.9368 22.2901C23.9327 22.4028 23.9928 22.5957 23.9368 22.7626C24.0016 22.8008 24.0703 22.8313 24.1415 22.8536C24.1064 22.9338 24.0297 23.1375 23.9015 23.2351C24.009 23.2892 24.0235 23.3521 24.1767 23.4065C24.1146 23.4975 24.013 23.6537 23.9677 23.7494C23.9221 23.8513 23.7585 24.2739 23.686 24.4342C23.6094 24.5946 23.506 24.8894 23.4562 24.9485C23.4064 25.0077 23.2264 25.2584 23.0878 25.3819C23.2106 25.3342 23.713 25.1739 23.9262 25.1131C23.8627 25.2106 23.5411 25.7102 23.2319 26.1907C20.2368 28.0702 16.6141 28.5093 13.2881 27.3959L13.289 27.3938Z" fill="#E0CD81"/>
<path fill-rule="evenodd" clip-rule="evenodd" d="M10.8309 13.2381C10.8309 13.2381 10.6509 13.2381 10.6157 13.2641C10.5805 13.2901 10.7958 13.3444 10.862 13.3704C10.9282 13.3964 11.071 13.5156 11.1083 13.611C11.1435 13.702 12.4021 14.2329 12.4021 14.2329L13.2922 14.1852L13.5991 13.7413L13.0153 13.2059L13.4247 11.9424L12.8824 12.0334L11.5783 12.8478L10.9241 13.1101L10.8309 13.2381Z" fill="#DFC57C"/>
<path fill-rule="evenodd" clip-rule="evenodd" d="M12.7859 13.6564C12.8121 13.7008 12.8589 13.7272 12.9087 13.7257C13.093 13.7257 13.2626 13.7734 13.333 13.8709C13.451 14.027 13.7781 14.5255 13.7781 14.5255L14.5606 14.8202L14.6111 13.8556L13.7562 13.2336L12.7832 13.6085V13.6563L12.7859 13.6564Z" fill="#E5CC7C"/>
<path fill-rule="evenodd" clip-rule="evenodd" d="M12.6322 14.0141C12.6322 14.0141 12.7749 14.0249 12.9551 13.9555C13.1352 13.886 13.4312 13.7366 13.5596 13.7952C13.7396 13.8753 13.7023 14.1268 13.897 14.3524C14.0149 14.4911 14.2303 14.4868 14.3524 14.6364C14.4745 14.786 14.8947 14.7166 14.8947 14.7166L15.0541 15.6167L14.4145 16.475L14.2053 17.5413H13.3404L12.5503 17.2131L12.1611 16.2273L12.3557 15.2303L12.6322 14.0141Z" fill="#D2C281"/>
<path fill-rule="evenodd" clip-rule="evenodd" d="M14.3054 14.0573C14.3268 14.0643 14.3491 14.0679 14.3715 14.0682C14.3467 14.0899 14.2949 14.1375 14.3156 14.2611C14.3363 14.3847 14.4025 14.5407 14.3467 14.636C14.3913 14.687 14.4245 14.7477 14.444 14.8137C14.4792 14.92 14.4896 15.0174 14.7192 15.0327C14.6861 15.0541 14.6555 15.0796 14.6282 15.1086C14.6282 15.1086 14.7876 15.2538 14.8684 15.3881C14.9511 15.3843 15.1705 15.3129 15.1705 15.3129L15.2161 15.3455L15.3134 15.3026C15.3134 15.3026 15.2224 15.2658 15.2886 15.0339C15.3506 14.8301 15.4066 14.841 15.4114 14.8259C15.4161 14.8107 15.4569 14.5961 15.4569 14.5094C15.4879 14.3968 15.5128 14.0543 15.5128 14.0543L15.4466 13.298L15.074 13.0617L14.7711 12.7555L14.4854 13.319L14.2972 13.5154L14.2827 14.0031L14.3054 14.0573Z" fill="#E2C270"/>
<path fill-rule="evenodd" clip-rule="evenodd" d="M15.2017 13.4246C15.2017 13.4246 15.2678 13.6217 15.2928 13.7735C15.3016 13.744 15.3065 13.7133 15.3073 13.6824C15.3073 13.6824 15.359 13.9816 15.3692 14.1052C15.39 14.1008 15.4102 14.0943 15.4148 14.1159C15.4194 14.1375 15.4667 14.3782 15.4557 14.5125C15.5419 14.3636 15.6612 14.2387 15.8034 14.1485C15.8863 14.0942 15.9836 14.0358 16.0851 14.0313C16.2445 14.0271 16.3603 14.1376 16.5508 14.1376C17.0103 14.1376 17.4265 13.7843 17.7328 13.676C17.9584 13.5957 18.153 13.5373 18.2896 13.4071C18.3559 13.3487 18.474 13.2187 18.5815 13.0257C18.7244 12.7685 18.8734 12.5446 19.0225 12.5165C18.955 12.5294 18.8864 12.5345 18.8178 12.5316C18.8178 12.5316 18.8634 12.4839 18.9406 12.4189C19.0179 12.3539 19.1104 12.2737 19.2428 12.2737C19.4788 12.2737 19.5967 12.3104 19.7292 12.3104C19.8617 12.3062 19.9383 12.2737 19.9383 12.2737C19.9383 12.2737 20.0771 12.3756 20.3896 12.3756C20.7022 12.3799 20.9112 12.408 21.0749 12.4233C21.2385 12.4386 21.7869 12.3756 21.9442 12.3805C22.0468 12.3846 22.1475 12.4104 22.2404 12.4563L21.7331 10.9133L19.9111 9.24597L18.8264 10.0501L17.1578 11.797L15.5432 12.4233L15.2058 12.8199V13.4246H15.2017Z" fill="#CCB360"/>
<path fill-rule="evenodd" clip-rule="evenodd" d="M18.8244 12.5402C18.8244 12.5402 18.87 12.4926 18.9464 12.4276C19.0228 12.3626 19.1163 12.2823 19.2487 12.2823C19.4846 12.2823 19.6026 12.3191 19.7351 12.3191C19.8676 12.3148 19.9442 12.2823 19.9442 12.2823C19.9442 12.2823 20.0831 12.384 20.3955 12.384C20.7081 12.3883 20.9171 12.4164 21.0808 12.4316C21.2444 12.4467 21.7928 12.384 21.9501 12.3887C22.0527 12.3928 22.1534 12.4186 22.2461 12.4646L22.0163 11.7688L21.7494 11.2379L20.9876 10.3644C20.9876 10.3644 20.0733 9.80086 20.0663 9.79658C20.0622 9.79229 19.7496 9.70557 19.7496 9.70557L18.9216 10.2301L18.1702 12.2653L18.1558 12.6939L18.6421 12.9345C18.7642 12.7202 18.8989 12.5487 19.0251 12.527C18.9112 12.54 18.8244 12.5402 18.8244 12.5402Z" fill="#D5B457"/>
<path fill-rule="evenodd" clip-rule="evenodd" d="M18.814 12.6855C18.7415 12.6898 18.6816 12.6746 18.665 12.6205C18.6029 12.4384 18.5532 12.4124 18.5012 12.4124C18.4492 12.4124 18.3791 12.5295 18.3375 12.5402C18.2958 12.5509 18.2464 12.4059 18.2464 12.4059L18.2009 12.3842C18.2009 12.3842 17.9338 12.5662 17.7455 12.7808C17.5572 12.9954 17.2486 13.3595 17.11 13.4244C16.9714 13.4893 16.4951 13.5111 16.3322 13.548C16.1693 13.5849 15.9886 13.7084 15.9637 13.7366C15.9389 13.7647 16.0363 13.795 16.0508 13.8232C16.0653 13.8492 15.8913 13.8383 15.8768 13.866C15.8666 13.8877 15.9178 14.0112 15.9431 14.0741C15.9876 14.0509 16.0363 14.0383 16.0859 14.0372C16.2453 14.0329 16.3613 14.1435 16.5516 14.1435C17.0112 14.1435 17.4273 13.7902 17.7336 13.6817C17.9593 13.6016 18.1539 13.543 18.2905 13.413C18.3567 13.3545 18.4747 13.2244 18.5824 13.0315C18.661 12.8994 18.7377 12.7758 18.8144 12.6848L18.814 12.6855Z" fill="#D2B257"/>
<path fill-rule="evenodd" clip-rule="evenodd" d="M12.223 23.4118C12.223 23.4118 12.1821 23.2513 11.8027 22.8374C11.695 22.7204 11.6289 22.6231 11.5564 22.5535C11.3763 22.3757 11.2707 22.3281 11.1424 22.2262C10.8609 22.0073 10.5545 22.0073 10.3186 21.7386C10.0826 21.4699 9.80768 20.9564 9.61663 20.4316C9.42832 19.9071 9.37646 19.7402 9.37646 19.7251C9.37646 19.71 9.42832 19.6081 9.4945 19.6232C9.56068 19.6384 9.56068 19.7727 9.57733 19.8053C9.61031 19.8584 9.64771 19.9084 9.68909 19.9547C9.78639 20.0719 9.92503 20.2119 9.99544 20.4207C9.98098 20.243 9.92298 20.0459 9.92298 20.0459C9.92298 20.0459 10.2873 20.2864 10.5978 20.5378C10.9104 20.7892 11.0387 20.8759 11.13 21.0362C11.2213 21.1965 11.4363 21.6193 11.5393 21.7429C11.6424 21.8665 13.054 22.3324 13.054 22.3324L13.7256 22.8566L14.0589 23.6217L13.798 24.0503L13.2971 24.163L12.4835 23.7815L12.223 23.4118Z" fill="#D2B159"/>
<path fill-rule="evenodd" clip-rule="evenodd" d="M10.4155 20.7762C10.4155 20.7762 10.5853 21.0601 10.9993 21.3289C11.372 21.5652 11.9619 21.7798 12.4878 21.9076C12.7899 21.9835 13.0922 22.0419 13.3633 22.0464C14.0941 22.0571 14.597 21.8384 15.2203 21.7668C15.5577 21.7299 15.9717 21.7018 16.4023 21.5953C16.9549 21.4566 17.282 21.3004 17.7271 21.081C18.05 20.925 18.3461 20.808 18.5862 20.6584C18.9236 20.4503 19.1699 20.2185 19.4557 20.1492C19.4205 20.251 19.3832 20.4331 19.1017 20.6217C19.2507 20.6172 19.4557 20.6065 19.4557 20.6065C19.4557 20.6065 19.257 20.7299 18.9071 21.0074C18.6918 21.1789 18.4062 21.469 18.1143 21.6619C17.9258 21.7855 17.7209 21.8762 17.5863 21.9502C17.2588 22.1388 17.1267 22.2341 16.9115 22.4646C16.9881 22.4603 16.9944 22.4646 16.9944 22.4646C16.9944 22.4646 16.7231 22.5014 16.5286 22.6097C16.4877 22.6097 16.4167 22.5946 16.2926 22.6314C16.1953 22.6639 16.0668 22.7377 15.9345 22.7766C15.746 22.8352 15.6841 22.8092 15.6841 22.8092L15.7151 22.8742C15.7151 22.8742 15.4694 22.8697 15.3876 22.8785C15.402 22.8827 15.3979 22.8893 15.3979 22.8893C15.3835 22.8918 15.3697 22.897 15.357 22.9045C15.3176 22.9312 15.2742 22.9509 15.2287 22.9629C15.2039 22.9672 15.1831 22.9672 15.152 22.9738C15.1624 22.9998 15.2432 23.1452 15.2804 23.2309C15.2495 23.2526 14.7836 23.6211 14.7836 23.6211C14.798 23.6449 14.8098 23.6704 14.8188 23.697C14.8333 23.7446 14.8395 23.814 14.854 23.8464C14.8891 23.9114 14.9098 23.9223 14.9098 23.9223C14.9098 23.9223 14.854 23.9331 14.7566 23.9592C14.6739 23.9809 14.5723 24.0176 14.4291 24.0393C14.3851 24.0453 14.3409 24.0489 14.2966 24.0502C14.3173 24.0979 14.4083 24.2799 14.2406 24.4901C14.0729 24.7002 14.0212 24.7308 13.9695 24.8651C13.9434 24.8445 13.9157 24.8263 13.8866 24.8108C13.8308 24.7848 13.7541 24.7459 13.7273 24.6938C13.7116 24.7633 13.6908 24.8314 13.6652 24.8975C13.6134 25.0427 13.5369 25.1859 13.5224 25.2942C13.4665 25.2291 13.363 25.1013 13.2202 25.1273C13.0773 25.1533 12.9635 25.357 12.9387 25.4156C12.9387 25.3787 12.9138 25.3506 12.9077 25.3939C12.9035 25.4416 12.8249 25.9399 12.386 26.3431C12.3819 26.2413 12.3819 26.0158 12.3715 25.9422C12.3306 25.9851 12.2805 26.0484 11.9824 26.1828C11.6905 26.3171 11.7367 26.4516 11.7367 26.4516C11.7367 26.4516 11.7119 26.2373 11.8692 26.0115C12.0286 25.7862 12.1259 25.6799 12.1259 25.6626C12.1233 25.645 12.1162 25.6285 12.1052 25.6149C12.0844 25.5932 12.0431 25.5672 12.0431 25.5499C12.0679 25.5392 12.3142 25.4156 12.2998 25.1597C12.2853 24.9301 12.1922 24.8108 12.1259 24.7264C12.1157 24.7155 12.2233 24.6354 12.2087 24.6094C12.1984 24.5942 12.066 24.4922 12.0494 24.4379C12.0533 24.4055 12.0602 24.3736 12.0701 24.3426C12.0846 24.2949 12.0949 24.2623 12.0908 24.2299C12.0805 24.1757 12.0245 24.0262 12.008 24.011C12.0225 24.0153 12.1259 24.011 12.1259 24.011C12.1259 24.011 12.0432 23.8723 12.0286 23.8073C12.014 23.7423 11.983 23.571 11.9665 23.5385C12.0017 23.5428 12.0887 23.5492 12.0887 23.5385C12.0929 23.506 12.0121 23.4518 12.0477 23.4099C12.0726 23.4142 12.1202 23.436 12.1656 23.4967C12.1408 23.4272 12.0994 23.2929 12.0124 23.2388C12.0533 23.2236 12.1925 23.1845 12.3146 23.2604C12.4368 23.3362 12.4784 23.4424 12.4784 23.4424C12.4784 23.4424 12.5508 23.501 12.6627 23.5877C12.791 23.6938 12.9545 23.8449 13.2154 23.9517C13.2713 23.9843 13.4141 23.9843 13.5177 23.9626C13.5628 23.9513 13.606 23.9331 13.6459 23.9084C13.6603 23.8995 13.6756 23.8923 13.6915 23.8867C13.6692 23.8399 13.6437 23.795 13.6149 23.7523C13.6502 23.7523 13.6915 23.7567 13.6915 23.7567C13.6915 23.7567 13.7163 23.6981 13.6046 23.5853C13.6294 23.5593 13.6605 23.5424 13.6605 23.4985C13.6253 23.4942 13.5632 23.4401 13.5488 23.4184C13.5694 23.4032 13.6005 23.3534 13.6357 23.3382C13.6046 23.3122 13.528 23.2038 13.4928 23.1931C13.5265 23.18 13.559 23.164 13.5901 23.1453C13.5901 23.1453 13.4163 23.0976 13.3603 23.0586C13.3044 23.0158 13.2217 22.9416 13.172 22.9199C13.1201 22.8982 13.0291 22.8875 12.9919 22.844C13.0269 22.8549 13.0829 22.844 13.1244 22.844C13.1554 22.844 13.17 22.8483 13.1802 22.8483C13.1761 22.8332 13.1761 22.8006 13.2569 22.7899C13.2957 22.7837 13.3334 22.7713 13.3686 22.753C13.3686 22.753 13.2919 22.7487 13.2049 22.662C13.1178 22.5753 13.0455 22.506 12.9958 22.4951C12.9441 22.4843 12.8468 22.532 12.7868 22.5276C12.7039 22.5169 12.6687 22.4734 12.6687 22.4734C12.6687 22.4734 12.3935 22.4994 11.7828 22.1094C11.2549 21.7712 11.0251 21.4722 11.0251 21.4722C10.9757 21.4534 10.9279 21.4302 10.8824 21.4027C10.6837 21.2944 10.4083 21.069 10.4166 20.7741L10.4155 20.7762Z" fill="#C2A44D"/>
<path fill-rule="evenodd" clip-rule="evenodd" d="M18.0314 7.76766C18.0792 7.78395 18.1218 7.814 18.1542 7.85438C18.2515 7.9714 18.3135 8.19242 18.0921 8.42873C18.179 8.46116 18.2149 8.47159 18.2908 8.46116C18.2142 8.5566 18.0404 8.76034 18.03 8.93807C18.0196 9.08323 18.1065 9.12666 18.1065 9.12666C18.1065 9.12666 17.974 9.28696 17.9679 9.55528C18.0305 9.4814 18.0989 9.41324 18.1726 9.35154C18.3258 9.22367 18.5369 9.07851 18.6798 8.9875C18.6779 9.02565 18.6828 9.06384 18.6943 9.10009C18.6943 9.10009 18.9612 8.87035 19.1855 8.97236C19.2869 9.02008 19.2413 9.16952 19.2413 9.16952C19.2413 9.16952 19.3801 9.11537 19.4774 9.21724C19.5747 9.31911 19.7123 9.58185 19.7828 9.68372C19.8138 9.73144 19.8946 9.82245 19.9773 9.96332C20.0902 10.1605 20.1846 10.3688 20.2589 10.5852C20.263 10.4725 20.2899 10.2971 20.5964 10.4075C20.9027 10.5202 21.2504 10.7566 21.5423 11.2219C21.8342 11.6872 21.9065 12.2126 22.0535 12.4126C22.2025 12.6055 22.3557 12.9262 22.3661 13.0607C22.3765 13.1951 22.3205 13.6284 22.6269 14.801C22.7138 14.4369 22.8463 13.6284 22.8463 13.6284L22.9188 12.9154L23.0016 10.709L20.8011 8.79491L19.0809 7.48792L17.9609 7.60064L18.0314 7.76766Z" fill="#CAA13E"/>
<path fill-rule="evenodd" clip-rule="evenodd" d="M22.1199 11.0512C22.1199 11.0512 22.0887 10.8369 21.5713 10.4726C21.0537 10.1128 20.6501 10.1128 20.2775 9.80721C19.9918 9.56661 19.6937 9.01384 19.4997 8.83182C19.3112 8.65194 19.2803 8.13174 19.2803 8.13174L19.9158 7.57454L20.8609 6.14424L21.6598 5.22314L22.0428 5.78035L22.5749 6.43485L22.8709 7.74827L22.9786 9.67076L22.1189 11.0513L22.1199 11.0512Z" fill="#B59544"/>
<path fill-rule="evenodd" clip-rule="evenodd" d="M22.7596 13.3556C22.7753 13.064 22.7409 12.7719 22.6581 12.4931C22.5217 12.0487 22.2235 11.2598 22.085 10.9643C22.029 10.637 22.0705 10.611 22.1306 10.5741C22.1906 10.5373 22.4163 10.4027 22.5399 9.93051C22.6636 9.45831 23.0472 9.44288 23.0472 9.44288L23.2831 9.26086L23.6413 10.1993L23.9538 11.0468L24.0511 11.6948L24.1235 12.2475L23.9538 13.4157L23.1155 14.209L22.7596 13.3556Z" fill="#C89D3A"/>
<path fill-rule="evenodd" clip-rule="evenodd" d="M11.0615 26.3767V26.3527C11.0789 26.3413 11.0943 26.3268 11.107 26.3099C11.1214 26.2881 11.1319 26.2621 11.1422 26.2557C11.1629 26.2449 11.2602 26.2128 11.3119 26.2231C11.3636 26.2334 11.5004 26.2924 11.5728 26.2881C11.7218 26.2839 11.8957 26.1646 12.1711 26.2188C12.5851 26.299 12.6824 26.5937 12.9226 26.7606C13.0863 26.8778 13.2558 26.8256 13.2806 26.8256H13.3364C13.3468 26.8256 13.4234 26.7346 13.4648 26.739C13.5477 26.7433 13.5559 26.8149 13.6076 26.8192C13.7297 26.8343 13.9658 26.7542 14.0838 26.7868C14.1549 26.8101 14.2105 26.8683 14.2328 26.9426C14.2577 27.0228 14.2369 27.1247 14.1769 27.1832C14.0486 27.3067 13.9265 27.4238 13.9016 27.5261C13.9332 27.5513 13.9636 27.5782 13.9925 27.6067C12.9683 27.3335 11.9828 26.9204 11.0615 26.378V26.3767Z" fill="#CEB052"/>
<path fill-rule="evenodd" clip-rule="evenodd" d="M22.0845 22.0463C22.0845 22.0463 22.4073 21.5956 22.5192 21.3722C22.631 21.1421 22.1653 18.2275 22.1653 18.2275L23.101 15.0177L23.076 13.973C23.076 13.973 23.1216 13.0085 23.2292 12.5902C23.3576 12.8308 23.7572 13.1212 23.8441 13.2751C23.8851 12.9802 24.0241 12.3583 24.0035 11.6951C24.0801 11.8185 24.2643 13.0605 24.2643 13.0605L24.4485 13.897L24.6887 14.7857L24.9557 15.7242L25.1151 16.3723L25.2061 16.5283L25.2828 16.8013L25.3553 17.0962L25.5643 17.7876L25.6871 18.3554L25.7844 19.3849C25.8056 19.4637 25.8208 19.5442 25.83 19.6255C25.8341 19.7382 25.8155 19.8032 25.8155 19.8228C25.8155 19.8424 25.8507 20.0698 25.8363 20.2411C25.8155 20.4126 25.8155 20.5467 25.6871 20.6697C25.5587 20.7928 25.4781 21.528 25.4781 21.528L25.2483 21.3677C25.2483 21.3677 25.2939 21.1487 25.1862 20.9493C25.0785 20.75 24.8695 20.7087 24.7514 20.7413C24.6335 20.7673 24.3976 20.8062 24.3209 20.8756C24.2484 20.9449 24.0705 21.1595 23.9069 21.2571C23.7022 21.3857 23.3687 21.3958 23.1907 21.4391C23.0106 21.482 22.8119 21.6106 22.6027 21.7599C22.4387 21.871 22.2656 21.9667 22.0853 22.0456L22.0845 22.0463Z" fill="#CCA847"/>
<path fill-rule="evenodd" clip-rule="evenodd" d="M22.0845 26.782C22.0845 26.782 22.0981 26.7913 22.1245 26.8064C23.5952 26.085 24.9129 25.0624 25.9999 23.799C25.988 23.3604 25.9726 22.9107 25.9557 22.7442C25.9206 22.3908 25.9454 22.0311 25.9351 21.8231C25.9247 21.615 25.8129 20.7675 25.7612 20.5486C25.7053 20.3298 25.5975 20.2213 25.5811 20.2213C25.5666 20.2257 25.4796 20.6332 25.4796 20.7357C25.4796 20.8381 25.4588 21.0847 25.4588 21.1476C25.4444 21.1431 25.4382 21.1047 25.4382 21.089C25.4175 21.1431 25.3927 21.2386 25.3823 21.2494C25.3719 21.2603 25.3967 21.1584 25.3823 21.1367C25.3678 21.115 25.3413 21.1258 25.3471 21.0717C25.3495 21.0396 25.3544 21.0077 25.3615 20.9764C25.3615 20.9764 25.2994 21.0717 25.254 21.3144C25.2084 21.555 25.2084 21.5616 25.1919 21.5832C25.1775 21.6093 25.0946 21.6959 25.0904 21.7285C25.0863 21.7869 25.1671 21.8455 25.1732 21.8779C25.1773 21.9322 25.1008 22.1835 25.0759 22.3065C25.0511 22.4296 25.0615 22.6706 25.035 22.7942C25.0142 22.9069 24.9941 22.9719 24.9232 23.0195C24.975 23.0303 25.0246 23.0455 25.0246 23.0455C25.0246 23.0455 25.0971 23.3662 24.9129 23.6394C24.8467 23.7347 24.8302 23.7781 24.7598 23.8648C24.621 24.0252 24.5133 24.2077 24.5029 24.3265C24.4958 24.2914 24.4909 24.2559 24.4885 24.2202C24.4885 24.2202 24.2733 24.4825 24.1821 24.6321C24.0642 24.8249 23.9006 24.8141 23.8546 24.8618C23.8086 24.9095 23.7987 24.9961 23.8137 25.0655C23.7727 25.0763 23.6958 25.0915 23.6439 25.2584C23.6191 25.345 23.557 25.4299 23.4597 25.4882C23.3624 25.5465 23.2444 25.564 23.1843 25.5792C23.2361 25.5943 23.2568 25.5943 23.2816 25.6116C23.2507 25.6658 23.1078 25.7503 22.9484 25.8588C22.789 25.9606 22.7123 26.1101 22.673 26.2077C22.6321 26.2987 22.5716 26.3573 22.4743 26.3681C22.5153 26.3941 22.5759 26.4547 22.6068 26.4743C22.5613 26.4851 22.484 26.4851 22.3461 26.6087C22.2011 26.7344 22.1515 26.7713 22.0852 26.7822L22.0845 26.782Z" fill="#C39D3C"/>
<path fill-rule="evenodd" clip-rule="evenodd" d="M19.2043 27.7863C19.2836 27.7281 19.3694 27.6805 19.4599 27.6444C19.7827 27.5101 20.1243 27.4841 20.2589 27.4408C20.3873 27.398 20.4886 27.3388 20.648 27.3064C20.6438 27.3444 20.6403 27.3801 20.6364 27.4138C20.1665 27.5685 19.688 27.6929 19.2036 27.7863H19.2043Z" fill="#D2BA6B"/>
<path fill-rule="evenodd" clip-rule="evenodd" d="M25.1593 18.895C25.1593 18.895 25.0931 19.2699 24.9751 19.5062C24.857 19.7425 24.7295 20.0697 24.7295 20.0697C24.7302 19.996 24.7386 19.9225 24.7543 19.8507C24.6053 19.9417 24.243 20.1607 24.1402 20.2581C24.0429 20.3492 23.8793 20.5096 23.838 20.5855C23.9353 20.2864 24.0367 20.0177 24.0533 19.8941C23.9043 20.0068 23.2086 20.6072 22.8465 21.0038L21.7182 21.9596C21.588 22.0332 21.4539 22.0989 21.3166 22.1565C21.1222 22.2431 20.8924 22.3168 20.7226 22.3862C20.7682 22.2584 20.8405 22.1455 20.942 22.0372C21.0497 21.931 21.3726 21.5647 21.4222 21.3943C21.4678 21.2165 21.4782 21.1104 21.4181 20.9608C21.3622 20.9759 21.2339 20.9825 21.147 21.0085C21.0601 21.0345 20.9669 21.132 20.9669 21.132C20.9669 21.132 21.0331 20.7353 21.1759 20.3604C21.0683 20.3647 20.884 20.3972 20.884 20.3972C20.884 20.3972 21.1407 19.9464 21.58 19.6322C21.4455 19.6622 21.3138 19.705 21.1867 19.76C20.93 19.8727 20.6485 20.0396 20.4395 20.1306C20.5574 19.9591 21.3854 18.7218 21.8781 17.5687C22.3694 16.4179 22.5529 16.1231 22.6606 15.5055C22.7164 15.1999 22.7015 14.7483 22.7164 14.3438C22.7309 13.9428 22.7785 13.583 22.7475 13.3424C22.8758 13.5093 23.3561 13.9796 23.3726 15.0309C23.3871 16.082 22.9132 17.5017 22.4101 18.2666C22.5329 18.3035 22.8511 18.3469 23.1781 17.7523C23.505 17.1577 23.5011 16.9917 23.6191 16.7445C23.6336 16.8681 23.6293 16.9114 23.6293 16.9114C23.6293 16.9114 24.1056 16.3067 24.3311 15.5459C24.3767 15.8732 24.5113 16.1616 24.3 16.7619C24.1117 17.3037 23.8654 17.436 23.8654 17.436C23.8654 17.436 23.9875 17.4143 24.1675 17.3015C24.1986 17.3817 24.1925 17.473 24.2442 17.5053C24.2959 17.5376 24.3663 17.592 24.3767 17.644C24.4325 17.5573 24.5194 17.4467 24.5465 17.3644C24.5257 17.5359 24.5113 18.2855 24.5874 18.667C24.7469 18.6518 24.9104 18.641 25.0222 18.3397C24.9456 18.6345 24.9456 18.8121 24.9973 19.0636C25.0822 19.003 25.1588 18.8946 25.1588 18.8946L25.1593 18.895Z" fill="#C0993A"/>
<path fill-rule="evenodd" clip-rule="evenodd" d="M19.7807 6.94837C19.7807 6.94837 19.6213 7.01766 19.3501 7.01766C19.1142 7.01766 19.1804 6.92236 18.8119 6.92236C18.2448 6.92236 16.2637 7.26526 15.9159 7.2604C15.6902 7.25611 16.6776 7.36227 16.6776 7.36227L19.2011 7.39913L19.7082 7.35627L19.8966 6.9548L19.7807 6.94837Z" fill="#A88F33"/>
<path fill-rule="evenodd" clip-rule="evenodd" d="M13.237 12.1133C13.237 12.1133 12.914 12.3712 12.7774 12.5685C12.6408 12.7658 12.5684 12.8957 12.4131 13.0561C12.4495 13.0576 12.486 13.0525 12.5208 13.041C12.5208 13.041 12.5208 13.0838 12.4959 13.0951C12.5394 13.09 12.5827 13.1058 12.6138 13.138C12.5682 13.164 12.4441 13.2941 12.5414 13.448C12.6138 13.565 12.7671 13.5757 12.7671 13.5757C12.7671 13.5757 12.7319 13.682 12.8788 13.6712C13.1955 13.656 13.5495 13.5107 13.713 13.5476C13.8767 13.5905 13.9698 13.6062 14.0857 13.8165C14.2085 14.0245 14.3155 14.0571 14.3155 14.0571C14.3155 14.0571 14.3879 13.8641 14.3714 13.5759C14.4308 13.4206 14.4638 13.2555 14.4687 13.0883L14.361 12.2582L13.8912 11.6361L13.2826 11.9894L13.237 12.1133Z" fill="#E3C571"/>
<path fill-rule="evenodd" clip-rule="evenodd" d="M13.8145 11.9897C13.8145 11.9897 13.86 12.1025 14.0505 12.1132C14.0298 12.1609 14.0298 12.1675 14.0361 12.2042C14.0402 12.241 14.0463 12.2952 14.0463 12.2952C14.0673 12.2846 14.0862 12.27 14.1022 12.2523C14.1126 12.3 14.0919 12.3758 14.1022 12.4301C14.1086 12.4631 14.1191 12.4951 14.1332 12.5254C14.1362 12.5179 14.1397 12.5107 14.1436 12.5038C14.1477 12.4929 14.1845 12.6208 14.2865 12.7181C14.2864 12.7031 14.2899 12.6884 14.2967 12.6752C14.2983 12.7024 14.3068 12.7286 14.3215 12.7511C14.3139 12.7473 14.3069 12.7422 14.3009 12.7359C14.3009 12.7359 14.3112 13.0788 14.3671 13.2561C14.3765 13.2447 14.3848 13.2324 14.3919 13.2193C14.3919 13.2086 14.3879 13.3147 14.3775 13.3907C14.363 13.4666 14.3734 13.5728 14.3734 13.5728C14.4107 13.542 14.4517 13.5165 14.4954 13.4969C14.5575 13.4707 14.6591 13.3906 14.7211 13.2129C14.757 13.1122 14.7847 13.0085 14.8039 12.903C14.8239 12.9433 14.8377 12.9867 14.8449 13.0316C14.8491 13.0857 14.9464 13.0576 14.9464 13.0576L14.9671 12.8212L15.0899 12.2859L15.2017 11.9543L15.7399 11.0766L16.7123 10.2925L17.5611 10.4963L18.2772 9.4776L17.0435 8.70166L15.8759 8.82953L14.8163 10.3661L13.9677 11.7598L13.8145 11.9897Z" fill="#D8B65B"/>
<path fill-rule="evenodd" clip-rule="evenodd" d="M19.9297 9.76599C19.9297 9.76599 19.8572 9.78113 19.6482 9.89457C19.4391 10.008 19.2942 10.044 19.2134 10.2109C19.1326 10.3778 19.1265 10.5101 19.1265 10.5101C19.1265 10.5101 19.2694 10.4451 19.3522 10.4233C19.4391 10.4018 19.5364 10.4082 19.5261 10.4451C19.5161 10.4703 19.5023 10.4937 19.4851 10.5144C19.4851 10.5144 19.6489 10.5101 19.6445 10.5946C19.6401 10.6792 19.6135 10.7724 19.5825 10.8135C19.5514 10.8564 19.4232 10.9198 19.4087 10.9697C19.3735 11.0716 19.4232 11.0758 19.4045 11.1581C19.39 11.2384 19.3218 11.3944 19.0981 11.6675C18.8683 11.9406 18.7706 12.1335 18.7706 12.1335C18.7706 12.1335 18.6589 11.9146 18.6009 11.7261C18.5599 11.7476 18.3401 11.8755 18.3401 11.8755L17.8308 10.0182L17.8411 9.89457C17.8411 9.89457 17.8866 9.83614 17.897 9.7277C17.8204 9.70169 17.8101 9.67998 17.7086 9.57825C17.607 9.47653 17.5243 9.3528 17.3547 9.26822C17.3299 9.2205 17.2988 9.15564 17.1746 9.12949C17.0504 9.10334 16.9759 9.08191 16.9759 9.08191C16.9759 9.08191 17.0421 9.05577 17.0732 9.00162C16.9965 9.01248 16.9346 9.03848 16.7668 9.03419C16.5971 9.02976 16.5784 9.02334 16.4853 9.03848C16.3923 9.05362 16.2806 9.09706 16.239 8.94747C16.1934 8.91061 16.0962 8.94318 16.0133 9.07091C15.9305 9.19864 15.9016 9.30065 15.7422 9.35051C15.731 9.42407 15.7064 9.49469 15.6697 9.55854C15.6241 9.63883 15.5517 9.71898 15.4544 9.83814C15.3011 10.0267 15.326 10.3366 15.0817 10.5729C14.8354 10.8091 15.1227 9.91829 15.1227 9.91829L15.5159 8.93247L16.6358 7.78592L18.3747 7.66248L18.5445 8.60543L19.3933 8.91104L19.9294 9.76713L19.9297 9.76599Z" fill="#D3AE4D"/>
<path fill-rule="evenodd" clip-rule="evenodd" d="M20.2048 9.974L19.4741 8.87088L18.9628 8.45898C18.9628 8.45898 18.5984 7.7569 18.5736 7.73519C18.5528 7.72004 18.2092 7.68104 17.9898 7.66589L18.0307 7.77205C18.0786 7.78834 18.1212 7.81839 18.1536 7.85877C18.2508 7.97578 18.3129 8.19681 18.0915 8.43312C18.1784 8.46555 18.2143 8.47598 18.2901 8.46555C18.2136 8.56099 18.0397 8.76473 18.0294 8.94246C18.019 9.08762 18.1059 9.13091 18.1059 9.13091C18.1059 9.13091 17.9734 9.29135 17.9673 9.55953C18.0299 9.48564 18.0983 9.41748 18.172 9.35579C18.3252 9.2272 18.5363 9.08262 18.6792 8.99161C18.6772 9.0298 18.6822 9.06803 18.6937 9.10433C18.6937 9.10433 18.9606 8.87459 19.1849 8.97646C19.2863 9.02418 19.2407 9.17377 19.2407 9.17377C19.2407 9.17377 19.3795 9.11962 19.4768 9.22149C19.5741 9.32336 19.7127 9.58553 19.7831 9.68754C19.8141 9.73526 19.8949 9.82627 19.9776 9.967C20.0906 10.1643 20.1849 10.3726 20.2593 10.5891C20.2633 10.5023 20.28 10.381 20.423 10.381L20.2056 9.97357L20.2048 9.974Z" fill="#CAA13E"/>
<path fill-rule="evenodd" clip-rule="evenodd" d="M9.25004 13.1081C9.25004 13.1081 9.19832 12.9737 9.25004 12.7115C9.30175 12.4493 9.38254 12.3257 9.40942 11.94C9.4363 11.5542 9.67647 11.073 9.67647 11.073L10.3409 10.7567L10.8109 10.891L10.9495 11.5499L10.3554 11.8928C10.3554 11.8928 10.3244 12.038 10.1567 12.155C9.98896 12.272 9.75712 12.363 9.70131 12.4823C9.66794 12.5554 9.64359 12.6326 9.62885 12.7121C9.62885 12.7121 9.45909 12.6752 9.3577 12.7922C9.25004 12.9115 9.25413 13.0171 9.25004 13.1081Z" fill="#F4EFC8"/>
<path fill-rule="evenodd" clip-rule="evenodd" d="M10.5916 12.9325C10.5916 12.9325 10.5357 12.9694 10.4943 13.0611C10.4534 12.9918 10.3556 12.5799 10.3515 12.2093C10.3474 11.8387 10.3262 11.7468 10.4081 11.6191C10.49 11.4913 10.8111 11.3568 10.7655 11.1267C10.7199 10.9078 10.5294 10.8168 10.2955 10.8797C10.1318 10.9226 10.0099 11.2872 9.84015 11.4692C9.71174 11.6079 9.55863 11.5862 9.51729 11.6621C9.46134 11.7639 9.51306 11.8658 9.49654 11.9308C9.49231 11.9525 9.4406 12.0695 9.34739 12.2104C9.15908 12.4943 8.84031 12.8953 8.79883 13.2551C8.81329 13.0514 8.80306 13.0471 8.85478 12.8216L8.82366 12.7675L9.02835 12.0653L9.16085 11.4866L9.45697 10.5177L9.97852 9.52727L10.4857 8.93335L11.0136 8.97021L11.0756 9.8003L11.3779 11.3588L12.0134 12.178L10.9949 12.8956L10.5916 12.9325Z" fill="#EBCC73"/>
<path fill-rule="evenodd" clip-rule="evenodd" d="M10.9082 13.227C10.9082 13.227 10.8212 13.2487 10.7901 13.2314C10.759 13.2141 10.7282 13.1945 10.7384 13.1728C10.7486 13.1511 10.8046 13.1144 10.8046 13.0969C10.807 13.0642 10.7841 13.0354 10.7529 13.0319C10.7052 13.0255 10.6908 13.0579 10.6908 13.0579C10.6908 13.0579 10.6452 13.0212 10.6081 13.0151C10.63 13.0123 10.6521 13.0108 10.6743 13.0106C10.6171 12.9835 10.5564 12.9653 10.4941 12.9565C10.5459 12.9241 10.6474 12.8286 10.7136 12.8286C10.7797 12.8286 10.8212 12.8179 10.8109 12.781C10.8005 12.7442 10.7488 12.69 10.693 12.6683C10.7136 12.6423 10.7282 12.6033 10.6785 12.4969C10.6266 12.3907 10.6474 12.3191 10.664 12.2933C10.6785 12.2607 10.7302 12.2023 10.7551 12.1654C10.7799 12.1285 10.8006 12.0787 10.842 12.0527C10.8627 12.0375 10.9289 12.0098 10.9952 11.9834C11.0677 11.9574 11.1277 11.9248 11.1691 11.9574C11.2146 11.9898 11.1939 12.0333 11.1939 12.0333C11.1939 12.0333 11.3368 11.979 11.465 12.0484C11.5935 12.1133 11.9061 12.1546 11.9061 12.1546L12.0181 12.3909L11.277 13.0562L10.9707 13.2167L10.9082 13.227Z" fill="#E5C66B"/>
<path fill-rule="evenodd" clip-rule="evenodd" d="M11.9372 12.1392C11.9372 12.1392 11.7074 12.2997 11.6557 12.3581C11.6866 12.3625 11.7384 12.3843 11.7176 12.4167C11.6928 12.4491 11.5438 12.5618 11.4609 12.6681C11.374 12.7743 11.2912 12.9087 11.2622 12.9737C11.2313 13.0322 10.9952 13.2035 10.9146 13.2251C11.0843 13.2251 11.4259 13.0062 11.5541 13.0062C11.55 13.0712 11.5893 13.1449 11.6618 13.1513C11.7343 13.1578 11.9433 13.1991 12.2248 13.017C12.5063 12.8393 12.4133 12.707 12.5312 12.6204C12.7569 12.4643 12.8479 12.3255 12.9721 12.239C13.0963 12.1524 13.1605 12.1327 13.1605 12.1327C13.1605 12.1327 13.1646 12.0677 13.2015 12.0742C13.222 12.0767 13.2396 12.0909 13.247 12.1111C13.247 12.1111 13.4624 11.9506 13.7383 11.9073C13.7319 11.9043 13.7267 11.8989 13.7238 11.8922C13.7238 11.8922 13.7444 11.8813 13.7487 11.8705C13.7487 11.8705 13.7631 11.8488 13.7735 11.8596C13.7839 11.8705 13.7983 11.9506 13.8191 11.9832C13.8647 11.9615 13.9516 11.7578 13.9516 11.7578L14.1608 11.1314V10.5592L13.997 10.5918L12.7689 11.1378L12.0236 11.9464L11.9372 12.1392Z" fill="#E6BD62"/>
<path fill-rule="evenodd" clip-rule="evenodd" d="M15.4728 9.33256C15.5393 9.31568 15.603 9.28862 15.6618 9.25226C15.637 9.3217 15.637 9.39756 15.5293 9.56229C15.4217 9.72703 15.4176 9.75089 15.3306 9.92205C15.2437 10.0998 15.2333 10.3555 15.1505 10.4681C15.1876 10.4492 15.2275 10.4368 15.2684 10.4314C15.2684 10.4314 15.1857 10.5073 15.1505 10.5874C15.1153 10.6676 15.0532 10.8344 14.9001 10.9364C14.747 11.0385 14.5523 11.1033 14.3432 11.3439C14.134 11.5801 13.9188 11.8793 13.811 11.9868C13.867 11.885 13.9435 11.6812 13.9643 11.5469C13.985 11.4126 13.96 11.252 13.9953 11.0745C14.0305 10.8969 14.0305 10.7689 14.1999 10.4588C14.3694 10.1488 14.6595 9.07167 14.6595 9.07167L15.2847 8.86365L15.4731 9.33184L15.4728 9.33256Z" fill="#B6933F"/>
<path fill-rule="evenodd" clip-rule="evenodd" d="M15.0216 8.93597C15.0216 8.93597 14.8332 9.21986 14.7815 9.47131C14.7298 9.72277 14.7773 9.70105 14.7463 9.82464C14.7278 9.89999 14.7278 9.97903 14.7463 10.0544C14.8115 9.94437 14.9008 9.8522 15.0068 9.78549C15.1849 9.67291 15.3298 9.59261 15.4162 9.49732C15.5031 9.39545 15.5756 9.22857 15.7639 9.1007C15.6873 9.08985 15.5797 9.05298 15.5592 9.05784C15.6359 8.96683 15.8656 8.8281 16.0974 8.66123C16.3272 8.48978 16.3127 8.42063 16.6854 8.24947C16.5633 8.27119 16.5053 8.23861 16.4038 8.24947C16.4447 8.15846 16.588 8.11503 16.7313 7.96558C16.8745 7.81614 16.6402 7.59497 16.6402 7.59497L15.5486 8.28633L15.0207 8.93654L15.0216 8.93597Z" fill="#C49937"/>
<path fill-rule="evenodd" clip-rule="evenodd" d="M12.0591 8.41997L12.0839 8.21195L12.3965 7.68747L12.7236 6.76637V5.50709L12.6988 4.77887L12.7505 4.30196L12.7898 4.15037L12.8313 4.0918L13.0982 4.23696L13.4668 4.76144L13.502 5.77369L13.1438 7.37101L12.1212 8.53927L12.0591 8.41997Z" fill="#DFC068"/>
<path fill-rule="evenodd" clip-rule="evenodd" d="M12.8728 4.0332C12.8728 4.0332 12.7091 4.03763 12.6741 4.75071C12.6392 5.46379 12.6223 5.83868 12.5974 6.19201C12.5726 6.54533 12.5148 6.75978 12.4857 6.96795C12.4566 7.17611 12.4401 7.45986 12.347 7.6333C12.3061 7.71346 12.2186 7.96491 12.0137 8.1535C11.7839 8.36152 11.4405 8.50683 11.3886 8.51768C11.2974 8.53926 10.8358 8.58698 10.6474 8.69542C10.5813 8.73228 10.4673 8.77557 10.3411 8.89915C10.0906 9.13532 9.75732 9.55794 9.51715 10.0673C9.14871 10.8281 8.78027 12.9759 8.78027 12.9759L8.8631 12.8307C8.8631 12.8307 8.87347 12.6378 9.05769 12.2997C9.23782 11.9616 9.1861 11.5823 9.43651 10.9342C9.5338 10.6872 9.65593 10.3665 9.80495 10.0933C10.041 9.64895 10.3266 9.26748 10.6144 9.05946C11.0842 8.72142 11.6018 8.6477 11.6018 8.6477L12.1587 8.26194C12.1587 8.26194 12.256 8.06478 12.3844 7.83933C12.5644 7.52301 12.7938 7.16968 12.8439 6.65606C12.9206 5.89526 12.7362 5.39678 12.7466 4.94602C12.757 4.49525 12.7611 4.16365 12.8481 4.08335C12.9352 4.00306 12.8728 4.0332 12.8728 4.0332Z" fill="#A88F33"/>
<path fill-rule="evenodd" clip-rule="evenodd" d="M12.8729 7.43604C12.8729 7.43604 13.1185 6.80311 13.231 6.24177C13.2517 6.12904 13.2931 6.01646 13.3034 5.92545C13.3551 5.39439 13.3696 5.17551 13.3034 4.88505C13.2517 4.67074 13.053 4.47758 12.9495 4.32785C12.8481 4.17169 12.8004 4.11354 12.8212 4.08068C12.8419 4.04782 12.9226 3.9941 13.0012 4.00053C13.17 4.00567 13.3295 4.08315 13.4422 4.21484C13.6016 4.40771 13.7278 5.06236 13.7278 5.06236L13.8606 5.92616L14.1981 7.01414L12.8732 7.4369L12.8729 7.43604Z" fill="#C99E3D"/>
<path fill-rule="evenodd" clip-rule="evenodd" d="M15.1807 6.77727C15.1807 6.77727 15.1351 6.79884 15.0524 6.77727C15.0596 6.84941 15.0276 6.91969 14.9696 6.95929C14.8827 6.92243 14.069 6.99615 14.069 6.99615C14.069 6.99615 13.6902 6.92671 13.5721 6.40223C13.4894 6.05319 13.6342 5.57214 13.5866 5.25568C13.5141 4.78963 13.4127 4.69847 13.4024 4.55346C13.392 4.40844 13.3816 4.37144 13.3816 4.28043C13.336 4.26957 13.3092 4.25443 13.2637 4.25443C13.2534 4.21156 13.274 4.17413 13.2285 4.09827C13.2534 4.10912 13.4231 4.13084 13.6218 4.32801C13.7855 4.48845 13.7855 4.54689 13.8102 4.57946C13.8412 4.61189 14.0918 4.83663 14.1994 5.06066C14.3071 5.28468 14.5161 5.99904 14.5638 6.11605C14.5782 6.16377 14.6093 6.21149 14.6866 6.31979C14.8067 6.47595 14.9826 6.73412 15.1812 6.77698L15.1807 6.77727Z" fill="#B58634"/>
<path fill-rule="evenodd" clip-rule="evenodd" d="M13.8394 4.59033C13.9648 4.80243 14.0774 5.0225 14.1767 5.24926C14.2988 5.53743 14.3713 5.77374 14.5245 5.96662C14.4417 5.71531 14.2947 5.22111 14.2078 5.04552C14.1105 4.85979 13.9118 4.65963 13.8394 4.59033Z" fill="#A88F33"/>
<path fill-rule="evenodd" clip-rule="evenodd" d="M12.4321 8.15359C12.4321 8.15359 12.223 8.20773 11.8338 8.42233C11.7054 8.49162 11.5834 8.55006 11.4654 8.60435C11.1588 8.74951 10.8299 8.88366 10.569 8.95767C10.5897 8.98367 10.6 8.99439 10.6 8.99439C10.6 8.99439 10.6 9.10069 10.6559 9.16126C10.6249 9.19384 10.2108 9.48859 10.3331 10.4747C10.4158 10.4423 10.513 10.3988 10.5275 10.3988C10.5525 10.4033 10.5586 10.4747 10.5896 10.4747C10.6206 10.4747 10.7221 10.4318 10.8298 10.2861C10.8257 10.3447 10.7636 10.9342 11.0968 11.3308C11.1589 11.2549 11.3162 11.0035 11.3162 11.0035L11.3203 10.9233C11.3203 10.9233 11.3348 10.6437 11.4219 10.388C11.5089 10.1322 11.6785 9.94363 11.6785 9.94363L12.5643 8.61935L12.4321 8.15359Z" fill="#E6C367"/>
<path fill-rule="evenodd" clip-rule="evenodd" d="M11.6041 10.098C11.5635 10.128 11.5188 10.1514 11.4716 10.1673C11.4571 10.1132 11.4363 9.92673 11.5585 9.74471C11.7014 9.52569 12.0138 9.2418 12.1008 9.01606C12.1567 8.87076 12.1319 8.50672 12.6287 8.04067C13.1256 7.57462 13.32 7.41432 13.32 7.41432L14.1232 6.9917L15.1106 7.39917L14.6201 9.41224L14.2392 10.3552L12.7245 10.0562L11.6041 10.098Z" fill="#DCBA5A"/>
<path fill-rule="evenodd" clip-rule="evenodd" d="M12.1821 9.55139L12.3706 9.30436V9.12877C12.3706 9.12877 12.5796 9.0702 12.8052 8.8296C13.0308 8.589 13.3434 8.12738 13.6188 8.15553C13.8941 8.1881 13.921 8.78188 13.9314 8.9489C13.9418 9.11592 13.977 9.49496 14.0328 9.69884C14.0949 9.90257 13.3621 10.6741 13.3621 10.6741L12.8644 11.0707L12.1821 9.55139Z" fill="#E9CE77"/>
<path fill-rule="evenodd" clip-rule="evenodd" d="M12.7651 11.6083C12.7651 11.6083 12.9184 11.3568 12.8061 11.3026C12.8723 11.1466 12.9944 10.9819 12.9944 10.9819C12.9944 10.9819 13.0813 10.7566 13.3628 10.4791C13.6443 10.2017 13.8183 10.0174 13.8639 9.83106C13.892 9.70964 13.9073 9.58536 13.9095 9.46045C13.9399 9.48648 13.9725 9.50967 14.0068 9.52974C14.0524 9.55146 14.2676 9.73777 14.2366 10.1128C14.2056 10.4878 14.0728 10.6439 14.0728 10.6439C14.0728 10.6439 13.9446 10.7782 13.8535 10.8476C13.7561 10.9169 13.721 10.997 13.5574 11.0036C13.5742 10.9896 13.5931 10.9786 13.6134 10.971C13.6134 10.971 13.4436 10.9495 13.3525 11.036C13.2613 11.1226 13.0675 11.3894 12.9702 11.4697C12.8729 11.5347 12.7651 11.6083 12.7651 11.6083Z" fill="#CDAE50"/>
<path fill-rule="evenodd" clip-rule="evenodd" d="M19.6479 7.39258C19.4033 7.29926 19.1463 7.24662 18.8862 7.23657C18.4514 7.22142 17.8159 7.24743 17.1928 7.25171C16.5221 7.256 15.9135 7.01112 15.069 6.96783C14.9303 6.8811 14.5777 6.50178 13.4771 7.30586C13.5432 7.30158 14.2762 7.12813 14.5307 7.46202C14.7873 7.79363 14.7149 8.35712 14.6798 8.49142C14.6135 8.79059 14.3982 9.22621 14.3114 9.53181C14.2246 9.83742 14.245 9.99801 14.183 10.2123C14.1209 10.4266 13.9843 10.5331 14.0649 10.7801C14.1726 10.7108 14.2287 10.7108 14.4085 10.2882C14.5884 9.86556 14.5514 9.56425 14.8496 9.20664C15.1414 8.84688 15.6274 8.35483 15.8121 8.23125C15.9969 8.10766 17.464 7.31015 19.0001 8.07094C19.3706 8.0298 19.6479 7.39258 19.6479 7.39258Z" fill="#D2A83E"/>
<path fill-rule="evenodd" clip-rule="evenodd" d="M14.0962 7.0977C14.0947 7.08142 14.0912 7.06539 14.086 7.04998C14.0716 7.01829 14.0527 6.98905 14.03 6.96326C14.03 6.96326 13.6657 6.89397 13.4815 6.91554C13.1585 6.9524 12.8666 7.37073 12.73 7.58533C12.5934 7.79992 12.4236 8.13138 12.2394 8.30269C12.2414 8.286 12.2378 8.2691 12.229 8.25497C12.229 8.25497 12.2394 8.27011 12.2188 8.29183C12.1982 8.31355 12.1981 8.32426 12.2084 8.33469L12.2395 8.36712C12.2498 8.36712 12.5355 8.23268 12.9247 7.85278C13.3387 7.45617 13.6554 7.25272 13.8211 7.183C13.9095 7.14369 14.0017 7.11507 14.0962 7.0977Z" fill="#C29637"/>
<path fill-rule="evenodd" clip-rule="evenodd" d="M21.1636 5.46814C21.1636 5.46814 21.0973 5.55472 21.0144 5.65016C20.8302 5.8539 20.59 6.08349 20.3851 6.3198C20.1906 6.54526 19.9712 6.72085 19.7247 7.01559C19.4783 7.31034 19.1926 7.63752 19.1202 7.73295C19.0541 7.82839 19.0023 7.98441 19.0023 8.06456C18.9671 8.03856 18.9258 8.01041 18.9258 8.01041C18.9432 8.04444 18.964 8.07643 18.9879 8.10585C19.0396 8.18172 19.1202 8.2773 19.1617 8.33559C19.2126 8.4098 19.2491 8.49372 19.2692 8.58262C19.2941 8.5869 19.4535 8.61948 19.6523 8.27701C19.8511 7.93455 20.1117 7.55965 20.1117 7.55965L20.5258 6.91587L20.7867 6.36981L21.1142 5.7586L21.1636 5.46814Z" fill="#AC8132"/>
<path fill-rule="evenodd" clip-rule="evenodd" d="M21.5879 5.0304C21.5879 5.0304 21.3374 5.2447 21.2401 5.37329C21.1428 5.50187 20.9126 5.83934 20.9126 5.83934L20.9954 5.82848L21.4157 5.43844L21.5795 5.13284L21.5879 5.0304Z" fill="#A88F33"/>
<path fill-rule="evenodd" clip-rule="evenodd" d="M21.5113 22.2543C21.5113 22.2543 21.5073 22.0766 21.6025 21.9704C21.6998 21.8641 21.9461 21.7081 22.1863 21.1229C22.4264 20.5377 22.4532 20.4055 22.4532 20.4055C22.4532 20.4055 22.0227 20.7913 21.7572 20.8823C21.8193 20.7479 21.8545 20.6526 21.8857 20.5831C21.8504 20.5507 21.7014 20.5138 21.687 20.4965C21.7697 20.4098 21.8152 20.1974 21.9829 20.0565C22.1983 19.885 22.5916 19.5904 22.8972 19.3278C23.2029 19.0652 23.8039 18.4545 23.8805 18.2767C23.9261 18.346 23.9364 18.3893 23.9364 18.3893C23.9364 18.3893 23.6342 18.8012 23.4769 19.0634C23.3381 19.2888 23.3485 19.4167 23.3485 19.4167L23.6342 19.2881C23.6342 19.2881 23.7169 19.6089 23.3424 20.0966C23.5061 20.0316 23.5722 20.0706 23.6652 20.0163C23.512 20.1184 23.3009 20.2571 23.1022 20.6384C22.9076 21.0199 22.6426 21.4642 22.1956 21.7415C21.7608 22.0341 21.5103 22.253 21.5103 22.253L21.5113 22.2543Z" fill="#A67A2E"/>
<path fill-rule="evenodd" clip-rule="evenodd" d="M20.3894 7.61826C20.3894 7.61826 20.2197 7.98873 20.1948 8.27705C20.1907 8.34648 20.1741 8.40063 20.1741 8.48078C20.17 8.73867 20.1885 9.02698 20.1331 9.16128C20.1124 9.10714 20.102 9.07027 20.0813 9.0487C20.0503 9.13971 19.9944 9.4236 19.9488 9.52975C19.9282 9.46046 19.8826 9.21986 19.8868 8.93597C19.8911 8.65209 19.8971 8.5978 19.8971 8.53936C19.8868 8.62594 19.8309 8.7431 19.8101 8.81239C19.7792 8.75396 19.744 8.67809 19.7025 8.61523C19.6776 8.65809 19.6467 8.72138 19.6198 8.75396C19.6155 8.72795 19.6053 8.65852 19.599 8.56108C19.5949 8.44835 19.5887 8.30319 19.5949 8.27276C19.6052 8.21433 19.6922 7.98459 19.8765 7.77428C20.0959 7.52282 20.3216 7.03963 20.3878 6.89004C20.454 6.74045 20.7355 6.11853 20.7355 6.11853H20.9508L20.6382 6.86404C20.6382 6.86404 20.4499 7.27151 20.3526 7.42124C20.2553 7.57097 20.0503 8.00002 19.9592 8.16689C20.0253 8.07588 20.0813 8.02816 20.1476 7.94144C20.2117 7.88072 20.3894 7.61826 20.3894 7.61826Z" fill="#8C6228"/>
<path fill-rule="evenodd" clip-rule="evenodd" d="M21.5921 5.00208C21.5569 5.11542 21.5013 5.22066 21.4283 5.31211C21.2999 5.47255 21.0246 5.68701 20.8902 5.85817C20.7673 6.02504 20.5217 6.48023 20.6333 7.01986C20.6743 6.90285 20.7514 6.67097 20.9563 6.40865C21.1613 6.14634 21.3807 5.84517 21.4885 5.61114C21.5961 5.37483 21.6105 5.18852 21.6105 5.18852L21.6515 5.13438L21.6266 5.01079L21.5914 5.00208H21.5921Z" fill="#CBA94C"/>
<path fill-rule="evenodd" clip-rule="evenodd" d="M25.7839 19.3781C25.7839 19.3781 25.701 19.1419 25.6762 18.9274C25.6514 18.7128 25.7171 18.6702 25.641 18.4246C25.5954 18.275 25.5127 18.296 25.492 18.275C25.4712 18.254 25.4568 18.028 25.4609 17.9044C25.465 17.7808 25.4568 17.6205 25.436 17.5511C25.4051 17.5251 25.3843 17.5033 25.3387 17.343C25.287 17.1826 25.2622 17.1024 25.2373 17.0549C25.2125 17.0073 25.1399 16.9639 25.1399 16.9161C25.1399 16.8207 25.2227 16.771 25.2227 16.7447C25.2186 16.6905 25.1566 16.734 25.1399 16.7187C25.1193 16.6927 25.1918 16.5367 25.1649 16.515C25.1545 16.5042 25.0821 16.5952 25.0634 16.5692C25.0426 16.5431 25.0178 16.2852 24.9805 16.1141C24.9455 15.9472 24.9081 15.8259 24.904 15.776C24.8999 15.7283 24.6182 14.8874 24.55 14.6836C24.495 14.5115 24.4487 14.3364 24.4114 14.1591C24.3906 14.0573 24.3761 13.8491 24.3658 13.8708C24.3554 13.8925 24.3617 13.9987 24.345 13.9944C24.3306 13.99 24.2789 13.6195 24.2623 13.5609C24.2479 13.5023 24.1608 13.3038 24.1395 13.16C24.1188 13.0147 24.0733 12.6354 24.0422 12.3775C24.0111 12.1196 23.9967 12.0135 23.9967 11.9489C24.0017 11.7909 23.9934 11.6328 23.9718 11.4764C23.9309 11.2032 23.849 10.8716 23.7772 10.6789C23.6386 10.3147 23.27 9.38276 23.2041 9.15088C23.2041 9.0923 23.2766 9.12488 23.2766 9.12488C23.2766 9.12488 23.4566 9.59736 23.5891 9.9614C23.7175 10.3256 23.8396 10.6463 23.8707 10.6789C23.8955 10.7113 24.0901 11.0689 24.1771 11.6541C24.264 12.2394 24.295 12.779 24.3468 13.1387C24.3716 13.3102 24.3924 13.4921 24.4441 13.6741C24.4999 13.8714 24.5868 14.0751 24.7008 14.3872C24.7981 14.6495 24.8705 14.8683 24.9098 15.0569C24.9554 15.2975 24.9554 15.4796 24.9823 15.5989C25.0073 15.7007 25.0444 15.9043 25.1315 16.1989C25.2185 16.4935 25.3466 16.873 25.4336 17.1092C25.6035 17.5816 25.6792 17.9761 25.7049 18.1864C25.7275 18.4032 25.8046 19.1528 25.7839 19.3781Z" fill="#A88F33"/>
<path fill-rule="evenodd" clip-rule="evenodd" d="M21.6023 4.97602L21.5919 5.00202C21.5919 5.00202 21.6229 5.01288 21.6168 5.05631C21.6172 5.11574 21.6137 5.17512 21.6064 5.23405C21.5961 5.30991 21.5754 5.36835 21.5713 5.41607C21.5713 5.51794 21.5858 5.63495 21.4485 5.92541C21.4076 6.00556 21.3823 6.07485 21.3616 6.12257C21.3099 6.23958 21.2995 6.25702 21.2539 6.31116C21.3264 6.2683 21.5873 6.09686 21.7196 6.12257C21.6286 6.17672 21.4898 6.28302 21.4029 6.42175C21.4237 6.42603 21.5106 6.44346 21.6485 6.42175C21.8783 6.38489 22.135 6.29816 22.3606 6.31545C22.607 6.33059 22.5097 6.00556 22.5097 6.00556L22.2254 5.35106L21.6872 4.95459L21.6023 4.97602Z" fill="#BE9C44"/>
<path fill-rule="evenodd" clip-rule="evenodd" d="M23.0059 9.87873C23.0059 9.87873 22.7658 9.62727 22.6685 8.76432C22.5712 7.89737 22.5919 6.62123 22.5919 6.62123L22.3973 6.12275C22.3973 6.12275 22.3564 5.79114 22.2544 5.6677C22.1525 5.54426 21.9523 5.3361 21.8612 5.23423C21.77 5.13236 21.6666 4.99363 21.6045 4.97191C21.6355 4.91777 21.7742 4.61216 22.3062 4.60783C22.8381 4.60359 23.0021 4.91348 23.0576 5.02621C23.1132 5.13893 23.364 5.62627 23.4571 6.55494C23.544 7.48247 23.5482 7.5519 23.5338 7.87265C23.5234 8.05039 23.4674 8.46215 23.37 8.90205C23.281 9.27495 23.1837 9.69113 23.0057 9.87958L23.0059 9.87873Z" fill="#A17C34"/>
<path fill-rule="evenodd" clip-rule="evenodd" d="M22.2529 10.6179C22.3329 10.6239 22.4129 10.605 22.4827 10.5636C22.5592 10.5593 22.8367 10.5961 23.0498 10.3123C23.0643 10.3771 23.1017 10.5529 23.0042 10.7089C23.0561 10.6546 23.1326 10.633 23.143 10.6179C23.1471 10.698 23.2196 10.945 22.9132 11.5454C22.9959 11.4501 23.0932 11.4544 23.1801 11.4435C23.1844 11.5562 23.2422 11.9354 23.0891 12.1393C22.9877 12.278 22.8221 12.2346 22.8221 12.2346C22.8245 12.2043 22.8245 12.1739 22.8221 12.1436C22.818 12.085 22.7972 12.0266 22.8118 11.9876C22.7318 11.9493 22.6589 11.8964 22.5965 11.8314C22.4164 11.6537 22.1825 11.3504 22.166 11.1249C22.1452 10.8735 22.3605 10.8193 22.3605 10.8193C22.3425 10.8024 22.3271 10.7826 22.315 10.7607C22.3046 10.724 22.2942 10.6654 22.2529 10.6179Z" fill="#8C6228"/>
<path fill-rule="evenodd" clip-rule="evenodd" d="M20.656 7.89118C20.656 7.89118 20.6457 7.87604 20.5898 7.94533C20.6002 7.87604 20.6106 7.81089 20.6147 7.74803C20.6411 7.68983 20.6753 7.63585 20.7162 7.58772C20.6851 7.65259 20.6644 7.71117 20.6644 7.71117C20.6644 7.71117 20.741 7.56158 20.8528 7.47057C20.9294 7.40556 21.0266 7.37527 21.068 7.31455C21.1136 7.24954 21.1032 7.23869 21.1136 7.22783C21.1136 7.22783 21.2151 7.15853 21.3704 6.95466C21.391 6.92865 21.4221 6.90051 21.4429 6.8745C21.4779 6.85936 21.5608 6.82036 21.658 6.76821C21.7596 6.70977 21.8734 6.62962 21.9438 6.59676C22.0824 6.53175 22.2295 6.53833 22.2978 6.43631C22.3495 6.42117 22.4053 6.25858 22.3951 6.12C22.4716 6.15243 22.8649 6.40817 22.9996 6.96737C23.0969 7.36399 22.9229 7.97519 22.8504 8.27008C22.778 8.56497 22.7677 8.78371 22.6662 8.91801C22.5378 9.09589 22.1239 9.34663 22.0224 9.47078C21.9355 9.57265 21.6747 9.83054 21.6849 10.0168C21.6953 10.1556 21.8588 10.2312 21.8941 10.2574C21.9295 10.2837 21.9292 10.316 21.9955 10.3003C22.0618 10.2846 22.0865 10.2526 22.1135 10.2526C22.1445 10.2569 22.1445 10.2634 22.159 10.2634C22.1695 10.2631 22.1799 10.2616 22.1901 10.259C22.1901 10.259 22.1797 10.4563 21.7388 10.5162C21.7077 10.5206 21.6767 10.5313 21.6373 10.5379C21.6892 10.5119 21.7201 10.5119 21.7761 10.4317C21.714 10.4209 21.5359 10.41 21.4903 10.3949C21.5048 10.3689 21.5524 10.2994 21.5917 10.267C21.6269 10.2346 21.5876 10.2241 21.5567 10.241C21.5033 10.279 21.4522 10.3202 21.4034 10.3645C21.3517 10.4122 21.3061 10.4772 21.2233 10.5359C21.1985 10.4492 21.2025 10.2844 21.3 10.1653C21.275 10.1696 21.2274 10.2454 21.1819 10.2303C21.1737 10.1512 21.1786 10.0713 21.1964 9.99398C21.2212 9.8964 21.3558 9.72524 21.3558 9.72524L22.0057 8.50925L22.1444 7.58815L20.656 7.89118Z" fill="#92723A"/>
<path fill-rule="evenodd" clip-rule="evenodd" d="M20.621 7.94324C20.621 7.94324 20.5858 7.96925 20.6562 8.01911C20.6459 8.03425 20.621 8.0884 20.5899 8.12526C20.5548 8.16813 20.5174 8.1947 20.503 8.23156C20.472 8.30743 20.4472 8.35943 20.4472 8.39201C20.4472 8.42458 20.4368 8.6326 20.3499 8.7669C20.3188 8.81462 20.2836 8.89478 20.2587 8.94892C20.207 9.04422 20.1614 9.12037 20.151 9.16323C20.1304 9.2391 20.116 9.44712 20.116 9.44712C20.116 9.44712 20.1616 9.38854 20.1781 9.36697C20.1531 9.42112 20.1262 9.47955 20.0869 9.52299C20.1117 9.50127 20.1842 9.44712 20.3063 9.33439C20.4761 9.18495 20.7411 8.93349 21.0641 8.73433C20.9667 8.77119 20.884 8.77119 20.8178 8.78205C20.8695 8.7279 21.3352 8.1557 21.5795 8.10155C21.5943 8.08186 21.6017 8.05714 21.6002 8.03211L21.3911 8.01054L20.9667 8.10583L20.9047 7.76294L20.621 7.94324Z" fill="#B18E3E"/>
<path fill-rule="evenodd" clip-rule="evenodd" d="M21.2958 9.89392C21.2958 9.89392 21.2399 9.95235 21.1882 10.0977C21.1484 10.0541 21.1142 10.0053 21.0866 9.95235C21.0101 9.81805 20.8922 9.64675 20.6168 9.74433C20.6127 9.65332 20.6064 9.6056 20.6168 9.5406C20.6624 9.52988 20.801 9.41287 20.9397 9.24156C21.0371 9.12455 21.1281 8.99011 21.1902 8.81895C21.2312 8.78637 21.302 8.73222 21.3949 8.66936C21.5274 8.57406 21.6868 8.44391 21.7116 8.29875C21.6495 8.32475 21.517 8.38976 21.3182 8.37904C21.3949 8.34218 21.5128 8.30318 21.4983 8.14273C21.5295 8.12102 21.5543 8.10587 21.5543 8.10587C21.531 8.09772 21.5064 8.09404 21.4818 8.09501C21.4776 8.07987 21.4715 8.05829 21.4363 8.06901C21.401 8.07973 21.3953 8.07987 21.3907 8.09501C21.3762 8.09944 21.3286 8.09501 21.2934 8.12116C21.2582 8.1473 21.1609 8.23374 21.1236 8.24889C21.1381 8.22288 21.1587 8.18402 21.1587 8.18402C21.1587 8.18402 21.0573 8.19474 20.9848 8.22688C20.8523 8.2746 20.6992 8.36133 20.5439 8.44576C20.5584 8.41976 20.5647 8.4029 20.5749 8.39805C20.5852 8.39319 20.6101 8.38733 20.6101 8.3829C20.6101 8.37847 20.5999 8.34004 20.606 8.32447C20.6525 8.22149 20.7072 8.12288 20.7698 8.02972C20.8422 7.92771 20.8567 7.78255 20.8567 7.78255L21.1734 7.61568L22.0636 7.40137L22.6412 7.43823L22.5687 7.85656L22.2276 8.58692L21.9357 9.25228L21.6023 9.65989L21.2958 9.89392Z" fill="#543E26"/>
<path fill-rule="evenodd" clip-rule="evenodd" d="M22.7386 8.08352C22.7386 8.08352 22.3908 8.53429 22.2935 8.60372C22.3556 8.46499 22.7386 7.63919 22.8773 7.40945C22.8463 7.38345 22.8048 7.38345 22.9021 6.98083C22.8194 7.18443 22.7903 7.29073 22.7221 7.34487C22.6539 7.39902 22.6454 7.38174 22.5993 7.38174C22.608 7.36524 22.6116 7.34631 22.6095 7.32759C22.6095 7.32759 22.3176 7.29073 22.1183 7.29073C21.9189 7.29073 21.5243 7.40345 21.3047 7.49446C21.1309 7.57033 21.0336 7.57033 20.9715 7.6179C20.9094 7.67205 20.8742 7.73063 20.8431 7.74577C20.8182 7.76092 20.7003 7.79992 20.6733 7.84107C20.6485 7.88393 20.6071 7.93208 20.6071 7.94294C20.6071 7.9538 20.5968 7.96908 20.6279 7.95808C20.6381 7.9538 20.7148 7.91036 20.8017 7.85621C20.9196 7.78692 21.0625 7.70677 21.1661 7.65905C21.462 7.53547 21.5552 7.55718 21.6876 7.53118C21.8263 7.50518 22.0251 7.44446 22.1574 7.44446C22.2899 7.44017 22.5405 7.44446 22.5985 7.45531C22.5736 7.47703 22.5529 7.50303 22.5633 7.59404C22.5633 7.62005 22.5425 7.64819 22.5223 7.71106C22.4604 7.88879 22.3423 8.18354 22.2767 8.33312C22.1857 8.53672 22.0823 8.70802 22.0311 8.81417C21.9799 8.92033 21.8673 9.19993 21.7558 9.34952C21.6444 9.49911 21.5861 9.59011 21.5512 9.62269C21.5162 9.65526 21.2654 9.848 21.2841 9.91744C21.3297 9.90229 21.6175 9.78885 21.8264 9.54254C22.0353 9.29623 22.0769 9.14592 22.2404 9.01148C22.4039 8.87704 22.5323 8.65173 22.6088 8.46542C22.673 8.29198 22.6585 8.23783 22.7392 8.08395L22.7386 8.08352Z" fill="#806031"/>
<path fill-rule="evenodd" clip-rule="evenodd" d="M15.2429 11.4478C15.2429 11.4478 15.1973 11.645 15.0938 11.7426C14.9924 11.838 14.8122 11.9203 14.7916 12.0808C14.7668 12.2411 14.9718 12.3214 14.9718 12.3214C14.9718 12.3214 14.8599 12.5142 14.8599 12.6594C14.8599 12.809 14.8558 12.8371 14.8702 12.9801C14.8538 12.9912 14.8399 13.0058 14.8293 13.023C14.8293 13.023 14.8395 13.1617 14.9411 13.2483C15.0426 13.3349 15.1294 13.387 15.1811 13.3653C15.189 13.383 15.1959 13.4011 15.2018 13.4196C15.2018 13.4196 15.2785 13.2159 15.3302 13.0382C15.382 12.8561 15.4275 12.882 15.4481 12.6371C15.4687 12.3922 15.6938 11.9718 15.6938 11.9718L15.8473 11.6124L15.5969 11.4087L15.2429 11.4478Z" fill="#B6903C"/>
<path fill-rule="evenodd" clip-rule="evenodd" d="M15.7087 11.801C15.6571 11.8565 15.6094 11.9159 15.5661 11.9788C15.4999 12.0742 15.4482 12.1608 15.3509 12.1978C15.2536 12.2348 15.1915 12.2345 15.1977 12.3365C15.2038 12.4385 15.295 12.4817 15.3467 12.5337C15.4026 12.5878 15.4482 12.6788 15.4234 12.7808C15.4544 12.7657 15.5103 12.7483 15.562 12.6313C15.6137 12.5142 15.9755 11.8012 15.9755 11.8012L15.7087 11.801Z" fill="#685026"/>
<path fill-rule="evenodd" clip-rule="evenodd" d="M17.1355 10.156C17.1355 10.156 17.1665 10.0694 17.1355 10.0066C17.1044 9.94156 16.9161 9.91984 16.8229 9.84612C16.7256 9.77026 16.6076 9.71754 16.5103 9.75083C16.5247 9.71397 16.5827 9.63367 16.5351 9.61638C16.4895 9.60124 16.3199 9.68139 16.2743 9.71825C16.2287 9.75511 16.1252 9.7984 16.1046 9.82455C16.084 9.85069 16.0486 9.90041 16.0279 9.8787C16.0071 9.86355 15.9969 9.82455 15.9617 9.84612C15.9265 9.8677 15.757 10.013 15.7258 10.0976C15.6945 10.1822 15.6242 10.3707 15.4131 10.5852C15.202 10.7997 15.1109 10.9385 15.173 11.0187C15.2351 11.0988 15.2641 11.0404 15.2745 11.1097C15.2825 11.1777 15.279 11.2467 15.2641 11.3134C15.2393 11.4261 15.1979 11.5323 15.2537 11.554C15.3966 11.6017 15.5354 11.5112 15.5664 11.5389C15.6285 11.5973 15.5312 11.8076 15.6781 11.8488C15.8273 11.8916 15.9743 11.8119 15.9743 11.8119L16.5165 11.5063L17.0382 11.2181L17.3051 10.6654L17.162 10.2037L17.1347 10.156H17.1355Z" fill="#D4B968"/>
<path fill-rule="evenodd" clip-rule="evenodd" d="M16.6239 11.4761C16.6239 11.4761 16.5327 11.3309 16.6446 11.2029C16.7565 11.0749 16.9158 11.0209 16.9778 10.9407C16.966 10.9255 16.9502 10.9142 16.9323 10.9083C16.9735 10.8311 17.0364 10.769 17.1124 10.7304C17.0814 10.698 17.0399 10.672 16.9945 10.672C16.893 10.672 16.8307 10.737 16.7377 10.737C16.6467 10.737 16.6363 10.6893 16.6363 10.6893C16.6363 10.6893 16.7895 10.6741 16.7749 10.6025C16.7605 10.5267 16.734 10.5267 16.734 10.5267C16.734 10.5267 17.03 10.3981 17.0817 10.3295C17.1334 10.2609 17.1273 10.1799 17.1376 10.1475C17.1727 10.1475 17.3777 10.0348 17.4605 10.0825C17.5433 10.1302 17.4853 10.2602 17.4853 10.2602C17.4853 10.2602 17.736 10.0629 17.8637 9.86946C17.9755 9.88032 18.0275 9.78931 18.1094 9.78931C18.2109 9.78931 18.3703 9.93447 18.4013 10.2444C18.422 10.4221 18.453 10.524 18.422 10.8383C18.4075 11.016 18.4116 11.3955 18.4629 11.5838C18.498 11.7334 18.5808 11.7182 18.5808 11.7182C18.5681 11.7638 18.5429 11.8045 18.5084 11.8352C18.4524 11.8894 18.4463 12.0325 18.4524 12.0867C18.4607 12.1263 18.4711 12.1654 18.4835 12.2037C18.4835 12.2037 18.4174 12.2839 18.4007 12.3382C18.3862 12.3923 18.318 12.4292 18.2682 12.4292C18.2184 12.4292 18.2434 12.4247 18.1772 12.4292C18.111 12.4336 18.0903 12.4443 18.0488 12.4292C18.0073 12.414 17.9763 12.3966 17.993 12.2577C18.0074 12.119 17.4817 11.7961 17.4817 11.7961L16.622 11.4753L16.6239 11.4761Z" fill="#CCA849"/>
<path fill-rule="evenodd" clip-rule="evenodd" d="M15.6364 12.8457C15.6364 12.8457 15.8247 13.108 16.599 13.108C16.9674 13.108 17.0959 13.0712 17.1721 13.0495C17.255 13.0278 17.5654 12.9 17.878 12.5141C18.1596 12.1652 18.0975 12.0222 18.0975 12.0222L17.9337 11.9962L17.4015 12.0721L15.8268 12.7743L15.6357 12.8457H15.6364Z" fill="#585136"/>
<path fill-rule="evenodd" clip-rule="evenodd" d="M16.2137 12.9107C16.2137 12.9107 15.543 13.0669 15.543 12.6226C15.543 12.1891 15.957 11.7339 16.0606 11.6537C16.1682 11.5735 16.4249 11.4823 16.4249 11.4823H17.0439L17.1618 11.8096L17.1101 12.5161L16.2137 12.9107Z" fill="#252211"/>
<path fill-rule="evenodd" clip-rule="evenodd" d="M16.8328 11.6148C16.8328 11.6148 16.7046 11.4912 16.4127 11.6577C16.1208 11.8241 15.8847 12.172 15.8703 12.4879C15.8558 12.7674 16.0897 12.9755 16.454 12.9864C16.7252 12.9971 16.8888 12.9647 16.9716 12.9435C16.9509 12.9175 16.8432 12.7766 16.8432 12.7766L16.8328 11.6148Z" fill="#C3B378"/>
<path fill-rule="evenodd" clip-rule="evenodd" d="M16.7065 11.6839C16.7065 11.6839 16.6755 11.6579 16.5837 11.7099C16.5071 11.7527 16.3954 11.866 16.3085 11.9462C16.2525 11.9939 16.2173 12.0155 16.1856 12.0523C16.0572 12.2128 15.9496 12.4751 16.0118 12.6051C16.074 12.7351 16.2788 12.8847 16.8005 12.7828L16.705 11.684L16.7065 11.6839Z" fill="#E6D89C"/>
<path fill-rule="evenodd" clip-rule="evenodd" d="M16.5371 11.9528C16.5371 11.9528 16.4542 12.0872 16.4542 12.3018C16.4542 12.5207 16.5723 12.8696 17.007 12.8956C17.3403 12.9173 17.5638 12.3928 17.806 12.1891C17.9902 12.0331 18.102 12.0286 18.102 12.0286C18.102 12.0286 17.9137 11.8143 17.4107 11.5367C16.9138 11.2571 16.3569 11.2203 16.0547 11.6495C16.1976 11.6386 16.6592 11.515 16.6592 11.515L16.8849 11.5909L16.5371 11.9528Z" fill="#252211"/>
<path fill-rule="evenodd" clip-rule="evenodd" d="M17.1877 12.2393C17.1731 12.2066 17.1627 12.1629 17.2232 12.1521C17.2838 12.1414 17.3109 12.1477 17.3319 12.1953C17.3528 12.2429 17.3732 12.2826 17.3422 12.3023C17.3109 12.3197 17.2296 12.3026 17.1877 12.2393ZM17.0896 11.9317C17.0896 11.9317 17.0686 11.9469 17.0791 11.9165C17.0832 11.8795 17.1105 11.8139 17.1773 11.8293C17.244 11.8447 17.2296 11.9209 17.2186 11.9428C17.2075 11.9646 17.1518 12.0016 17.1099 11.9859C17.0992 11.983 17.0904 11.975 17.0862 11.9642C17.0821 11.9534 17.0831 11.9413 17.089 11.9314L17.0896 11.9317Z" fill="#6F674D"/>
<path fill-rule="evenodd" clip-rule="evenodd" d="M11.4858 12.0697C11.4858 12.0697 11.6496 12.1983 11.8398 12.1933C12.0281 12.1889 12.2703 11.9853 12.3821 11.8551C12.4483 11.7792 12.5049 11.6991 12.5663 11.6362C12.6182 11.5821 12.6532 11.5561 12.6781 11.5192C12.7133 11.4764 12.7505 11.3958 12.7692 11.3696C12.7237 11.4065 12.6575 11.4716 12.5891 11.5149C12.5229 11.5578 12.3801 11.6384 12.3221 11.6601C12.2662 11.6818 11.6866 12.003 11.6866 12.003L11.4858 12.0697Z" fill="#AC924C"/>
<path fill-rule="evenodd" clip-rule="evenodd" d="M11.7363 10.4682C11.7363 10.4682 11.8273 10.4032 12.0034 10.3619C12.1731 10.319 12.5147 10.286 12.5147 10.286L12.7962 10.4146L12.908 10.8589L12.7033 11.3207L12.4425 11.4921L12.1464 10.9937L11.737 10.469L11.7363 10.4682Z" fill="#9F8E57"/>
<path fill-rule="evenodd" clip-rule="evenodd" d="M11.3679 10.8648L11.2705 10.9409C11.2705 10.9409 11.2955 10.8932 11.3161 10.7481C11.3367 10.6029 11.4445 10.2496 11.6018 10.0458C11.7592 9.8421 11.7551 9.85296 11.7551 9.85296C11.7258 9.84735 11.6956 9.85521 11.6722 9.87454C11.693 9.82653 11.8255 9.65508 11.958 9.56936C12.0905 9.48364 12.1422 9.45663 12.2809 9.5265C12.4195 9.59636 12.4547 9.63265 12.5562 9.62837C12.6578 9.62408 12.7445 9.51135 12.7445 9.51135C12.7445 9.51135 12.7653 9.58065 12.6887 9.74109C12.6122 9.90154 12.3099 10.2287 12.3099 10.2287L11.6806 10.6795L11.3679 10.8648Z" fill="#EAC970"/>
<path fill-rule="evenodd" clip-rule="evenodd" d="M11.8336 10.414C11.8336 10.414 12.2891 10.479 12.4277 10.3447C12.4318 10.3599 12.4484 10.3599 12.4484 10.3707C12.4473 10.3789 12.4437 10.3865 12.4381 10.3923C12.4531 10.3898 12.4684 10.3884 12.4836 10.388C12.5019 10.3937 12.5206 10.3974 12.5396 10.3989C12.5549 10.3985 12.5701 10.3971 12.5852 10.3945C12.5823 10.4162 12.571 10.4358 12.5541 10.4488C12.5748 10.4488 12.595 10.453 12.595 10.4703C12.595 10.4876 12.5991 10.5398 12.5743 10.5506C12.5537 10.5566 12.5318 10.555 12.5122 10.5462C12.5138 10.5872 12.5245 10.6273 12.5433 10.6634C12.5842 10.7435 12.6715 10.8348 12.7889 10.8085C12.7889 10.8085 12.8509 10.9645 12.5901 11.3113C12.555 11.359 12.5176 11.424 12.4722 11.4782C12.4542 11.5191 12.4405 11.562 12.4312 11.606C12.4312 11.606 12.8723 11.4283 12.9985 11.023C13.1269 10.6155 13.1517 10.2146 13.1269 9.83969C13.1227 9.73339 13.1062 9.65767 13.0813 9.60338C13.0192 9.46894 12.8453 9.49065 12.775 9.56652C12.6735 9.67282 12.5037 9.93713 12.2678 10.1192C12.0276 10.3012 12.0179 10.3335 11.8336 10.414Z" fill="#D7BC6B"/>
<path fill-rule="evenodd" clip-rule="evenodd" d="M11.2869 10.9992C11.2869 10.9992 11.2 11.0534 11.1544 11.2564C11.1089 11.4644 11.1954 11.718 11.2455 11.7982C11.2955 11.8783 11.4092 12.0974 11.645 12.1082C11.7034 12.1079 11.7611 12.0954 11.8148 12.0714C11.8971 12.0318 11.9743 11.9816 12.0446 11.9218C12.1461 11.8416 12.2288 11.7723 12.2184 11.7657C12.1936 11.7549 11.5933 11.2347 11.5933 11.2347L11.3676 10.9709L11.2869 10.9992Z" fill="#585136"/>
<path fill-rule="evenodd" clip-rule="evenodd" d="M11.8543 11.8618C11.8543 11.8618 11.9764 11.8511 12.0489 11.8034C12.1214 11.7556 11.6245 11.2399 11.6245 11.2399L11.6597 11.7971L11.8543 11.8618Z" fill="#453A25"/>
<path fill-rule="evenodd" clip-rule="evenodd" d="M11.3263 10.9602C11.3263 10.9602 11.2643 11.0837 11.2643 11.1163C11.2539 11.2225 11.285 11.5562 11.3098 11.6624C11.3347 11.7751 11.4692 11.9463 11.6432 11.9463C11.7507 11.9463 11.8999 11.877 11.8999 11.8597C11.8999 11.838 11.7466 11.8168 11.7053 11.7361C11.6805 11.6932 11.6701 11.5867 11.6644 11.4789C11.6603 11.4096 11.6603 11.3338 11.6851 11.3075C11.741 11.2425 11.7513 11.056 11.7513 11.056L11.95 10.6696H11.6886L11.376 10.8733L11.3263 10.9602Z" fill="#84754B"/>
<path fill-rule="evenodd" clip-rule="evenodd" d="M11.25 11.0794C11.25 11.0794 11.4547 10.7955 11.6392 10.7304C11.8237 10.6652 11.9062 10.7044 11.9062 10.7044L11.7986 10.9927L11.6453 11.1704L11.6557 11.2614C11.6557 11.2614 11.6307 11.502 11.784 11.6689C11.9372 11.8358 12.051 11.8294 12.1173 11.8294C12.1837 11.8294 12.374 11.7708 12.4713 11.5302C12.5582 11.3049 12.6307 11.0158 12.4568 10.7261C12.287 10.4378 11.9869 10.4266 11.9289 10.4266C11.8709 10.4266 11.4155 10.4509 11.25 11.0794Z" fill="#252211"/>
<path fill-rule="evenodd" clip-rule="evenodd" d="M16.5057 12.0439C16.4292 12.007 16.5016 11.7817 16.5782 11.7123C16.6547 11.6428 16.752 11.5628 16.9219 11.5518C16.9839 11.5475 17.0439 11.5887 17.0337 11.6321C17.0192 11.7123 16.9116 11.825 16.8143 11.9051C16.6797 12.0157 16.5926 12.085 16.5057 12.0439Z" fill="#F7F7E7"/>
<path fill-rule="evenodd" clip-rule="evenodd" d="M12.3654 10.815C12.4214 10.8107 12.4938 10.8578 12.5083 10.9213C12.5227 10.9906 12.4731 11.1293 12.3654 11.1293C12.2785 11.1293 12.2329 11.0166 12.2329 10.9841C12.2339 10.9575 12.241 10.9314 12.2537 10.9083C12.2577 10.9017 12.2681 10.8258 12.3654 10.815Z" fill="#F8F6DE"/>
<path fill-rule="evenodd" clip-rule="evenodd" d="M11.558 10.8649C11.558 10.8649 11.4152 10.9342 11.349 11.0792C11.3017 11.1863 11.2874 11.3061 11.308 11.4221C11.3184 11.4762 11.3701 11.6105 11.4053 11.6582C11.4405 11.706 11.4882 11.7385 11.5234 11.7341C11.5586 11.7297 11.6309 11.6322 11.6309 11.5738C11.6309 11.5154 11.6351 11.2682 11.7034 11.1338C11.7634 10.9995 11.558 10.8649 11.558 10.8649Z" fill="#D4C38B"/>
<path fill-rule="evenodd" clip-rule="evenodd" d="M11.579 10.854C11.5542 10.8692 11.5128 10.8909 11.5231 10.919C11.5335 10.945 11.6204 10.9619 11.6515 11.0253C11.6867 11.0903 11.6867 11.1596 11.6763 11.1922C11.7034 11.1787 11.7279 11.1604 11.7488 11.1379C11.7944 11.0837 11.8502 11.0102 11.8978 11.0102C11.9289 11.0102 11.9599 11.0253 11.989 11.0253C12.0345 11.0253 12.08 11.0102 12.0862 10.9603C12.0965 10.8953 11.9993 10.8367 11.9434 10.8476C11.9537 10.8047 11.9682 10.7414 11.9226 10.698C11.8771 10.6546 11.7343 10.7306 11.7032 10.7523C11.6721 10.774 11.579 10.854 11.579 10.854Z" fill="#E2D59D"/>
<path fill-rule="evenodd" clip-rule="evenodd" d="M14.8685 15.4076L15.1748 15.3129L15.2617 15.3779C15.2617 15.3779 15.3237 15.5166 15.4211 15.5339C15.39 15.6032 15.3092 15.6625 15.3135 15.7116C15.3177 15.7608 15.359 15.7983 15.359 15.7983C15.359 15.7983 15.0837 16.2751 15.6261 16.7556C15.4977 16.8097 15.3342 16.8842 15.2473 16.927C15.3092 16.9422 15.4417 16.9699 15.4977 17.0225C15.5536 17.0751 15.5536 17.0918 15.6053 17.1243C15.6571 17.1569 15.688 17.2002 15.6778 17.2196C15.6426 17.1979 15.5246 17.1331 15.504 17.1936C15.4833 17.2542 14.9926 17.2305 14.9926 17.2305L14.1646 17.3974C14.1646 17.3974 14.1956 17.3107 14.1087 17.2305C14.0073 17.1352 13.8831 17.2348 13.7506 17.1286C13.5767 16.9899 13.5705 16.8295 13.5146 16.7689C13.5705 16.732 13.6844 16.6779 13.9555 16.6403C13.9452 16.6186 13.91 16.5536 13.9307 16.4951C13.9555 16.4193 14.059 16.3716 14.028 16.2808C14.0736 16.27 14.0942 16.27 14.2081 16.1204C14.3158 15.9708 14.382 15.9384 14.4648 15.9275C14.5476 15.9166 14.5973 15.9275 14.7506 15.7779C14.8581 15.6718 14.823 15.5808 14.823 15.5808C14.823 15.5808 14.8932 15.5572 14.8685 15.4076Z" fill="#CBAC5A"/>
<path fill-rule="evenodd" clip-rule="evenodd" d="M13.9638 15.4557C13.9679 15.434 13.9845 15.4231 14.0963 15.434C14.208 15.4448 14.916 15.3647 15.1085 15.3538C15.3031 15.3387 15.9883 15.3494 16.3216 15.4231C16.655 15.4968 16.9923 15.5836 17.1558 15.6269C17.3196 15.6746 17.3711 15.6917 17.3649 15.7134C17.3608 15.7352 17.3239 15.7563 17.3028 15.7503C17.2822 15.746 16.7397 15.5726 16.5722 15.536C16.4046 15.4994 15.8248 15.4015 15.5078 15.4074C15.2118 15.4118 15.0938 15.4031 14.8434 15.4334C14.5928 15.466 14.1788 15.5093 14.0546 15.492C13.9318 15.4768 13.9572 15.4768 13.9635 15.4551L13.9638 15.4557Z" fill="#D6BC6F"/>
<path fill-rule="evenodd" clip-rule="evenodd" d="M15.6302 17.1545C15.6302 17.1545 16.0546 17.3951 16.2079 17.6899C16.3196 17.9087 16.1417 18.0172 16.1417 18.0172C16.1417 18.0172 16.3818 18.0172 16.3507 18.1559C16.3363 18.2425 15.9367 18.4765 15.6697 18.6001C15.3985 18.7237 15.4089 18.7173 15.2764 18.7388C15.148 18.7605 14.796 18.696 14.7236 18.8038C14.6511 18.9117 14.6826 19.0229 14.7028 19.0401C14.7236 19.0553 14.8913 19.077 14.8913 19.077C14.8913 19.077 14.8561 19.1789 14.5084 19.1897C14.1607 19.2006 14.0736 19.2265 14.0529 19.2656C14.0321 19.3023 14.1191 19.2807 14.2786 19.3085C14.438 19.3345 14.6615 19.3513 14.6615 19.3513C14.6615 19.3513 14.589 19.4163 14.4007 19.4683C14.1854 19.5268 13.8479 19.5811 13.7465 19.6461C13.7983 19.6829 13.8749 19.7371 13.9103 19.7414C13.8234 19.7631 13.7011 19.8108 13.6805 19.8281C13.7115 19.8498 13.753 19.8758 13.753 19.8758C13.753 19.8758 13.579 20.0947 13.4776 20.149C13.3762 20.2033 12.7924 20.487 12.5915 20.4329C12.0906 20.2941 12.0285 19.7198 11.9064 19.6765C11.7222 19.6115 11.6352 19.7414 11.4716 19.6504C11.5441 19.5962 11.5835 19.5638 11.6601 19.5269C11.5772 19.4841 11.1488 19.1996 11.1488 19.1996C11.104 19.0973 11.0542 18.9975 10.9998 18.9006C10.9169 18.751 10.7951 18.5515 10.7036 18.3759C10.505 17.9902 10.4946 17.8124 10.3145 17.5936C10.3456 17.5507 10.4531 17.5567 10.4531 17.5567L11.9623 18.0769L14.6384 18.1581L15.3344 17.1178L15.6302 17.1545Z" fill="#DFC677"/>
<path fill-rule="evenodd" clip-rule="evenodd" d="M11.666 18.7409C11.6822 18.7598 11.701 18.7759 11.7218 18.7887C11.7737 18.8255 11.8502 18.869 11.902 18.9338C11.9227 18.9014 11.9744 18.8428 12.0657 18.9338C12.157 19.0248 12.2704 18.96 12.3409 18.9815C12.4134 19.0077 12.4175 19.0184 12.4175 19.0184C12.4175 19.0184 12.4584 18.9815 12.55 18.9425C12.6059 18.9208 12.6721 18.9057 12.7446 18.8841C12.8108 18.869 12.8832 18.8472 12.933 18.8472C12.9786 18.8797 13.1421 19.0615 13.7983 18.7931C14.4173 18.5416 14.56 18.5135 14.6636 18.5524C14.674 18.5263 14.6844 18.4765 14.8437 18.4831C14.8437 18.4138 14.7112 18.1775 14.7112 18.1775L13.9805 17.9153H13.5808L12.3823 18.145L11.7181 18.5418L11.6664 18.7418L11.666 18.7409Z" fill="#C4A859"/>
<path fill-rule="evenodd" clip-rule="evenodd" d="M11.2666 18.3011C11.2666 18.3011 11.2811 18.4181 11.4467 18.5417C11.6105 18.6651 11.6619 18.7389 11.6619 18.7389C11.6619 18.7389 11.693 18.696 11.7179 18.6523C11.7427 18.6046 11.7634 18.5504 11.8048 18.5353C11.8876 18.4984 12.0759 18.5677 12.1174 18.5568C12.1526 18.5461 12.1423 18.4703 12.1795 18.4703C12.2664 18.4658 12.3222 18.5287 12.3534 18.5287C12.3845 18.5287 12.4609 18.5244 12.4713 18.5071C12.4816 18.4898 12.4857 18.3098 12.6038 18.2231C12.7322 18.1278 12.8895 18.1689 12.9313 18.1907C12.9313 18.2231 12.9354 18.3034 13.0182 18.3077C13.101 18.312 13.1092 18.2968 13.1819 18.3228C13.2547 18.3488 13.3413 18.3185 13.3806 18.4463C13.4158 18.4355 13.4987 18.4247 13.4779 18.3011C13.5189 18.2687 13.5546 18.2469 13.6417 18.1191C13.6624 18.0866 13.6975 18.0498 13.7245 18.0021C13.797 18.0021 13.8839 17.9869 13.9997 18.0931C13.9645 18.1191 13.9438 18.1359 13.9336 18.1624C13.9639 18.1938 13.9915 18.2279 14.0163 18.2642C14.0474 18.3071 14.0681 18.3597 14.1074 18.3705C14.1943 18.3965 14.3372 18.3597 14.4966 18.3705C14.6498 18.3814 14.7781 18.4398 14.8341 18.4767C14.8548 18.466 14.8548 18.4615 14.9065 18.4724C14.9582 18.4833 14.9975 18.4875 14.9417 18.4183C14.9727 18.4334 15.0079 18.466 15.039 18.4334C15.0701 18.4008 15.0948 18.3532 15.1818 18.3424C15.2687 18.3315 15.2998 18.3467 15.335 18.2514C15.3806 18.1344 15.2232 18.1344 15.2232 18.1344C15.2232 18.1344 15.2957 18.0649 15.3765 17.9739C15.4738 17.8786 15.5855 17.755 15.6124 17.6033C15.658 17.3237 15.3972 17.287 15.3972 17.287L14.1324 17.6945L12.586 17.6142L11.2674 18.3012L11.2666 18.3011Z" fill="#927D49"/>
<path fill-rule="evenodd" clip-rule="evenodd" d="M10.1299 14.4756C10.1299 14.4756 10.0889 14.5298 10.0637 14.6576C10.0384 14.7855 10.0492 14.7704 10.0285 14.8614C10.0077 14.9524 9.75298 15.8583 9.8485 16.1639C9.94402 16.4695 10.1094 16.5823 10.2128 16.8293C10.2336 16.8834 10.2538 16.916 10.2646 16.9637C10.2998 17.124 10.2688 17.2476 10.3101 17.4081C10.3246 17.4622 10.362 17.5251 10.4178 17.5901C10.5406 17.7244 10.7408 17.8523 10.8272 17.9433C10.9492 18.0777 11.1232 18.3509 11.3446 18.3767C11.4627 18.3919 11.6304 18.3399 11.769 18.2533C11.8918 18.173 11.9677 18.0604 12.0965 17.9961C12.1875 17.9484 12.2848 17.9311 12.3718 17.9094C12.5519 17.8725 12.7155 17.8665 12.8128 17.8877C12.9618 17.9203 13.3137 18.033 13.5087 18.033C13.6611 18.0304 13.8126 18.0086 13.96 17.968C14.256 17.877 14.6141 17.7208 14.8501 17.6515C14.9888 17.6087 15.1005 17.5974 15.2145 17.5714C15.4091 17.5237 15.5725 17.4586 15.6658 17.3351C15.6037 17.2592 15.5271 17.1422 15.113 17.1465C14.6431 17.1573 14.1007 17.4304 13.8337 17.4738C13.5666 17.5172 13.4507 17.5539 13.1526 17.4412C12.8603 17.3273 12.8506 17.252 12.8506 17.252C12.8506 17.252 12.5437 17.0273 12.4153 16.4544C12.2869 15.8815 12.4153 15.464 12.7487 15.0672C12.8356 14.9654 12.8148 14.8744 12.8148 14.8744C12.8148 14.8744 13.0343 14.5645 12.9742 14.2743C12.908 13.986 12.4837 14.0446 12.4837 14.0446L10.1299 14.4756Z" fill="#6E6342"/>
<path fill-rule="evenodd" clip-rule="evenodd" d="M10.4841 15.4402C10.4659 15.4761 10.4573 15.5166 10.4593 15.5572C10.4634 15.6156 10.48 15.6915 10.6476 15.8628C10.7905 16.0122 10.7593 16.1791 10.7593 16.1791C10.7593 16.1791 10.8313 16.1943 11.0264 16.0987C11.1796 16.0228 11.2311 16.1573 11.2311 16.1573C11.2757 16.1328 11.324 16.1166 11.374 16.1095C11.4192 16.1052 11.4629 16.0906 11.5022 16.0667C11.5022 16.0667 11.6824 16.2596 11.8397 16.3506C11.9826 16.4309 12.0654 16.485 12.1358 16.4309C12.202 16.3831 12.202 16.2856 12.1978 16.2423C12.1813 16.2023 12.1605 16.1645 12.1358 16.1295C12.0902 16.0603 12.0178 15.98 12.013 15.9152C12.0026 15.7658 12.1207 15.5879 12.0957 15.5446C12.0707 15.5013 11.9778 15.4905 11.748 15.5772C11.51 15.6595 10.4831 15.4406 10.4831 15.4406L10.4841 15.4402Z" fill="#39331F"/>
<path fill-rule="evenodd" clip-rule="evenodd" d="M11.0263 16.409C11.0263 16.409 10.9084 16.292 10.9497 15.7241C10.9998 15.7233 11.0497 15.7284 11.0987 15.7392C11.0987 15.7392 11.163 16.1793 11.0263 16.409Z" fill="#292311"/>
<path fill-rule="evenodd" clip-rule="evenodd" d="M10.1858 14.0422C10.2023 14.0295 10.2175 14.0151 10.2314 13.9994C10.1904 14.0795 10.0015 14.4003 10.1547 14.9053C10.3079 15.4081 10.6929 15.783 11.167 15.8004C11.641 15.8178 11.8902 15.575 12.1751 15.2109C12.2869 15.0658 12.4153 14.8836 12.5291 14.7602C12.6988 14.5671 12.8313 14.513 12.8313 14.3267C12.8313 13.9452 12.4587 13.7739 11.9101 13.6027C11.3615 13.4316 10.8667 13.4527 10.6101 13.5699C10.3597 13.6976 10.2521 13.8319 10.1858 14.0422Z" fill="#252211"/>
<path fill-rule="evenodd" clip-rule="evenodd" d="M11.9477 16.5802L11.9886 16.5584C11.9886 16.5584 11.9988 16.387 12.0652 16.3916C12.1313 16.4024 12.1625 16.4936 12.1562 16.526C12.1521 16.5584 12.1356 16.6127 12.0693 16.6062C11.9823 16.6083 11.9477 16.5802 11.9477 16.5802Z" fill="#3F3824"/>
<path fill-rule="evenodd" clip-rule="evenodd" d="M11.7632 15.8519C11.7632 15.8519 11.8041 15.8368 11.8542 15.8888C11.8951 15.8888 12.0736 15.867 12.1296 15.9039C12.1855 15.9408 12.202 15.9732 12.202 15.9732C12.202 15.9732 11.993 16.0209 11.879 15.9732C11.7632 15.9321 11.7632 15.8519 11.7632 15.8519Z" fill="#2D2815"/>
<path fill-rule="evenodd" clip-rule="evenodd" d="M12.6843 15.8844C12.6843 15.8735 12.5726 15.7934 12.4545 15.7672C12.4338 15.7629 12.4296 15.7781 12.4136 15.7781C12.4032 15.7738 12.3991 15.7412 12.3991 15.7412L12.332 15.7782C12.332 15.7782 12.3216 15.7934 12.3568 15.8211C12.3878 15.8471 12.4397 15.8688 12.4541 15.9121C12.4686 15.9554 12.4686 15.9705 12.4749 15.9771C12.479 15.9814 12.5514 15.9771 12.5866 15.9554C12.6218 15.9337 12.6886 15.8987 12.6843 15.8844Z" fill="#82764F"/>
<path fill-rule="evenodd" clip-rule="evenodd" d="M11.6392 16.3244C11.6392 16.3244 11.6598 16.175 11.7985 16.1684C11.9413 16.1576 11.9683 16.3027 11.9683 16.3027L11.8855 16.3895C11.8855 16.3873 11.8234 16.2963 11.6398 16.3244H11.6392Z" fill="#2D2816"/>
<path fill-rule="evenodd" clip-rule="evenodd" d="M12.5397 15.6807C12.5397 15.6807 12.463 15.7674 12.2934 15.7934C12.2789 15.7717 12.2478 15.7284 12.2934 15.6591C12.339 15.5898 12.3907 15.5681 12.4424 15.5897C12.489 15.5976 12.527 15.6331 12.5397 15.6807Z" fill="#574F35"/>
<path fill-rule="evenodd" clip-rule="evenodd" d="M12.852 15.7887C12.8562 15.7669 12.8417 15.7625 12.852 15.7516C12.8622 15.7407 12.9183 15.719 12.9287 15.7298C12.9327 15.7342 12.9287 15.7516 12.9287 15.7729C12.9287 15.7942 12.9287 15.816 12.9183 15.8317C12.9038 15.8536 12.8625 15.8645 12.8417 15.858C12.821 15.8515 12.8169 15.8209 12.8169 15.8149C12.8271 15.8106 12.852 15.7996 12.852 15.7887ZM13.2054 15.5532C13.2054 15.5422 13.2406 15.5204 13.2613 15.5204C13.2923 15.5204 13.2923 15.5466 13.2965 15.5532C13.3068 15.5575 13.3068 15.5487 13.3172 15.5684C13.3275 15.5881 13.3421 15.6229 13.3316 15.6448C13.3211 15.6666 13.2799 15.6817 13.2697 15.6774C13.2552 15.6665 13.2096 15.5684 13.2054 15.5532Z" fill="#82764F"/>
<path fill-rule="evenodd" clip-rule="evenodd" d="M12.4941 15.8368C12.4941 15.8368 12.5397 15.8475 12.6018 15.9018C12.5811 15.917 12.55 15.9343 12.55 15.9343C12.55 15.9343 12.5459 15.8845 12.4941 15.8368Z" fill="#6E6342"/>
<path fill-rule="evenodd" clip-rule="evenodd" d="M12.3928 15.3599C12.3823 15.3492 12.4239 15.3232 12.4489 15.3275C12.4739 15.3318 12.4844 15.3492 12.5114 15.3535C12.5385 15.3578 12.5428 15.3427 12.5527 15.3318C12.5625 15.3209 12.5985 15.3275 12.6047 15.3318C12.6086 15.3366 12.6121 15.3416 12.6152 15.3469C12.616 15.3303 12.6236 15.3147 12.6359 15.3041C12.6521 15.2917 12.6728 15.2877 12.6922 15.2932C12.6963 15.3084 12.7172 15.3625 12.7131 15.3734C12.709 15.3842 12.6465 15.3995 12.6359 15.3885C12.6463 15.4147 12.6922 15.4688 12.6984 15.4795C12.7046 15.4902 12.6525 15.5164 12.6318 15.5121C12.6027 15.51 12.4234 15.4015 12.3922 15.3604L12.3928 15.3599ZM12.6657 15.0002C12.6618 14.9893 12.6545 14.9801 12.6448 14.9742C12.6303 14.9699 12.5823 14.9742 12.5823 15.0002C12.5823 15.0262 12.6235 15.1716 12.6698 15.2474C12.722 15.3232 12.7573 15.3859 12.7928 15.4034C12.8159 15.4143 12.8431 15.4048 12.8553 15.3817C12.8594 15.3708 12.8698 15.2907 12.8657 15.1021C12.8616 14.9135 12.8553 14.7314 12.8448 14.7206C12.8344 14.7097 12.7928 14.7099 12.7782 14.7314C12.7636 14.753 12.67 14.9678 12.6657 15.0002Z" fill="#585136"/>
<path fill-rule="evenodd" clip-rule="evenodd" d="M12.4794 16.1098C12.4794 16.1098 12.407 16.0621 12.3366 16.0946C12.2704 16.1272 12.2745 16.2551 12.2745 16.2551C12.3047 16.2675 12.3388 16.2634 12.3656 16.2442C12.4112 16.2118 12.4691 16.1575 12.4794 16.1098Z" fill="#574F35"/>
<path fill-rule="evenodd" clip-rule="evenodd" d="M12.6161 16.2812C12.612 16.2383 12.5752 16.2383 12.5752 16.2161C12.5804 16.1944 12.5992 16.1791 12.6206 16.1793C12.6414 16.1793 12.6616 16.2053 12.687 16.2221C12.7118 16.2373 12.749 16.265 12.7531 16.298C12.7572 16.331 12.7122 16.4215 12.6621 16.4215C12.612 16.4215 12.6269 16.3239 12.6165 16.2806L12.6161 16.2812ZM13.0157 16.2226C13.0157 16.2226 12.9329 16.2486 12.939 16.2226C12.9451 16.1966 12.964 16.1901 12.9908 16.1901C13.0045 16.1752 13.0229 16.1659 13.0426 16.164C13.0538 16.1634 13.0649 16.1673 13.0735 16.1749C13.0735 16.1749 13.1295 16.1489 13.146 16.164C13.1625 16.1791 13.1502 16.1791 13.1605 16.1966C13.1735 16.2159 13.1821 16.2382 13.1854 16.2616C13.1854 16.2789 13.1234 16.3157 13.0735 16.3093C13.0157 16.2963 13.0259 16.2334 13.0157 16.2226ZM13.4979 16.125C13.4979 16.125 13.5228 16.1401 13.5022 16.1576C13.4877 16.1727 13.4152 16.2004 13.353 16.2053C13.2909 16.2053 13.2351 16.216 13.2351 16.1944C13.2351 16.1729 13.2868 16.1294 13.3178 16.1186C13.3304 16.1021 13.3495 16.0925 13.3697 16.0926C13.3945 16.0926 13.4917 16.0817 13.5187 16.0774C13.5435 16.073 13.5643 16.0881 13.5497 16.1098C13.5435 16.125 13.4979 16.125 13.4979 16.125ZM13.6408 15.4558C13.6408 15.4558 13.6097 15.5251 13.5746 15.5251C13.5394 15.5208 13.5394 15.5099 13.5394 15.4991C13.5394 15.4839 13.5746 15.4449 13.5704 15.4341C13.5602 15.4341 13.5352 15.4341 13.5394 15.4081C13.5394 15.3863 13.5746 15.3603 13.6056 15.3652C13.629 15.3451 13.6581 15.3336 13.6884 15.3328C13.7236 15.3328 13.7546 15.3435 13.7546 15.3652C13.7546 15.3869 13.7137 15.4345 13.6987 15.4455C13.6822 15.4628 13.6614 15.4736 13.6408 15.4558ZM13.1688 16.7366C13.1688 16.7366 13.1279 16.7411 13.1279 16.7626C13.1279 16.7735 13.1381 16.7735 13.1527 16.7671C13.1611 16.7666 13.1694 16.7651 13.1775 16.7626C13.1816 16.7671 13.1816 16.7886 13.2127 16.7886C13.2383 16.785 13.2629 16.7762 13.2852 16.7626C13.31 16.7519 13.3308 16.7409 13.3308 16.7198C13.3204 16.6829 13.2997 16.6655 13.2687 16.6655C13.2528 16.6644 13.237 16.6682 13.2231 16.6763C13.2231 16.6763 13.2127 16.6546 13.1775 16.6763C13.1423 16.6981 13.1464 16.6981 13.1568 16.7089C13.1753 16.7262 13.1692 16.7375 13.1692 16.7375L13.1688 16.7366ZM12.9349 16.9621C12.9349 16.9512 12.9866 16.9295 13.0011 16.9361C13.0155 16.9404 13.0569 17.0227 13.0569 17.0314C13.0569 17.0422 13.0052 17.0682 12.9844 17.0682C12.9637 17.0682 12.9286 17.0314 12.9286 17.0254C12.9286 17.0211 12.9535 17.0147 12.9535 17.0102C12.9596 16.9995 12.9349 16.9729 12.9349 16.9621ZM12.7712 16.6456C12.7815 16.6413 12.7815 16.6305 12.796 16.6196C12.8052 16.6132 12.8167 16.6116 12.8271 16.6153C12.8345 16.6015 12.8474 16.5919 12.8623 16.5892C12.8871 16.5849 12.9079 16.5892 12.9032 16.6C12.9032 16.6326 12.924 16.6542 12.924 16.6802C12.924 16.7062 12.9095 16.7388 12.8578 16.7605C12.8061 16.7756 12.7357 16.7756 12.7253 16.7713C12.7149 16.7671 12.7046 16.7236 12.7149 16.7019C12.7253 16.6802 12.7545 16.6565 12.7712 16.6456Z" fill="#82764F"/>
<path fill-rule="evenodd" clip-rule="evenodd" d="M12.8427 16.6603C12.8427 16.6603 12.8026 16.682 12.8026 16.6929C12.799 16.7033 12.7975 16.7143 12.7979 16.7253C12.7979 16.7317 12.8499 16.721 12.8569 16.7144C12.8592 16.7101 12.8427 16.6716 12.8427 16.6603Z" fill="#6E6342"/>
<path fill-rule="evenodd" clip-rule="evenodd" d="M12.5294 16.5585C12.55 16.5629 12.5852 16.5585 12.6121 16.5693C12.6328 16.5802 12.6473 16.6019 12.6265 16.6279C12.6058 16.6539 12.5856 16.6929 12.5396 16.6863C12.4879 16.682 12.4382 16.6539 12.4382 16.6322C12.4364 16.6044 12.4454 16.5771 12.463 16.5563C12.4838 16.539 12.4942 16.5499 12.5294 16.5585Z" fill="#585136"/>
<path fill-rule="evenodd" clip-rule="evenodd" d="M12.5042 16.5802C12.5042 16.5802 12.438 16.6343 12.4214 16.6605C12.4006 16.6865 12.2992 16.8208 12.2683 16.8489C12.2785 16.8299 12.2903 16.8118 12.3033 16.7948C12.2624 16.8222 12.2317 16.8635 12.2164 16.9118C12.1916 16.9921 12.3552 17.0354 12.4627 17.068C12.5702 17.1005 12.6119 17.1108 12.6119 17.1108C12.5723 17.0485 12.5383 16.9825 12.5103 16.9137C12.4694 16.8118 12.4482 16.8009 12.4751 16.7532C12.4959 16.7055 12.527 16.6731 12.527 16.6362C12.5146 16.6019 12.5042 16.5802 12.5042 16.5802Z" fill="#574F35"/>
<path fill-rule="evenodd" clip-rule="evenodd" d="M10.1443 16.7514C10.1594 16.7543 10.1748 16.7543 10.1899 16.7514C10.2209 16.747 10.5439 16.6228 10.8813 16.6451C11.134 16.6611 11.3844 16.7042 11.6286 16.7737C12.053 16.8907 12.5808 17.1226 12.9224 17.2549C13.0134 17.2916 13.1025 17.3568 13.168 17.3826C13.4289 17.4889 13.4391 17.4889 13.5924 17.5171C13.7725 17.5431 13.9567 17.4802 14.1493 17.4369C14.3852 17.3826 14.7888 17.3566 15.1428 17.3025C15.2573 17.2859 15.3702 17.2591 15.4803 17.2223C15.4803 17.2223 15.1988 17.5171 14.5238 17.6232C14.251 17.6666 13.9738 17.6703 13.7 17.6341C13.4847 17.6124 13.342 17.5798 13.2343 17.5474C13.1122 17.5105 12.8616 17.4129 12.5532 17.3331C12.3379 17.2745 12.0977 17.2312 11.8225 17.177C11.1435 17.0469 10.4066 16.8974 10.144 16.7523L10.1443 16.7514Z" fill="#252211"/>
<path fill-rule="evenodd" clip-rule="evenodd" d="M9.38263 15.412C9.21888 15.5571 9.04516 15.6959 8.87555 15.8302L8.36423 16.2415C8.19038 16.3758 8.02063 16.5145 7.84664 16.649C7.67266 16.7834 7.49895 16.9111 7.31445 17.0347C7.4782 16.8896 7.65192 16.7551 7.82577 16.623C7.99961 16.4908 8.17988 16.3612 8.34759 16.2272L8.8589 15.8153C9.03479 15.681 9.20455 15.542 9.38263 15.412ZM8.47804 16.9291C8.47804 16.9291 8.66226 16.7687 8.89206 16.5434C9.17767 16.2639 9.52755 15.9062 9.63931 15.8413L8.47804 16.9291Z" fill="#CFB66C"/>
<path fill-rule="evenodd" clip-rule="evenodd" d="M8.47803 16.9291C8.56918 16.8338 8.66648 16.7406 8.76377 16.6495L8.91279 16.5152C8.95836 16.4723 9.01022 16.4242 9.05566 16.3764C9.14668 16.2811 9.23579 16.1791 9.3268 16.0817C9.37192 16.0327 9.41961 15.9864 9.46968 15.943C9.4947 15.9198 9.5225 15.9001 9.55237 15.8844C9.57734 15.8692 9.60422 15.8415 9.63929 15.8367C9.61869 15.8692 9.59385 15.8844 9.57311 15.9125C9.54828 15.9343 9.52753 15.9603 9.50693 15.9818C9.46135 16.0295 9.40963 16.0728 9.36406 16.1163C9.26676 16.203 9.16537 16.2877 9.06808 16.3784C8.97078 16.4692 8.87976 16.567 8.78233 16.658C8.67685 16.7513 8.57955 16.8419 8.47803 16.9291ZM9.71598 16.0621C9.71598 16.0621 9.04119 16.7536 8.90242 16.8662L9.71598 16.0621Z" fill="#CFB66C"/>
<path fill-rule="evenodd" clip-rule="evenodd" d="M9.71591 16.0621C9.65521 16.1357 9.59013 16.2052 9.52105 16.2702L9.31636 16.4739C9.25018 16.5432 9.18795 16.6126 9.11768 16.6819C9.04522 16.7469 8.97903 16.8105 8.90234 16.8705L9.10103 16.6668C9.16735 16.5975 9.23981 16.539 9.31022 16.4696L9.5089 16.2659C9.57713 16.1944 9.64345 16.125 9.71591 16.0621ZM9.74689 16.437C9.68469 16.6188 9.6114 16.7962 9.52746 16.9681C9.35361 17.3323 9.09284 17.7873 8.9789 18.0193L9.74689 16.437Z" fill="#CFB66C"/>
<path fill-rule="evenodd" clip-rule="evenodd" d="M9.7469 16.4371C9.7469 16.5173 9.72616 16.5867 9.70133 16.656C9.67712 16.7254 9.64951 16.7934 9.61863 16.8598C9.58752 16.9248 9.55231 16.9942 9.51711 17.0571C9.4819 17.1199 9.44055 17.1848 9.40944 17.2499L9.20038 17.6357C9.12792 17.7643 9.05751 17.8936 8.98096 18.0172C9.03268 17.8784 9.10309 17.7484 9.16941 17.6205C9.24187 17.492 9.30805 17.3634 9.3741 17.2304C9.40634 17.1641 9.43535 17.0961 9.46102 17.0268C9.492 16.9573 9.52297 16.8923 9.54794 16.8295C9.57892 16.7602 9.60376 16.695 9.63487 16.6323C9.66994 16.565 9.69928 16.5 9.7469 16.4371Z" fill="#CFB66C"/>
<path fill-rule="evenodd" clip-rule="evenodd" d="M10.484 18.2144C10.484 18.2144 10.2793 18.4982 10.2998 18.858C10.3556 18.6695 10.426 18.3812 10.484 18.2144ZM10.6786 18.499C10.6786 18.499 10.6061 19.2705 10.5461 19.6498C10.631 19.2113 10.6475 19.2482 10.6786 18.499ZM12.0344 19.6954C12.0344 19.6954 11.7281 20.6383 11.7218 20.9004C11.7881 20.6309 11.9164 20.0804 12.0344 19.6947V19.6954Z" fill="#DEC270"/>
<path fill-rule="evenodd" clip-rule="evenodd" d="M12.7505 18.156C12.7505 18.156 13.2473 19.0142 13.62 19.7467C13.5192 19.3781 13.2872 18.7021 12.7505 18.156Z" fill="#CBAF59"/>
<path fill-rule="evenodd" clip-rule="evenodd" d="M14.0859 19.4194C14.3587 19.9243 14.6047 20.4445 14.8228 20.9777C14.7815 20.6093 14.6696 19.9786 14.0859 19.4194Z" fill="#E3C677"/>
<path fill-rule="evenodd" clip-rule="evenodd" d="M18.011 20.6849C18.0937 20.6307 18.2573 20.3358 18.4001 20.2622C18.5429 20.1864 18.6505 20.1712 18.7789 20.0216C18.9072 19.8655 18.9427 19.7702 19.2239 19.6467C19.6174 19.4689 19.3468 19.2391 19.3468 19.2391C19.3901 19.1946 19.4364 19.1533 19.4854 19.1157C19.5869 19.0355 19.7048 18.938 19.6946 18.7666C19.6801 18.4785 19.6284 18.0601 19.4027 17.8174C19.6221 17.7697 20.0423 17.7373 20.3033 17.668C20.6055 17.5877 20.7442 17.4749 20.7442 17.4749C20.7442 17.4749 20.5704 17.1651 20.8519 16.853C21.1334 16.541 21.3632 16.3545 21.533 16.0055C21.3384 15.9795 21.0417 15.8712 20.2846 16.1724C20.3255 16.1925 20.365 16.2157 20.4027 16.2417C20.4027 16.2417 19.9369 16.3761 19.7672 16.5257C19.4711 16.7879 19.4338 17.0025 19.113 17.1629C18.7922 17.3234 18.4692 17.2799 18.2023 17.4099C17.9354 17.5399 17.8959 17.6505 17.7985 17.6982C17.8192 17.7243 17.7944 17.7675 17.8337 17.8044C17.8089 17.8413 17.6639 18.0883 17.517 18.0883C17.5314 18.1469 17.6556 18.1902 17.6556 18.1902C17.6556 18.1902 17.5646 18.2596 17.3328 18.2769C17.4507 18.4055 17.5626 18.5456 17.8709 18.7494C17.8461 18.8035 17.7425 18.8838 17.784 18.9857C17.8296 19.0875 17.9478 19.2263 18.4195 19.339C18.1793 19.3497 17.898 19.4083 17.5189 19.3541C17.1401 19.3064 17.078 19.2783 16.8441 19.339C16.8689 19.365 16.9351 19.365 16.9931 19.4343C16.931 19.4386 16.5418 19.3866 16.4093 19.5687C16.2707 19.7572 16.2107 20.0672 16.221 20.2752C16.1486 20.3121 16.0781 20.3771 16.1134 20.5116C16.1486 20.646 16.3328 20.6893 16.4508 20.7737C16.5687 20.8647 16.5791 20.8972 16.691 20.8756C16.8089 20.8496 16.9827 20.7261 17.0843 20.7261C17.1858 20.7261 17.2581 20.8063 17.2581 20.8063C17.2581 20.8063 17.5335 20.6676 17.5604 20.6936C17.5852 20.7196 17.5645 20.8864 17.5913 20.9125C17.6186 20.932 17.9288 20.7391 18.0116 20.6849H18.011Z" fill="#ECD592"/>
</g>
<defs>
<clipPath id="clip0_3653_5607">
<rect width="20" height="24" fill="white" transform="translate(6 4)"/>
</clipPath>
</defs>
</svg>
