<svg width="32" height="32" viewBox="0 0 32 32" fill="none" xmlns="http://www.w3.org/2000/svg">
<circle cx="16" cy="16" r="16" fill="#3A1611"/>
<path d="M15.6712 15.6361L24.0508 7.21158L16.3288 4L8.66797 22.7276L15.6712 15.6361Z" fill="url(#paint0_linear_3653_5781)"/>
<path d="M24.7684 24.1808L16.5688 15.9386L24.7684 7.69641C29.0776 12.3248 29.0776 19.5524 24.7684 24.1808Z" fill="url(#paint1_linear_3653_5781)"/>
<path d="M7.89038 24.6049L15.97 16.4842L24.0496 24.6049L15.97 27.9988L7.89038 24.6049Z" fill="url(#paint2_linear_3653_5781)"/>
<path d="M7.23162 24.1809C5.15082 21.9547 3.99402 19.0044 4.00002 15.9386L15.2512 4.60513L7.23162 24.1809Z" fill="url(#paint3_linear_3653_5781)"/>
<defs>
<linearGradient id="paint0_linear_3653_5781" x1="23.5" y1="2" x2="4" y2="30.5" gradientUnits="userSpaceOnUse">
<stop stop-color="#FF8C00"/>
<stop offset="0.578125" stop-color="#F00048"/>
<stop offset="1" stop-color="#960017"/>
</linearGradient>
<linearGradient id="paint1_linear_3653_5781" x1="23.5" y1="2" x2="4" y2="30.5" gradientUnits="userSpaceOnUse">
<stop stop-color="#FF8C00"/>
<stop offset="0.578125" stop-color="#F00048"/>
<stop offset="1" stop-color="#960017"/>
</linearGradient>
<linearGradient id="paint2_linear_3653_5781" x1="23.5" y1="2" x2="4" y2="30.5" gradientUnits="userSpaceOnUse">
<stop stop-color="#FF8C00"/>
<stop offset="0.578125" stop-color="#F00048"/>
<stop offset="1" stop-color="#960017"/>
</linearGradient>
<linearGradient id="paint3_linear_3653_5781" x1="23.5" y1="2" x2="4" y2="30.5" gradientUnits="userSpaceOnUse">
<stop stop-color="#FF8C00"/>
<stop offset="0.578125" stop-color="#F00048"/>
<stop offset="1" stop-color="#960017"/>
</linearGradient>
</defs>
</svg>
