<svg width="32" height="32" viewBox="0 0 32 32" fill="none" xmlns="http://www.w3.org/2000/svg">
<circle cx="16" cy="16" r="16" fill="#11194A"/>
<path fill-rule="evenodd" clip-rule="evenodd" d="M14.8498 27C13.9286 26.2763 13.4679 25.5343 13.4679 24.7556C13.4577 24.4025 13.5174 24.0508 13.6439 23.7207C13.7704 23.3906 13.961 23.0886 14.2049 22.8318L24.6704 12.4249C25.337 12.9461 25.7944 13.6868 25.9602 14.5136C26.0984 15.2923 25.8773 15.9977 25.2877 16.6207L14.8498 27ZM11.1187 23.2898C10.1929 22.5615 9.73223 21.8195 9.73684 21.0454C9.72655 20.6923 9.78635 20.3407 9.91281 20.0106C10.0393 19.6805 10.2299 19.3784 10.4738 19.1216L20.9393 8.71476C21.6032 9.23548 22.0589 9.97435 22.2245 10.7989C22.3627 11.5776 22.1416 12.2829 21.5566 12.9105L11.1187 23.2898ZM7.38763 19.5796C6.46176 18.8513 6.00113 18.1093 6.00113 17.3306C5.99085 16.9775 6.05065 16.6259 6.17711 16.2958C6.30357 15.9657 6.49421 15.6636 6.73814 15.4068L17.2036 5C17.8702 5.52111 18.3276 6.26185 18.4934 7.08869C18.6316 7.86737 18.4105 8.57277 17.8209 9.19571L7.38763 19.5796Z" fill="url(#paint0_linear_3653_5758)"/>
<defs>
<linearGradient id="paint0_linear_3653_5758" x1="-236.915" y1="-1445" x2="624.251" y2="-578.984" gradientUnits="userSpaceOnUse">
<stop stop-color="#7EB5FF"/>
<stop offset="0.9997" stop-color="#1A38F8"/>
</linearGradient>
</defs>
</svg>
