<svg width="32" height="32" viewBox="0 0 32 32" fill="none" xmlns="http://www.w3.org/2000/svg">
<path d="M16.0388 29.8492C23.6424 29.8492 29.8063 23.6853 29.8063 16.0817C29.8063 8.47817 23.6424 2.31427 16.0388 2.31427C8.43528 2.31427 2.27138 8.47817 2.27138 16.0817C2.27138 23.6853 8.43528 29.8492 16.0388 29.8492Z" fill="white"/>
<path d="M8.45802 13.8114C7.68827 13.2727 6.36692 13.2598 5.62284 13.7986C4.72483 14.4272 4.41694 16.2361 5.00706 17.3907C5.98207 19.3278 8.81721 18.9045 9.33036 16.7493C9.59977 15.6331 9.21492 14.3631 8.45802 13.8114Z" fill="black"/>
<path d="M16 0C7.16342 0 0 7.16342 0 16C0 24.8365 7.16342 32 16 32C24.8365 32 32 24.8365 32 16C32 7.16342 24.8365 0 16 0ZM10.8313 16.4285C10.6902 17.8653 10.0616 18.8788 8.91983 19.5202C8.30405 19.8538 8.13727 19.8923 7.02118 19.8923C5.62283 19.8923 5.10968 19.6998 4.3143 18.8403C3.71136 18.2117 3.49326 17.7627 3.30084 16.8005C2.91598 14.8762 3.98074 12.8108 5.6485 12.2079C6.2771 11.9897 7.53433 11.9513 8.1886 12.1309C9.86917 12.6055 11.0109 14.4529 10.8313 16.4285ZM19.0546 19.8025L18.3746 19.764L18.3362 17.1982L18.2977 14.6325L17.3612 17.1982L16.4247 19.764L15.7832 19.8025L15.1418 19.841L14.1924 17.2367L13.2431 14.6325L13.2046 17.2367L13.179 19.8281H11.8961V12.1309H12.7171C13.2175 12.1309 13.5767 12.195 13.6537 12.2848C13.7178 12.3746 14.2053 13.6318 14.7184 15.0815C15.2316 16.5311 15.6934 17.7499 15.7448 17.8012C15.7832 17.8653 16.2835 16.6209 16.848 15.043L17.8743 12.195H19.6575L19.696 16.018L19.7217 19.841L19.0546 19.8025ZM27.7396 19.764H27.0982C26.4952 19.764 26.4568 19.7383 26.4183 19.4176L26.3798 19.0584L26.0976 19.3278C25.0584 20.3285 22.7236 20.1104 21.7358 18.9301C19.9141 16.7749 20.594 13.2213 23.0058 12.2592C23.4805 12.0667 23.8782 12.0154 24.5966 12.0411C26.2258 12.0924 27.2136 12.7723 27.6114 14.1193L27.791 14.6966H27.0341C26.4568 14.6966 26.2643 14.6453 26.2643 14.517C26.2643 14.1193 25.6229 13.5677 24.9943 13.4138C23.365 13.0289 22.172 14.0937 22.1591 15.9539C22.1591 17.6344 23.0443 18.6736 24.5196 18.6736C25.1354 18.6736 25.9565 18.1989 26.1873 17.7242C26.5209 17.0315 26.4824 17.0058 25.3022 17.0058H24.2117V15.7229H27.8166L27.7781 17.7371L27.7396 19.764Z" fill="black"/>
</svg>
