<svg width="32" height="32" viewBox="0 0 32 32" fill="none" xmlns="http://www.w3.org/2000/svg">
  <g clip-path="url(#a)">
    <path d="M16 32c8.867 0 16-7.133 16-16S24.867 0 16 0 0 7.133 0 16s7.133 16 16 16Z" fill="#2775CA"/>
    <path d="M20.4 18.533c0-2.333-1.4-3.133-4.2-3.467-2-.267-2.4-.8-2.4-1.733s.667-1.533 2-1.533c1.2 0 1.867.4 2.2 1.4.067.2.267.333.467.333h1.067c.267 0 .467-.2.467-.467v-.067a3.331 3.331 0 0 0-3-2.733v-1.6c0-.267-.2-.467-.533-.533h-1.001c-.267 0-.467.2-.533.533v1.533c-2 .267-3.267 1.6-3.267 3.267 0 2.2 1.333 3.067 4.133 3.4 1.867.333 2.467.733 2.467 1.8s-.933 1.8-2.2 1.8c-1.733 0-2.333-.733-2.533-1.733-.067-.267-.267-.4-.467-.4h-1.133c-.267 0-.467.2-.467.467v.067c.267 1.667 1.333 2.867 3.533 3.2v1.6c0 .267.2.467.533.533h1c.267 0 .467-.2.533-.533v-1.6c2-.333 3.333-1.733 3.333-3.533Z" fill="#fff"/>
    <path d="M12.6 25.533c-5.2-1.867-7.867-7.667-5.933-12.8 1-2.8 3.2-4.933 5.933-5.933.267-.133.4-.333.4-.667V5.2c0-.267-.133-.467-.4-.533-.067 0-.2 0-.267.067C6 6.733 2.533 13.467 4.533 19.8a11.993 11.993 0 0 0 7.8 7.8c.267.133.533 0 .6-.267.067-.067.067-.133.067-.267v-.933c0-.2-.2-.467-.4-.6Zm7.067-20.8c-.267-.133-.533 0-.6.267-.067.067-.067.133-.067.267V6.2c0 .267.2.533.4.667 5.2 1.867 7.867 7.667 5.933 12.8-1 2.8-3.2 4.933-5.933 5.933-.267.133-.4.333-.4.667v.933c0 .267.133.467.4.533.067 0 .2 0 .267-.067 6.333-2 9.8-8.733 7.8-15.067a12.09 12.09 0 0 0-7.8-7.867Z" fill="#fff"/>
  </g>
  <defs>
    <clipPath id="a">
      <path fill="#fff" d="M0 0h32v32H0V0z"/>
    </clipPath>
  </defs>
</svg>
