<svg width="20" height="20" viewBox="0 0 20 20" fill="none" xmlns="http://www.w3.org/2000/svg">
<circle cx="10" cy="10" r="10" fill="#50AF95"/>
<path fill-rule="evenodd" clip-rule="evenodd" d="M11.0173 10.7609C10.9605 10.7652 10.6669 10.7826 10.0121 10.7826C9.49122 10.7826 9.12141 10.7671 8.99167 10.7609C6.97879 10.6728 5.47635 10.3241 5.47635 9.90661C5.47635 9.48911 6.97879 9.14088 8.99167 9.05134V10.4136C9.1233 10.4231 9.50021 10.4452 10.0211 10.4452C10.6461 10.4452 10.9591 10.4193 11.0154 10.4141V9.05229C13.0241 9.14135 14.5232 9.49005 14.5232 9.90661C14.5232 10.3232 13.0245 10.6719 11.0154 10.7605L11.0173 10.7609ZM11.0173 8.91139V7.69234H13.8205V5.83337H6.1885V7.69234H8.99119V8.91092C6.71315 9.01506 5 9.46413 5 10.0023C5 10.5404 6.71315 10.989 8.99119 11.0936V15H11.0169V11.0922C13.2897 10.9881 15 10.5395 15 10.0018C15 9.46413 13.2911 9.01553 11.0169 8.91092L11.0173 8.91139Z" fill="white"/>
</svg>
