<svg width="32" height="32" viewBox="0 0 32 32" fill="none" xmlns="http://www.w3.org/2000/svg">
<path d="M32 16C32 24.8366 24.8366 32 16 32C7.16344 32 0 24.8366 0 16C0 7.16344 7.16344 0 16 0C24.8366 0 32 7.16344 32 16Z" fill="url(#paint0_linear_16_1846)"/>
<path d="M16 0C7.16345 0 0 7.16345 0 16C0 24.8365 7.16345 32 16 32C24.8365 32 32 24.8365 32 16C32 7.16345 24.8365 0 16 0ZM26.9167 8.44778L18.1023 26.3969C17.5343 27.5523 15.8905 27.5523 15.3225 26.3969L6.59985 8.6405C6.58373 8.60575 6.57211 8.56909 6.56525 8.5314C6.54927 8.45481 6.55445 8.37532 6.58023 8.30146C6.60601 8.22759 6.65142 8.16214 6.71158 8.11212C6.71335 8.11056 6.71509 8.10901 6.71692 8.10751C6.72528 8.10068 6.73395 8.09427 6.7428 8.08808C6.75009 8.08289 6.75753 8.07793 6.76511 8.07321C6.77011 8.07016 6.77515 8.06726 6.7803 8.06439C6.79268 8.05742 6.80541 8.05109 6.81845 8.04544C6.81992 8.0448 6.82135 8.04413 6.82285 8.04352C6.86159 8.02688 6.90258 8.01604 6.94449 8.01135H10.0179C10.0218 8.0116 10.0254 8.01252 10.0293 8.01288C10.1049 8.01632 10.1784 8.03955 10.2422 8.08026C10.3061 8.12098 10.3581 8.17774 10.3932 8.24487L16.7634 21.1342C16.8906 21.3943 17.0882 21.6135 17.3338 21.7668C17.5795 21.9201 17.8632 22.0014 18.1528 22.0014C18.4423 22.0014 18.726 21.9201 18.9717 21.7668C19.2173 21.6135 19.4149 21.3943 19.5421 21.1342L25.8919 8.25507C25.9286 8.18458 25.984 8.12552 26.0519 8.08434C26.1199 8.04316 26.1979 8.02144 26.2774 8.02155H26.6526C26.703 8.02098 26.7527 8.03344 26.7969 8.05772C26.8411 8.08201 26.8783 8.11729 26.9049 8.16016C26.9314 8.20303 26.9465 8.25203 26.9486 8.30242C26.9506 8.35281 26.9397 8.40288 26.9167 8.44778Z" fill="#1B2831"/>
<defs>
<linearGradient id="paint0_linear_16_1846" x1="0" y1="16" x2="32" y2="16" gradientUnits="userSpaceOnUse">
<stop stop-color="#9D4ABE"/>
<stop offset="0.25" stop-color="#9055C4"/>
<stop offset="0.5" stop-color="#6B74D6"/>
<stop offset="0.75" stop-color="#15BDFF"/>
<stop offset="1" stop-color="#28BAD5"/>
</linearGradient>
</defs>
</svg>
