<svg width="32" height="32" viewBox="0 0 32 32" fill="none" xmlns="http://www.w3.org/2000/svg">
<path d="M15.4965 30.0229C23.1001 30.0229 29.264 23.859 29.264 16.2555C29.264 8.65191 23.1001 2.48801 15.4965 2.48801C7.89295 2.48801 1.72905 8.65191 1.72905 16.2555C1.72905 23.859 7.89295 30.0229 15.4965 30.0229Z" fill="#49C1BF"/>
<path d="M16 0C7.16342 0 0 7.16345 0 16C0 24.8365 7.16342 32 16 32C24.8365 32 32 24.8365 32 16C32 7.16345 24.8365 0 16 0ZM23.7281 14.0891L23.7279 14.0891V14.1023L20.5775 15.507V15.5098L12.2228 19.7624L20.5775 23.7793V17.1374L20.5777 17.1373V17.1167L23.7281 15.6971V25.5094L23.7279 25.5095V25.5301L20.5775 26.9347V26.9375L8.27194 21.0481V17.9149L16.7872 13.7375L8.27194 9.64543V6.46713L11.4725 5.0625L23.7137 10.9551L23.7281 10.9487V14.0891Z" fill="#3B5C5C"/>
<path d="M20.5776 23.7871V26.9347L23.7279 25.5301V25.5095L20.5777 26.9141V17.1373L20.5776 17.1374V23.7793L12.2228 19.7624L12.22 19.7638L20.5776 23.7871Z" fill="#49C1BF"/>
<path d="M20.5777 12.3666L20.5776 12.3666L8.27194 6.46712V6.46994L20.5776 12.3694V15.507L23.7279 14.1023V14.0891L20.5777 15.4937V12.3666Z" fill="#49C1BF"/>
<path d="M16.7872 13.7376L8.27194 17.9149V17.9177L16.7901 13.7389L16.7872 13.7376Z" fill="#49C1BF"/>
<path d="M20.5777 12.3666V12.3533L23.7137 10.9551L11.4725 5.0625L8.27194 6.46712L20.5776 12.3666L20.5777 12.3666Z" fill="#9AE9E7"/>
<path d="M23.7279 10.962V14.0891H23.7281V10.9487L23.7137 10.9551L23.7279 10.962Z" fill="#298E97"/>
<path d="M20.5777 12.3666V15.4937L23.7279 14.0891V10.962L20.5777 12.3666Z" fill="#339C9A"/>
<path d="M20.5777 12.3666L23.7279 10.962L23.7137 10.9551L20.5777 12.3533V12.3666Z" fill="#669E9D"/>
<path d="M23.7279 25.5095L23.7281 25.5094V15.6971L20.5777 17.1168V17.1373L23.7279 15.7177V25.5095Z" fill="#298E97"/>
<path d="M23.7279 25.5095V15.7177L20.5777 17.1373V26.9141L23.7279 25.5095Z" fill="#339C9A"/>
<path d="M8.27194 21.0481L20.5776 26.9375V26.9347L8.27194 21.0452V21.0481Z" fill="white"/>
<path d="M12.2228 19.7624L20.5776 15.5098V15.507L12.22 19.761L12.2228 19.7624Z" fill="white"/>
<path d="M8.27194 9.64262V9.64544L16.7872 13.7376L16.7901 13.7361L8.27194 9.64262Z" fill="white"/>
</svg>
