<svg width="314" height="117" viewBox="0 0 314 117" fill="none" xmlns="http://www.w3.org/2000/svg">
<path opacity="0.6" d="M163.616 17.7744C160.845 15.4707 161.726 9.84381 165.582 5.20647C169.438 0.569138 174.81 -1.32263 177.581 0.981088C180.351 3.28481 179.47 8.91164 175.614 13.549C171.758 18.1863 166.386 20.0781 163.616 17.7744Z" fill="url(#paint0_linear_2783_5080)"/>
<path opacity="0.5" d="M163.615 17.7777L165.242 19.1303C165.869 19.6512 166.671 19.9836 167.632 20.0779C171.647 20.4734 176.956 16.6084 179.492 11.4452C181.418 7.52216 181.188 3.97823 179.205 2.32929L177.58 0.977478C179.563 2.62664 179.793 6.17132 177.867 10.0934C175.332 15.2564 170.022 19.1212 166.007 18.7263C165.042 18.6315 164.242 18.2986 163.615 17.7777Z" fill="url(#paint1_linear_2783_5080)"/>
<g clip-path="url(#clip0_2783_5080)">
<path d="M225.315 84.0272L226.231 85.4082V83.7507V51.5002H243.332V116.498H229.013L228.924 116.367L228.924 116.366L207.262 84.0462L206.346 82.6806V84.3246V116.492H189.217V76.559H220.358L225.315 84.0272ZM102.518 76.5609H103.018L103.018 76.0608L103.011 51.4904H120.119V116.488H103.018V91.8978V91.3978H102.518H82.0635H81.5635V91.8978V116.494H64.4338V76.5609H102.518ZM292.282 52.3657L298.29 70.6935L273.007 62.492L272.827 62.4336L272.653 62.509L266.18 65.3233L270.705 51.5002H291.997L292.282 52.3648L292.282 52.3657ZM298.737 72.0574L313.31 116.516H294.928L289.708 99.3826L289.6 99.0283H289.23H273.472H273.101L272.993 99.3826L267.774 116.516H249.399L262.672 76.0444L272.653 80.387L272.827 80.4626L273.007 80.4041L298.737 72.0574ZM149.908 91.4058H149.407L149.408 91.9061L149.414 101.183L149.414 101.683H149.914H177.061V116.496H132.282V76.559H169.048V91.4058H149.908ZM81.5635 66.3152H64.4338V51.5002H81.5635V66.3152ZM35.8551 76.565V116.498H18.9326V76.565H35.8551ZM189.217 51.4983H203.717L203.807 51.6335L203.808 51.6348L213.552 66.3133H189.217V51.4983ZM54.2588 51.5002V66.3152H0.500122V51.5002H54.2588ZM177.056 51.5022V66.3152H132.276V51.5022H177.056Z" stroke="url(#paint2_linear_2783_5080)"/>
</g>
<path opacity="0.6" d="M99.833 57.9001C102.191 55.1755 100.404 49.7675 95.8435 45.821C91.2827 41.8745 85.6742 40.884 83.3166 43.6086C80.959 46.3332 82.7452 51.7411 87.306 55.6876C91.8669 59.6341 97.4754 60.6247 99.833 57.9001Z" fill="url(#paint3_linear_2783_5080)"/>
<path opacity="0.5" d="M99.8341 57.9034L98.4494 59.5032C97.9161 60.1194 97.1792 60.578 96.2462 60.8278C92.3494 61.8727 86.481 58.9251 83.1373 54.2445C80.597 50.688 80.2462 47.154 81.9341 45.2037L83.3169 43.605C81.6295 45.5554 81.98 49.0903 84.5202 52.6458C87.8634 57.3262 93.7324 60.2736 97.6294 59.2293C98.5657 58.9785 99.3009 58.5195 99.8341 57.9034Z" fill="url(#paint4_linear_2783_5080)"/>
<path d="M211.845 43.5793C207.781 40.1992 209.072 31.9432 214.731 25.139C220.389 18.3349 228.271 15.5592 232.336 18.9393C236.4 22.3195 235.108 30.5755 229.45 37.3796C223.792 44.1838 215.91 46.9595 211.845 43.5793Z" fill="url(#paint5_linear_2783_5080)"/>
<path d="M211.845 43.5841L214.232 45.5688C215.152 46.3331 216.328 46.8208 217.738 46.9592C223.63 47.5395 231.42 41.8685 235.14 34.2929C237.967 28.5367 237.629 23.3369 234.719 20.9175L232.335 18.934C235.244 21.3538 235.582 26.5547 232.756 32.3094C229.036 39.8848 221.245 45.5555 215.354 44.976C213.938 44.837 212.764 44.3485 211.845 43.5841Z" fill="url(#paint6_linear_2783_5080)"/>
<defs>
<linearGradient id="paint0_linear_2783_5080" x1="162" y1="9.37773" x2="179.196" y2="9.37773" gradientUnits="userSpaceOnUse">
<stop stop-color="#D600B8"/>
<stop offset="0.5" stop-color="#C300CC"/>
<stop offset="1" stop-color="#B100DE"/>
</linearGradient>
<linearGradient id="paint1_linear_2783_5080" x1="163.615" y1="10.5416" x2="180.821" y2="10.5416" gradientUnits="userSpaceOnUse">
<stop stop-color="#993E8D"/>
<stop offset="1" stop-color="#9D17BD"/>
</linearGradient>
<linearGradient id="paint2_linear_2783_5080" x1="314.628" y1="76.0141" x2="171.027" y2="240.6" gradientUnits="userSpaceOnUse">
<stop stop-color="#ED00C9"/>
<stop offset="1" stop-color="#BD00ED"/>
</linearGradient>
<linearGradient id="paint3_linear_2783_5080" x1="82.2766" y1="50.7543" x2="100.873" y2="50.7543" gradientUnits="userSpaceOnUse">
<stop offset="0.223958" stop-color="#8DCDB6"/>
<stop offset="1" stop-color="#B100DE"/>
</linearGradient>
<linearGradient id="paint4_linear_2783_5080" x1="80.8965" y1="52.3216" x2="99.8341" y2="52.3216" gradientUnits="userSpaceOnUse">
<stop stop-color="#993E8D"/>
<stop offset="1" stop-color="#9D17BD"/>
</linearGradient>
<linearGradient id="paint5_linear_2783_5080" x1="209.475" y1="31.2593" x2="234.706" y2="31.2593" gradientUnits="userSpaceOnUse">
<stop stop-color="#093F3B"/>
<stop offset="1" stop-color="#85B3C5"/>
</linearGradient>
<linearGradient id="paint6_linear_2783_5080" x1="211.845" y1="32.967" x2="237.09" y2="32.967" gradientUnits="userSpaceOnUse">
<stop stop-color="#255025"/>
<stop offset="1" stop-color="#0E191D"/>
</linearGradient>
<clipPath id="clip0_2783_5080">
<rect width="314" height="66" fill="white" transform="translate(0 51)"/>
</clipPath>
</defs>
</svg>
