<svg width="44" height="44" viewBox="0 0 44 44" fill="none" xmlns="http://www.w3.org/2000/svg">
<rect x="9" width="26" height="44" rx="12" fill="#383C4B"/>
<path d="M26.5582 35.7561L23.0592 39.5271C22.4742 40.1576 21.5258 40.1576 20.9408 39.5271L17.4418 35.7561C16.4981 34.739 17.1664 33 18.501 33H25.499C26.8336 33 27.5019 34.739 26.5582 35.7561Z" fill="#5F606F"/>
<path d="M26.5582 26.7561L23.0592 30.5271C22.4742 31.1576 21.5258 31.1576 20.9408 30.5271L17.4418 26.7561C16.4981 25.739 17.1664 24 18.501 24H25.499C26.8336 24 27.5019 25.739 26.5582 26.7561Z" fill="#5F606F"/>
<path d="M4.44805 18.7651C5.13173 18.2678 5.95537 18 6.80074 18H37.1993C38.0446 18 38.8683 18.2678 39.552 18.7651L41.513 20.1913C42.2962 20.7609 41.8933 22 40.9248 22H3.07518C2.1067 22 1.70377 20.7609 2.48701 20.1913L4.44805 18.7651Z" fill="#383C4B"/>
<path d="M4.74213 19.1694C5.34036 18.7344 6.06104 18.5 6.80074 18.5H37.1993C37.939 18.5 38.6596 18.7344 39.2579 19.1694L41.2189 20.5956C41.6105 20.8804 41.4091 21.5 40.9248 21.5H3.07518C2.59094 21.5 2.38948 20.8804 2.7811 20.5956L4.74213 19.1694Z" stroke="url(#paint0_linear_299_1640)" stroke-opacity="0.7"/>
<mask id="mask0_299_1640" style="mask-type:alpha" maskUnits="userSpaceOnUse" x="12" y="4" width="20" height="17">
<rect x="12" y="4" width="20" height="17" fill="#F1F1F1"/>
</mask>
<g mask="url(#mask0_299_1640)">
<path d="M22 24C27.5417 24 32 19.5417 32 14C32 8.4583 27.5417 4 22 4C16.4583 4 12 8.4583 12 14C12 19.5417 16.4583 24 22 24Z" fill="#2775CA"/>
<path d="M24.7502 15.5833C24.7502 14.125 23.8752 13.625 22.1252 13.4167C20.8752 13.25 20.6252 12.9167 20.6252 12.3333C20.6252 11.7499 21.0419 11.375 21.8752 11.375C22.6252 11.375 23.0419 11.625 23.2502 12.25C23.2919 12.375 23.4169 12.4583 23.5419 12.4583H24.2085C24.3752 12.4583 24.5002 12.3333 24.5002 12.1667V12.125C24.3335 11.2083 23.5835 10.5 22.6252 10.4167V9.4167C22.6252 9.25 22.5002 9.125 22.2919 9.0833H21.6669C21.5002 9.0833 21.3752 9.2083 21.3335 9.4167V10.375C20.0835 10.5417 19.2919 11.375 19.2919 12.4167C19.2919 13.7917 20.1252 14.3333 21.8752 14.5417C23.0419 14.75 23.4169 15 23.4169 15.6667C23.4169 16.3334 22.8335 16.7917 22.0419 16.7917C20.9585 16.7917 20.5835 16.3333 20.4585 15.7083C20.4169 15.5417 20.2919 15.4583 20.1669 15.4583H19.4585C19.2919 15.4583 19.1669 15.5833 19.1669 15.75V15.7917C19.3335 16.8333 20.0002 17.5833 21.3752 17.7917V18.7917C21.3752 18.9583 21.5002 19.0833 21.7085 19.125H22.3335C22.5002 19.125 22.6252 19 22.6669 18.7917V17.7917C23.9169 17.5833 24.7502 16.7083 24.7502 15.5833Z" fill="white"/>
<path d="M19.8753 19.9583C16.6253 18.7917 14.9586 15.1667 16.167 11.9583C16.792 10.2083 18.167 8.875 19.8753 8.25C20.042 8.1667 20.1253 8.0417 20.1253 7.8333V7.25C20.1253 7.0833 20.042 6.9583 19.8753 6.9167C19.8336 6.9167 19.7503 6.9167 19.7086 6.9583C15.7503 8.2083 13.5836 12.4167 14.8336 16.375C15.5836 18.7083 17.3753 20.5 19.7086 21.25C19.8753 21.3333 20.042 21.25 20.0836 21.0833C20.1253 21.0417 20.1253 21 20.1253 20.9167V20.3333C20.1253 20.2083 20.0003 20.0417 19.8753 19.9583ZM24.292 6.9583C24.1253 6.875 23.9586 6.9583 23.917 7.125C23.8753 7.1667 23.8753 7.2083 23.8753 7.2917V7.875C23.8753 8.0417 24.0003 8.2083 24.1253 8.2917C27.3753 9.4583 29.042 13.0833 27.8336 16.2917C27.2086 18.0417 25.8336 19.375 24.1253 20C23.9586 20.0833 23.8753 20.2083 23.8753 20.4167V21C23.8753 21.1667 23.9586 21.2917 24.1253 21.3333C24.167 21.3333 24.2503 21.3333 24.292 21.2917C28.2503 20.0417 30.417 15.8333 29.167 11.875C28.417 9.5 26.5836 7.7083 24.292 6.9583Z" fill="white"/>
</g>
<defs>
<linearGradient id="paint0_linear_299_1640" x1="3.27825e-07" y1="20" x2="44" y2="20" gradientUnits="userSpaceOnUse">
<stop stop-color="#E5EFF3"/>
<stop offset="1" stop-color="#89B3C5"/>
</linearGradient>
</defs>
</svg>
