<svg width="46" height="24" viewBox="0 0 46 24" fill="none" xmlns="http://www.w3.org/2000/svg">
<rect width="46" height="24" rx="12" fill="#363754"/>
<path d="M27.2716 16.0926C27.7267 15.41 28.4928 15 29.3132 15H38.6868C39.5072 15 40.2733 15.41 40.7284 16.0926C41.272 16.9079 40.6875 18 39.7076 18H28.2924C27.3125 18 26.728 16.9079 27.2716 16.0926Z" fill="#3C3F72"/>
<path d="M27.6876 16.37C28.0499 15.8265 28.66 15.5 29.3132 15.5H38.6868C39.34 15.5 39.9501 15.8265 40.3124 16.37C40.6344 16.853 40.2881 17.5 39.7076 17.5H28.2924C27.7119 17.5 27.3656 16.853 27.6876 16.37Z" stroke="url(#paint0_linear_2691_4320)" stroke-opacity="0.7"/>
<path d="M34.6214 5H33.3786V11.6138H31.6226C31.0917 11.6138 30.8053 12.2164 31.1508 12.6064L33.5282 15.29C33.7762 15.57 34.2238 15.57 34.4718 15.29L36.8492 12.6064C37.1947 12.2164 36.9083 11.6138 36.3774 11.6138H34.6214V5Z" fill="url(#paint1_linear_2691_4320)"/>
<circle cx="12" cy="12" r="10" fill="#50AF95"/>
<path fill-rule="evenodd" clip-rule="evenodd" d="M13.0173 12.7611C12.9605 12.7653 12.6669 12.7827 12.0121 12.7827C11.4912 12.7827 11.1214 12.7672 10.9917 12.7611C8.97879 12.6729 7.47635 12.3242 7.47635 11.9067C7.47635 11.4892 8.97879 11.141 10.9917 11.0515V12.4138C11.1233 12.4232 11.5002 12.4453 12.0211 12.4453C12.6461 12.4453 12.9591 12.4194 13.0154 12.4142V11.0524C15.0241 11.1415 16.5232 11.4902 16.5232 11.9067C16.5232 12.3233 15.0245 12.672 13.0154 12.7606L13.0173 12.7611ZM13.0173 10.9115V9.69246H15.8205V7.8335H8.1885V9.69246H10.9912V10.911C8.71315 11.0152 7 11.4643 7 12.0024C7 12.5405 8.71315 12.9891 10.9912 13.0937V17.0002H13.0169V13.0923C15.2897 12.9882 17 12.5396 17 12.0019C17 11.4643 15.2911 11.0157 13.0169 10.911L13.0173 10.9115Z" fill="white"/>
<defs>
<linearGradient id="paint0_linear_2691_4320" x1="26" y1="16.5" x2="42" y2="16.5" gradientUnits="userSpaceOnUse">
<stop stop-color="#E5EFF3"/>
<stop offset="1" stop-color="#89B3C5"/>
</linearGradient>
<linearGradient id="paint1_linear_2691_4320" x1="31" y1="10.25" x2="37" y2="10.25" gradientUnits="userSpaceOnUse">
<stop stop-color="#D600B8"/>
<stop offset="0.5" stop-color="#C300CC"/>
<stop offset="1" stop-color="#B100DE"/>
</linearGradient>
</defs>
</svg>
