<svg width="32" height="20" viewBox="0 0 32 20" fill="none" xmlns="http://www.w3.org/2000/svg">
<path d="M5.4201 4.88429C11.2632 -0.961431 20.7368 -0.961431 26.5799 4.88429L31.3633 9.66983C31.5456 9.85215 31.5456 10.1478 31.3633 10.3302L26.5799 15.1157C20.7368 20.9614 11.2632 20.9614 5.4201 15.1157L0.636683 10.3302C0.454439 10.1478 0.454439 9.85215 0.636682 9.66983L5.4201 4.88429Z" fill="#383C4B" stroke="#5F606F"/>
<path d="M22 10C22 13.3137 19.3137 16 16 16C12.6863 16 10 13.3137 10 10C10 6.68629 12.6863 4 16 4C19.3137 4 22 6.68629 22 10Z" fill="#AEE3FA"/>
</svg>
