<svg width="316" height="66" viewBox="0 0 316 66" fill="none" xmlns="http://www.w3.org/2000/svg">
<mask id="mask0_2783_5251" style="mask-type:alpha" maskUnits="userSpaceOnUse" x="0" y="0" width="316" height="66">
<g clip-path="url(#clip0_2783_5251)">
<path d="M82.9839 15.8211H64.835V0.0130402H82.9839V15.8211ZM19.2854 65.9823H37.227V25.0669H19.2854V65.9823ZM205.274 0.369674L205.034 0.0111151H189.75V15.8192H215.545L205.274 0.369674ZM0.833374 15.8211H55.6502V0.0130402H0.833374V15.8211ZM226.804 32.7492L221.694 25.0609H189.75V65.9763H207.899V33.3229L229.585 65.6293L229.823 65.9823H244.924V0.0130402H226.804V32.7492ZM132.75 15.8211H178.577V0.0149654H132.75V15.8211ZM103.46 25.0628H64.835V65.9782H82.9839V40.8928H103.46V65.9724H121.581V0.00317383H103.453L103.46 25.0628ZM293.901 1.22131L293.502 0.0130402H271.463L266.474 15.2318L273.976 11.9752L300.146 20.4518L273.976 28.9287L263.48 24.369L249.807 66.0001H269.262L274.595 48.52H290.37L295.704 66.0001H315.167L293.901 1.22131ZM150.9 40.9008H170.561V25.0609H132.755V65.9804H178.583V50.1739H150.906L150.9 40.9008Z" fill="url(#paint0_linear_2783_5251)"/>
</g>
</mask>
<g mask="url(#mask0_2783_5251)">
<g opacity="0.3">
<path d="M150.766 41.9941C149.99 40.9943 148.534 40.8106 147.54 41.5852C146.534 42.3534 146.351 43.7866 147.129 44.7855C158.209 58.9949 161.67 77.778 156.388 95.0269C156.019 96.2319 156.706 97.507 157.924 97.8746C158.556 98.0661 159.208 97.9721 159.742 97.6664C160.23 97.3869 160.615 96.9318 160.791 96.3539C166.505 77.6927 162.757 57.3717 150.766 41.9941Z" fill="url(#paint1_linear_2783_5251)"/>
<path d="M123.242 60.8331C123.168 60.7517 123.09 60.6776 123.006 60.6068C121.409 58.7854 119.95 56.8402 118.659 54.8226C117.98 53.7567 116.55 53.4547 115.484 54.1151C114.41 54.7883 114.092 56.1988 114.773 57.2638C116.251 59.575 117.932 61.7964 119.771 63.8695C119.842 63.9503 119.92 64.0244 120.002 64.0932C125.316 70.2466 126.906 78.7721 124.141 86.4229C123.714 87.611 124.335 88.9184 125.531 89.3435C126.196 89.5792 126.894 89.496 127.46 89.1721C127.916 88.9109 128.282 88.4954 128.473 87.9647C131.839 78.6492 129.834 68.2525 123.242 60.8331Z" fill="url(#paint2_linear_2783_5251)"/>
<path d="M92.4723 24.7372C92.9763 24.791 93.4592 24.6807 93.8675 24.4469C94.481 24.0956 94.9231 23.4682 95.0041 22.7128C96.7206 6.80918 104.329 -7.77413 116.427 -18.3544C127.16 -27.7445 140.367 -33.2084 154.613 -34.1562C155.885 -34.2386 156.84 -35.3313 156.752 -36.5859C156.667 -37.8446 155.57 -38.7949 154.302 -38.7097C139.038 -37.6954 124.888 -31.8389 113.384 -21.7806C100.419 -10.4432 92.2682 5.18354 90.4303 22.2242C90.294 23.4778 91.2097 24.6036 92.4723 24.7372Z" fill="url(#paint3_linear_2783_5251)"/>
<path d="M110.767 71.7526C110.729 71.7109 110.677 71.6935 110.635 71.6541C100.965 60.7232 95.4591 47.2916 94.7171 32.7954C94.654 31.5375 93.5737 30.5668 92.3037 30.6297C91.0325 30.6907 90.059 31.7648 90.123 33.0248C90.9186 48.613 96.852 63.0571 107.282 74.7918C107.341 74.8558 107.417 74.8913 107.479 74.9477C108.095 75.6362 108.717 76.311 109.352 76.9695C110.102 77.742 111.265 77.8775 112.161 77.3642C112.319 77.2741 112.468 77.1651 112.607 77.0352C113.522 76.1609 113.552 74.7153 112.672 73.8063C112.026 73.1403 111.389 72.4563 110.767 71.7526Z" fill="url(#paint4_linear_2783_5251)"/>
<path d="M124.4 -9.38252C108.094 4.87781 102.396 27.1783 109.885 47.429C110.324 48.6116 111.645 49.2203 112.838 48.7877C114.044 48.3451 114.641 47.0407 114.206 45.8591C107.373 27.3884 112.572 7.05005 127.445 -5.95981C147.182 -23.2099 177.388 -21.3194 194.789 -1.73617C194.837 -1.6798 194.888 -1.62954 194.94 -1.58046C196.345 0.00598219 197.689 1.60335 198.938 3.17038C199.656 4.06969 200.917 4.28831 201.889 3.73164C201.987 3.67587 202.081 3.61386 202.169 3.54237C203.165 2.76132 203.333 1.32592 202.545 0.337802C201.205 -1.3433 199.759 -3.05643 198.251 -4.75747C198.2 -4.8127 198.146 -4.86896 198.091 -4.9186C178.988 -26.2361 145.977 -28.2497 124.4 -9.38252Z" fill="url(#paint5_linear_2783_5251)"/>
<path d="M173.26 17.0912C169.902 13.3126 165.263 11.0558 160.196 10.7389C155.128 10.4195 150.243 12.0835 146.436 15.4072C140.721 20.4057 138.57 28.2714 140.953 35.4495C141.351 36.6477 142.652 37.2995 143.857 36.907C145.068 36.5091 145.721 35.2228 145.324 34.0247C143.516 28.5838 145.147 22.6206 149.479 18.833C152.368 16.3122 156.067 15.0528 159.907 15.2925C163.656 15.5286 167.095 17.1652 169.624 19.9079C169.678 19.9824 169.734 20.0557 169.796 20.1258C173.693 24.5073 177.159 29.2733 180.097 34.2883C180.736 35.377 182.14 35.7491 183.237 35.1205L183.241 35.1182C184.342 34.4853 184.715 33.0882 184.076 31.9992C181.036 26.8082 177.458 21.8719 173.442 17.3268C173.386 17.2453 173.325 17.167 173.26 17.0912Z" fill="url(#paint6_linear_2783_5251)"/>
<path d="M160.746 28.0385C159.906 27.0931 158.455 27.0067 157.498 27.8342C156.545 28.6666 156.454 30.1109 157.294 31.0559C172.447 48.1069 178.561 70.6814 174.071 92.9941C173.824 94.2294 174.633 95.4321 175.877 95.6815C176.447 95.793 177.011 95.6858 177.477 95.4189C178.031 95.1018 178.45 94.5616 178.585 93.8909C183.357 70.1681 176.856 46.1676 160.746 28.0385Z" fill="url(#paint7_linear_2783_5251)"/>
<path d="M210.758 -15.7003C210.711 -15.7528 210.645 -15.7753 210.592 -15.8243C198.858 -28.9554 182.704 -37.0438 165.083 -38.5964C163.815 -38.7114 162.698 -37.7793 162.589 -36.5251C162.477 -35.2701 163.413 -34.161 164.678 -34.0497C181.185 -32.5949 196.314 -24.9976 207.279 -12.6598C207.32 -12.6123 207.376 -12.5887 207.42 -12.5456C210.499 -9.06351 213.192 -5.26793 215.425 -1.25918C216.04 -0.156569 217.44 0.244205 218.552 -0.363818L218.592 -0.386624C219.673 -1.00603 220.06 -2.37675 219.453 -3.46534C217.028 -7.81717 214.104 -11.9311 210.758 -15.7003Z" fill="url(#paint8_linear_2783_5251)"/>
<path d="M185.751 6.16935C179.45 -0.923569 170.744 -5.15577 161.237 -5.75085C151.729 -6.3477 142.562 -3.23172 135.417 3.0131C120.671 15.9079 119.256 38.3104 132.264 52.9444C132.356 53.0472 132.454 53.1385 132.558 53.2213C135.121 56.1584 137.211 59.4262 138.778 62.9415C139.292 64.0942 140.65 64.6159 141.815 64.1073C142.947 63.6015 143.501 62.2505 142.986 61.0959C141.172 57.0314 138.736 53.2659 135.743 49.9003C135.653 49.7991 135.554 49.7079 135.451 49.6272C124.404 36.8749 125.718 17.5831 138.46 6.43892C144.682 0.997479 152.67 -1.71542 160.949 -1.19502C169.18 -0.67904 176.722 2.96812 182.204 9.07786C182.234 9.11593 182.266 9.15607 182.298 9.193C190.853 18.8148 197.486 29.7346 202.012 41.6425C202.463 42.8233 203.789 43.4185 204.979 42.9747C205.097 42.9278 205.211 42.8761 205.318 42.8145C206.276 42.266 206.721 41.0941 206.318 40.0333C201.61 27.6525 194.725 16.2997 185.849 6.28698C185.818 6.24734 185.787 6.20699 185.751 6.16935Z" fill="url(#paint9_linear_2783_5251)"/>
<path d="M205.68 8.3247C204.623 9.02233 204.335 10.439 205.039 11.4884C212.355 22.4098 217.813 34.3715 221.259 47.0403C221.589 48.2559 222.851 48.9778 224.078 48.6495C224.276 48.5966 224.463 48.5214 224.632 48.4244C225.512 47.9204 225.976 46.8746 225.7 45.8522C222.126 32.7064 216.462 20.2955 208.869 8.96312C208.167 7.91267 206.763 7.61263 205.68 8.3247Z" fill="url(#paint10_linear_2783_5251)"/>
<path d="M206.819 48.6636C205.583 48.9896 204.863 50.2397 205.194 51.4574C206.948 57.9465 208.081 64.6331 208.557 71.3353C208.646 72.5937 209.747 73.5398 211.013 73.4525C211.376 73.4269 211.708 73.3213 212.002 73.1525C212.739 72.7305 213.211 71.9171 213.146 71.0162C212.65 64.0227 211.468 57.046 209.636 50.277C209.31 49.0589 208.046 48.3355 206.819 48.6636Z" fill="url(#paint11_linear_2783_5251)"/>
<path d="M185.953 40.4238C184.796 40.923 184.252 42.2702 184.761 43.426C190.534 56.6014 193.004 71.1812 191.895 85.5877C191.797 86.843 192.744 87.94 194.011 88.0369C194.493 88.0748 194.948 87.9618 195.336 87.7394C195.972 87.3756 196.423 86.7169 196.481 85.9374C197.648 70.791 195.054 55.4629 188.98 41.6083C188.472 40.4526 187.116 39.9215 185.953 40.4238Z" fill="url(#paint12_linear_2783_5251)"/>
</g>
</g>
<path d="M226.314 33.0241L227.231 34.4045V32.7476V0.509867H244.332V65.4822H230.013L229.924 65.3507L229.924 65.35L208.261 33.0428L207.346 31.6778V33.3213V65.4762H190.217V25.5589H221.358L226.314 33.0241ZM103.518 25.5608H104.018L104.018 25.0607L104.011 0.5H121.119V65.4723H104.018V40.8915V40.3915H103.518H83.0634H82.5634V40.8915V65.4781H65.4337V25.5608H103.518ZM293.282 1.37489L299.29 19.6953L274.007 11.4969L273.827 11.4386L273.653 11.514L267.18 14.3271L271.705 0.509867H292.997L293.282 1.37399L293.282 1.37489ZM299.737 21.059L314.31 65.5H295.928L290.708 48.3733L290.6 48.0191H290.23H274.472H274.101L273.993 48.3733L268.774 65.5H250.399L263.672 25.0445L273.653 29.3854L273.827 29.4609L274.007 29.4025L299.737 21.059ZM150.908 40.3995H150.407L150.408 40.8998L150.414 50.1734L150.414 50.6731H150.914H178.061V65.4803H133.282V25.5589H170.048V40.3995H150.908ZM82.5634 15.3187H65.4337V0.509867H82.5634V15.3187ZM36.855 25.5649V65.4822H19.9325V25.5649H36.855ZM190.217 0.507942H204.717L204.807 0.64312L204.808 0.644327L214.552 15.3168H190.217V0.507942ZM55.2587 0.509867V15.3187H1.5V0.509867H55.2587ZM178.055 0.511792V15.3187H133.276V0.511792H178.055Z" stroke="url(#paint13_linear_2783_5251)"/>
<defs>
<linearGradient id="paint0_linear_2783_5251" x1="315.796" y1="25.016" x2="172.286" y2="189.743" gradientUnits="userSpaceOnUse">
<stop stop-color="#ED00C9"/>
<stop offset="1" stop-color="#BD00ED"/>
</linearGradient>
<linearGradient id="paint1_linear_2783_5251" x1="143.975" y1="75.1472" x2="163.932" y2="63.5287" gradientUnits="userSpaceOnUse">
<stop stop-color="#993E8D"/>
<stop offset="1" stop-color="#9D17BD"/>
</linearGradient>
<linearGradient id="paint2_linear_2783_5251" x1="116.316" y1="74.5952" x2="127.937" y2="67.8296" gradientUnits="userSpaceOnUse">
<stop stop-color="#993E8D"/>
<stop offset="1" stop-color="#9D17BD"/>
</linearGradient>
<linearGradient id="paint3_linear_2783_5251" x1="83.8775" y1="11.8469" x2="159.568" y2="-32.2175" gradientUnits="userSpaceOnUse">
<stop stop-color="#993E8D"/>
<stop offset="1" stop-color="#9D17BD"/>
</linearGradient>
<linearGradient id="paint4_linear_2783_5251" x1="95.6721" y1="57.6075" x2="105.966" y2="51.6147" gradientUnits="userSpaceOnUse">
<stop stop-color="#993E8D"/>
<stop offset="1" stop-color="#9D17BD"/>
</linearGradient>
<linearGradient id="paint5_linear_2783_5251" x1="100.969" y1="32.1811" x2="190.701" y2="-20.0573" gradientUnits="userSpaceOnUse">
<stop stop-color="#993E8D"/>
<stop offset="1" stop-color="#9D17BD"/>
</linearGradient>
<linearGradient id="paint6_linear_2783_5251" x1="142.339" y1="37.9283" x2="176.09" y2="18.2802" gradientUnits="userSpaceOnUse">
<stop stop-color="#993E8D"/>
<stop offset="1" stop-color="#9D17BD"/>
</linearGradient>
<linearGradient id="paint7_linear_2783_5251" x1="158.224" y1="66.9057" x2="178.349" y2="55.1899" gradientUnits="userSpaceOnUse">
<stop stop-color="#993E8D"/>
<stop offset="1" stop-color="#9D17BD"/>
</linearGradient>
<linearGradient id="paint8_linear_2783_5251" x1="176.872" y1="-11.1629" x2="205.338" y2="-27.7348" gradientUnits="userSpaceOnUse">
<stop stop-color="#993E8D"/>
<stop offset="1" stop-color="#9D17BD"/>
</linearGradient>
<linearGradient id="paint9_linear_2783_5251" x1="127.887" y1="46.8288" x2="190.681" y2="10.2723" gradientUnits="userSpaceOnUse">
<stop stop-color="#993E8D"/>
<stop offset="1" stop-color="#9D17BD"/>
</linearGradient>
<linearGradient id="paint10_linear_2783_5251" x1="211.514" y1="30.457" x2="219.101" y2="26.0401" gradientUnits="userSpaceOnUse">
<stop stop-color="#993E8D"/>
<stop offset="1" stop-color="#9D17BD"/>
</linearGradient>
<linearGradient id="paint11_linear_2783_5251" x1="203.996" y1="63.9625" x2="214.228" y2="58.0058" gradientUnits="userSpaceOnUse">
<stop stop-color="#993E8D"/>
<stop offset="1" stop-color="#9D17BD"/>
</linearGradient>
<linearGradient id="paint12_linear_2783_5251" x1="181.84" y1="69.1146" x2="199.145" y2="59.04" gradientUnits="userSpaceOnUse">
<stop stop-color="#993E8D"/>
<stop offset="1" stop-color="#9D17BD"/>
</linearGradient>
<linearGradient id="paint13_linear_2783_5251" x1="315.628" y1="25.014" x2="172.09" y2="189.591" gradientUnits="userSpaceOnUse">
<stop stop-color="#ED00C9"/>
<stop offset="1" stop-color="#BD00ED"/>
</linearGradient>
<clipPath id="clip0_2783_5251">
<rect width="314.334" height="65.9712" fill="white" transform="translate(0.833252 0.0128174)"/>
</clipPath>
</defs>
</svg>
