<svg width="194" height="112" viewBox="0 0 194 112" fill="none" xmlns="http://www.w3.org/2000/svg">
<path d="M75.2469 79.3771C73.8815 81.6272 75.0239 84.56 77.5515 85.2937L82.1525 86.6291C84.3176 87.2575 85.5359 89.5501 84.8451 91.6961L84.2701 93.4828L82.4335 99.1889L3.95826 93.3283C1.76726 93.1647 0.118356 91.2645 0.26509 89.0723L5.95792 4.02186C6.10626 1.80567 8.03181 0.134739 10.2468 0.300111L90.071 6.25982L84.6042 11.6939L73.362 22.8627C71.961 24.2546 71.7854 26.4605 72.9486 28.0564L89.6269 50.9403C90.5774 52.2444 90.6511 53.9918 89.814 55.3714L75.2469 79.3771Z" fill="#292C3B"/>
<path d="M178.042 18.6718C180.233 18.8354 181.882 20.7356 181.735 22.9278L176.045 107.978C175.897 110.194 173.971 111.865 171.756 111.7L88.0689 105.452L90.7087 99.8075L94.8561 90.9426C96.0426 88.4066 94.3236 85.4676 91.5315 85.2587L90.0551 85.1482C87.0775 84.9255 85.3848 81.637 86.9339 79.0843L100.613 56.542C101.553 54.9934 101.334 53.0065 100.081 51.6989L86.1545 37.1715C84.9366 35.9011 84.6921 33.9839 85.5522 32.4486L96.6722 12.5974L178.042 18.6718Z" fill="#292C3B"/>
<path d="M75.2469 79.377C73.8815 81.6271 75.0239 84.5599 77.5515 85.2936L82.1525 86.629C84.3176 87.2574 85.5359 89.55 84.8451 91.696L84.2701 93.4827L9.85124 87.9265C7.66021 87.7629 6.01126 85.8627 6.15798 83.6705L11.0721 10.246C11.2204 8.0298 13.146 6.35886 15.361 6.52422L84.6042 11.6938L73.362 22.8627C71.961 24.2545 71.7854 26.4604 72.9486 28.0563L89.6269 50.9402C90.5773 52.2443 90.6511 53.9917 89.814 55.3713L75.2469 79.377Z" fill="#242836"/>
<path d="M172.149 24.0736C174.34 24.2371 175.989 26.1373 175.842 28.3296L170.928 101.754C170.78 103.97 168.854 105.641 166.639 105.476L90.7087 99.8074L94.8561 90.9426C96.0426 88.4066 94.3236 85.4676 91.5315 85.2587L90.0551 85.1482C87.0775 84.9254 85.3848 81.637 86.9339 79.0843L100.613 56.542C101.553 54.9934 101.334 53.0065 100.081 51.6988L86.1544 37.1714C84.9366 35.901 84.6921 33.984 85.5521 32.4486L93.5295 18.2063L172.149 24.0736Z" fill="#242836"/>
<path d="M177.5 88C186.613 88 194 80.6127 194 71.5C194 62.3873 186.613 55 177.5 55C168.387 55 161 62.3873 161 71.5C161 80.6127 168.387 88 177.5 88Z" fill="#473F2A"/>
<path d="M179.562 60.5H175.438V72.875H179.562V60.5Z" fill="#DCAB2E"/>
<path d="M179.562 77H175.438V81.125H179.562V77Z" fill="#DCAB2E"/>
</svg>
