<svg width="113" height="96" viewBox="0 0 113 96" fill="none" xmlns="http://www.w3.org/2000/svg">
<rect x="1.5" y="1.5" width="93" height="93" rx="10.5" fill="#131220" stroke="url(#paint0_linear_3775_2513)" stroke-width="3" stroke-miterlimit="16"/>
<rect opacity="0.7" x="59.1" y="30.3" width="35.4" height="35.4" stroke="#C461DA" stroke-width="3" stroke-miterlimit="16"/>
<path d="M93.8401 59.0195C94.6047 57.6602 96.5618 57.6602 97.3264 59.0195L111.907 84.94C112.657 86.2732 111.693 87.9205 110.164 87.9205H81.0029C79.4733 87.9205 78.5098 86.2732 79.2598 84.94L93.8401 59.0195Z" fill="#131220"/>
<path fill-rule="evenodd" clip-rule="evenodd" d="M111.035 85.4303L96.4548 59.5097C96.0725 58.8301 95.0939 58.8301 94.7116 59.5097L80.1313 85.4303C79.7564 86.0969 80.2381 86.9205 81.0029 86.9205H110.164C110.928 86.9205 111.41 86.0969 111.035 85.4303ZM97.3264 59.0195C96.5618 57.6602 94.6047 57.6602 93.8401 59.0195L79.2598 84.94C78.5098 86.2732 79.4733 87.9205 81.0029 87.9205H110.164C111.693 87.9205 112.657 86.2732 111.907 84.94L97.3264 59.0195Z" fill="#C461DA"/>
<path d="M95.5833 65.9205C94.5066 65.9205 93.6599 66.8407 93.7493 67.9136L94.5068 77.0036C94.55 77.5219 94.9833 77.9205 95.5034 77.9205H95.6631C96.1832 77.9205 96.6165 77.5219 96.6597 77.0036L97.4172 67.9136C97.5066 66.8407 96.6599 65.9205 95.5833 65.9205Z" fill="#C461DA"/>
<path d="M95.5833 83.9205C96.6878 83.9205 97.5833 83.0251 97.5833 81.9205C97.5833 80.816 96.6878 79.9205 95.5833 79.9205C94.4787 79.9205 93.5833 80.816 93.5833 81.9205C93.5833 83.0251 94.4787 83.9205 95.5833 83.9205Z" fill="#C461DA"/>
<defs>
<linearGradient id="paint0_linear_3775_2513" x1="7.15255e-07" y1="48" x2="96" y2="48" gradientUnits="userSpaceOnUse">
<stop stop-color="#D600B8"/>
<stop offset="0.5" stop-color="#C300CC"/>
<stop offset="1" stop-color="#B100DE"/>
</linearGradient>
</defs>
</svg>
