<svg width="25" height="22" viewBox="0 0 25 22" fill="none" xmlns="http://www.w3.org/2000/svg">
<path d="M10.3401 1.01948C11.1047 -0.339825 13.0618 -0.339827 13.8264 1.01948L23.9067 18.94C24.6566 20.2732 23.6932 21.9205 22.1635 21.9205H2.00291C0.473258 21.9205 -0.490169 20.2732 0.259761 18.94L10.3401 1.01948Z" fill="#35232B"/>
<path fill-rule="evenodd" clip-rule="evenodd" d="M23.0351 19.4303L12.9548 1.50974C12.5725 0.830088 11.5939 0.830086 11.2116 1.50974L1.13134 19.4303C0.756371 20.0969 1.23809 20.9205 2.00291 20.9205H22.1635C22.9283 20.9205 23.4101 20.0969 23.0351 19.4303ZM13.8264 1.01948C13.0618 -0.339827 11.1047 -0.339825 10.3401 1.01948L0.259761 18.94C-0.490169 20.2732 0.473258 21.9205 2.00291 21.9205H22.1635C23.6932 21.9205 24.6566 20.2732 23.9067 18.94L13.8264 1.01948Z" fill="#EA5E5E"/>
<path d="M12.0832 5.42065C11.2757 5.42065 10.6407 6.11079 10.7078 6.91547L11.2759 13.7329C11.3083 14.1217 11.6333 14.4207 12.0233 14.4207H12.1431C12.5332 14.4207 12.8581 14.1217 12.8905 13.7329L13.4587 6.91547C13.5257 6.11079 12.8907 5.42065 12.0832 5.42065Z" fill="#EA5E5E"/>
<path d="M12.0832 18.9207C12.9116 18.9207 13.5832 18.2491 13.5832 17.4207C13.5832 16.5922 12.9116 15.9207 12.0832 15.9207C11.2548 15.9207 10.5832 16.5922 10.5832 17.4207C10.5832 18.2491 11.2548 18.9207 12.0832 18.9207Z" fill="#EA5E5E"/>
</svg>
