<svg width="40" height="44" viewBox="0 0 40 44" fill="none" xmlns="http://www.w3.org/2000/svg">
<rect x="7" width="26" height="44" rx="12" fill="#383C4B"/>
<path d="M3.90434 36.8765C4.6136 36.3091 5.49484 36 6.40312 36H33.5969C34.5052 36 35.3864 36.3091 36.0957 36.8765L37.7739 38.2191C38.5121 38.8096 38.0945 40 37.1492 40H2.85078C1.9055 40 1.48795 38.8096 2.22609 38.2191L3.90434 36.8765Z" fill="#383C4B"/>
<path d="M4.21669 37.267C4.83729 36.7705 5.60837 36.5 6.40312 36.5H33.5969C34.3916 36.5 35.1627 36.7705 35.7833 37.267L37.4616 38.6096C37.8306 38.9048 37.6219 39.5 37.1492 39.5H2.85078C2.37814 39.5 2.16936 38.9048 2.53843 38.6096L4.21669 37.267Z" stroke="url(#paint0_linear_299_1659)" stroke-opacity="0.7"/>
<path d="M24.5582 26.2439L21.0592 22.4729C20.4742 21.8424 19.5258 21.8424 18.9408 22.4729L15.4418 26.2439C14.4981 27.261 15.1664 29 16.501 29H23.499C24.8336 29 25.5019 27.261 24.5582 26.2439Z" fill="#5F606F"/>
<path d="M24.5582 35.2439L21.0592 31.4729C20.4742 30.8424 19.5258 30.8424 18.9408 31.4729L15.4418 35.2439C14.4981 36.261 15.1664 38 16.501 38H23.499C24.8336 38 25.5019 36.261 24.5582 35.2439Z" fill="#5F606F"/>
<path d="M20 24C25.5417 24 30 19.5417 30 14C30 8.4583 25.5417 4 20 4C14.4583 4 10 8.4583 10 14C10 19.5417 14.4583 24 20 24Z" fill="#2775CA"/>
<path d="M22.7502 15.5833C22.7502 14.125 21.8752 13.625 20.1252 13.4167C18.8752 13.25 18.6252 12.9167 18.6252 12.3333C18.6252 11.7499 19.0419 11.375 19.8752 11.375C20.6252 11.375 21.0419 11.625 21.2502 12.25C21.2919 12.375 21.4169 12.4583 21.5419 12.4583H22.2085C22.3752 12.4583 22.5002 12.3333 22.5002 12.1667V12.125C22.3335 11.2083 21.5835 10.5 20.6252 10.4167V9.4167C20.6252 9.25 20.5002 9.125 20.2919 9.0833H19.6669C19.5002 9.0833 19.3752 9.2083 19.3335 9.4167V10.375C18.0835 10.5417 17.2919 11.375 17.2919 12.4167C17.2919 13.7917 18.1252 14.3333 19.8752 14.5417C21.0419 14.75 21.4169 15 21.4169 15.6667C21.4169 16.3334 20.8335 16.7917 20.0419 16.7917C18.9585 16.7917 18.5835 16.3333 18.4585 15.7083C18.4169 15.5417 18.2919 15.4583 18.1669 15.4583H17.4585C17.2919 15.4583 17.1669 15.5833 17.1669 15.75V15.7917C17.3335 16.8333 18.0002 17.5833 19.3752 17.7917V18.7917C19.3752 18.9583 19.5002 19.0833 19.7085 19.125H20.3335C20.5002 19.125 20.6252 19 20.6669 18.7917V17.7917C21.9169 17.5833 22.7502 16.7083 22.7502 15.5833Z" fill="white"/>
<path d="M17.8753 19.9583C14.6253 18.7917 12.9586 15.1667 14.167 11.9583C14.792 10.2083 16.167 8.875 17.8753 8.25C18.042 8.1667 18.1253 8.0417 18.1253 7.8333V7.25C18.1253 7.0833 18.042 6.9583 17.8753 6.9167C17.8336 6.9167 17.7503 6.9167 17.7086 6.9583C13.7503 8.2083 11.5836 12.4167 12.8336 16.375C13.5836 18.7083 15.3753 20.5 17.7086 21.25C17.8753 21.3333 18.042 21.25 18.0836 21.0833C18.1253 21.0417 18.1253 21 18.1253 20.9167V20.3333C18.1253 20.2083 18.0003 20.0417 17.8753 19.9583ZM22.292 6.9583C22.1253 6.875 21.9586 6.9583 21.917 7.125C21.8753 7.1667 21.8753 7.2083 21.8753 7.2917V7.875C21.8753 8.0417 22.0003 8.2083 22.1253 8.2917C25.3753 9.4583 27.042 13.0833 25.8336 16.2917C25.2086 18.0417 23.8336 19.375 22.1253 20C21.9586 20.0833 21.8753 20.2083 21.8753 20.4167V21C21.8753 21.1667 21.9586 21.2917 22.1253 21.3333C22.167 21.3333 22.2503 21.3333 22.292 21.2917C26.2503 20.0417 28.417 15.8333 27.167 11.875C26.417 9.5 24.5836 7.7083 22.292 6.9583Z" fill="white"/>
<defs>
<linearGradient id="paint0_linear_299_1659" x1="2.98023e-07" y1="38" x2="40" y2="38" gradientUnits="userSpaceOnUse">
<stop stop-color="#E5EFF3"/>
<stop offset="1" stop-color="#89B3C5"/>
</linearGradient>
</defs>
</svg>
