<svg width="19" height="16" viewBox="0 0 19 16" fill="none" xmlns="http://www.w3.org/2000/svg">
<g clip-path="url(#clip0_4614_3671)">
<path d="M17.7085 2.88555L18.1823 2.14746L17.3985 2.50719C17.0851 2.65103 16.7609 2.77004 16.4274 2.864C16.8042 2.44707 17.093 1.94328 17.2637 1.38049L17.461 0.72998L16.8958 1.08253C16.2853 1.46336 15.6142 1.73941 14.8989 1.90385C14.2206 1.20381 13.2859 0.774084 12.2694 0.774084C10.1979 0.774084 8.53651 2.53228 8.53651 4.67951C8.53651 4.86616 8.54576 5.05071 8.56746 5.2321C5.87341 5.00347 3.49639 3.61432 1.87859 1.53531L1.64822 1.23926L1.46637 1.56936C1.14569 2.15146 0.956626 2.81988 0.956626 3.54006C0.956626 4.55379 1.33088 5.48139 1.93707 6.17481C1.71385 6.10466 1.49985 6.00995 1.30183 5.89594L0.930061 5.68195V6.12134V6.12185V6.12247V6.12304V6.12355V6.12412V6.12464V6.12526V6.12577V6.12634V6.12686V6.12743V6.12794V6.12851V6.12903V6.12959V6.13011V6.13068V6.13119V6.13181V6.13233V6.13295V6.13357V6.13408V6.1347V6.13522V6.13579V6.1363V6.13687V6.13739V6.13795V6.13852V6.13909V6.13961V6.14017V6.14074V6.14131V6.14188V6.14245V6.14301V6.14358V6.14415V6.14472V6.14528V6.14585V6.14637V6.14693V6.1475V6.14807V6.14859V6.14915V6.14967V6.15024V6.15075V6.15132V6.15184V6.15241V6.15292V6.15349V6.15401V6.15457V6.15509V6.15571V6.15628V6.1569V6.15746V6.15798V6.15855V6.15906V6.15968V6.16025V6.16087C0.930061 7.64872 1.72641 8.94079 2.89106 9.60319C2.7371 9.59731 2.59015 9.58188 2.45342 9.55024L2.02641 9.45145L2.16084 9.88133C2.57609 11.2092 3.64959 12.2384 4.98425 12.5227C3.93358 13.2272 2.67768 13.6394 1.33413 13.6394C1.0558 13.6394 0.792861 13.6264 0.532201 13.5915L0.363281 14.0634C1.94686 15.1319 3.82385 15.7418 5.84656 15.7418C12.4295 15.7418 16.0161 10.033 16.0161 5.1075C16.0161 4.98952 16.0133 4.87491 16.0091 4.76245C16.6791 4.24379 17.2444 3.60837 17.7085 2.88555Z" fill="url(#paint0_linear_4614_3671)"/>
</g>
<defs>
<linearGradient id="paint0_linear_4614_3671" x1="0.363281" y1="8.23591" x2="18.1823" y2="8.23591" gradientUnits="userSpaceOnUse">
<stop stop-color="#C5E9F7"/>
<stop offset="1" stop-color="#DFF0F4"/>
</linearGradient>
<clipPath id="clip0_4614_3671">
<rect width="19" height="16" fill="white"/>
</clipPath>
</defs>
</svg>
