<svg width="36" height="36" viewBox="0 0 36 36" fill="none" xmlns="http://www.w3.org/2000/svg">
<g filter="url(#filter0_b_3722_11098)">
<path fill-rule="evenodd" clip-rule="evenodd" d="M13.834 0L18.0001 4.16613L22.1662 3.83341e-05C25.4265 0.751392 28.5224 2.39716 31.0626 4.93735C33.6029 7.47764 35.2487 10.5737 36 13.8341L31.8338 18.0003L35.9999 22.1663C35.2485 25.4265 33.6027 28.5224 31.0626 31.0625C28.5222 33.6029 25.4261 35.2487 22.1655 36L17.9999 31.8343L13.8343 35.9999C10.5738 35.2486 7.47776 33.6028 4.93746 31.0625C2.39726 28.5223 0.751485 25.4263 0.000137424 22.166L4.1659 18.0003L0 13.8344C0.751283 10.5739 2.3971 7.47771 4.93746 4.93735C7.47769 2.39712 10.5737 0.751336 13.834 0Z" fill="#202432"/>
</g>
<path fill-rule="evenodd" clip-rule="evenodd" d="M18.0001 5.09733L13.6294 0.726644C10.6156 1.48608 7.76172 3.0443 5.40307 5.40295C3.04428 7.76173 1.48603 10.6158 0.726635 13.6298L5.0971 18.0003L0.726783 22.3706C1.48623 25.3845 3.04444 28.2383 5.40307 30.5969C7.76179 32.9556 10.6157 34.5138 13.6297 35.2733L17.9999 30.9031L22.3701 35.2733C25.3842 34.5139 28.2382 32.9557 30.597 30.5969C32.9556 28.2383 34.5137 25.3846 35.2732 22.3709L30.9026 18.0003L35.2734 13.6295C34.5139 10.6156 32.9557 7.76166 30.597 5.40295C28.2384 3.04434 25.3846 1.48614 22.3708 0.726685L18.0001 5.09733ZM22.1662 3.83341e-05C25.4265 0.751393 28.5224 2.39716 31.0626 4.93735C33.6029 7.47764 35.2487 10.5737 36 13.8341L31.8338 18.0003L35.9999 22.1663C35.2485 25.4265 33.6027 28.5224 31.0626 31.0625C28.5222 33.6029 25.4261 35.2487 22.1655 36L17.9999 31.8343L13.8343 35.9999C10.5738 35.2486 7.47776 33.6028 4.93746 31.0625C2.39726 28.5223 0.751485 25.4263 0.000137424 22.166L4.1659 18.0003L0 13.8344C0.751283 10.5739 2.3971 7.47771 4.93746 4.93735C7.47769 2.39712 10.5737 0.751336 13.834 0L18.0001 4.16613L22.1662 3.83341e-05Z" fill="#383C4B"/>
<path d="M15.2738 17.5978L17.5978 15.2737C17.82 15.0516 18.1801 15.0516 18.4022 15.2737L20.7263 17.5978C20.9484 17.8199 20.9484 18.1801 20.7263 18.4022L18.4022 20.7262C18.1801 20.9484 17.82 20.9484 17.5978 20.7262L15.2738 18.4022C15.0516 18.1801 15.0516 17.8199 15.2738 17.5978Z" fill="#141823" stroke="#383C4B" stroke-miterlimit="10"/>
<defs>
<filter id="filter0_b_3722_11098" x="-4" y="-4" width="44" height="44" filterUnits="userSpaceOnUse" color-interpolation-filters="sRGB">
<feFlood flood-opacity="0" result="BackgroundImageFix"/>
<feGaussianBlur in="BackgroundImageFix" stdDeviation="2"/>
<feComposite in2="SourceAlpha" operator="in" result="effect1_backgroundBlur_3722_11098"/>
<feBlend mode="normal" in="SourceGraphic" in2="effect1_backgroundBlur_3722_11098" result="shape"/>
</filter>
</defs>
</svg>
