<svg width="20" height="20" viewBox="0 0 20 20" fill="none" xmlns="http://www.w3.org/2000/svg">
<rect x="2.74268" y="13.3871" width="14.826" height="5.70231" transform="rotate(-45 2.74268 13.3871)" fill="#496C7B"/>
<path d="M5.1626 10.9678L13.2269 2.90355L17.259 6.93569L9.19474 15L5.1626 10.9678Z" fill="#AEE3FA"/>
<path fill-rule="evenodd" clip-rule="evenodd" d="M13.2269 4.5164L6.77546 10.9678L9.19474 13.3871L15.6462 6.93569L13.2269 4.5164ZM5.1626 10.9678L9.19474 15L17.259 6.93569L13.2269 2.90355L5.1626 10.9678Z" fill="#496C7B"/>
<rect x="2.74268" y="15" width="1.14046" height="3.42139" transform="rotate(-45 2.74268 15)" fill="#35474F"/>
<rect x="1.12988" y="15" width="1.14046" height="5.70231" transform="rotate(-45 1.12988 15)" fill="#35474F"/>
<rect x="14.8398" y="4.51642" width="2.28092" height="1.14046" transform="rotate(-45 14.8398 4.51642)" fill="#496C7B"/>
</svg>
