<svg width="20" height="20" viewBox="0 0 20 20" fill="none" xmlns="http://www.w3.org/2000/svg">
<g clip-path="url(#clip0_5166_3846)">
<path d="M11 3.57732C10.3812 3.22006 9.6188 3.22006 9 3.57732L5.56216 5.56216L3 3V0H17V3L14.4378 5.56216L11 3.57732Z" fill="#496C7B"/>
<path d="M9 4.57735C9.6188 4.22008 10.3812 4.22008 11 4.57735L15.9282 7.42265C16.547 7.77992 16.9282 8.44017 16.9282 9.1547V14.8453C16.9282 15.5598 16.547 16.2201 15.9282 16.5774L11 19.4226C10.3812 19.7799 9.6188 19.7799 9 19.4226L4.0718 16.5774C3.45299 16.2201 3.0718 15.5598 3.0718 14.8453V9.1547C3.0718 8.44017 3.45299 7.77992 4.0718 7.42265L9 4.57735Z" fill="#496C7B"/>
<path d="M9.5 6.28868C9.8094 6.11004 10.1906 6.11004 10.5 6.28868L14.6962 8.71132C15.0056 8.88996 15.1962 9.22008 15.1962 9.57735V14.4226C15.1962 14.7799 15.0056 15.11 14.6962 15.2887L10.5 17.7113C10.1906 17.89 9.8094 17.89 9.5 17.7113L5.30385 15.2887C4.99445 15.11 4.80385 14.7799 4.80385 14.4226V9.57735C4.80385 9.22008 4.99445 8.88996 5.30385 8.71132L9.5 6.28868Z" fill="#AEE3FA"/>
</g>
<defs>
<clipPath id="clip0_5166_3846">
<rect width="20" height="20" fill="white"/>
</clipPath>
</defs>
</svg>
