<svg width="46" height="24" viewBox="0 0 46 24" fill="none" xmlns="http://www.w3.org/2000/svg">
<rect width="46" height="24" rx="12" fill="#383C4B"/>
<path d="M12 22C17.5417 22 22 17.5417 22 12C22 6.4583 17.5417 2 12 2C6.4583 2 2 6.4583 2 12C2 17.5417 6.4583 22 12 22Z" fill="#2775CA"/>
<path d="M14.7503 13.5833C14.7503 12.125 13.8753 11.625 12.1253 11.4167C10.8753 11.25 10.6253 10.9167 10.6253 10.3333C10.6253 9.7499 11.042 9.375 11.8753 9.375C12.6253 9.375 13.042 9.625 13.2503 10.25C13.292 10.375 13.417 10.4583 13.542 10.4583H14.2086C14.3753 10.4583 14.5003 10.3333 14.5003 10.1667V10.125C14.3336 9.2083 13.5836 8.5 12.6253 8.4167V7.4167C12.6253 7.25 12.5003 7.125 12.292 7.0833H11.667C11.5003 7.0833 11.3753 7.2083 11.3336 7.4167V8.375C10.0836 8.5417 9.29199 9.375 9.29199 10.4167C9.29199 11.7917 10.1253 12.3333 11.8753 12.5417C13.042 12.75 13.417 13 13.417 13.6667C13.417 14.3334 12.8336 14.7917 12.042 14.7917C10.9586 14.7917 10.5836 14.3333 10.4586 13.7083C10.417 13.5417 10.292 13.4583 10.167 13.4583H9.45859C9.29199 13.4583 9.16699 13.5833 9.16699 13.75V13.7917C9.33359 14.8333 10.0003 15.5833 11.3753 15.7917V16.7917C11.3753 16.9583 11.5003 17.0833 11.7086 17.125H12.3336C12.5003 17.125 12.6253 17 12.667 16.7917V15.7917C13.917 15.5833 14.7503 14.7083 14.7503 13.5833Z" fill="white"/>
<path d="M9.87484 17.9583C6.62484 16.7917 4.95814 13.1667 6.16654 9.9583C6.79154 8.2083 8.16654 6.875 9.87484 6.25C10.0415 6.1667 10.1248 6.0417 10.1248 5.8333V5.25C10.1248 5.0833 10.0415 4.9583 9.87484 4.9167C9.83314 4.9167 9.74984 4.9167 9.70814 4.9583C5.74984 6.2083 3.58314 10.4167 4.83314 14.375C5.58314 16.7083 7.37484 18.5 9.70814 19.25C9.87484 19.3333 10.0415 19.25 10.0831 19.0833C10.1248 19.0417 10.1248 19 10.1248 18.9167V18.3333C10.1248 18.2083 9.99984 18.0417 9.87484 17.9583ZM14.2915 4.9583C14.1248 4.875 13.9581 4.9583 13.9165 5.125C13.8748 5.1667 13.8748 5.2083 13.8748 5.2917V5.875C13.8748 6.0417 13.9998 6.2083 14.1248 6.2917C17.3748 7.4583 19.0415 11.0833 17.8331 14.2917C17.2081 16.0417 15.8331 17.375 14.1248 18C13.9581 18.0833 13.8748 18.2083 13.8748 18.4167V19C13.8748 19.1667 13.9581 19.2917 14.1248 19.3333C14.1665 19.3333 14.2498 19.3333 14.2915 19.2917C18.2498 18.0417 20.4165 13.8333 19.1665 9.875C18.4165 7.5 16.5831 5.7083 14.2915 4.9583Z" fill="white"/>
<path d="M27.2716 16.0926C27.7267 15.41 28.4928 15 29.3132 15H38.6868C39.5072 15 40.2733 15.41 40.7284 16.0926C41.272 16.9079 40.6875 18 39.7076 18H28.2924C27.3125 18 26.728 16.9079 27.2716 16.0926Z" fill="#383C4B"/>
<path d="M27.6876 16.37C28.0499 15.8265 28.66 15.5 29.3132 15.5H38.6868C39.34 15.5 39.9501 15.8265 40.3124 16.37C40.6344 16.853 40.2881 17.5 39.7076 17.5H28.2924C27.7119 17.5 27.3656 16.853 27.6876 16.37Z" stroke="url(#paint0_linear_5513_3848)" stroke-opacity="0.7"/>
<path d="M34.6214 5H33.3786V11.6138H31.6226C31.0917 11.6138 30.8053 12.2164 31.1508 12.6064L33.5282 15.29C33.7762 15.57 34.2238 15.57 34.4718 15.29L36.8492 12.6064C37.1947 12.2164 36.9083 11.6138 36.3774 11.6138H34.6214V5Z" fill="url(#paint1_linear_5513_3848)"/>
<defs>
<linearGradient id="paint0_linear_5513_3848" x1="26" y1="16.5" x2="42" y2="16.5" gradientUnits="userSpaceOnUse">
<stop stop-color="#E5EFF3"/>
<stop offset="1" stop-color="#89B3C5"/>
</linearGradient>
<linearGradient id="paint1_linear_5513_3848" x1="31" y1="10.25" x2="37" y2="10.25" gradientUnits="userSpaceOnUse">
<stop stop-color="#E5F1F3"/>
<stop offset="0.5" stop-color="#AEE3FA"/>
<stop offset="1" stop-color="#E5F1F3"/>
</linearGradient>
</defs>
</svg>
