<svg width="34" height="30" viewBox="0 0 34 30" fill="none" xmlns="http://www.w3.org/2000/svg">
<path d="M15.2561 1.01948C16.0207 -0.339824 17.9778 -0.339828 18.7424 1.01948L33.3227 26.94C34.0726 28.2732 33.1092 29.9205 31.5795 29.9205H2.41892C0.889272 29.9205 -0.074153 28.2732 0.675777 26.94L15.2561 1.01948Z" fill="#473F2A"/>
<path fill-rule="evenodd" clip-rule="evenodd" d="M32.4511 27.4303L17.8708 1.50974C17.4885 0.830089 16.51 0.830085 16.1277 1.50974L1.54735 27.4303C1.17239 28.0969 1.6541 28.9205 2.41892 28.9205H31.5795C32.3444 28.9205 32.8261 28.0969 32.4511 27.4303ZM18.7424 1.01948C17.9778 -0.339828 16.0207 -0.339824 15.2561 1.01948L0.675777 26.94C-0.074153 28.2732 0.889272 29.9205 2.41892 29.9205H31.5795C33.1092 29.9205 34.0726 28.2732 33.3227 26.94L18.7424 1.01948Z" fill="#DCAB2E"/>
<path d="M17 7.92041C15.9234 7.92041 15.0767 8.84059 15.1661 9.9135L15.9236 19.0035C15.9668 19.5217 16.4 19.9204 16.9201 19.9204H17.0799C17.6 19.9204 18.0332 19.5217 18.0764 19.0035L18.8339 9.9135C18.9233 8.84059 18.0766 7.92041 17 7.92041Z" fill="#DCAB2E"/>
<path d="M17 25.9204C18.1046 25.9204 19 25.025 19 23.9204C19 22.8158 18.1046 21.9204 17 21.9204C15.8954 21.9204 15 22.8158 15 23.9204C15 25.025 15.8954 25.9204 17 25.9204Z" fill="#DCAB2E"/>
</svg>
