<svg width="32" height="32" viewBox="0 0 32 32" fill="none" xmlns="http://www.w3.org/2000/svg">
<g clip-path="url(#clip0_105_988)">
<path d="M15.7943 11.3529L20.2082 4.42545L24.2856 6.78843L18.489 15.9249L15.7943 11.3529Z" fill="#C3FA50"/>
<path d="M20.9637 22.6447L16.3167 22.6278L5.80261 5.27767L9.47751 3.16167L10.4768 4.85665L20.9637 22.6447Z" fill="#C3FA50"/>
<path d="M29.9568 22.6686C29.9355 23.1481 29.7979 23.6153 29.5558 24.0299C29.3138 24.4444 28.9745 24.7939 28.5673 25.0482L17.0142 31.6919C16.6019 31.8946 16.1484 32 15.6889 32C15.2294 32 14.7759 31.8946 14.3635 31.6919C14.267 31.6434 3.12835 25.1832 3.12835 25.1832C2.97359 25.1089 2.82557 25.0213 2.68595 24.9214C2.32427 24.6641 2.02558 24.3284 1.8123 23.9392C1.59902 23.55 1.4767 23.1175 1.45453 22.6743V8.91469L3.43849 11.9643L3.42321 22.5805C3.43249 22.7261 3.47394 22.8678 3.54457 22.9953C3.61519 23.123 3.71323 23.2333 3.83163 23.3185C3.88409 23.3561 15.213 29.9137 15.249 29.9317C15.3846 29.9977 15.5334 30.0323 15.6842 30.0331C15.835 30.0338 15.9841 30.0005 16.1203 29.9358L27.5241 23.3761C27.6569 23.2919 27.7674 23.1768 27.8464 23.0407C27.9254 22.9047 27.9705 22.7516 27.9778 22.5945V9.44283C27.9751 9.30647 27.9433 9.17229 27.8844 9.04923C27.8257 8.92618 27.7413 8.81709 27.6369 8.72931L25.4249 7.44814L24.2847 6.78684L20.2073 4.42385L16.0722 2.02735C15.8436 1.94669 15.5935 1.95164 15.3683 2.04131L10.4761 4.85505L9.47678 3.16029L13.8734 0.629017C14.019 0.546471 14.1485 0.473017 14.2547 0.413307C14.4194 0.322035 14.5315 0.259344 14.571 0.240217C14.9389 0.0789795 15.3366 -0.00283813 15.7382 7.05719e-05C16.1065 -0.00043869 16.4715 0.0682163 16.8145 0.202545L28.8248 7.15782C29.1636 7.42138 29.4406 7.75607 29.6361 8.13825C29.8315 8.52044 29.9409 8.94087 29.9563 9.36982L29.9568 22.6686Z" fill="#C3FA50"/>
</g>
<defs>
<clipPath id="clip0_105_988">
<rect width="32" height="32" fill="white" transform="matrix(1 0 0 -1 0 32)"/>
</clipPath>
</defs>
</svg>
