<svg width="103" height="36" viewBox="0 0 103 36" fill="none" xmlns="http://www.w3.org/2000/svg">
<path opacity="0.2" d="M3.87183 23V20.1229C3.87183 19.8103 3.92523 19.5484 4.03204 19.3371C4.13885 19.1174 4.29462 18.978 4.49933 18.9189L3.87183 18.2725V13H6.15487V23H3.87183ZM0 18.9189V16.929H10V18.9189H0Z" fill="url(#paint0_linear_299_1629)"/>
<path opacity="0.5" d="M27.8718 23V20.1229C27.8718 19.8103 27.9252 19.5484 28.032 19.3371C28.1389 19.1174 28.2946 18.978 28.4993 18.9189L27.8718 18.2725V13H30.1549V23H27.8718ZM24 18.9189V16.929H34V18.9189H24Z" fill="url(#paint1_linear_299_1629)"/>
<path d="M51.8718 23V20.1229C51.8718 19.8103 51.9252 19.5484 52.032 19.3371C52.1389 19.1174 52.2946 18.978 52.4993 18.9189L51.8718 18.2725V13H54.1549V23H51.8718ZM48 18.9189V16.929H58V18.9189H48Z" fill="url(#paint2_linear_299_1629)"/>
<path d="M85 36C94.9751 36 103 27.9751 103 18C103 8.02494 94.9751 0 85 0C75.0249 0 67 8.02494 67 18C67 27.9751 75.0249 36 85 36Z" fill="#2775CA"/>
<path d="M89.9508 20.8499C89.9508 18.2249 88.3758 17.3249 85.2258 16.95C82.9758 16.6499 82.5258 16.05 82.5258 14.9999C82.5258 13.9498 83.2758 13.2749 84.7758 13.2749C86.1258 13.2749 86.8758 13.7249 87.2508 14.8499C87.3258 15.0749 87.5508 15.2249 87.7758 15.2249H88.9757C89.2758 15.2249 89.5008 14.9999 89.5008 14.7V14.6249C89.2007 12.9749 87.8507 11.6999 86.1258 11.55V9.74999C86.1258 9.44993 85.9008 9.22493 85.5258 9.14987H84.4008C84.1008 9.14987 83.8758 9.37487 83.8007 9.74999V11.4749C81.5507 11.775 80.1258 13.2749 80.1258 15.15C80.1258 17.625 81.6258 18.5999 84.7758 18.975C86.8758 19.3499 87.5508 19.7999 87.5508 21C87.5508 22.2001 86.5007 23.025 85.0758 23.025C83.1257 23.025 82.4507 22.1999 82.2257 21.0749C82.1508 20.775 81.9258 20.6249 81.7008 20.6249H80.4257C80.1258 20.6249 79.9008 20.8499 79.9008 21.1499V21.225C80.2007 23.0999 81.4008 24.4499 83.8758 24.825V26.625C83.8758 26.9249 84.1008 27.1499 84.4757 27.2249H85.6007C85.9008 27.2249 86.1258 26.9999 86.2008 26.625V24.825C88.4508 24.4499 89.9508 22.8749 89.9508 20.8499Z" fill="white"/>
<path d="M81.1755 28.7249C75.3255 26.6251 72.3254 20.1001 74.5005 14.3249C75.6255 11.1749 78.1005 8.775 81.1755 7.65C81.4755 7.50006 81.6255 7.27506 81.6255 6.89994V5.85C81.6255 5.54994 81.4755 5.32494 81.1755 5.25006C81.1004 5.25006 80.9505 5.25006 80.8754 5.32494C73.7505 7.57494 69.8504 15.1501 72.1004 22.275C73.4504 26.4749 76.6755 29.7 80.8754 31.05C81.1755 31.1999 81.4755 31.05 81.5504 30.7499C81.6255 30.6751 81.6255 30.6 81.6255 30.4501V29.3999C81.6255 29.1749 81.4005 28.8751 81.1755 28.7249ZM89.1255 5.32494C88.8255 5.175 88.5254 5.32494 88.4505 5.625C88.3755 5.70006 88.3755 5.77494 88.3755 5.92506V6.975C88.3755 7.27506 88.6005 7.57494 88.8255 7.72506C94.6755 9.82494 97.6755 16.3499 95.5004 22.1251C94.3754 25.2751 91.9004 27.675 88.8255 28.8C88.5254 28.9499 88.3755 29.1749 88.3755 29.5501V30.6C88.3755 30.9001 88.5254 31.1251 88.8255 31.1999C88.9005 31.1999 89.0505 31.1999 89.1255 31.1251C96.2505 28.8751 100.151 21.2999 97.9005 14.175C96.5505 9.9 93.2504 6.67494 89.1255 5.32494Z" fill="white"/>
<defs>
<linearGradient id="paint0_linear_299_1629" x1="7.45058e-08" y1="18" x2="10" y2="18" gradientUnits="userSpaceOnUse">
<stop stop-color="#E5F1F3"/>
<stop offset="0.5" stop-color="#AEE3FA"/>
<stop offset="1" stop-color="#E5F1F3"/>
</linearGradient>
<linearGradient id="paint1_linear_299_1629" x1="24" y1="18" x2="34" y2="18" gradientUnits="userSpaceOnUse">
<stop stop-color="#E5F1F3"/>
<stop offset="0.5" stop-color="#AEE3FA"/>
<stop offset="1" stop-color="#E5F1F3"/>
</linearGradient>
<linearGradient id="paint2_linear_299_1629" x1="48" y1="18" x2="58" y2="18" gradientUnits="userSpaceOnUse">
<stop stop-color="#E5F1F3"/>
<stop offset="0.5" stop-color="#AEE3FA"/>
<stop offset="1" stop-color="#E5F1F3"/>
</linearGradient>
</defs>
</svg>
