<svg width="103" height="36" viewBox="0 0 103 36" fill="none" xmlns="http://www.w3.org/2000/svg">
<path opacity="0.2" d="M3.87183 23V20.1229C3.87183 19.8103 3.92523 19.5484 4.03204 19.3371C4.13885 19.1174 4.29462 18.978 4.49933 18.9189L3.87183 18.2725V13H6.15487V23H3.87183ZM0 18.9189V16.929H10V18.9189H0Z" fill="url(#paint0_linear_2783_5228)"/>
<path opacity="0.5" d="M27.8718 23V20.1229C27.8718 19.8103 27.9252 19.5484 28.032 19.3371C28.1389 19.1174 28.2946 18.978 28.4993 18.9189L27.8718 18.2725V13H30.1549V23H27.8718ZM24 18.9189V16.929H34V18.9189H24Z" fill="url(#paint1_linear_2783_5228)"/>
<path d="M51.8718 23V20.1229C51.8718 19.8103 51.9252 19.5484 52.032 19.3371C52.1389 19.1174 52.2946 18.978 52.4993 18.9189L51.8718 18.2725V13H54.1549V23H51.8718ZM48 18.9189V16.929H58V18.9189H48Z" fill="url(#paint2_linear_2783_5228)"/>
<circle cx="85" cy="18" r="17.5" fill="#50AF95" stroke="#35474F"/>
<path fill-rule="evenodd" clip-rule="evenodd" d="M87.0143 19.1597C86.9018 19.1685 86.3205 19.2044 85.0239 19.2044C83.9926 19.2044 83.2604 19.1724 83.0035 19.1597C79.018 18.9781 76.0431 18.2591 76.0431 17.3983C76.0431 16.5375 79.018 15.8195 83.0035 15.6349V18.4437C83.2641 18.4631 84.0104 18.5088 85.0417 18.5088C86.2793 18.5088 86.899 18.4553 87.0105 18.4447V15.6368C90.9876 15.8204 93.9559 16.5394 93.9559 17.3983C93.9559 18.2571 90.9885 18.9761 87.0105 19.1588L87.0143 19.1597ZM87.0143 15.3463V12.8329H92.5646V9H77.4532V12.8329H83.0025V15.3453C78.492 15.5601 75.1 16.486 75.1 17.5955C75.1 18.705 78.492 19.63 83.0025 19.8457V27.9H87.0134V19.8427C91.5136 19.628 94.9 18.7031 94.9 17.5945C94.9 16.486 91.5164 15.561 87.0134 15.3453L87.0143 15.3463Z" fill="white"/>
<defs>
<linearGradient id="paint0_linear_2783_5228" x1="7.45058e-08" y1="18" x2="10" y2="18" gradientUnits="userSpaceOnUse">
<stop stop-color="#E5EFF3"/>
<stop offset="0.5" stop-color="#A2D4EA"/>
<stop offset="1" stop-color="#E5EFF3"/>
</linearGradient>
<linearGradient id="paint1_linear_2783_5228" x1="24" y1="18" x2="34" y2="18" gradientUnits="userSpaceOnUse">
<stop stop-color="#E5EFF3"/>
<stop offset="0.5" stop-color="#A2D4EA"/>
<stop offset="1" stop-color="#E5EFF3"/>
</linearGradient>
<linearGradient id="paint2_linear_2783_5228" x1="48" y1="18" x2="58" y2="18" gradientUnits="userSpaceOnUse">
<stop stop-color="#E5EFF3"/>
<stop offset="0.5" stop-color="#A2D4EA"/>
<stop offset="1" stop-color="#E5EFF3"/>
</linearGradient>
</defs>
</svg>
