<svg width="40" height="44" viewBox="0 0 40 44" fill="none" xmlns="http://www.w3.org/2000/svg">
<rect x="7" width="26" height="44" rx="12" fill="#383C4B"/>
<path d="M3.90434 36.8765C4.6136 36.3091 5.49484 36 6.40312 36H33.5969C34.5052 36 35.3864 36.3091 36.0957 36.8765L37.7739 38.2191C38.5121 38.8096 38.0945 40 37.1492 40H2.85078C1.9055 40 1.48795 38.8096 2.22609 38.2191L3.90434 36.8765Z" fill="#383C4B"/>
<path d="M4.21669 37.267C4.83729 36.7705 5.60837 36.5 6.40312 36.5H33.5969C34.3916 36.5 35.1627 36.7705 35.7833 37.267L37.4616 38.6096C37.8306 38.9048 37.6219 39.5 37.1492 39.5H2.85078C2.37814 39.5 2.16936 38.9048 2.53843 38.6096L4.21669 37.267Z" stroke="url(#paint0_linear_2205_4130)" stroke-opacity="0.7"/>
<path d="M24.5582 26.2439L21.0592 22.4729C20.4742 21.8424 19.5258 21.8424 18.9408 22.4729L15.4418 26.2439C14.4981 27.261 15.1664 29 16.501 29H23.499C24.8336 29 25.5019 27.261 24.5582 26.2439Z" fill="#5F606F"/>
<path d="M24.5582 35.2439L21.0592 31.4729C20.4742 30.8424 19.5258 30.8424 18.9408 31.4729L15.4418 35.2439C14.4981 36.261 15.1664 38 16.501 38H23.499C24.8336 38 25.5019 36.261 24.5582 35.2439Z" fill="#5F606F"/>
<circle cx="20" cy="14" r="10" fill="#50AF95"/>
<path fill-rule="evenodd" clip-rule="evenodd" d="M21.0173 14.7608C20.9605 14.7651 20.6669 14.7825 20.0121 14.7825C19.4912 14.7825 19.1214 14.7669 18.9917 14.7608C16.9788 14.6727 15.4763 14.324 15.4763 13.9065C15.4763 13.489 16.9788 13.1408 18.9917 13.0512V14.4135C19.1233 14.4229 19.5002 14.4451 20.0211 14.4451C20.6461 14.4451 20.9591 14.4192 21.0154 14.414V13.0522C23.0241 13.1412 24.5232 13.4899 24.5232 13.9065C24.5232 14.323 23.0245 14.6718 21.0154 14.7603L21.0173 14.7608ZM21.0173 12.9113V11.6922H23.8205V9.83325H16.1885V11.6922H18.9912V12.9108C16.7131 13.0149 15 13.464 15 14.0021C15 14.5403 16.7131 14.9889 18.9912 15.0935V18.9999H21.0169V15.0921C23.2897 14.9879 25 14.5393 25 14.0017C25 13.464 23.2911 13.0154 21.0169 12.9108L21.0173 12.9113Z" fill="white"/>
<defs>
<linearGradient id="paint0_linear_2205_4130" x1="2.98023e-07" y1="38" x2="40" y2="38" gradientUnits="userSpaceOnUse">
<stop stop-color="#E5EFF3"/>
<stop offset="1" stop-color="#89B3C5"/>
</linearGradient>
</defs>
</svg>
