<svg width="36" height="36" viewBox="0 0 36 36" fill="none" xmlns="http://www.w3.org/2000/svg">
<path d="M36 18C36 8.05887 27.9411 0 18 0C8.05887 0 0 8.05887 0 18C0 27.9411 8.05887 36 18 36C27.9411 36 36 27.9411 36 18Z" fill="#121229"/>
<path d="M36 18C36 8.05887 27.9411 0 18 0C8.05887 0 0 8.05887 0 18C0 27.9411 8.05887 36 18 36C27.9411 36 36 27.9411 36 18Z" stroke="#1D1D37"/>
<path d="M17.9983 9.21045L17.8752 9.61582V21.3786L17.9983 21.4977L23.6299 18.2702L17.9983 9.21045Z" fill="#27273D"/>
<path d="M17.9984 9.21045L12.3667 18.2702L17.9984 21.4977V15.7884V9.21045Z" fill="#27273D"/>
<path d="M17.9983 22.5315L17.929 22.6135V26.8036L17.9983 26.9999L23.6333 19.3057L17.9983 22.5315Z" fill="#27273D"/>
<path d="M17.9984 27V22.5315L12.3667 19.3057L17.9984 27Z" fill="#27273D"/>
</svg>
