<svg width="174" height="116" viewBox="0 0 174 116" fill="none" xmlns="http://www.w3.org/2000/svg">
<path opacity="0.6" d="M82.6693 17.8244C79.9007 15.5142 80.7806 9.87149 84.6347 5.22112C88.4887 0.570739 93.8575 -1.32635 96.6261 0.983847C99.3947 3.29405 98.5148 8.93671 94.6607 13.5871C90.8066 18.2375 85.4379 20.1346 82.6693 17.8244Z" fill="url(#paint0_linear_4116_3358)"/>
<path opacity="0.5" d="M82.668 17.8277L84.2941 19.1841C84.9203 19.7065 85.7217 20.0398 86.6823 20.1343C90.695 20.531 96.0011 16.6551 98.5353 11.4774C100.461 7.54331 100.231 3.98941 98.2485 2.33584L96.6245 0.980225C98.6062 2.63403 98.8366 6.18868 96.9112 10.1218C94.3774 15.2993 89.0707 19.175 85.0579 18.779C84.0939 18.6839 83.2942 18.35 82.668 17.8277Z" fill="url(#paint1_linear_4116_3358)"/>
<g filter="url(#filter0_b_4116_3358)">
<path fill-rule="evenodd" clip-rule="evenodd" d="M63.7403 6.34668L76.3869 19.0364L89.0334 6.3468C98.9303 8.63537 108.328 13.6483 116.039 21.3855C123.75 29.123 128.746 38.5534 131.027 48.4844L118.38 61.1742L131.027 73.8637C128.746 83.794 123.75 93.2237 116.039 100.961C108.328 108.699 98.929 113.712 89.0314 116L76.3861 103.312L63.7411 116C53.8438 113.711 44.4454 108.698 36.7342 100.961C29.0232 93.2235 24.0273 83.7935 21.7465 73.8628L34.392 61.1742L21.7461 48.4852C24.0267 38.5539 29.0227 29.1232 36.7342 21.3855C44.4452 13.6481 53.8433 8.63519 63.7403 6.34668Z" fill="url(#paint2_linear_4116_3358)" fill-opacity="0.22"/>
</g>
<path fill-rule="evenodd" clip-rule="evenodd" d="M76.3869 21.8728L63.1194 8.55998C53.9705 10.8732 45.3074 15.6194 38.1475 22.8037C30.9873 29.9883 26.257 38.6815 23.9519 47.8621L37.2188 61.1742L23.9523 74.4859C26.2577 83.6659 30.9877 92.3583 38.1475 99.5426C45.3076 106.727 53.9709 111.473 63.1201 113.786L76.3861 100.475L89.6524 113.787C98.8018 111.474 107.465 106.727 114.626 99.5426C121.785 92.3586 126.515 83.6664 128.821 74.4867L115.553 61.1742L128.821 47.8613C126.516 38.681 121.786 29.9881 114.626 22.8037C107.466 15.6195 98.8031 10.8733 89.6544 8.56011L76.3869 21.8728ZM89.0334 6.3468C98.9303 8.63537 108.328 13.6483 116.039 21.3855C123.75 29.123 128.746 38.5534 131.027 48.4844L118.38 61.1742L131.027 73.8637C128.746 83.794 123.75 93.2237 116.039 100.961C108.328 108.699 98.929 113.712 89.0314 116L76.3861 103.312L63.7411 116C53.8438 113.711 44.4454 108.698 36.7342 100.961C29.0232 93.2235 24.0273 83.7935 21.7465 73.8628L34.392 61.1742L21.7461 48.4852C24.0267 38.5539 29.0227 29.1232 36.7342 21.3855C44.4452 13.6481 53.8433 8.63519 63.7403 6.34668L76.3869 19.0364L89.0334 6.3468Z" fill="url(#paint3_linear_4116_3358)"/>
<rect x="99.0449" y="114.321" width="4.99703" height="1.00281" fill="#333344"/>
<rect x="99.0449" y="114.321" width="4.99703" height="1.00281" fill="#333344"/>
<rect x="109.039" y="114.321" width="4.99703" height="1.00281" fill="#333344"/>
<rect x="119.033" y="114.321" width="4.99703" height="1.00281" fill="#333344"/>
<rect x="129.027" y="114.321" width="4.99703" height="1.00281" fill="#333344"/>
<rect x="139.021" y="114.321" width="4.99703" height="1.00281" fill="#333344"/>
<rect x="149.016" y="114.321" width="4.99703" height="1.00281" fill="#333344"/>
<rect x="159.01" y="114.321" width="4.99703" height="1.00281" fill="#333344"/>
<rect x="169.004" y="114.321" width="4.99703" height="1.00281" fill="#333344"/>
<rect x="77.0586" y="89.2502" width="4.99703" height="1.00281" fill="#333344"/>
<rect x="67.1055" y="89.2502" width="4.99703" height="1.00281" fill="#333344"/>
<rect x="57.1504" y="89.2502" width="4.99703" height="1.00281" fill="#333344"/>
<rect x="47.1953" y="89.2502" width="4.99703" height="1.00281" fill="#333344"/>
<rect x="37.2422" y="89.2502" width="4.99703" height="1.00281" fill="#333344"/>
<rect x="109.039" y="89.2502" width="4.99703" height="1.00281" fill="#333344"/>
<rect x="99.1055" y="89.2502" width="4.99703" height="1.00281" fill="#333344"/>
<rect x="89.1699" y="89.2502" width="4.99703" height="1.00281" fill="#333344"/>
<rect x="119.033" y="89.2502" width="4.99703" height="1.00281" fill="#333344"/>
<rect x="129.027" y="89.2502" width="4.99703" height="1.00281" fill="#333344"/>
<rect x="139.021" y="89.2502" width="4.99703" height="1.00281" fill="#333344"/>
<rect x="149.016" y="89.2502" width="4.99703" height="1.00281" fill="#333344"/>
<rect x="159.01" y="89.2502" width="4.99703" height="1.00281" fill="#333344"/>
<rect x="169.004" y="89.2502" width="4.99703" height="1.00281" fill="#333344"/>
<rect x="49.0742" y="39.1096" width="4.99703" height="1.00281" fill="#333344"/>
<rect x="39.0801" y="39.1096" width="4.99703" height="1.00281" fill="#333344"/>
<rect x="29.0859" y="39.1096" width="4.99703" height="1.00281" fill="#333344"/>
<rect x="59.0684" y="39.1096" width="4.99703" height="1.00281" fill="#333344"/>
<rect x="69.0625" y="39.1096" width="4.99703" height="1.00281" fill="#333344"/>
<rect x="79.0566" y="39.1096" width="2.99822" height="1.00281" fill="#333344"/>
<rect x="89.0508" y="39.1096" width="4.99703" height="1.00281" fill="#333344"/>
<rect x="99.0449" y="39.1096" width="4.99703" height="1.00281" fill="#333344"/>
<rect x="109.039" y="39.1096" width="4.99703" height="1.00281" fill="#333344"/>
<rect x="109.039" y="39.1096" width="4.99703" height="1.00281" fill="#333344"/>
<rect x="119.031" y="39.1096" width="4.99703" height="1.00281" fill="#333344"/>
<rect x="129.025" y="39.1096" width="4.99703" height="1.00281" fill="#333344"/>
<rect x="139.02" y="39.1096" width="4.99703" height="1.00281" fill="#333344"/>
<rect x="149.014" y="39.1096" width="4.99703" height="1.00281" fill="#333344"/>
<rect x="159.008" y="39.1096" width="4.99703" height="1.00281" fill="#333344"/>
<rect x="169.002" y="39.1096" width="4.99703" height="1.00281" fill="#333344"/>
<rect x="49.0742" y="14.0393" width="4.99703" height="1.00281" fill="#333344"/>
<rect x="59.0684" y="14.0393" width="4.99703" height="1.00281" fill="#333344"/>
<rect x="89.0508" y="14.0393" width="4.99703" height="1.00281" fill="#333344"/>
<rect x="99.0449" y="14.0393" width="4.99703" height="1.00281" fill="#333344"/>
<rect x="109.039" y="14.0393" width="4.99703" height="1.00281" fill="#333344"/>
<rect x="109.039" y="14.0393" width="4.99703" height="1.00281" fill="#333344"/>
<rect x="119.033" y="14.0393" width="4.99703" height="1.00281" fill="#333344"/>
<rect x="129.027" y="14.0393" width="4.99703" height="1.00281" fill="#333344"/>
<rect x="139.021" y="14.0393" width="4.99703" height="1.00281" fill="#333344"/>
<rect x="149.016" y="14.0393" width="4.99703" height="1.00281" fill="#333344"/>
<rect x="159.01" y="14.0393" width="4.99703" height="1.00281" fill="#333344"/>
<rect x="169.004" y="14.0393" width="4.99703" height="1.00281" fill="#333344"/>
<rect x="49.0742" y="64.1799" width="4.99703" height="1.00281" fill="#333344"/>
<rect x="39.0801" y="64.1799" width="4.99703" height="1.00281" fill="#333344"/>
<rect x="59.0684" y="64.1799" width="4.99703" height="1.00281" fill="#333344"/>
<rect x="69.0625" y="64.1799" width="4.99703" height="1.00281" fill="#333344"/>
<rect x="79.0566" y="64.1799" width="2.99822" height="1.00281" fill="#333344"/>
<rect x="89.0508" y="64.1799" width="4.99703" height="1.00281" fill="#333344"/>
<rect x="99.0449" y="64.1799" width="4.99703" height="1.00281" fill="#333344"/>
<rect x="109.039" y="64.1799" width="4.99703" height="1.00281" fill="#333344"/>
<rect x="109.039" y="64.1799" width="4.99703" height="1.00281" fill="#333344"/>
<rect x="119.033" y="64.1799" width="4.99703" height="1.00281" fill="#333344"/>
<rect x="129.027" y="64.1799" width="4.99703" height="1.00281" fill="#333344"/>
<rect x="139.021" y="64.1799" width="4.99703" height="1.00281" fill="#333344"/>
<rect x="149.016" y="64.1799" width="4.99703" height="1.00281" fill="#333344"/>
<rect x="159.01" y="64.1799" width="4.99703" height="1.00281" fill="#333344"/>
<rect x="169.004" y="64.1799" width="4.99703" height="1.00281" fill="#333344"/>
<path opacity="0.6" d="M18.9248 45.0264C21.281 42.2942 19.4959 36.871 14.9378 32.9134C10.3796 28.9558 4.77443 27.9625 2.41827 30.6947C0.0621021 33.427 1.84717 38.8502 6.40534 42.8078C10.9635 46.7654 16.5687 47.7587 18.9248 45.0264Z" fill="url(#paint4_linear_4116_3358)"/>
<path opacity="0.5" d="M18.9264 45.0297L17.5425 46.6341C17.0095 47.2519 16.273 47.7119 15.3406 47.9623C11.4461 49.0102 5.58119 46.0543 2.23952 41.3605C-0.299268 37.794 -0.649868 34.2501 1.03698 32.2943L2.419 30.6912C0.732565 32.6471 1.08283 36.1918 3.62154 39.7573C6.96281 44.4509 12.8283 47.4066 16.723 46.3593C17.6587 46.1078 18.3934 45.6476 18.9264 45.0297Z" fill="url(#paint5_linear_4116_3358)"/>
<path fill-rule="evenodd" clip-rule="evenodd" d="M126.451 53.1816C124.347 52.382 122.805 51.829 121.276 51.829C119.856 51.829 118.199 52.4472 116.298 53.6529C114.415 54.8475 112.461 56.5082 110.474 58.3537C109.485 59.2718 108.504 60.2201 107.528 61.1661L107.342 61.3466C106.433 62.2272 105.527 63.1055 104.645 63.9307C102.786 65.6688 100.899 67.2991 99.1228 68.3077C98.6758 68.5615 98.232 68.8197 97.7852 69.0797C95.2025 70.5827 92.5201 72.1438 88.5447 73.2348C83.8966 74.5105 77.5538 75.1395 67.3669 74.628C62.439 74.3805 59.2124 74.7277 56.8799 75.3318C54.5787 75.9278 53.0548 76.7957 51.4999 77.7673C51.3203 77.8795 51.1385 77.9944 50.9539 78.1111C49.532 79.0098 47.9357 80.0188 45.7782 80.7926C43.3235 81.673 40.2217 82.2307 35.7441 82.2307C31.255 82.2307 27.7274 81.5786 26.5296 81.0632C26.1801 80.9128 26.0163 80.5449 25.8754 80.1915L25.0892 78.2194L24.0898 75.211C26.0887 76.7152 30.7222 78.1771 35.7441 78.1771C39.9158 78.1771 42.5802 77.658 44.5403 76.955C46.29 76.3274 47.5424 75.5381 48.9724 74.6368C49.1582 74.5198 49.3469 74.4008 49.5402 74.28C51.2288 73.2248 53.1286 72.1293 55.963 71.3952C58.766 70.6693 62.3868 70.3197 67.5498 70.579C77.5447 71.0809 83.4552 70.4431 87.5765 69.312C91.0561 68.357 93.3117 67.0477 95.8758 65.5593C96.3376 65.2912 96.8095 65.0173 97.3003 64.7386C98.6474 63.9738 100.244 62.6273 102.094 60.8977C102.95 60.0978 103.832 59.2432 104.747 58.3563L104.927 58.1817C105.901 57.2374 106.91 56.2619 107.933 55.3115C109.97 53.4202 112.131 51.5657 114.317 50.1793C116.485 48.8041 118.853 47.7755 121.276 47.7755C123.563 47.7755 125.72 48.5948 127.679 49.3396L127.78 49.3778C129.833 50.158 131.849 50.9236 134.227 51.2086C138.852 51.7627 145.33 50.5346 155.66 42.1182L158.01 45.3257C147.197 54.1368 139.74 55.9489 133.793 55.2362C130.965 54.8973 128.588 53.994 126.596 53.2365L126.451 53.1816Z" fill="#5F6F76"/>
<path fill-rule="evenodd" clip-rule="evenodd" d="M129.129 66.3961C127.716 66.1452 126.501 65.9293 125.135 65.9293C121.816 65.9293 119.076 67.1355 116.322 68.8785C115.128 69.6344 113.966 70.4674 112.743 71.3443C112.537 71.4916 112.33 71.6402 112.121 71.7899C110.687 72.8148 109.17 73.8758 107.543 74.8125C105.132 76.2007 102.33 75.3293 99.847 74.1413C97.81 73.1667 95.4762 71.712 92.981 70.1567C92.312 69.7396 91.6314 69.3154 90.9417 68.8912C84.2715 64.7885 76.1967 60.3255 66.7281 59.8433C62.2754 59.6166 59.133 61.1209 56.5861 63.5091C53.9537 65.9775 51.9266 69.4136 49.8402 73.1744C49.6498 73.5176 49.4586 73.8641 49.2662 74.2128C47.4145 77.5693 45.4511 81.1281 42.9872 83.886C40.1805 87.0277 36.6295 89.2502 31.7335 89.2502C31.4034 89.2502 29.8724 88.4225 29.5858 88.2474L28.0867 85.7403L26.0879 81.2277L32.2213 85.1847C35.6074 85.0494 38.0865 83.5 40.2446 81.0844C42.3882 78.685 44.126 75.5406 46.0302 72.0951C46.2112 71.7677 46.3936 71.4376 46.578 71.1051C48.6402 67.3881 50.9394 63.4096 54.0853 60.4597C57.3168 57.4296 61.4048 55.5119 66.9085 55.7921C77.3529 56.3239 86.1093 61.2399 92.833 65.3755C93.5894 65.8408 94.3139 66.2921 95.0089 66.7251C97.4706 68.2587 99.563 69.5622 101.396 70.4392C103.847 71.6118 105.074 71.6276 105.745 71.2415C107.2 70.4037 108.588 69.4368 110.013 68.418C110.213 68.275 110.414 68.1307 110.617 67.9855C111.835 67.1117 113.096 66.2071 114.39 65.3882C117.444 63.4557 120.868 61.8735 125.135 61.8735C126.844 61.8735 128.433 62.1577 129.871 62.4151C130.191 62.4723 130.503 62.5282 130.807 62.5793C132.527 62.868 134.22 63.0586 136.273 62.7772C140.397 62.2117 146.355 59.6824 156.69 51.1433L159.009 54.3526C148.482 63.0507 141.876 66.0981 136.755 66.8001C134.185 67.1524 132.085 66.8993 130.219 66.586C129.84 66.5224 129.479 66.4582 129.129 66.3961Z" fill="url(#paint6_linear_4116_3358)"/>
<path d="M130.871 30.6653C126.809 27.2757 128.1 18.9964 133.755 12.1732C139.41 5.34987 147.287 2.56636 151.349 5.956C155.411 9.34565 154.12 17.6249 148.465 24.4481C142.811 31.2714 134.933 34.0549 130.871 30.6653Z" fill="url(#paint7_linear_4116_3358)"/>
<path d="M130.871 30.6701L133.257 32.6604C134.176 33.4268 135.352 33.9159 136.761 34.0546C142.649 34.6366 150.434 28.9497 154.152 21.3527C156.977 15.5804 156.64 10.3659 153.732 7.93972L151.349 5.95068C154.256 8.37723 154.595 13.5928 151.77 19.3637C148.052 26.9603 140.266 32.647 134.378 32.0659C132.963 31.9265 131.79 31.4366 130.871 30.6701Z" fill="url(#paint8_linear_4116_3358)"/>
<path d="M67.8475 59.9559L74.8471 52.9324C75.5162 52.2611 76.6009 52.2611 77.2699 52.9324L84.2696 59.9559C84.9386 60.6273 84.9386 61.7157 84.2696 62.387L77.2699 69.4105C76.6009 70.0818 75.5162 70.0818 74.8471 69.4105L67.8475 62.387C67.1784 61.7157 67.1784 60.6273 67.8475 59.9559Z" fill="#10141F" stroke="url(#paint9_linear_4116_3358)" stroke-width="2" stroke-miterlimit="10"/>
<defs>
<filter id="filter0_b_4116_3358" x="17.7461" y="2.34668" width="117.281" height="117.653" filterUnits="userSpaceOnUse" color-interpolation-filters="sRGB">
<feFlood flood-opacity="0" result="BackgroundImageFix"/>
<feGaussianBlur in="BackgroundImageFix" stdDeviation="2"/>
<feComposite in2="SourceAlpha" operator="in" result="effect1_backgroundBlur_4116_3358"/>
<feBlend mode="normal" in="SourceGraphic" in2="effect1_backgroundBlur_4116_3358" result="shape"/>
</filter>
<linearGradient id="paint0_linear_4116_3358" x1="81.0547" y1="9.40411" x2="98.2407" y2="9.40411" gradientUnits="userSpaceOnUse">
<stop stop-color="#E5F1F3"/>
<stop offset="0.5" stop-color="#AEE3FA"/>
<stop offset="1" stop-color="#E5F1F3"/>
</linearGradient>
<linearGradient id="paint1_linear_4116_3358" x1="82.668" y1="10.5712" x2="99.8635" y2="10.5712" gradientUnits="userSpaceOnUse">
<stop stop-color="#C5E9F7"/>
<stop offset="1" stop-color="#DFF0F4"/>
</linearGradient>
<linearGradient id="paint2_linear_4116_3358" x1="21.7461" y1="61.1733" x2="131.027" y2="61.1733" gradientUnits="userSpaceOnUse">
<stop stop-color="#E5F1F3"/>
<stop offset="0.5" stop-color="#AEE3FA"/>
<stop offset="1" stop-color="#E5F1F3"/>
</linearGradient>
<linearGradient id="paint3_linear_4116_3358" x1="21.7461" y1="61.1733" x2="131.027" y2="61.1733" gradientUnits="userSpaceOnUse">
<stop stop-color="#E5F1F3"/>
<stop offset="0.5" stop-color="#AEE3FA"/>
<stop offset="1" stop-color="#E5F1F3"/>
</linearGradient>
<linearGradient id="paint4_linear_4116_3358" x1="1.37891" y1="37.8606" x2="19.9642" y2="37.8606" gradientUnits="userSpaceOnUse">
<stop stop-color="#E5F1F3"/>
<stop offset="0.5" stop-color="#AEE3FA"/>
<stop offset="1" stop-color="#E5F1F3"/>
</linearGradient>
<linearGradient id="paint5_linear_4116_3358" x1="1.85735e-07" y1="39.4323" x2="18.9264" y2="39.4323" gradientUnits="userSpaceOnUse">
<stop stop-color="#C5E9F7"/>
<stop offset="1" stop-color="#DFF0F4"/>
</linearGradient>
<linearGradient id="paint6_linear_4116_3358" x1="25.0885" y1="70.1968" x2="159.009" y2="70.1968" gradientUnits="userSpaceOnUse">
<stop stop-color="#A6CCDC"/>
<stop offset="1" stop-color="#D4FFA9"/>
</linearGradient>
<linearGradient id="paint7_linear_4116_3358" x1="128.502" y1="18.3107" x2="153.718" y2="18.3107" gradientUnits="userSpaceOnUse">
<stop stop-color="#CDDDE3"/>
<stop offset="1" stop-color="#678A98"/>
</linearGradient>
<linearGradient id="paint8_linear_4116_3358" x1="130.871" y1="20.0231" x2="156.101" y2="20.0231" gradientUnits="userSpaceOnUse">
<stop stop-color="#92B0BC"/>
<stop offset="1" stop-color="#9FB7C0"/>
</linearGradient>
<linearGradient id="paint9_linear_4116_3358" x1="67.3457" y1="61.1715" x2="84.7713" y2="61.1715" gradientUnits="userSpaceOnUse">
<stop stop-color="#E5F1F3"/>
<stop offset="0.5" stop-color="#AEE3FA"/>
<stop offset="1" stop-color="#E5F1F3"/>
</linearGradient>
</defs>
</svg>
