<svg width="155" height="220" viewBox="0 0 155 220" fill="none" xmlns="http://www.w3.org/2000/svg">
<path fill-rule="evenodd" clip-rule="evenodd" d="M105.413 33.372L105.397 33.2171C103.626 16.289 89.8936 4.00222 72.5147 4.00222C60.808 4.00222 50.2664 9.47801 44.4197 17.9799L41.0875 22.8252L37.805 17.9461C32.0003 9.31819 21.943 4 10.4848 4C-6.89182 4 -20.6262 16.2869 -22.3943 33.2143L-22.4112 33.3755L-22.441 33.5347C-22.4973 33.8354 -23.1424 37.6405 -21.3552 44.2135C-18.9513 53.0617 -13.5719 61.2855 -5.59071 68.0583L-9.47335 74.8929L-14.4644 73.1857C-24.7622 69.6554 -35.1814 69.0722 -44.6004 71.375C-51.1359 72.9715 -54.109 75.1565 -54.3378 75.3304L-54.459 75.4225L-54.587 75.5052C-68.2314 84.3243 -71.7531 99.5297 -63.8022 111.88C-58.4648 120.171 -49.2034 125.357 -38.8853 125.859L-32.4802 126.17L-35.577 131.786C-39.9077 139.638 -39.5664 149.523 -34.132 157.964C-26.0219 170.562 -8.96063 175.594 6.67443 169.288L6.80368 169.236L6.93624 169.193C7.27988 169.082 10.8593 167.857 15.6092 163.632L15.6102 163.631C20.4162 159.359 24.0749 154.039 26.4172 147.957L34.15 149.394V191.39L30.9222 192.025C8.09463 196.516 -9.25732 215.211 -11.0893 238H3.6695C5.7242 219.355 21.98 205 41.5005 205C61.021 205 77.2768 219.355 79.3315 238H94.0904C92.2583 215.211 74.9059 196.516 52.0779 192.025L48.85 191.39V149.394L56.5828 147.956C58.9251 154.039 62.5838 159.359 67.3898 163.631L67.3908 163.632C72.1407 167.857 75.7201 169.082 76.0638 169.193L76.1963 169.236L76.3256 169.288C91.9606 175.594 109.022 170.562 117.132 157.964C122.566 149.523 122.908 139.638 118.577 131.786L115.48 126.17L121.885 125.859C132.203 125.357 141.465 120.171 146.802 111.88C154.753 99.5297 151.231 84.3243 137.587 75.5052L137.459 75.4225L137.338 75.3303C137.109 75.1565 134.137 72.9717 127.601 71.3751C118.182 69.0724 107.762 69.6554 97.4644 73.1857L97.4618 73.1866L92.4761 74.8919L88.5929 68.0578C96.5729 61.2836 101.951 53.0633 104.354 44.2145L104.355 44.2132C106.141 37.6455 105.498 33.8371 105.441 33.5251L105.413 33.372ZM98.1027 238C98.2007 239.321 98.2505 240.655 98.2505 242H75.5505C75.5505 223.775 60.3058 209 41.5005 209C22.6952 209 7.45052 223.775 7.45052 242H-15.2495C-15.2495 240.655 -15.1997 239.321 -15.1017 238C-13.2619 213.191 5.55634 192.939 30.15 188.1V149.394C29.0698 152.199 27.7319 154.861 26.15 157.353C23.9729 160.784 21.3335 163.895 18.2678 166.62C13.0473 171.264 8.96203 172.741 8.17045 172.998C-9.02814 179.934 -28.2243 174.53 -37.4953 160.129C-42.8293 151.844 -43.9263 142.169 -40.8495 133.743C-40.3636 132.412 -39.7735 131.112 -39.0796 129.854C-40.5211 129.784 -41.9461 129.632 -43.3481 129.401C-53.1608 127.784 -61.8478 122.306 -67.1655 114.045C-76.4352 99.6464 -72.0563 82.0337 -56.7583 72.1459C-56.1158 71.6575 -52.647 69.223 -45.5504 67.4894C-36.4653 65.2683 -26.6193 65.5401 -16.8646 68.2542C-15.6301 68.5977 -14.3971 68.9803 -13.1672 69.4019L-8.1788 71.1081C-9.66839 69.8441 -11.077 68.5293 -12.4015 67.1683L-12.4028 67.167C-13.1775 66.3709 -13.9234 65.5589 -14.64 64.7321C-19.7084 58.8833 -23.3065 52.2878 -25.215 45.263C-27.1743 38.0571 -26.5298 33.6383 -26.3727 32.7987C-24.3872 13.7908 -8.89611 0 10.4848 0C21.6833 0 31.8198 4.59309 38.5813 12.3915C39.4919 13.4418 40.3413 14.5502 41.1238 15.7133C41.9139 14.5644 42.777 13.4668 43.7061 12.4245C50.6008 4.69009 61.1346 0.00222199 72.5147 0.00222199C91.8982 0.00222199 107.387 13.793 109.375 32.801C109.529 33.6406 110.174 38.0593 108.214 45.263C106.306 52.2888 102.708 58.8833 97.6406 64.7319C96.9239 65.559 96.1778 66.3712 95.403 67.1675L95.4017 67.1688C94.0779 68.5292 92.6702 69.8435 91.1815 71.1072L96.1672 69.4019C97.3973 68.9802 98.6306 68.5975 99.8653 68.254C109.62 65.5401 119.465 65.2683 128.55 67.4894C135.647 69.223 139.116 71.6575 139.758 72.1459C155.056 82.0337 159.435 99.6464 150.165 114.045C144.848 122.306 136.161 127.784 126.348 129.401C124.946 129.632 123.521 129.784 122.08 129.854C122.774 131.112 123.364 132.412 123.849 133.743C126.926 142.169 125.829 151.844 120.495 160.129C111.224 174.53 92.0282 179.934 74.8296 172.998C74.038 172.741 69.9527 171.264 64.7322 166.62C61.6665 163.895 59.0271 160.784 56.85 157.353C55.2681 154.861 53.9302 152.199 52.85 149.394V188.1C77.4442 192.938 96.2629 213.191 98.1027 238Z" fill="#202124"/>
</svg>
