<svg width="173" height="172" viewBox="0 0 173 172" fill="none" xmlns="http://www.w3.org/2000/svg">
<path opacity="0.19" d="M204.639 94.614C202.469 94.614 200.387 95.0916 198.521 95.9165L124.059 21.4836C124.884 19.6173 125.361 17.534 125.361 15.364C125.361 6.90077 118.462 0 110 0C101.538 0 94.6392 6.90077 94.6392 15.364C94.6392 17.534 95.1161 19.6173 95.941 21.4836L21.4793 95.9165C19.6134 95.0916 17.5306 94.614 15.3609 94.614C6.89941 94.614 0 101.515 0 109.978C0 118.441 6.89941 125.342 15.3609 125.342C17.5306 125.342 19.6134 124.865 21.4793 124.04L95.941 198.517C95.1161 200.382 94.6392 202.466 94.6392 204.636C94.6392 213.099 101.538 220 110 220C118.462 220 125.361 213.099 125.361 204.636C125.361 202.466 124.884 200.382 124.059 198.517L198.521 124.04C200.387 124.865 202.469 125.342 204.639 125.342C213.1 125.342 220 118.441 220 109.978C220 101.515 213.144 94.614 204.639 94.614ZM190.319 104.51L161.464 111.541C159.034 108.155 155.085 105.942 150.615 105.942C147.361 105.942 144.41 107.114 142.067 109.023L123.321 100.213C123.321 100.083 123.321 99.9528 123.321 99.7792C123.321 94.3972 120.154 89.7968 115.554 87.6702V29.5995C115.728 29.5127 115.901 29.4693 116.075 29.3825L190.536 103.859C190.493 104.076 190.407 104.292 190.319 104.51ZM110 189.315C109.653 189.315 109.306 189.359 108.915 189.359L79.6689 127.816C81.5779 125.516 82.706 122.564 82.706 119.353C82.706 119.31 82.706 119.31 82.706 119.266L101.712 110.326C103.968 112.105 106.876 113.19 109.957 113.19C113.081 113.19 115.988 112.105 118.245 110.282L137.251 119.222C137.251 119.266 137.251 119.31 137.251 119.353C137.251 122.564 138.379 125.516 140.288 127.816L111.042 189.359C110.694 189.315 110.347 189.315 110 189.315ZM104.403 29.5995V87.7134C99.8462 89.84 96.6354 94.4404 96.6354 99.8224C96.6354 99.996 96.6354 100.126 96.6786 100.3L77.9328 109.11C75.5901 107.157 72.6394 105.985 69.3412 105.985C64.8718 105.985 60.9231 108.199 58.4931 111.584L29.6805 104.51C29.5937 104.292 29.5069 104.076 29.4201 103.815L103.882 29.3391C104.055 29.4693 104.229 29.5561 104.403 29.5995ZM29.4635 116.054L56.4102 122.651C57.8856 128.424 63.0927 132.72 69.3412 132.72C69.428 132.72 69.4714 132.72 69.5581 132.72L90.9508 177.727L29.4201 116.141C29.4201 116.098 29.4635 116.054 29.4635 116.054ZM150.399 132.72C150.485 132.72 150.572 132.72 150.659 132.72C156.907 132.72 162.158 128.424 163.589 122.608L190.536 116.011C190.536 116.054 190.58 116.098 190.58 116.141L129.006 177.727L150.399 132.72Z" fill="url(#paint0_radial_234_341)"/>
<defs>
<radialGradient id="paint0_radial_234_341" cx="0" cy="0" r="1" gradientUnits="userSpaceOnUse" gradientTransform="translate(119.167 99) rotate(59.7436) scale(101.878 146.741)">
<stop stop-color="#55FFF5"/>
<stop offset="1" stop-color="#18BAFF" stop-opacity="0"/>
</radialGradient>
</defs>
</svg>
