<svg width="46" height="24" viewBox="0 0 46 24" fill="none" xmlns="http://www.w3.org/2000/svg">
<rect width="46" height="24" rx="12" fill="#383C4B"/>
<path d="M27.2716 16.0926C27.7267 15.41 28.4928 15 29.3132 15H38.6868C39.5072 15 40.2733 15.41 40.7284 16.0926C41.272 16.9079 40.6875 18 39.7076 18H28.2924C27.3125 18 26.728 16.9079 27.2716 16.0926Z" fill="#383C4B"/>
<path d="M27.6876 16.37C28.0499 15.8265 28.66 15.5 29.3132 15.5H38.6868C39.34 15.5 39.9501 15.8265 40.3124 16.37C40.6344 16.853 40.2881 17.5 39.7076 17.5H28.2924C27.7119 17.5 27.3656 16.853 27.6876 16.37Z" stroke="url(#paint0_linear_4306_3452)" stroke-opacity="0.7"/>
<path d="M34.6214 5H33.3786V11.6138H31.6226C31.0917 11.6138 30.8053 12.2164 31.1508 12.6064L33.5282 15.29C33.7762 15.57 34.2238 15.57 34.4718 15.29L36.8492 12.6064C37.1947 12.2164 36.9083 11.6138 36.3774 11.6138H34.6214V5Z" fill="url(#paint1_linear_4306_3452)"/>
<circle cx="12" cy="12" r="10" fill="#50AF95"/>
<path fill-rule="evenodd" clip-rule="evenodd" d="M13.0173 12.7608C12.9605 12.7651 12.6669 12.7825 12.0121 12.7825C11.4912 12.7825 11.1214 12.7669 10.9917 12.7608C8.97879 12.6727 7.47635 12.324 7.47635 11.9065C7.47635 11.489 8.97879 11.1408 10.9917 11.0512V12.4135C11.1233 12.4229 11.5002 12.4451 12.0211 12.4451C12.6461 12.4451 12.9591 12.4192 13.0154 12.414V11.0522C15.0241 11.1412 16.5232 11.4899 16.5232 11.9065C16.5232 12.323 15.0245 12.6718 13.0154 12.7603L13.0173 12.7608ZM13.0173 10.9113V9.69222H15.8205V7.83325H8.1885V9.69222H10.9912V10.9108C8.71315 11.0149 7 11.464 7 12.0021C7 12.5403 8.71315 12.9889 10.9912 13.0935V16.9999H13.0169V13.0921C15.2897 12.9879 17 12.5393 17 12.0017C17 11.464 15.2911 11.0154 13.0169 10.9108L13.0173 10.9113Z" fill="white"/>
<defs>
<linearGradient id="paint0_linear_4306_3452" x1="26" y1="16.5" x2="42" y2="16.5" gradientUnits="userSpaceOnUse">
<stop stop-color="#E5EFF3"/>
<stop offset="1" stop-color="#89B3C5"/>
</linearGradient>
<linearGradient id="paint1_linear_4306_3452" x1="31" y1="10.25" x2="37" y2="10.25" gradientUnits="userSpaceOnUse">
<stop stop-color="#E5F1F3"/>
<stop offset="0.5" stop-color="#AEE3FA"/>
<stop offset="1" stop-color="#E5F1F3"/>
</linearGradient>
</defs>
</svg>
