<svg width="100" height="100" viewBox="0 0 100 100" fill="none" xmlns="http://www.w3.org/2000/svg">
<g filter="url(#filter0_b_4116_3336)">
<path fill-rule="evenodd" clip-rule="evenodd" d="M38.3066 0L49.8427 11.5726L61.3787 0.000106484C70.4065 2.0872 78.9791 6.65879 86.0129 13.7149C93.0471 20.7712 97.6043 29.3714 99.6847 38.4281L88.1485 50.0008L99.6843 61.5732C97.6038 70.6293 93.0466 79.2288 86.013 86.2848C78.9786 93.3414 70.4053 97.9131 61.3768 100L49.842 88.4287L38.3073 99.9998C29.2791 97.9129 20.7061 93.3412 13.6719 86.2848C6.63806 79.2287 2.08088 70.6288 0.00038053 61.5724L11.5355 50.0008L0 38.4289C2.08032 29.3719 6.63763 20.7714 13.6719 13.7149C20.7059 6.65867 29.2787 2.08705 38.3066 0Z" fill="url(#paint0_linear_4116_3336)" fill-opacity="0.22"/>
</g>
<path fill-rule="evenodd" clip-rule="evenodd" d="M49.8427 14.1593L37.7402 2.01846C29.3947 4.128 21.4923 8.45639 14.9612 15.0082C8.42968 21.5604 4.11483 29.4882 2.01207 37.8606L14.114 50.0008L2.01248 62.1406C4.11539 70.5124 8.43011 78.4397 14.9612 84.9914C21.4925 91.5434 29.3951 95.8719 37.7409 97.9814L49.842 85.842L61.9433 97.9816C70.2893 95.8721 78.1922 91.5436 84.7237 84.9914C91.2546 78.4399 95.5692 70.5129 97.6722 62.1414L85.57 50.0008L97.6726 37.8599C95.5698 29.4878 91.255 21.5602 84.7237 15.0082C78.1927 8.45651 70.2905 4.12816 61.9451 2.01857L49.8427 14.1593ZM61.3787 0.000106484C70.4065 2.0872 78.9791 6.65879 86.0129 13.7149C93.0471 20.7712 97.6043 29.3714 99.6847 38.4281L88.1485 50.0008L99.6843 61.5732C97.6038 70.6293 93.0466 79.2288 86.0129 86.2848C78.9786 93.3414 70.4053 97.9131 61.3768 100L49.842 88.4287L38.3073 99.9998C29.2791 97.9129 20.7061 93.3412 13.6719 86.2848C6.63806 79.2287 2.08088 70.6288 0.00038053 61.5724L11.5355 50.0008L0 38.4289C2.08032 29.3719 6.63763 20.7714 13.6719 13.7149C20.7059 6.65867 29.2787 2.08705 38.3066 0L49.8427 11.5726L61.3787 0.000106484Z" fill="url(#paint1_linear_4116_3336)"/>
<mask id="mask0_4116_3336" style="mask-type:alpha" maskUnits="userSpaceOnUse" x="0" y="0" width="100" height="100">
<path fill-rule="evenodd" clip-rule="evenodd" d="M38.6211 0L50.1572 11.5726L61.6932 0.000106484C70.7209 2.0872 79.2936 6.65879 86.3274 13.7149C93.3615 20.7712 97.9187 29.3714 99.9992 38.4281L88.463 50.0008L99.9988 61.5732C97.9182 70.6293 93.3611 79.2288 86.3274 86.2848C79.2931 93.3414 70.7198 97.9131 61.6913 100L50.1564 88.4287L38.6218 99.9998C29.5936 97.9129 21.0205 93.3412 13.9864 86.2848C6.95251 79.2287 2.39533 70.6288 0.314834 61.5724L11.8499 50.0008L0.314453 38.4289C2.39477 29.3719 6.95208 20.7714 13.9864 13.7149C21.0203 6.65867 29.5931 2.08705 38.6211 0Z" fill="url(#paint2_linear_4116_3336)" fill-opacity="0.22"/>
</mask>
<g mask="url(#mask0_4116_3336)">
<g opacity="0.3">
<path d="M42.9476 58.2238C42.2402 57.3094 40.9128 57.1414 40.0065 57.8498C39.0896 58.5523 38.9229 59.863 39.6322 60.7766C49.7329 73.7715 52.8878 90.9492 48.0731 106.724C47.7368 107.826 48.3628 108.992 49.473 109.328C50.0492 109.503 50.6433 109.417 51.13 109.138C51.5751 108.882 51.9265 108.466 52.0871 107.937C57.2955 90.8713 53.8789 72.2871 42.9476 58.2238Z" fill="url(#paint3_linear_4116_3336)"/>
<path d="M17.8552 75.4527C17.7877 75.3782 17.7169 75.3105 17.6406 75.2457C16.1846 73.58 14.8547 71.801 13.6772 69.9559C13.0582 68.9811 11.7551 68.7049 10.7834 69.3088C9.80418 69.9245 9.51386 71.2144 10.1348 72.1884C11.4825 74.3021 13.0149 76.3336 14.6914 78.2296C14.7561 78.3035 14.8269 78.3712 14.9019 78.4341C19.7464 84.0616 21.1958 91.8584 18.6751 98.8553C18.2861 99.9418 18.8518 101.137 19.9421 101.526C20.549 101.742 21.1852 101.666 21.7009 101.369C22.1167 101.131 22.4506 100.751 22.6244 100.265C25.6928 91.746 23.8653 82.2379 17.8552 75.4527Z" fill="url(#paint4_linear_4116_3336)"/>
<path d="M36.4218 83.9858C35.2765 84.1614 34.4907 85.2275 34.6679 86.3672C35.6178 92.4769 34.9611 98.7596 32.772 104.534C32.3626 105.611 32.9102 106.817 33.9937 107.224C34.6064 107.453 35.2586 107.38 35.7834 107.078C36.1883 106.846 36.5195 106.477 36.6975 106.008C39.139 99.563 39.872 92.5519 38.8141 85.7305C38.6384 84.5929 37.5649 83.8112 36.4218 83.9858Z" fill="url(#paint5_linear_4116_3336)"/>
<path d="M-10.1947 42.4417C-9.73516 42.4909 -9.29494 42.39 -8.92269 42.1762C-8.3634 41.855 -7.96035 41.2812 -7.88649 40.5903C-6.32173 26.046 0.614642 12.7091 11.6439 3.03311C21.4284 -5.55444 33.4686 -10.5513 46.4554 -11.4181C47.6149 -11.4935 48.4858 -12.4928 48.4058 -13.6402C48.3286 -14.7913 47.3279 -15.6603 46.172 -15.5824C32.2572 -14.6548 19.3574 -9.29887 8.86945 -0.100215C-2.94973 10.2681 -10.3807 24.5593 -12.0562 40.1435C-12.1804 41.2899 -11.3457 42.3195 -10.1947 42.4417Z" fill="url(#paint6_linear_4116_3336)"/>
<path d="M6.48287 85.4388C6.44856 85.4007 6.40074 85.3848 6.36282 85.3488C-2.45313 75.3521 -7.47246 63.0685 -8.14892 49.8113C-8.20639 48.6609 -9.19127 47.7731 -10.3491 47.8307C-11.5079 47.8864 -12.3954 48.8688 -12.3371 50.0211C-11.6118 64.2769 -6.20264 77.4865 3.30631 88.2182C3.35957 88.2767 3.42922 88.3092 3.4858 88.3608C4.0473 88.9905 4.61374 89.6077 5.19332 90.2098C5.87686 90.9163 6.93682 91.0402 7.75403 90.5708C7.89747 90.4884 8.03339 90.3887 8.16054 90.2699C8.99442 89.4703 9.02144 88.1483 8.21924 87.317C7.6308 86.7079 7.04989 86.0824 6.48287 85.4388Z" fill="url(#paint7_linear_4116_3336)"/>
<path d="M18.913 11.2384C4.04714 24.2799 -1.14715 44.6744 5.68005 63.1942C6.08011 64.2758 7.28446 64.8324 8.372 64.4368C9.47138 64.032 10.0163 62.8391 9.61922 61.7585C3.39046 44.8665 8.12985 26.2665 21.6883 14.3686C39.682 -1.40718 67.2188 0.321727 83.0822 18.2312C83.1267 18.2828 83.1725 18.3287 83.2206 18.3736C84.5008 19.8245 85.7262 21.2853 86.8654 22.7184C87.5194 23.5409 88.6693 23.7408 89.5556 23.2317C89.6444 23.1807 89.7301 23.124 89.8108 23.0586C90.7185 22.3443 90.8719 21.0316 90.1538 20.1279C88.932 18.5905 87.6137 17.0238 86.2388 15.4682C86.1925 15.4176 86.1433 15.3662 86.0927 15.3208C68.6774 -4.17473 38.5834 -6.01618 18.913 11.2384Z" fill="url(#paint8_linear_4116_3336)"/>
<path d="M63.4543 35.4493C60.393 31.9937 56.164 29.9298 51.545 29.6399C46.9251 29.3478 42.4713 30.8696 39.0002 33.9092C33.7906 38.4805 31.8297 45.674 34.002 52.2385C34.3646 53.3343 35.5507 53.9304 36.6498 53.5715C37.7536 53.2076 38.3493 52.0312 37.987 50.9355C36.339 45.9597 37.826 40.5061 41.7747 37.0423C44.4081 34.737 47.7809 33.5852 51.2812 33.8044C54.6993 34.0203 57.8346 35.517 60.14 38.0253C60.1892 38.0934 60.2405 38.1605 60.2968 38.2245C63.8498 42.2316 67.0089 46.5902 69.6874 51.1766C70.2701 52.1723 71.5498 52.5125 72.5505 51.9377L72.5542 51.9356C73.5574 51.3567 73.8979 50.0791 73.3154 49.0831C70.5432 44.3359 67.2818 39.8214 63.6202 35.6647C63.57 35.5903 63.5139 35.5187 63.4543 35.4493Z" fill="url(#paint9_linear_4116_3336)"/>
<path d="M52.0461 45.461C51.2805 44.5965 49.9584 44.5174 49.0853 45.2742C48.217 46.0355 48.1337 47.3564 48.8992 48.2206C62.7138 63.8142 68.2876 84.4593 64.1944 104.865C63.9687 105.995 64.7063 107.095 65.841 107.323C66.36 107.425 66.8747 107.327 67.2996 107.082C67.8044 106.792 68.186 106.298 68.3096 105.685C72.6597 83.9899 66.7333 62.0407 52.0461 45.461Z" fill="url(#paint10_linear_4116_3336)"/>
<path d="M97.639 5.46049C97.5968 5.41244 97.5362 5.39187 97.4884 5.34706C86.7906 -6.66173 72.0641 -14.0588 55.9997 -15.4787C54.8442 -15.5839 53.8257 -14.7315 53.726 -13.5845C53.6245 -12.4368 54.4771 -11.4224 55.6305 -11.3207C70.6793 -9.99013 84.4717 -3.04222 94.4679 8.24108C94.5055 8.28454 94.5565 8.30607 94.5964 8.34556C97.4034 11.53 99.8584 15.0012 101.894 18.6673C102.455 19.6757 103.731 20.0422 104.745 19.4861L104.781 19.4653C105.767 18.8988 106.119 17.6452 105.566 16.6497C103.355 12.6698 100.69 8.90746 97.639 5.46049Z" fill="url(#paint11_linear_4116_3336)"/>
<path d="M74.843 25.4609C69.0981 18.9742 61.1615 15.1038 52.4944 14.5595C43.8263 14.0137 35.47 16.8634 28.9558 22.5744C15.513 34.3671 14.2228 54.8549 26.0814 68.2381C26.165 68.3322 26.2546 68.4156 26.3497 68.4913C28.6857 71.1775 30.5918 74.1659 32.0195 77.3807C32.4885 78.435 33.7265 78.9121 34.7885 78.4469C35.8202 77.9843 36.3261 76.7488 35.8562 75.6929C34.2026 71.9758 31.9815 68.5321 29.2532 65.4542C29.1707 65.3617 29.0811 65.2782 28.9872 65.2045C18.9163 53.5421 20.1137 35.8991 31.7304 25.7074C37.402 20.7311 44.6842 18.2501 52.2318 18.726C59.7362 19.1979 66.6115 22.5333 71.6094 28.1208C71.6369 28.1557 71.6652 28.1924 71.6945 28.2261C79.4936 37.0256 85.5411 47.0121 89.6668 57.9022C90.0781 58.9821 91.2873 59.5264 92.3716 59.1206C92.4798 59.0777 92.5831 59.0304 92.6812 58.9741C93.5546 58.4724 93.9598 57.4007 93.5926 56.4306C89.3006 45.1079 83.0234 34.7255 74.9321 25.5685C74.9038 25.5322 74.8753 25.4953 74.843 25.4609Z" fill="url(#paint12_linear_4116_3336)"/>
<path d="M93.0099 27.4322C92.0463 28.0702 91.7839 29.3658 92.4254 30.3256C99.0957 40.3134 104.071 51.2528 107.212 62.8388C107.514 63.9506 108.664 64.6107 109.783 64.3105C109.963 64.2622 110.133 64.1934 110.288 64.1046C111.09 63.6437 111.513 62.6873 111.261 61.7523C108.003 49.73 102.839 38.3799 95.9173 28.0161C95.2775 27.0554 93.9973 26.781 93.0099 27.4322Z" fill="url(#paint13_linear_4116_3336)"/>
<path d="M94.0491 64.3233C92.922 64.6215 92.2657 65.7647 92.5679 66.8783C94.1669 72.8128 95.1996 78.9279 95.6331 85.0573C95.715 86.2081 96.7181 87.0734 97.8728 86.9935C98.2033 86.9701 98.5056 86.8735 98.7744 86.7192C99.4462 86.3333 99.8767 85.5893 99.8172 84.7655C99.3649 78.3697 98.287 71.9893 96.617 65.7989C96.3196 64.6848 95.1679 64.0232 94.0491 64.3233Z" fill="url(#paint14_linear_4116_3336)"/>
<path d="M75.0263 56.7875C73.9715 57.2441 73.4759 58.4761 73.9392 59.5331C79.2028 71.5825 81.4538 84.9162 80.4431 98.0913C80.3542 99.2394 81.2172 100.243 82.3727 100.331C82.8117 100.366 83.2265 100.263 83.5806 100.059C84.1598 99.7264 84.5707 99.124 84.6243 98.4111C85.6879 84.5593 83.3232 70.5413 77.7861 57.8708C77.3226 56.8139 76.0865 56.3282 75.0263 56.7875Z" fill="url(#paint15_linear_4116_3336)"/>
</g>
</g>
<path d="M42.6963 48.4603L48.9216 42.2153C49.5166 41.6184 50.4814 41.6184 51.0764 42.2153L57.3017 48.4603C57.8967 49.0572 57.8967 50.025 57.3017 50.6219L51.0764 56.8669C50.4814 57.4638 49.5166 57.4638 48.9216 56.8669L42.6963 50.6219C42.1012 50.025 42.1012 49.0572 42.6963 48.4603Z" fill="#10141F" stroke="url(#paint16_linear_4116_3336)" stroke-width="2" stroke-miterlimit="10"/>
<defs>
<filter id="filter0_b_4116_3336" x="-4" y="-4" width="107.686" height="108" filterUnits="userSpaceOnUse" color-interpolation-filters="sRGB">
<feFlood flood-opacity="0" result="BackgroundImageFix"/>
<feGaussianBlur in="BackgroundImageFix" stdDeviation="2"/>
<feComposite in2="SourceAlpha" operator="in" result="effect1_backgroundBlur_4116_3336"/>
<feBlend mode="normal" in="SourceGraphic" in2="effect1_backgroundBlur_4116_3336" result="shape"/>
</filter>
<linearGradient id="paint0_linear_4116_3336" x1="7.42708e-07" y1="50" x2="99.6847" y2="50" gradientUnits="userSpaceOnUse">
<stop stop-color="#E5F1F3"/>
<stop offset="0.5" stop-color="#AEE3FA"/>
<stop offset="1" stop-color="#E5F1F3"/>
</linearGradient>
<linearGradient id="paint1_linear_4116_3336" x1="7.42708e-07" y1="50" x2="99.6847" y2="50" gradientUnits="userSpaceOnUse">
<stop stop-color="#E5F1F3"/>
<stop offset="0.5" stop-color="#AEE3FA"/>
<stop offset="1" stop-color="#E5F1F3"/>
</linearGradient>
<linearGradient id="paint2_linear_4116_3336" x1="0.314454" y1="50" x2="99.9992" y2="50" gradientUnits="userSpaceOnUse">
<stop stop-color="#E5F1F3"/>
<stop offset="0.5" stop-color="#AEE3FA"/>
<stop offset="1" stop-color="#E5F1F3"/>
</linearGradient>
<linearGradient id="paint3_linear_4116_3336" x1="36.7563" y1="88.5433" x2="54.9795" y2="77.9679" gradientUnits="userSpaceOnUse">
<stop stop-color="#C5E9F7"/>
<stop offset="1" stop-color="#DFF0F4"/>
</linearGradient>
<linearGradient id="paint4_linear_4116_3336" x1="11.5413" y1="88.0385" x2="22.1529" y2="81.8803" gradientUnits="userSpaceOnUse">
<stop stop-color="#C5E9F7"/>
<stop offset="1" stop-color="#DFF0F4"/>
</linearGradient>
<linearGradient id="paint5_linear_4116_3336" x1="28.9853" y1="99.5379" x2="42.4554" y2="91.7209" gradientUnits="userSpaceOnUse">
<stop stop-color="#C5E9F7"/>
<stop offset="1" stop-color="#DFF0F4"/>
</linearGradient>
<linearGradient id="paint6_linear_4116_3336" x1="-18.0301" y1="30.6531" x2="51.0835" y2="-9.45523" gradientUnits="userSpaceOnUse">
<stop stop-color="#C5E9F7"/>
<stop offset="1" stop-color="#DFF0F4"/>
</linearGradient>
<linearGradient id="paint7_linear_4116_3336" x1="-7.27827" y1="72.5027" x2="2.12124" y2="67.048" gradientUnits="userSpaceOnUse">
<stop stop-color="#C5E9F7"/>
<stop offset="1" stop-color="#DFF0F4"/>
</linearGradient>
<linearGradient id="paint8_linear_4116_3336" x1="-2.44817" y1="49.2496" x2="79.4861" y2="1.70108" gradientUnits="userSpaceOnUse">
<stop stop-color="#C5E9F7"/>
<stop offset="1" stop-color="#DFF0F4"/>
</linearGradient>
<linearGradient id="paint9_linear_4116_3336" x1="35.266" y1="54.5055" x2="66.0835" y2="36.6213" gradientUnits="userSpaceOnUse">
<stop stop-color="#C5E9F7"/>
<stop offset="1" stop-color="#DFF0F4"/>
</linearGradient>
<linearGradient id="paint10_linear_4116_3336" x1="49.7474" y1="81.0063" x2="68.1231" y2="70.3423" gradientUnits="userSpaceOnUse">
<stop stop-color="#C5E9F7"/>
<stop offset="1" stop-color="#DFF0F4"/>
</linearGradient>
<linearGradient id="paint11_linear_4116_3336" x1="66.7471" y1="9.61009" x2="92.7396" y2="-5.47404" gradientUnits="userSpaceOnUse">
<stop stop-color="#C5E9F7"/>
<stop offset="1" stop-color="#DFF0F4"/>
</linearGradient>
<linearGradient id="paint12_linear_4116_3336" x1="22.0908" y1="62.6453" x2="79.4285" y2="29.3707" gradientUnits="userSpaceOnUse">
<stop stop-color="#C5E9F7"/>
<stop offset="1" stop-color="#DFF0F4"/>
</linearGradient>
<linearGradient id="paint13_linear_4116_3336" x1="98.329" y1="47.6729" x2="105.257" y2="43.6525" gradientUnits="userSpaceOnUse">
<stop stop-color="#C5E9F7"/>
<stop offset="1" stop-color="#DFF0F4"/>
</linearGradient>
<linearGradient id="paint14_linear_4116_3336" x1="91.4751" y1="78.3146" x2="100.818" y2="72.8927" gradientUnits="userSpaceOnUse">
<stop stop-color="#C5E9F7"/>
<stop offset="1" stop-color="#DFF0F4"/>
</linearGradient>
<linearGradient id="paint15_linear_4116_3336" x1="71.2766" y1="83.0261" x2="87.0782" y2="73.8561" gradientUnits="userSpaceOnUse">
<stop stop-color="#C5E9F7"/>
<stop offset="1" stop-color="#DFF0F4"/>
</linearGradient>
<linearGradient id="paint16_linear_4116_3336" x1="42.25" y1="49.5411" x2="57.748" y2="49.5411" gradientUnits="userSpaceOnUse">
<stop stop-color="#E5F1F3"/>
<stop offset="0.5" stop-color="#AEE3FA"/>
<stop offset="1" stop-color="#E5F1F3"/>
</linearGradient>
</defs>
</svg>
