<svg width="89" height="20" viewBox="0 0 89 20" fill="none" xmlns="http://www.w3.org/2000/svg">
<path d="M5.532 19V4.72C5.532 4.44 5.584 4.208 5.688 4.024C5.8 3.84 5.948 3.716 6.132 3.652H0.816V1.552H12.504V3.652H7.8V19H5.532ZM14.8941 19V0.339999H17.1141V5.908L16.9221 9.64L17.0301 10.696L16.8381 9.844C16.9341 9.116 17.1341 8.432 17.4381 7.792C17.7501 7.152 18.2021 6.632 18.7941 6.232C19.3941 5.832 20.1661 5.632 21.1101 5.632C22.3501 5.632 23.3061 6 23.9781 6.736C24.6501 7.472 24.9861 8.592 24.9861 10.096V19H22.7541V10.828C22.7541 9.764 22.5781 8.98 22.2261 8.476C21.8821 7.972 21.2461 7.72 20.3181 7.72C19.6061 7.72 18.9861 7.932 18.4581 8.356C17.9301 8.772 17.4821 9.336 17.1141 10.048V19H14.8941ZM33.8308 19.18C32.6388 19.18 31.5908 18.92 30.6868 18.4C29.7908 17.88 29.0948 17.116 28.5988 16.108C28.1028 15.092 27.8548 13.852 27.8548 12.388C27.8548 10.98 28.1108 9.772 28.6228 8.764C29.1348 7.756 29.8388 6.984 30.7348 6.448C31.6308 5.912 32.6508 5.644 33.7948 5.644C34.9308 5.644 35.9028 5.888 36.7108 6.376C37.5268 6.864 38.1548 7.564 38.5948 8.476C39.0348 9.38 39.2508 10.464 39.2428 11.728C39.2428 11.984 39.2348 12.196 39.2188 12.364C39.2028 12.532 39.1908 12.708 39.1828 12.892H30.0868C30.1428 14.332 30.5028 15.424 31.1668 16.168C31.8388 16.904 32.6948 17.272 33.7348 17.272C34.6148 17.272 35.2948 17.088 35.7748 16.72C36.2628 16.344 36.5708 15.864 36.6988 15.28H38.8828C38.8268 16.112 38.5708 16.82 38.1148 17.404C37.6668 17.988 37.0748 18.432 36.3388 18.736C35.6028 19.032 34.7668 19.18 33.8308 19.18ZM31.2748 11.212H36.9988C36.9828 10.092 36.7068 9.212 36.1708 8.572C35.6348 7.932 34.8148 7.612 33.7108 7.612C32.5508 7.612 31.6708 8.008 31.0708 8.8C30.4708 9.584 30.1428 10.668 30.0868 12.052C30.1508 11.724 30.2788 11.504 30.4708 11.392C30.6708 11.272 30.9388 11.212 31.2748 11.212ZM48.4221 19V16.816H51.3861C52.5461 16.816 53.5621 16.568 54.4341 16.072C55.3141 15.568 55.9981 14.824 56.4861 13.84C56.9821 12.856 57.2301 11.64 57.2301 10.192C57.2301 8.664 56.9821 7.42 56.4861 6.46C55.9981 5.5 55.3141 4.792 54.4341 4.336C53.5541 3.88 52.5341 3.652 51.3741 3.652H48.3261V1.552H51.4461C53.0301 1.552 54.4301 1.856 55.6461 2.464C56.8701 3.064 57.8301 4 58.5261 5.272C59.2221 6.544 59.5701 8.176 59.5701 10.168C59.5701 12.104 59.2101 13.728 58.4901 15.04C57.7781 16.352 56.8101 17.34 55.5861 18.004C54.3621 18.668 52.9861 19 51.4581 19H48.4221ZM46.4541 19V1.552H48.7221V19H46.4541ZM67.7683 19.18C66.5763 19.18 65.5283 18.92 64.6243 18.4C63.7283 17.88 63.0323 17.116 62.5363 16.108C62.0403 15.092 61.7923 13.852 61.7923 12.388C61.7923 10.98 62.0483 9.772 62.5603 8.764C63.0723 7.756 63.7763 6.984 64.6723 6.448C65.5683 5.912 66.5883 5.644 67.7323 5.644C68.8683 5.644 69.8403 5.888 70.6483 6.376C71.4643 6.864 72.0923 7.564 72.5323 8.476C72.9723 9.38 73.1883 10.464 73.1803 11.728C73.1803 11.984 73.1723 12.196 73.1563 12.364C73.1403 12.532 73.1283 12.708 73.1203 12.892H64.0243C64.0803 14.332 64.4403 15.424 65.1043 16.168C65.7763 16.904 66.6323 17.272 67.6723 17.272C68.5523 17.272 69.2323 17.088 69.7123 16.72C70.2003 16.344 70.5083 15.864 70.6363 15.28H72.8203C72.7643 16.112 72.5083 16.82 72.0523 17.404C71.6043 17.988 71.0123 18.432 70.2763 18.736C69.5403 19.032 68.7043 19.18 67.7683 19.18ZM65.2123 11.212H70.9363C70.9203 10.092 70.6443 9.212 70.1083 8.572C69.5723 7.932 68.7523 7.612 67.6483 7.612C66.4883 7.612 65.6083 8.008 65.0083 8.8C64.4083 9.584 64.0803 10.668 64.0243 12.052C64.0883 11.724 64.2163 11.504 64.4083 11.392C64.6083 11.272 64.8763 11.212 65.2123 11.212ZM74.3151 19L79.7871 10.312L74.2791 1.552H77.0631L79.1151 5.224L81.3231 8.872L83.4951 5.236L85.5231 1.552H88.3431L82.8351 10.312L88.3071 19H85.4871L83.4951 15.436L81.2991 11.692L79.1151 15.448L77.0991 19H74.3151Z" fill="#C3FA50"/>
</svg>
