<svg width="14" height="25" viewBox="0 0 14 25" fill="none" xmlns="http://www.w3.org/2000/svg">
<path d="M13.7798 0.356011C13.6322 0.229096 13.461 0.132794 13.2761 0.0725003C13.0913 0.012207 12.8963 -0.0108472 12.7026 0.00471488L1.31573 0.588923C1.2098 0.59463 1.10432 0.607035 0.999906 0.625867H0.883286L0.855771 0.653496C0.351232 0.761397 0.0537506 1.0416 0.0537506 1.4311L0.0353938 7.44071C0.0249099 10.6286 0.0157416 13.8153 0.00787863 17.0006L0 19.2126C0 19.6784 0.478337 20.002 1.2607 20.0441L12.5427 20.71H12.6384C12.9947 20.7176 13.3415 20.5941 13.6134 20.3627C13.6828 20.3029 13.7392 20.2293 13.7791 20.1466C13.819 20.064 13.8415 19.974 13.8453 19.8822L13.8965 13.4595C13.9235 10.0382 13.9519 6.62046 13.9816 3.20621L14 0.837737C13.9986 0.746521 13.9782 0.656573 13.9403 0.573663C13.9024 0.490752 13.8478 0.416574 13.7798 0.356011ZM11.4314 1.72859L11.3882 7.25519C11.3611 10.6765 11.3327 14.0942 11.303 17.5085L11.2925 18.9835L8.78815 18.8362L2.56855 18.469L2.61182 3.63782C2.61182 3.15358 2.61182 2.67113 2.61182 2.19039L11.4314 1.72859Z" fill="#F1F1FD"/>
<path d="M12.6423 22.9629L12.5493 22.976C12.4864 22.9852 12.4536 22.9904 12.4405 22.9904C12.461 22.9878 12.4813 22.983 12.5008 22.976L12.5204 22.9694C12.5318 22.9703 12.5432 22.9703 12.5545 22.9694C12.5781 22.9668 12.62 22.9629 12.6423 22.9629Z" fill="#F1F1FD"/>
<path d="M12.5611 22.9677C12.5497 22.9686 12.5383 22.9686 12.527 22.9677L12.5074 22.9743C12.4878 22.9813 12.4676 22.9861 12.4471 22.9887C12.4602 22.9887 12.4929 22.9887 12.5558 22.9743L12.6489 22.9612C12.6201 22.9625 12.5781 22.9664 12.5611 22.9677Z" fill="#F1F1FD"/>
<path d="M13.8624 23.4443C13.8055 23.2775 13.7164 23.1238 13.6001 22.9916C13.4839 22.8595 13.3427 22.7517 13.1848 22.6746C12.9599 22.5645 12.7027 22.5406 12.4615 22.6074L12.2819 22.6008C11.9844 22.5877 11.6896 22.5588 11.3869 22.5286L11.0553 22.4956C10.3175 22.4206 9.55742 22.3443 8.82748 22.2219L8.76981 22.2087H8.75409H8.72918L8.0451 22.114L7.209 21.9969C6.68481 21.9223 6.15755 21.8461 5.62724 21.768C4.72213 21.6346 3.81658 21.499 2.91059 21.3613L1.56475 21.1534C1.26261 21.0843 0.94556 21.1351 0.679701 21.2949C0.413842 21.4548 0.219652 21.7113 0.137595 22.0113C0.101255 22.1851 0.0996994 22.3644 0.132996 22.5388C0.166293 22.7132 0.233791 22.8793 0.331562 23.0273C0.407825 23.1452 0.507658 23.2457 0.62475 23.3227C0.741843 23.3997 0.87365 23.4515 1.01172 23.4747C2.1453 23.651 3.37059 23.8364 4.74923 24.0404L4.92352 24.0655C6.93382 24.3615 9.01357 24.6681 11.0697 24.8904C11.4445 24.9299 11.8115 24.9695 12.1889 24.9892H12.2544C12.3474 24.9892 12.4484 24.9997 12.5519 24.9997C12.7303 25.0041 12.908 24.9756 13.0761 24.9155C13.3709 24.8196 13.6174 24.613 13.764 24.3388C13.9105 24.0646 13.9458 23.744 13.8624 23.4443ZM12.5519 22.9693C12.5755 22.9693 12.6174 22.9693 12.6384 22.9693L12.5454 22.9825C12.4824 22.9917 12.4497 22.997 12.4366 22.997C12.4571 22.9943 12.4773 22.9895 12.4968 22.9825L12.5165 22.9759C12.5294 22.9748 12.5421 22.9726 12.5545 22.9693H12.5519Z" fill="#F1F1FD"/>
</svg>
