<svg width="100" height="100" viewBox="0 0 100 100" fill="none" xmlns="http://www.w3.org/2000/svg">
<path d="M44.3727 49.1697L49.1698 44.3726C49.6283 43.9141 50.3717 43.9141 50.8302 44.3726L55.6274 49.1697C56.0859 49.6283 56.0859 50.3717 55.6274 50.8302L50.8302 55.6273C50.3717 56.0858 49.6283 56.0858 49.1698 55.6273L44.3727 50.8302C43.9141 50.3717 43.9141 49.6283 44.3727 49.1697Z" fill="#383C4B"/>
<path fill-rule="evenodd" clip-rule="evenodd" d="M49.1698 0.343886L0.343887 49.1698C-0.114628 49.6283 -0.114629 50.3717 0.343886 50.8302L49.1698 99.6561C49.6283 100.115 50.3717 100.115 50.8302 99.6561L99.6561 50.8302C100.115 50.3717 100.115 49.6283 99.6561 49.1698L50.8302 0.343886C50.3717 -0.114629 49.6283 -0.114628 49.1698 0.343886ZM42.6994 17.4895L50.2243 25.0144L57.7491 17.4896C63.6379 18.8467 69.2297 21.8193 73.8178 26.4074C78.4061 30.9957 81.3788 36.5878 82.7358 42.4768L75.2108 50.0018L82.7356 57.5265C81.3784 63.4152 78.4059 69.0069 73.8178 73.5949C69.2294 78.1833 63.6371 81.156 57.7479 82.513L50.2238 74.9889L42.6998 82.5129C36.8108 81.1559 31.2186 78.1832 26.6303 73.5949C22.0422 69.0067 19.0696 63.4148 17.7125 57.526L25.2367 50.0018L17.7122 42.4773C19.0692 36.5881 22.0419 30.9958 26.6303 26.4074C31.2185 21.8192 36.8105 18.8466 42.6994 17.4895Z" fill="#383C4B"/>
</svg>
