<svg width="69" height="77" viewBox="0 0 69 77" fill="none" xmlns="http://www.w3.org/2000/svg">
<path d="M54.634 10.4864L54.6359 10.5049L54.6391 10.5233C54.675 10.7273 54.8706 12.0604 54.2949 14.2761L54.2949 14.2763C53.5197 17.2636 51.7927 20.009 49.2693 22.2513L49.77 23.0958L51.2854 22.5532L51.2858 22.553C54.5294 21.3891 57.8318 21.1894 60.8363 21.9583L60.8364 21.9583C62.9206 22.4913 63.9119 23.2323 64.0557 23.3468L64.0709 23.3588L64.0869 23.3696C68.5313 26.3766 69.7721 31.6879 67.1046 36.0252C65.3453 38.8858 62.3117 40.6475 58.9679 40.8178L58.1861 40.8576L58.551 41.5502C60.01 44.3195 59.8766 47.7766 58.0859 50.6883C55.4077 55.0429 49.8448 56.703 44.8255 54.5842L44.8088 54.5772L44.7918 54.5714C44.6093 54.5094 43.4313 54.0732 41.9025 52.6497L41.9024 52.6496C40.3532 51.208 39.1735 49.4121 38.4193 47.3618L37.45 47.5344V59.85V60.2576L37.8492 60.3398C45.3351 61.8813 51.0153 68.4942 51.2431 76.5H45.3391C45.0814 70.6631 40.3336 66 34.5002 66C28.6668 66 23.9189 70.6631 23.6612 76.5H17.7573C17.985 68.4943 23.6651 61.8815 31.1509 60.3398L31.55 60.2576V59.8501V47.5344L30.5807 47.3618C29.8265 49.4121 28.6468 51.208 27.0976 52.6496L27.0975 52.6497C25.5688 54.0732 24.3907 54.5094 24.2082 54.5714L24.1912 54.5772L24.1745 54.5842C19.1552 56.703 13.5923 55.0429 10.9141 50.6883C9.12342 47.7766 8.98998 44.3195 10.449 41.5502L10.8139 40.8576L10.0321 40.8178C6.68833 40.6475 3.65473 38.8858 1.89542 36.0252C-0.772083 31.6879 0.468747 26.3766 4.91313 23.3696L4.92913 23.3588L4.94425 23.3468C5.08815 23.2323 6.07941 22.4913 8.16363 21.9583L8.16372 21.9583C11.1682 21.1894 14.4706 21.3891 17.7142 22.553L17.7146 22.5532L19.2309 23.0961L19.7314 22.2515C17.2076 20.0096 15.4802 17.2633 14.7049 14.2763L14.7049 14.2762C14.1291 12.0593 14.325 10.7267 14.3613 10.524L14.3647 10.5049L14.3666 10.4856C14.9459 4.68033 19.4511 0.5 25.0725 0.5C28.7687 0.5 32.0551 2.29836 33.965 5.27003L34.381 5.91732L34.8035 5.27424C36.7293 2.34289 40.1629 0.500707 43.9274 0.500707C49.5495 0.500707 54.054 4.68102 54.634 10.4864Z" fill="#473F2A" stroke="#DCAB2E"/>
</svg>
