<svg width="40" height="44" viewBox="0 0 40 44" fill="none" xmlns="http://www.w3.org/2000/svg">
<rect x="7" width="26" height="44" rx="12" fill="#383C4B"/>
<path d="M3.90434 36.8765C4.6136 36.3091 5.49484 36 6.40312 36H33.5969C34.5052 36 35.3864 36.3091 36.0957 36.8765L37.7739 38.2191C38.5121 38.8096 38.0945 40 37.1492 40H2.85078C1.9055 40 1.48795 38.8096 2.22609 38.2191L3.90434 36.8765Z" fill="#383C4B"/>
<path d="M6.40312 36.5H33.5969C34.3916 36.5 35.1627 36.7705 35.7833 37.267L37.4616 38.6096C37.8306 38.9048 37.6219 39.5 37.1492 39.5H2.85078C2.37814 39.5 2.16936 38.9048 2.53843 38.6096L4.21669 37.267C4.83729 36.7705 5.60837 36.5 6.40312 36.5Z" stroke="url(#paint0_linear_2205_4130)" stroke-opacity="0.7"/>
<path d="M24.5582 26.2439L21.0592 22.4729C20.4742 21.8424 19.5258 21.8424 18.9408 22.4729L15.4418 26.2439C14.4981 27.261 15.1664 29 16.501 29H23.499C24.8336 29 25.5019 27.261 24.5582 26.2439Z" fill="#5F606F"/>
<path d="M24.5582 35.2439L21.0592 31.4729C20.4742 30.8424 19.5258 30.8424 18.9408 31.4729L15.4418 35.2439C14.4981 36.261 15.1664 38 16.501 38H23.499C24.8336 38 25.5019 36.261 24.5582 35.2439Z" fill="#5F606F"/>
<mask id="mask0_2205_4130" style="mask-type:alpha" maskUnits="userSpaceOnUse" x="10" y="4" width="20" height="20">
<rect x="10" y="4" width="20" height="20" fill="#F1F1F1"/>
</mask>
<g mask="url(#mask0_2205_4130)">
<circle cx="20" cy="14" r="10" fill="#101114"/>
<path d="M25.4816 12.3672H27V11.0225H24.6213C24.1349 10.2004 23.4549 9.52172 22.646 9.05104C21.837 8.58035 20.9261 8.33325 19.9998 8.33325C19.0734 8.33325 18.1625 8.58035 17.3536 9.05104C16.5447 9.52172 15.8647 10.2004 15.3782 11.0225H13V12.3672H14.796C14.4923 13.4212 14.4891 14.5446 14.7869 15.6005H13V16.9452H15.3591C15.8435 17.7761 16.5249 18.4629 17.3377 18.9396C18.1505 19.4162 19.0673 19.6666 19.9998 19.6666C20.9323 19.6666 21.8491 19.4162 22.6619 18.9396C23.4747 18.4629 24.1561 17.7761 24.6405 16.9452H27V15.6005H25.2131C25.5111 14.5446 25.5078 13.4211 25.2035 12.3672H25.4816ZM20.0018 17.7618C19.2883 17.7618 18.5908 17.5412 17.9976 17.1279C17.4043 16.7145 16.9419 16.127 16.6689 15.4396C16.3958 14.7522 16.3244 13.9958 16.4636 13.2661C16.6028 12.5364 16.9464 11.8661 17.4509 11.34C17.9554 10.8139 18.5982 10.4556 19.298 10.3105C19.9978 10.1653 20.7232 10.2398 21.3824 10.5245C22.0416 10.8093 22.605 11.2914 23.0014 11.9101C23.3978 12.5287 23.6094 13.256 23.6094 14C23.6083 14.9977 23.2276 15.9542 22.5509 16.6595C21.8742 17.3647 20.9568 17.7612 20 17.7618H20.0018ZM20.0018 12.7034C20.2478 12.7034 20.4882 12.7794 20.6927 12.9219C20.8971 13.0644 21.0565 13.2669 21.1506 13.5038C21.2447 13.7407 21.2694 14.0015 21.2214 14.253C21.1734 14.5045 21.055 14.7355 20.8811 14.9169C20.7072 15.0982 20.4856 15.2217 20.2444 15.2717C20.0032 15.3218 19.7532 15.2961 19.526 15.198C19.2988 15.0998 19.1046 14.9336 18.9679 14.7204C18.8313 14.5072 18.7584 14.2565 18.7584 14C18.7584 13.6565 18.8891 13.3269 19.1219 13.0838C19.3547 12.8407 19.6705 12.7039 20 12.7034H20.0018Z" fill="url(#paint1_linear_2205_4130)"/>
</g>
<defs>
<linearGradient id="paint0_linear_2205_4130" x1="2.98023e-07" y1="38" x2="40" y2="38" gradientUnits="userSpaceOnUse">
<stop stop-color="#E5EFF3"/>
<stop offset="1" stop-color="#89B3C5"/>
</linearGradient>
<linearGradient id="paint1_linear_2205_4130" x1="13" y1="14" x2="27" y2="14" gradientUnits="userSpaceOnUse">
<stop stop-color="#E0974C"/>
<stop offset="1" stop-color="#C93F6F"/>
</linearGradient>
</defs>
</svg>
