<svg width="32" height="32" viewBox="0 0 32 32" fill="none" xmlns="http://www.w3.org/2000/svg">
<path d="M16 32C24.8366 32 32 24.8366 32 16C32 7.16344 24.8366 0 16 0C7.16344 0 0 7.16344 0 16C0 24.8366 7.16344 32 16 32Z" fill="#2E3148"/>
<path d="M16 25.284C21.1274 25.284 25.284 21.1274 25.284 16C25.284 10.8726 21.1274 6.71603 16 6.71603C10.8726 6.71603 6.71603 10.8726 6.71603 16C6.71603 21.1274 10.8726 25.284 16 25.284Z" fill="#1B1E36"/>
<path d="M16.0329 2.04121C14.3058 2.04121 12.9053 8.30553 12.9053 16.033C12.9053 23.7605 14.3058 30.0248 16.0329 30.0248C17.76 30.0248 19.1604 23.7605 19.1604 16.033C19.1604 8.30553 17.76 2.04121 16.0329 2.04121ZM16.2488 29.2352C16.0513 29.4986 15.8538 29.301 15.8538 29.301C15.0584 28.3794 14.6607 26.6673 14.6607 26.6673C13.2695 22.1899 13.6006 12.5768 13.6006 12.5768C14.2545 4.94489 15.4438 3.14202 15.8486 2.74176C15.8899 2.70091 15.9443 2.67594 16.0022 2.67126C16.0602 2.66658 16.1179 2.68248 16.1652 2.71616C16.7525 3.13228 17.2451 4.87257 17.2451 4.87257C18.6995 10.2717 18.5678 15.3417 18.5678 15.3417C18.6995 19.7532 17.839 24.6915 17.839 24.6915C17.1766 28.4444 16.2488 29.2352 16.2488 29.2352Z" fill="#6F7390"/>
<path d="M28.1692 9.06996C27.3093 7.57133 21.1793 9.47418 14.4732 13.3196C7.76717 17.1649 3.0368 21.4973 3.89606 22.9953C4.75532 24.4933 10.886 22.5911 17.5921 18.7457C24.2981 14.9004 29.0285 10.5679 28.1692 9.06996ZM4.68941 22.7898C4.36019 22.7483 4.43456 22.4777 4.43456 22.4777C4.8384 21.3294 6.12352 20.1324 6.12352 20.1324C9.31622 16.6973 17.82 12.2008 17.82 12.2008C24.7645 8.96986 26.9216 9.10618 27.4688 9.25683C27.525 9.27251 27.5738 9.30756 27.6066 9.35578C27.6394 9.40399 27.654 9.46226 27.648 9.52026C27.5822 10.2371 26.3146 11.5299 26.3146 11.5299C22.3579 15.4798 17.8944 17.889 17.8944 17.889C14.1334 20.1994 9.42169 21.9094 9.42169 21.9094C5.83654 23.2013 4.68953 22.7898 4.68953 22.7898H4.68941Z" fill="#6F7390"/>
<path d="M28.1389 23.0453C29.0054 21.5506 24.287 17.1983 17.6045 13.324C10.922 9.44973 4.7927 7.52333 3.92691 9.02055C3.06112 10.5178 7.77881 14.8675 14.4652 18.7418C21.1515 22.6161 27.2731 24.5426 28.1389 23.0453ZM4.50112 9.59808C4.37312 9.29459 4.64333 9.22151 4.64333 9.22151C5.83962 8.99559 7.52 9.5104 7.52 9.5104C12.0915 10.5514 20.2432 15.6576 20.2432 15.6576C26.5194 20.0494 27.482 21.9839 27.6262 22.533C27.6409 22.5893 27.6352 22.649 27.6102 22.7015C27.5851 22.7541 27.5423 22.7961 27.4893 22.8201C26.8348 23.1197 25.082 22.6733 25.082 22.6733C19.6795 21.2247 15.3588 18.5706 15.3588 18.5706C11.4767 16.4768 7.63802 13.255 7.63802 13.255C4.72115 10.7991 4.50202 9.60141 4.50202 9.60141L4.50112 9.59808Z" fill="#6F7390"/>
<path d="M16 17.6461C16.9091 17.6461 17.6461 16.9091 17.6461 16C17.6461 15.0909 16.9091 14.3539 16 14.3539C15.0909 14.3539 14.3539 15.0909 14.3539 16C14.3539 16.9091 15.0909 17.6461 16 17.6461Z" fill="#B7B9C8"/>
<path d="M22.7489 10.6666C23.2762 10.6666 23.7037 10.2244 23.7037 9.67898C23.7037 9.13352 23.2762 8.69133 22.7489 8.69133C22.2216 8.69133 21.7942 9.13352 21.7942 9.67898C21.7942 10.2244 22.2216 10.6666 22.7489 10.6666Z" fill="#B7B9C8"/>
<path d="M7.07814 14.0247C7.60544 14.0247 8.03289 13.5825 8.03289 13.0371C8.03289 12.4916 7.60544 12.0494 7.07814 12.0494C6.55085 12.0494 6.12339 12.4916 6.12339 13.0371C6.12339 13.5825 6.55085 14.0247 7.07814 14.0247Z" fill="#B7B9C8"/>
<path d="M14.0576 26.1399C14.5849 26.1399 15.0123 25.6977 15.0123 25.1523C15.0123 24.6068 14.5849 24.1646 14.0576 24.1646C13.5303 24.1646 13.1028 24.6068 13.1028 25.1523C13.1028 25.6977 13.5303 26.1399 14.0576 26.1399Z" fill="#B7B9C8"/>
</svg>
