<svg width="32" height="32" viewBox="0 0 32 32" fill="none" xmlns="http://www.w3.org/2000/svg">
<circle cx="16" cy="16" r="16" fill="#574C36"/>
<path d="M22.4671 13.8491C22.7335 12.0635 21.3528 11.1001 19.4666 10.4552L20.0721 8.037L18.5784 7.66654L17.989 10.0211L17.5932 9.92531L16.7922 9.74058L17.386 7.37046L15.8932 7L15.2874 9.41746L14.6463 9.26981C14.5411 9.24493 14.4369 9.21979 14.3337 9.19423L14.3354 9.18662L12.2755 8.67465L11.8823 10.2469L12.6341 10.4236L12.8757 10.4848L12.9588 10.5098C12.9656 10.5125 12.9671 10.5153 12.9671 10.5153C13.572 10.6656 13.6823 11.0607 13.6649 11.3736L12.9751 14.1285C13.0168 14.1391 13.0708 14.1543 13.1305 14.178L12.9726 14.1392L12.0058 17.9985C11.9324 18.1795 11.7455 18.451 11.3227 18.3468L11.3129 18.3473L11.228 18.3298L10.6834 18.1937L10.237 18.0771L9.5 19.7614L11.4438 20.2437L12.5087 20.5171L11.897 22.9631L13.3889 23.3336L13.9948 20.9136C14.4024 21.0236 14.7979 21.1252 15.1852 21.2209L14.5814 23.6295L16.0751 24L16.6868 21.5586L17.0226 21.6187C17.0779 21.628 17.1329 21.6369 17.1876 21.6455L17.5116 21.6923L17.8275 21.7293C19.8019 21.9312 21.2715 21.4995 21.9471 19.5827C22.5918 17.7551 21.9078 16.6985 20.5669 16.0075C21.5028 15.7966 22.2159 15.2063 22.4419 14.003L22.4671 13.8491ZM19.0679 18.5603C18.7799 19.7127 17.432 19.7428 16.2214 19.5449L15.9733 19.501L15.6136 19.4268L15.276 19.3479L14.475 19.1421L15.2869 15.9016L16.0724 16.0816L16.4 16.1622L16.6287 16.2233L16.8624 16.2907L17.0983 16.3652C18.2002 16.7298 19.2851 17.3401 19.0935 18.4405L19.0679 18.5603ZM19.518 13.8158C19.2466 14.8986 18.0496 14.9153 17.0147 14.7375L16.7958 14.6967L16.5843 14.6519L16.3824 14.6049L15.936 14.4907L15.6583 14.4182L16.3943 11.4792L17.1236 11.6453L17.4283 11.7225C17.4632 11.7318 17.4982 11.7414 17.5335 11.7513L17.7468 11.8144C18.7125 12.1147 19.7256 12.6468 19.5434 13.697L19.518 13.8158Z" fill="#E3A731"/>
</svg>
