<svg width="32" height="32" viewBox="0 0 32 32" fill="none" xmlns="http://www.w3.org/2000/svg">
<circle cx="16" cy="16" r="16" fill="#191D29"/>
<path d="M20.9336 9.43974C20.7891 8.02593 19.6633 7.00017 18.2544 7.00017C17.3157 7.00017 16.4563 7.44916 15.9727 8.16876C15.4934 7.43985 14.6692 7 13.7456 7C12.3368 7 11.2108 8.02576 11.0665 9.43958C11.0551 9.50203 11.0083 9.83069 11.1507 10.3667C11.3425 11.0894 11.7694 11.751 12.389 12.289L12.0264 12.1621C11.2306 11.883 10.4165 11.8338 9.67255 12.0199C9.15672 12.1488 8.90458 12.3299 8.85788 12.3662C7.74591 13.1017 7.42762 14.4117 8.10141 15.4827C8.54316 16.1849 9.3048 16.6168 10.1429 16.6586C9.77309 17.3447 9.8091 18.1968 10.2581 18.9104C10.9319 19.9816 12.3272 20.3835 13.5774 19.8676C13.6349 19.8485 13.9319 19.7387 14.3113 19.3933C14.6961 19.0433 14.9884 18.6077 15.175 18.1119V20.9909C13.2922 21.37 11.875 23.0209 11.875 25H13.525C13.525 23.6444 14.6331 22.5455 16 22.5455C17.3669 22.5455 18.475 23.6444 18.475 25H20.125C20.125 23.0208 18.7079 21.3699 16.825 20.9909V18.1119C17.0116 18.6077 17.3039 19.0433 17.6887 19.3933C18.0681 19.7387 18.3651 19.8485 18.4226 19.8676C19.6728 20.3835 21.0681 19.9816 21.7419 18.9104C22.1909 18.1968 22.2269 17.3447 21.8571 16.6586C22.6952 16.6168 23.4568 16.1849 23.8986 15.4827C24.5724 14.4117 24.2541 13.1017 23.1421 12.3662C23.0954 12.3299 22.8433 12.1488 22.3274 12.0199C21.5835 11.8338 20.7694 11.883 19.9736 12.1621L19.6112 12.289C20.2307 11.7508 20.6574 11.0894 20.8493 10.3667C20.9917 9.83086 20.9449 9.50219 20.9336 9.43974Z" fill="#242836"/>
<path fill-rule="evenodd" clip-rule="evenodd" d="M20.6363 9.48093L20.6352 9.46975C20.5057 8.2036 19.5051 7.29769 18.2544 7.29769C17.4103 7.29769 16.6471 7.70159 16.2223 8.33377L15.9699 8.70931L15.7214 8.33126C15.2995 7.68955 14.5714 7.29752 13.7456 7.29752C12.4951 7.29752 11.4942 8.20345 11.365 9.46954L11.3638 9.48118L11.3617 9.49268C11.3574 9.51625 11.3105 9.80067 11.4408 10.2909C11.6159 10.9506 12.0075 11.5623 12.5866 12.0652L12.2891 12.5696L11.9265 12.4427L11.9263 12.4426C11.1805 12.181 10.4268 12.138 9.74593 12.3084C9.27332 12.4265 9.0588 12.588 9.04301 12.6003L9.03393 12.6074L9.02433 12.6137C8.03604 13.2674 7.77493 14.4017 8.35593 15.3252C8.744 15.9421 9.41463 16.3244 10.1579 16.3614L10.6305 16.3849L10.4075 16.7988C10.0914 17.3852 10.1168 18.1238 10.5126 18.753C11.1015 19.6891 12.3346 20.0582 13.4621 19.5929L13.472 19.5889L13.4821 19.5855C13.5052 19.5778 13.764 19.4876 14.1085 19.1741C14.4571 18.8569 14.7233 18.4613 14.8939 18.0079L15.475 18.1119V21.2341L15.2347 21.2825C13.5842 21.6148 12.3197 23.0016 12.1866 24.7025H13.2411C13.3906 23.3225 14.5688 22.2479 16 22.2479C17.4313 22.2479 18.6094 23.3225 18.759 24.7025H19.8134C19.6804 23.0015 18.4159 21.6147 16.7653 21.2825L16.525 21.2341V18.1119L17.1061 18.0079C17.2767 18.4613 17.5428 18.8569 17.8915 19.174C18.2359 19.4876 18.4948 19.5778 18.5179 19.5855L18.528 19.5889L18.5379 19.5929C19.6654 20.0582 20.8985 19.6891 21.4874 18.753C21.8832 18.1238 21.9086 17.3852 21.5925 16.7988L21.3695 16.3849L21.8421 16.3614C22.5854 16.3244 23.256 15.9421 23.6441 15.3252C24.2251 14.4017 23.964 13.2674 22.9757 12.6137L22.9661 12.6074L22.957 12.6003C22.9412 12.5881 22.7267 12.4265 22.2541 12.3084C21.5732 12.138 20.8195 12.181 20.0737 12.4426L20.0735 12.4427L19.7111 12.5695L19.4135 12.0652C19.9926 11.5622 20.384 10.9507 20.5592 10.2909C20.6894 9.80114 20.6427 9.51638 20.6383 9.49199L20.6363 9.48093ZM20.1143 24.7025C20.1214 24.8007 20.125 24.8999 20.125 25H18.475C18.475 23.6444 17.3669 22.5455 16 22.5455C14.6331 22.5455 13.525 23.6444 13.525 25H11.875C11.875 24.8999 11.8787 24.8007 11.8858 24.7025C12.0195 22.8572 13.3874 21.3508 15.175 20.9909V18.1119C15.0944 18.3262 14.994 18.5291 14.875 18.7188C14.7185 18.9681 14.5298 19.1945 14.3113 19.3933C13.9319 19.7387 13.6349 19.8485 13.5774 19.8676C12.3272 20.3835 10.9319 19.9816 10.2581 18.9104C9.87035 18.2942 9.7906 17.5746 10.0142 16.9479C10.0495 16.8489 10.0924 16.7522 10.1429 16.6586C10.0355 16.6532 9.9293 16.6415 9.82491 16.6235C9.11481 16.5017 8.48654 16.0949 8.10141 15.4827C7.42762 14.4117 7.74591 13.1017 8.85788 12.3662C8.90458 12.3299 9.15672 12.1488 9.67255 12.0199C10.3301 11.8554 11.0424 11.8747 11.7484 12.0741C11.8412 12.1004 11.9339 12.1297 12.0264 12.1621L12.389 12.289C12.2817 12.1959 12.1802 12.099 12.0847 11.9987C12.0846 11.9987 12.0847 11.9988 12.0847 11.9987C12.0271 11.9383 11.9716 11.8765 11.9184 11.8137C11.5505 11.3789 11.2893 10.8887 11.1507 10.3667C11.0083 9.83069 11.0551 9.50203 11.0665 9.43958C11.2108 8.02576 12.3368 7 13.7456 7C14.5574 7 15.2924 7.33978 15.7838 7.91695C15.8515 7.99647 15.9146 8.0805 15.9727 8.16876C16.0313 8.08155 16.0954 7.99832 16.1645 7.91938C16.6657 7.34693 17.4295 7.00017 18.2544 7.00017C19.6633 7.00017 20.7891 8.02593 20.9336 9.43974C20.9449 9.50219 20.9917 9.83086 20.8493 10.3667C20.7107 10.8888 20.4495 11.3789 20.0816 11.8137C20.0284 11.8765 19.973 11.9382 19.9154 11.9987C19.9154 11.9987 19.9155 11.9986 19.9154 11.9987C19.82 12.0989 19.7184 12.1958 19.6112 12.289L19.9736 12.1621C20.0661 12.1297 20.1588 12.1003 20.2516 12.0741C20.9576 11.8747 21.67 11.8554 22.3275 12.0199C22.8433 12.1488 23.0954 12.3299 23.1421 12.3662C24.2541 13.1017 24.5724 14.4117 23.8986 15.4827C23.5135 16.0949 22.8852 16.5017 22.1751 16.6235C22.0707 16.6415 21.9645 16.6532 21.8571 16.6586C21.9076 16.7522 21.9505 16.8489 21.9858 16.9479C22.2094 17.5746 22.1297 18.2942 21.7419 18.9104C21.0681 19.9816 19.6728 20.3835 18.4226 19.8676C18.3651 19.8485 18.0681 19.7387 17.6887 19.3933C17.4702 19.1945 17.2815 18.9681 17.125 18.7188C17.006 18.5291 16.9056 18.3262 16.825 18.1119V20.9909C18.6127 21.3508 19.9806 22.8572 20.1143 24.7025Z" fill="#292C3B"/>
</svg>
