<svg width="32" height="32" viewBox="0 0 32 32" fill="none" xmlns="http://www.w3.org/2000/svg">
<path d="M32 16C32 24.8366 24.8366 32 16 32C7.16344 32 0 24.8366 0 16C0 7.16344 7.16344 0 16 0C24.8366 0 32 7.16344 32 16Z" fill="#1D311E"/>
<path d="M8.59715 17.0694C11.2059 18.4548 13.928 19.9049 16.0304 21.027L23.4028 17.0694C20.7334 21.0351 18.5092 24.3366 16.0304 27.9904C13.5472 24.3446 10.8049 20.3218 8.59715 17.0694ZM8.8807 15.9755L16.0385 12.1561L23.1031 15.9476L16.0425 19.7713L8.8807 15.9755ZM16.0304 10.9324L8.59715 14.8455L15.998 4.0096L23.4028 14.8698L16.0304 10.9324Z" fill="#B6DAB6"/>
<path d="M16.0304 21.027L23.4028 17.0694C20.7334 21.0351 16.0304 27.9904 16.0304 27.9904V21.027ZM16.0385 12.1561L23.1031 15.9476L16.0425 19.7713L16.0385 12.1561ZM16.0304 10.9327L15.998 4.0096L23.4028 14.8698L16.0304 10.9327Z" fill="#5BA35B"/>
<path d="M8.8807 15.9756L16.0389 16.5631L23.1035 15.9514L16.0425 19.7753L8.8807 15.9756Z" fill="#5BA35B"/>
<path d="M16.0385 16.5631L23.1031 15.9514L16.0425 19.7753L16.0385 16.5631Z" fill="#0B8311"/>
</svg>
