<svg width="32" height="32" viewBox="0 0 32 32" fill="none" xmlns="http://www.w3.org/2000/svg">
<path d="M16 32C24.8366 32 32 24.8366 32 16C32 7.16344 24.8366 0 16 0C7.16344 0 0 7.16344 0 16C0 24.8366 7.16344 32 16 32Z" fill="#161616"/>
<path d="M22.2766 13.1038L24.5106 11.7939L16.1809 7L7.35106 12.1429L12.0372 14.8753L11.1543 15.3907L13.234 16.5932L14.1117 16.0778L15.5638 16.926L14.4521 17.5756L16.5266 18.7781L17.633 18.1339L20.5904 19.8571L16.1809 22.4232L7.03723 17.1408L7 19.7122L16.1862 25L25 19.8518L19.8298 16.8401L20.8723 16.2282L18.7926 15.0256L17.7606 15.6323L16.3085 14.7841L17.5798 14.0432L15.5 12.8407L14.2394 13.5816L11.7713 12.1429L16.1809 9.5768L22.2766 13.1038Z" fill="white"/>
</svg>
