<svg width="32" height="32" viewBox="0 0 32 32" fill="none" xmlns="http://www.w3.org/2000/svg">
<circle cx="16" cy="16" r="16" fill="#3E354D"/>
<path d="M21.1436 12.5987C20.7781 12.391 20.3081 12.391 19.8904 12.5987L16.9661 14.3123L14.9817 15.4028L12.1096 17.1165C11.7441 17.3242 11.2741 17.3242 10.8564 17.1165L8.61096 15.7663C8.24543 15.5586 7.98433 15.1432 7.98433 14.6758V12.0794C7.98433 11.664 8.19321 11.2485 8.61096 10.9889L10.8564 9.69065C11.222 9.48295 11.6919 9.48295 12.1096 9.69065L14.3551 11.0408C14.7206 11.2485 14.9817 11.664 14.9817 12.1313V13.845L16.9661 12.7025V10.937C16.9661 10.5215 16.7572 10.1061 16.3394 9.84645L12.1619 7.40579C11.7963 7.19807 11.3263 7.19807 10.9086 7.40579L6.62663 9.89835C6.20888 10.1061 6 10.5215 6 10.937V15.8183C6 16.2337 6.20888 16.6491 6.62663 16.9088L10.8564 19.3494C11.222 19.5571 11.6919 19.5571 12.1096 19.3494L14.9817 17.6877L16.9661 16.5453L19.8381 14.8836C20.2037 14.6758 20.6736 14.6758 21.0914 14.8836L23.3368 16.1818C23.7023 16.3895 23.9634 16.8049 23.9634 17.2723V19.8687C23.9634 20.2842 23.7545 20.6996 23.3368 20.9592L21.1436 22.2574C20.7781 22.4652 20.3081 22.4652 19.8904 22.2574L17.6449 20.9592C17.2794 20.7515 17.0183 20.3361 17.0183 19.8687V18.207L15.0339 19.3494V21.0631C15.0339 21.4785 15.2428 21.8939 15.6606 22.1536L19.8904 24.5942C20.2559 24.802 20.7259 24.802 21.1436 24.5942L25.3734 22.1536C25.7389 21.9459 26 21.5304 26 21.0631V16.1298C26 15.7144 25.7911 15.299 25.3734 15.0393L21.1436 12.5987Z" fill="#8247E5"/>
</svg>

