<svg width="32" height="32" viewBox="0 0 32 32" fill="none" xmlns="http://www.w3.org/2000/svg">
<path d="M16 32C24.8366 32 32 24.8366 32 16C32 7.16344 24.8366 0 16 0C7.16344 0 0 7.16344 0 16C0 24.8366 7.16344 32 16 32Z" fill="#253721"/>
<path d="M23.1248 13.8643L23.1247 13.8619H23.1231L23.1248 13.8643Z" fill="#3D8130"/>
<path d="M23.2887 16.7568L23.2881 16.756L23.2883 16.7572L23.2887 16.7568Z" fill="#3D8130"/>
<path d="M22.0906 21.2141L22.0921 21.2133L22.0881 21.2086L22.0906 21.2141Z" fill="#3D8130"/>
<path d="M9.50604 12.6886L8.78426 14.0884L8.04044 15.5542L7.51684 16.9286L7.16767 18.3908L6.94883 19.9883L6.81698 21.3717L6.66548 22.2807L6.81517 22.9864L7.07446 23.5914L7.54723 24.4295L8.64672 25.1194L9.45861 25.4351C9.65971 25.4964 9.86896 25.5606 10.0526 25.6178L11.0154 25.7929L12.3926 25.8585L13.5298 25.8584C13.6581 25.8584 14.8083 25.7934 14.8199 25.7927L14.8222 25.7926L14.8245 25.7926L16.2893 25.8145L17.7016 25.6407L18.315 25.3868L18.7334 24.8848L18.7504 24.2237C18.7278 24.1691 18.6413 23.9573 18.621 23.8764C18.5999 23.8206 18.3217 23.489 18.0652 23.2017L18.0601 23.1952C17.9495 23.0336 17.764 22.7484 17.764 22.6549C17.764 22.559 17.8778 22.2884 17.9007 22.2351L17.9125 22.2074L18.4976 22.0368L18.8847 22.3164L19.2362 22.1211L19.6316 21.7266L20.3178 21.2181L20.941 20.862L21.4378 20.7673L22.088 21.2086L22.0462 21.1605L22.3173 20.925L22.5661 20.5103V20.079L22.5192 19.9539L22.1992 20.2129L21.6291 20.3726L21.6196 20.3723L20.7466 20.3505L19.4781 20.484L19.0765 20.5263L18.7685 20.484L17.9506 20.3718L17.0264 20.1958L15.5296 19.9537L15.5227 19.9508L14.0899 19.3551L12.8363 18.6291L12.0691 18.1101L11.9951 17.7404L12.093 17.3979L12.3968 17.1701L13.1101 17.3313L14.664 17.8128C15.4271 17.9689 16.5878 18.2018 16.6665 18.2056C16.7022 18.2056 16.857 18.2305 17.228 18.2914C17.6277 18.357 18.175 18.4468 18.2882 18.4468C18.4831 18.4468 19.9738 18.5294 20.0655 18.5345C20.1448 18.5332 21.3605 18.5126 21.4896 18.5126C21.5758 18.5126 22.0429 18.3594 22.329 18.2589L22.7528 17.7504L23.1609 17.0415C23.1859 16.8376 23.161 16.6306 23.0882 16.4384C22.987 16.175 22.8031 15.9517 22.5641 15.8018C22.4379 16.0367 22.2795 16.19 22.0911 16.2581C22.0194 16.2841 21.9437 16.2973 21.8674 16.2972C21.7556 16.2973 21.6454 16.2707 21.5459 16.2197L21.6086 16.1087C21.6765 16.1424 21.7505 16.1622 21.8261 16.1672C21.9018 16.1721 21.9777 16.1621 22.0495 16.1376C22.2187 16.0758 22.3618 15.9269 22.4764 15.6944C22.3362 15.7474 22.1875 15.774 22.0377 15.773C21.9441 15.7738 21.8506 15.7639 21.7592 15.7437L21.7747 15.6818L21.7901 15.62C21.7949 15.6211 22.2767 15.7359 22.6423 15.4574C22.9008 15.2606 23.0438 14.9157 23.0679 14.4318L22.6471 14.9227L22.141 15.1516C21.9129 15.2087 21.1632 15.3947 21.0949 15.3947C21.0683 15.3947 20.9727 15.3799 20.7264 15.3406C20.4232 15.2923 19.9651 15.2193 19.845 15.2193C19.6318 15.2193 19.3345 14.9905 19.3013 14.9645L19.2657 14.9364L19.5038 14.2458L20.159 13.5029L20.8553 13.0087L21.7159 13.0091L22.5298 13.0995L22.8802 13.4976L23.0485 13.75V13.0732L22.373 12.8276C22.3 12.8169 21.628 12.7195 21.4677 12.7195C21.3122 12.7195 20.7116 12.8113 20.6138 12.8263L19.7482 13.389L19.6787 13.2821L20.5673 12.7046L20.5807 12.7025C20.6096 12.698 21.2894 12.5921 21.4677 12.5921C21.6457 12.5921 22.3673 12.6979 22.3979 12.7024L22.4104 12.7056L23.1439 12.9732L23.2144 13.0135L23.2203 12.9664L22.8793 12.6655L22.2619 12.3674L21.5144 12.3033L20.653 12.4541L20.3091 12.6046L20.258 12.4878L20.6234 12.3299L21.5087 12.175L22.2962 12.2425L22.3286 12.2581L22.092 11.8887L21.4255 11.3002L21.4322 11.2926L18.8336 11.3648C18.8336 11.3648 18.4959 11.4076 18.107 11.4563L18.475 11.9883L18.6638 12.3186L18.5687 12.6514L18.4462 12.6164L18.5265 12.3352L18.3657 12.0539L17.9726 11.4861L17.9955 11.4702C17.5104 11.5308 16.9892 11.595 16.9588 11.595C16.9012 11.595 14.8126 11.7513 14.7304 11.7513C14.5564 11.7406 14.3834 11.7186 14.2123 11.6855C14.1794 11.6691 12.7898 11.1592 12.7404 11.1263C12.6911 11.0935 12.2059 10.6248 12.2059 10.6248L11.2529 10.3303L10.4233 11.3564L9.50604 12.6886ZM19.6515 15.5578C19.7738 15.6147 19.8921 15.6798 20.0057 15.7527L20.7192 15.8366L21.1256 15.751L21.1519 15.8758L20.7251 15.9656L20.2337 15.9078C20.4464 16.063 20.6416 16.2409 20.8158 16.4384C20.9415 16.5812 21.0534 16.7356 21.1499 16.8996L21.0399 16.9639C20.9277 16.7742 20.7942 16.5979 20.642 16.4384C20.4372 16.224 20.2074 16.035 19.9577 15.8753L19.9565 15.8752L19.5945 15.6716L19.6515 15.5578ZM12.5056 13.2165L13.0728 12.6723L13.5677 12.2674L14.2735 12.1316L15.0191 12.1097L15.8103 12.1097L16.4693 12.1316L17.8022 12.1538L18.2215 12.4114L18.7323 12.8787L19.0277 13.2423L19.1622 13.982L19.0368 14.0048L18.9081 13.2973L18.6364 12.9628L18.1401 12.5097L17.7654 12.2807L16.7247 12.2633L17.1785 12.5122C17.4216 12.6379 17.8384 12.8638 17.8847 12.9562C17.9136 13.009 18.2462 13.3342 18.5509 13.6179L18.5577 13.6254L19.0287 14.231L19.0968 14.7303L18.9706 14.7476L18.9071 14.2822L18.4603 13.7076C18.3048 13.5629 17.8158 13.1034 17.7707 13.0132C17.7363 12.9644 17.4051 12.7729 17.1186 12.6247L16.4508 12.2585L15.8082 12.2371L15.0209 12.2371L14.2824 12.2589L13.6235 12.3864L13.1555 12.7693L12.6244 13.2792L12.5679 13.618L12.6835 13.7191L12.9621 13.5705L13.4253 12.997L14.2606 12.6809L15.3497 12.5698L16.2673 12.6594L17.4623 13.279L17.9587 13.5722L18.4334 14.2052L18.6491 14.8952L18.9659 15.0988V15.381L18.6738 15.6487L18.1459 15.8686L17.9202 16.0533L17.6832 16.4384L17.5658 16.6291L17.5504 16.6373C17.3921 16.7206 17.118 16.8594 17.0418 16.8638C16.9866 16.874 16.6328 17.0353 16.3205 17.1865L16.3115 17.19C16.288 17.1972 15.7357 17.3669 15.6015 17.3893L15.5806 17.2636C15.7004 17.2436 16.2149 17.0863 16.2694 17.0696C16.5847 16.9171 16.9721 16.7365 17.0383 16.7365C17.1887 16.6789 17.3348 16.6108 17.4756 16.5326L17.5335 16.4384L17.8229 15.9682L17.8901 15.9132C17.6912 15.8949 17.426 15.8641 17.3581 15.8252C17.3248 15.814 17.1399 15.7894 16.1612 15.7894C15.9166 15.7894 15.3395 15.6579 15.2639 15.6327C15.1999 15.6113 14.614 15.4377 14.6081 15.436L14.5932 15.4316L14.5821 15.4208C14.5766 15.4156 14.0345 14.8971 13.6294 14.6625L13.6933 14.5522C14.0837 14.7783 14.5764 15.2396 14.6591 15.3181C14.753 15.346 15.2432 15.4914 15.3042 15.5118C15.3742 15.5351 15.9336 15.662 16.1612 15.662C17.3426 15.662 17.3939 15.6961 17.4245 15.7165C17.4663 15.7385 17.7491 15.7739 17.9865 15.7937L17.9828 15.8374L18.0796 15.7582L18.6042 15.5396L18.8384 15.3249V15.1684L18.6759 15.064L18.6833 15.0837L18.1421 15.2846L17.391 15.3728C17.3551 15.3739 17.1887 15.3784 17.0069 15.3784C16.7968 15.3784 16.566 15.3723 16.4918 15.3476C16.3904 15.3138 15.7635 15.1762 15.4461 15.1082L15.4372 15.1063L15.4293 15.102C15.0327 14.8886 14.5509 14.6203 14.5074 14.555C14.4771 14.5194 14.235 14.3904 14.0287 14.2922L14.024 14.2897L13.3298 13.8847L13.2346 13.9026L13.2191 13.8202L13.0021 13.6936L12.6658 13.873L12.4305 13.6671L12.5056 13.2165ZM12.7912 16.212L12.8211 16.3358L12.3965 16.4384L12.1852 16.4894L12.1729 16.4384L12.1553 16.3655L12.7912 16.212ZM13.0637 16.8043L13.0312 16.9276C12.8869 16.8994 12.7384 16.9001 12.5944 16.9299C12.3587 16.9739 12.0071 17.1086 11.6704 17.4996L11.5738 17.4164C12.2716 16.6061 13.0317 16.7959 13.0637 16.8043Z" fill="#3D8130"/>
<path d="M13.917 13.6451C13.9547 13.6406 14.843 13.535 14.9551 13.535C14.998 13.535 15.1246 13.5463 15.285 13.5606C15.5052 13.5804 15.8737 13.6133 15.9269 13.6025C16.0163 13.5802 16.8894 13.5004 16.9886 13.4914L17.5085 13.4542L17.4006 13.3904L16.2304 12.7838L15.35 12.698L14.2901 12.8061L13.5028 13.104L13.0997 13.603L13.353 13.7507L13.917 13.6451Z" fill="#3D8130"/>
<path d="M16.999 13.6184C16.6143 13.6534 16.0182 13.7111 15.9573 13.7263C15.9007 13.7404 15.7007 13.7258 15.2737 13.6876C15.129 13.6747 14.9923 13.6624 14.9551 13.6624C14.8685 13.6624 14.1909 13.7408 13.9342 13.7714L13.5212 13.8488L14.0859 14.1782C14.2617 14.262 14.5589 14.4106 14.6114 14.4815C14.6588 14.529 15.0881 14.7735 15.4817 14.9855C15.5825 15.0071 16.4043 15.184 16.5322 15.2267C16.6199 15.2559 17.1002 15.2537 17.3845 15.2455L18.1195 15.1589L18.5642 14.9922L18.5412 14.9774L18.3183 14.2641L17.872 13.6691L17.6086 13.5134L17.6129 13.5745L16.999 13.6184Z" fill="#3D8130"/>
<path d="M22.7766 13.5718L22.4668 13.2208L21.7054 13.1362H20.896L20.2388 13.6025L19.6161 14.3111L19.4161 14.8913C19.5178 14.965 19.719 15.0919 19.845 15.0919C19.9752 15.0919 20.4028 15.16 20.7464 15.2148C20.9061 15.2402 21.0713 15.2665 21.0954 15.2673C21.1515 15.2635 21.7418 15.12 22.1044 15.0294L22.5687 14.8183L22.9349 14.3911L22.9018 14.1925L21.7613 13.7279L20.3036 13.6843L20.3074 13.557L21.7881 13.6011L23.0158 14.1013L23.0686 14.418C23.0694 14.4004 23.07 14.3825 23.0705 14.3645L23.0705 14.0127L22.7766 13.5718Z" fill="#3D8130"/>
<path d="M21.4099 20.9024L20.9857 20.9832L20.3843 21.3269L19.7114 21.8261L19.5233 22.0142L19.9486 22.3119L19.9779 22.5464L19.6927 22.8315L19.6026 22.7414L19.8437 22.5003L19.8292 22.3839L19.4318 22.1057L19.3137 22.2239L19.0647 22.3622L18.994 22.6976L19.3419 23.0068L19.8452 22.9867C19.9409 22.9179 20.0939 22.8162 20.1679 22.8107C20.2448 22.7655 20.3184 22.7147 20.3879 22.6587C20.559 22.5304 20.6256 22.4836 20.6749 22.4816C20.8245 22.4094 20.9678 22.325 21.1034 22.2291L21.1229 22.2161L21.7383 22.2871L21.951 22.4998L21.909 22.5449C21.7754 22.688 21.627 22.8731 21.619 22.9205C21.6173 22.9507 21.6103 22.9803 21.5984 23.0081L21.7408 22.9298L22.4176 22.4494L22.4913 22.5534L21.8054 23.0397L21.485 23.2159C21.4725 23.235 21.4616 23.2508 21.4541 23.2616L21.4312 23.2455L20.9414 23.5149L20.6032 24.001L20.4872 24.291L20.7285 24.6329L20.9955 24.941L21.3114 24.9805L21.6039 24.9178L21.6003 24.8527L21.9278 24.3413L22.5418 23.7493L22.6303 23.841L22.0217 24.4278L21.7298 24.8865L21.7489 25.2295L22.0604 25.4437L22.4699 25.4847L22.7034 25.4128L22.6592 25.3464L22.6919 25.3097C22.7062 25.2935 23.0447 24.9128 23.1111 24.8465C23.1618 24.7958 23.4467 24.4679 23.5903 24.3017L23.6868 24.385C23.6697 24.4048 23.2679 24.8699 23.2012 24.9366C23.1492 24.9886 22.9083 25.2583 22.8198 25.3576L23.0367 25.683H23.4059L23.7274 25.5423L23.9868 25.1548L24.3377 24.7821L24.4305 24.8694L24.0833 25.2383L23.8128 25.6441L23.4326 25.8105H22.9685L22.7772 25.5235L22.4828 25.614L22.0152 25.5673L21.6251 25.2991L21.611 25.0466L21.317 25.1096L20.9312 25.0614L20.6368 24.7216L20.1989 24.4589L19.7409 23.9551L19.6285 23.1682L19.7546 23.1502L19.8511 23.8254L20.3951 23.3962L20.9808 22.8323L21.316 22.3667L21.1546 22.3481C20.976 22.4665 20.7594 22.6007 20.6847 22.6086C20.6076 22.6537 20.5339 22.7046 20.4643 22.7607C20.2893 22.892 20.2236 22.9379 20.1739 22.9379C20.078 22.9815 19.9875 23.0362 19.9044 23.1011L19.8888 23.1125L19.2956 23.1363L18.8541 22.7438L18.9172 22.4441L18.8757 22.4672L18.4734 22.1766L18.0061 22.3129C17.9559 22.4225 17.9174 22.5372 17.8914 22.6549C17.8968 22.704 18.0361 22.9341 18.163 23.1199C18.3325 23.3098 18.7216 23.753 18.7447 23.8454C18.7617 23.9136 18.8433 24.1153 18.8732 24.1873L18.8785 24.1998L18.8567 25.0484L19.1005 25.414C19.226 25.4873 20.1471 26.0247 20.2506 26.0868C20.3246 26.1312 20.9873 26.3198 21.3914 26.4293L22.7601 26.5597L23.8618 26.4085L24.8083 25.9782L25.3213 25.4858L25.2016 25.0469L24.5705 23.8716L24.1142 23.1763L23.3353 22.3109L22.1644 21.6702L21.9876 21.2945L21.4099 20.9024Z" fill="#3D8130"/>
<path d="M22.4045 18.3674L22.3879 18.3733C22.2617 18.4178 21.6252 18.64 21.4896 18.64C21.3601 18.64 20.0783 18.6618 20.0654 18.662L20.0631 18.662L20.0608 18.6619C20.045 18.661 18.4815 18.5743 18.2882 18.5743C18.1645 18.5743 17.656 18.4908 17.2074 18.4171C16.9574 18.3761 16.6989 18.3336 16.6654 18.3331C16.5759 18.3331 14.9586 18.0032 14.6354 17.9371L14.6293 17.9355L13.0748 17.4538L12.4262 17.3074L12.2037 17.4742L12.1262 17.7457L12.1838 18.0338L12.9058 18.5223L14.1502 19.2427L15.5647 19.8302L17.0485 20.0703L17.9712 20.246L19.0786 20.3979L20.7415 20.2229L20.7457 20.2229L21.6132 20.2447L22.1395 20.0973L22.582 19.7391L22.9444 19.1849L23.0227 18.9305L22.905 18.6446C22.3827 19.1202 22.3209 19.1359 22.2945 19.1425L21.7556 19.2759L20.2613 19.3418L20.2581 19.3417L18.6933 19.253L17.1427 18.969L15.8906 18.991L15.8823 18.989L14.5834 18.6585L13.431 18.258L12.817 17.8853L12.8831 17.7763L13.4913 18.1456L14.6226 18.5371L15.9054 18.8633L17.1532 18.8414L17.1594 18.8425L18.7123 19.1269L20.2621 19.2142L21.7435 19.1488L22.2635 19.0188C22.2965 19.0058 22.4684 18.8705 22.8367 18.5344C22.8856 18.4898 22.921 18.4571 22.9329 18.446L23.409 17.7968L23.5708 17.4934C23.5434 17.3899 23.5228 17.2847 23.5091 17.1785C23.4474 17.0807 23.3759 16.9894 23.2959 16.906C23.2965 16.9625 23.2928 17.0189 23.2846 17.0748L23.2826 17.0856L22.8542 17.8277L22.4045 18.3674Z" fill="#983B1F"/>
<path d="M25.3208 24.9993L24.6814 23.8088L24.2181 23.1023L23.4155 22.2095L22.262 21.5784L22.0906 21.2141L22.057 21.2323C22.057 21.2323 22.1639 21.6188 22.2379 21.6599C22.3119 21.701 23.3151 22.2108 23.3644 22.2355C23.4138 22.2602 24.2854 23.2963 24.2854 23.2963L24.9844 24.5133L25.4037 25.4507C25.4037 25.4507 24.8692 26.0016 24.8363 26.0099C24.8035 26.0181 23.7674 26.5197 23.7345 26.5197C23.7016 26.5197 22.6984 26.6348 22.6408 26.6183C22.5833 26.6019 21.3498 26.495 21.2511 26.4868C21.1525 26.4786 20.0095 26.0263 20.0095 26.0263L19.0227 25.4342L18.7432 24.9984L18.3485 25.4425C18.3485 25.4425 17.7893 25.722 17.7153 25.722C17.6413 25.722 16.2763 25.903 16.1694 25.903H13.4229C13.4229 25.903 10.7094 25.8536 10.5942 25.7961C10.5569 25.7774 10.3351 25.7059 10.0526 25.6178L9.81951 25.5755L9.45861 25.4351C9.01555 25.3001 8.6125 25.1793 8.6125 25.1793L7.49419 24.4557C7.49419 24.4557 7.02548 23.6416 7.00903 23.6005C6.99258 23.5594 6.70479 22.8769 6.70479 22.844C6.70479 22.8111 6.6061 22.2684 6.6061 22.2684L6.80347 21.0268L6.89392 19.7193L7.10771 18.2967C7.10771 18.2967 7.46129 16.8659 7.46952 16.8002C7.47774 16.7344 8.05334 15.32 8.05334 15.32L8.66185 14.2264L9.45946 12.5736L10.3393 11.3319L11.1945 10.3123L11.2529 10.3303L11.255 10.3277L11.1559 10.2475L10.3226 11.2781L9.39876 12.6197L8.67079 14.0303L7.92526 15.4995L7.39627 16.8871L7.04299 18.3642L6.82227 19.9736L6.69089 21.3529L6.53578 22.2835L6.69178 23.019L6.95868 23.6448L7.4521 24.5203L8.58412 25.2306L9.77899 25.6965L10.9967 25.919L12.3896 25.9859H13.5298C13.66 25.9859 14.7518 25.9242 14.8249 25.9201L16.2918 25.942L16.2962 25.9421L17.7258 25.7661L17.7344 25.7651L18.3928 25.4926L18.7299 25.088L19.0108 25.5093L19.0235 25.5167C19.034 25.5229 20.077 26.1312 20.185 26.1961C20.299 26.2644 21.2547 26.5244 21.3633 26.5538L22.7628 26.688L23.8884 26.5335L23.8976 26.5322L24.8709 26.0898L24.8809 26.0853L25.4642 25.5253L25.3208 24.9993Z" fill="black"/>
<path d="M10.3393 11.3319L9.45947 12.5736L8.66185 14.2264L8.05335 15.3201C8.05335 15.3201 7.47774 16.7344 7.46953 16.8002C7.46129 16.866 7.10772 18.2967 7.10772 18.2967L6.89392 19.7193L6.80347 21.0268L6.60611 22.2684C6.60611 22.2684 6.70479 22.8111 6.70479 22.844C6.70479 22.8769 6.99258 23.5594 7.00904 23.6005C7.02549 23.6416 7.49419 24.4557 7.49419 24.4557L8.6125 25.1793C8.6125 25.1793 9.01555 25.3001 9.45862 25.4351L8.64673 25.1194L7.54724 24.4295L7.07447 23.5914L6.81518 22.9864L6.66548 22.2807L6.81698 21.3717L6.94884 19.9883L7.16767 18.3908L7.51685 16.9286L8.04045 15.5542L8.78427 14.0884L9.50604 12.6886L10.4233 11.3564L11.2529 10.3303L11.1945 10.3123L10.3393 11.3319Z" fill="black"/>
<path d="M21.4378 20.7673L20.941 20.862L20.3178 21.2181L19.6316 21.7266L19.2362 22.1211L18.8847 22.3164L18.4976 22.0368L17.9125 22.2074L17.9007 22.2351C17.8778 22.2884 17.764 22.559 17.764 22.6549C17.764 22.7484 17.9495 23.0336 18.0601 23.1952L18.0652 23.2017C18.3217 23.489 18.5999 23.8206 18.621 23.8764C18.6413 23.9573 18.7278 24.1691 18.7504 24.2237L18.7334 24.8848L18.315 25.3869L17.7016 25.6407L16.2893 25.8145L14.8245 25.7926L14.8222 25.7926L14.8199 25.7927C14.8083 25.7934 13.6581 25.8584 13.5298 25.8584L12.3926 25.8585L11.0154 25.7929L10.0526 25.6178C10.3351 25.7059 10.5569 25.7774 10.5942 25.7961C10.7093 25.8536 13.4229 25.903 13.4229 25.903H16.1694C16.2763 25.903 17.6413 25.722 17.7153 25.722C17.7893 25.722 18.3485 25.4425 18.3485 25.4425L18.7432 24.9984L19.0227 25.4343L20.0095 26.0263C20.0095 26.0263 21.1525 26.4786 21.2511 26.4868C21.3498 26.495 22.5833 26.6019 22.6408 26.6183C22.6984 26.6348 23.7016 26.5197 23.7345 26.5197C23.7674 26.5197 24.8035 26.0181 24.8363 26.0099C24.8692 26.0016 25.4037 25.4507 25.4037 25.4507L24.9844 24.5133L24.2854 23.2963C24.2854 23.2963 23.4138 22.2602 23.3644 22.2355C23.3151 22.2109 22.3119 21.701 22.2379 21.6599C22.1639 21.6188 22.057 21.2323 22.057 21.2323L22.0906 21.2141L22.088 21.2086L21.4378 20.7673ZM22.1644 21.6702L23.3353 22.3109L24.1142 23.1763L24.5705 23.8716L25.2016 25.0469L25.3213 25.4858L24.8083 25.9782L23.8618 26.4085L22.7601 26.5597L21.3914 26.4293C20.9873 26.3198 20.3246 26.1312 20.2506 26.0868C20.1471 26.0247 19.226 25.4873 19.1005 25.414L18.8567 25.0484L18.8785 24.1998L18.8732 24.1873C18.8433 24.1153 18.7617 23.9136 18.7447 23.8454C18.7216 23.753 18.3325 23.3098 18.163 23.1199C18.0361 22.9341 17.8968 22.704 17.8914 22.6549C17.9174 22.5372 17.9559 22.4225 18.0061 22.3129L18.4734 22.1766L18.8757 22.4672L18.9172 22.4442L18.8541 22.7438L19.2956 23.1363L19.8888 23.1125L19.9044 23.1011C19.9875 23.0362 20.078 22.9815 20.1739 22.9379C20.2236 22.9379 20.2893 22.892 20.4643 22.7607C20.5339 22.7046 20.6076 22.6537 20.6847 22.6086C20.7594 22.6008 20.976 22.4665 21.1546 22.3481L21.316 22.3667L20.9808 22.8323L20.3951 23.3962L19.8511 23.8254L19.7546 23.1502L19.6285 23.1682L19.7409 23.9551L20.1989 24.4589L20.6368 24.7217L20.9312 25.0614L21.317 25.1096L21.611 25.0466L21.6251 25.2991L22.0152 25.5673L22.4828 25.614L22.7772 25.5235L22.9685 25.8105H23.4326L23.8128 25.6441L24.0833 25.2383L24.4305 24.8694L24.3377 24.7821L23.9868 25.1548L23.7274 25.5423L23.4059 25.683H23.0367L22.8198 25.3576C22.9083 25.2583 23.1492 24.9886 23.2012 24.9366C23.2679 24.8699 23.6697 24.4048 23.6868 24.385L23.5903 24.3017C23.4467 24.4679 23.1618 24.7958 23.1111 24.8465C23.0447 24.9128 22.7062 25.2935 22.6919 25.3097L22.6592 25.3464L22.7034 25.4128L22.4699 25.4847L22.0604 25.4437L21.7489 25.2295L21.7298 24.8865L22.0217 24.4278L22.6302 23.841L22.5418 23.7493L21.9278 24.3413L21.6003 24.8527L21.6039 24.9178L21.3114 24.9805L20.9955 24.941L20.7285 24.6329L20.4872 24.291L20.6032 24.001L20.9414 23.5149L21.4312 23.2455L21.4541 23.2616C21.4616 23.2508 21.4725 23.235 21.485 23.2159L21.8054 23.0397L22.4913 22.5534L22.4175 22.4494L21.7408 22.9298L21.5984 23.0081C21.6103 22.9803 21.6173 22.9507 21.619 22.9205C21.627 22.8731 21.7754 22.688 21.909 22.5449L21.951 22.4998L21.7383 22.2871L21.1229 22.2161L21.1034 22.2291C20.9678 22.325 20.8245 22.4094 20.6749 22.4816C20.6256 22.4836 20.559 22.5304 20.3879 22.6587C20.3184 22.7147 20.2448 22.7655 20.1679 22.8107C20.0939 22.8162 19.9409 22.9179 19.8452 22.9867L19.3419 23.0068L18.994 22.6976L19.0646 22.3622L19.3137 22.2239L19.4318 22.1057L19.8292 22.3839L19.8437 22.5003L19.6026 22.7414L19.6927 22.8315L19.9779 22.5464L19.9486 22.3119L19.5233 22.0142L19.7114 21.8261L20.3843 21.3269L20.9857 20.9832L21.4099 20.9024L21.9876 21.2945L22.1644 21.6702ZM20.452 24.4621L20.2806 24.3593L19.9045 23.9456L20.4765 23.4944L21.0733 22.9201L21.4609 22.3835L21.6795 22.4087L21.7741 22.5032C21.6533 22.6362 21.4917 22.8304 21.4917 22.918C21.4713 22.9905 21.4385 23.0589 21.3947 23.1201L20.8538 23.4176L20.4944 23.9342L20.3431 24.308L20.452 24.4621Z" fill="black"/>
<path d="M21.983 11.7266L22.3037 12.146C22.3037 12.146 22.4599 12.3927 22.5175 12.4091C22.575 12.4256 23.0931 12.7298 23.0931 12.7298L23.3069 12.9683L23.2658 13.1081L23.1013 13.0587L23.1247 13.8619H23.176V13.1384L23.3171 13.2191L23.3551 12.9154L22.9505 12.5584L22.5131 12.3472L22.53 12.3364L22.1898 11.805L21.5099 11.2047L21.4322 11.2926L21.4978 11.2908L21.983 11.7266Z" fill="black"/>
<path d="M23.0438 15.0158C23.0438 15.0158 22.8135 15.4763 22.7888 15.4927C22.7642 15.5092 22.5586 15.5996 22.5586 15.5996L22.575 15.7147C22.6702 15.7828 22.7608 15.857 22.8464 15.9368C22.8565 15.9569 22.9991 16.2298 23.1081 16.4384H23.2198C23.1136 16.1257 22.9017 15.8599 22.6206 15.6866C22.6326 15.6597 22.6442 15.632 22.6555 15.6033C22.6767 15.5897 22.6977 15.5754 22.7185 15.5597C23.0217 15.3293 23.183 14.9284 23.1979 14.3662V13.9741L23.1247 13.8643L23.1424 14.4731L23.0438 15.0158Z" fill="black"/>
<path d="M22.092 11.8888L22.3286 12.2582L22.2962 12.2425L21.5087 12.175L20.6234 12.3299L20.258 12.4878L20.3091 12.6046L20.653 12.4541L21.5144 12.3034L22.2619 12.3675L22.8793 12.6655L23.2203 12.9664L23.2144 13.0135L23.1439 12.9733L22.4104 12.7056L22.3979 12.7024C22.3673 12.6979 21.6457 12.5921 21.4677 12.5921C21.2894 12.5921 20.6096 12.698 20.5807 12.7025L20.5673 12.7046L19.6787 13.2821L19.7482 13.389L20.6138 12.8263C20.7116 12.8113 21.3122 12.7195 21.4677 12.7195C21.628 12.7195 22.2999 12.8169 22.373 12.8276L23.0485 13.0732V13.7501L22.8802 13.4976L22.5298 13.0995L21.7159 13.0091L20.8553 13.0087L20.159 13.5029L19.5038 14.2458L19.2657 14.9364L19.3013 14.9645C19.3345 14.9905 19.6318 15.2193 19.845 15.2193C19.9651 15.2193 20.4232 15.2923 20.7264 15.3406C20.9727 15.3799 21.0683 15.3947 21.0949 15.3947C21.1632 15.3947 21.9129 15.2087 22.141 15.1516L22.6471 14.9227L23.0679 14.4318C23.0438 14.9157 22.9007 15.2606 22.6423 15.4574C22.2767 15.7359 21.7949 15.6211 21.7901 15.62L21.7747 15.6818L21.7592 15.7437C21.8506 15.7639 21.9441 15.7738 22.0377 15.773C22.1875 15.774 22.3362 15.7474 22.4764 15.6944C22.3618 15.9269 22.2187 16.0758 22.0495 16.1376C21.9777 16.1621 21.9018 16.1721 21.8261 16.1672C21.7505 16.1622 21.6765 16.1424 21.6085 16.1087L21.5459 16.2197C21.6454 16.2707 21.7556 16.2973 21.8674 16.2972C21.9437 16.2973 22.0194 16.2841 22.0911 16.2581C22.2795 16.19 22.4379 16.0367 22.5641 15.8018C22.8031 15.9517 22.987 16.1751 23.0882 16.4384H23.1081C22.9991 16.2298 22.8565 15.9569 22.8464 15.9368C22.7608 15.857 22.6702 15.7828 22.575 15.7147L22.5586 15.5996C22.5586 15.5996 22.7642 15.5092 22.7888 15.4927C22.8135 15.4763 23.0437 15.0158 23.0437 15.0158L23.1424 14.4731L23.1247 13.8643L23.1231 13.8619H23.1246L23.1013 13.0587L23.2658 13.1081L23.3069 12.9683L23.0931 12.7298C23.0931 12.7298 22.575 12.4256 22.5175 12.4091C22.4599 12.3927 22.3037 12.146 22.3037 12.146L21.983 11.7266L21.4978 11.2908L21.4322 11.2926L21.4255 11.3002L22.092 11.8888ZM23.0686 14.418L23.0158 14.1013L21.7881 13.6011L20.3074 13.557L20.3036 13.6843L21.7613 13.7279L22.9018 14.1925L22.9349 14.3911L22.5687 14.8183L22.1044 15.0294C21.7418 15.12 21.1515 15.2635 21.0954 15.2673C21.0713 15.2665 20.9061 15.2402 20.7464 15.2148C20.4028 15.16 19.9752 15.0919 19.845 15.0919C19.719 15.0919 19.5178 14.965 19.4161 14.8913L19.6161 14.3111L20.2388 13.6025L20.896 13.1362H21.7054L22.4668 13.2208L22.7766 13.5719L23.0705 14.0127L23.0705 14.3645C23.07 14.3825 23.0694 14.4004 23.0686 14.418Z" fill="black"/>
<path d="M19.0766 20.5263L19.4781 20.4841H18.7686L19.0766 20.5263Z" fill="black"/>
<path d="M22.6326 20.5087C22.6162 20.5416 22.2544 21.1254 22.2544 21.1254L22.0921 21.2133L22.1298 21.2567L22.4162 21.0079L22.6936 20.5455V20.484H22.6368C22.6366 20.4924 22.6352 20.5007 22.6326 20.5087Z" fill="black"/>
<path d="M22.6326 20.5087C22.6352 20.5007 22.6366 20.4924 22.6368 20.484H22.5661V20.5103L22.3173 20.925L22.0462 21.1605L22.088 21.2086L22.0921 21.2133L22.2543 21.1254C22.2543 21.1254 22.6162 20.5416 22.6326 20.5087Z" fill="black"/>
<path d="M23.2329 16.6768L23.2881 16.756C23.2771 16.6479 23.2542 16.5414 23.2198 16.4384H23.1081C23.1772 16.5704 23.2329 16.6768 23.2329 16.6768Z" fill="black"/>
<path d="M23.6358 17.3758C23.6276 17.4087 23.5536 17.6553 23.5371 17.6965C23.5207 17.7376 22.9286 18.5434 22.9286 18.5434L23.0684 18.823C23.0684 18.823 23.0931 19.0203 23.0766 19.0532C23.0602 19.0861 22.5422 19.892 22.5422 19.892L22.6244 20.114C22.6244 20.114 22.6435 20.3949 22.6368 20.484H22.6936V20.0558L22.6238 19.8696L22.623 19.8699L22.6777 19.8256L23.0609 19.2396L23.158 18.9239L23.0051 18.5529C23.0171 18.5417 23.0241 18.5353 23.0241 18.5353L23.5145 17.8685L23.7063 17.5102L23.7004 17.4864C23.6727 17.3833 23.6513 17.2786 23.6365 17.1729C23.6365 17.1504 23.6365 17.0821 23.3124 16.7348L23.2887 16.7568L23.4796 17.0304C23.4796 17.0304 23.644 17.3429 23.6358 17.3758Z" fill="black"/>
<path d="M23.1081 16.4384H23.0882C23.161 16.6306 23.1859 16.8376 23.1609 17.0415L22.7528 17.7504L22.329 18.2589C22.0429 18.3594 21.5758 18.5126 21.4896 18.5126C21.3605 18.5126 20.1448 18.5332 20.0655 18.5345C19.9738 18.5294 18.4831 18.4468 18.2882 18.4468C18.175 18.4468 17.6277 18.357 17.228 18.2914C16.857 18.2305 16.7022 18.2056 16.6665 18.2056C16.5878 18.2018 15.4271 17.9689 14.664 17.8128L13.1101 17.3313L12.3968 17.1701L12.093 17.3979L11.9951 17.7404L12.0691 18.1101L12.8363 18.6291L14.0899 19.3551L15.5227 19.9508L15.5296 19.9537L17.0264 20.1958L17.9506 20.3718L18.7685 20.484H19.4781L20.7466 20.3505L21.6196 20.3723L21.6291 20.3726L22.1992 20.2129L22.5192 19.9539L22.5661 20.079V20.484H22.6368C22.6435 20.3949 22.6244 20.114 22.6244 20.114L22.5422 19.892C22.5422 19.892 23.0602 19.0861 23.0766 19.0533C23.0931 19.0204 23.0684 18.823 23.0684 18.823L22.9286 18.5434C22.9286 18.5434 23.5207 17.7376 23.5371 17.6965C23.5536 17.6553 23.6276 17.4087 23.6358 17.3758C23.644 17.3429 23.4796 17.0304 23.4796 17.0304L23.2887 16.7568L23.2883 16.7572L23.2881 16.756L23.2329 16.6768C23.2329 16.6768 23.1772 16.5704 23.1081 16.4384ZM23.2846 17.0748C23.2928 17.0189 23.2965 16.9625 23.2959 16.906C23.3759 16.9894 23.4474 17.0807 23.5091 17.1785C23.5228 17.2847 23.5434 17.3899 23.5708 17.4934L23.409 17.7968L22.9329 18.446C22.921 18.4571 22.8856 18.4898 22.8367 18.5344C22.4684 18.8705 22.2965 19.0058 22.2635 19.0188L21.7435 19.1488L20.2621 19.2142L18.7123 19.1269L17.1594 18.8425L17.1532 18.8414L15.9054 18.8633L14.6226 18.5371L13.4913 18.1456L12.8831 17.7763L12.817 17.8853L13.431 18.258L14.5834 18.6585L15.8823 18.989L15.8906 18.991L17.1427 18.969L18.6933 19.253L20.2581 19.3417L20.2613 19.3418L21.7556 19.2759L22.2945 19.1425C22.3209 19.1359 22.3827 19.1202 22.905 18.6446L23.0227 18.9305L22.9444 19.1849L22.582 19.7391L22.1395 20.0973L21.6132 20.2447L20.7457 20.2229L20.7415 20.2229L19.0786 20.3979L17.9712 20.246L17.0485 20.0703L15.5647 19.8302L14.1502 19.2427L12.9058 18.5223L12.1838 18.0338L12.1262 17.7457L12.2037 17.4742L12.4262 17.3074L13.0748 17.4538L14.6293 17.9355L14.6354 17.9371C14.9586 18.0032 16.5759 18.3331 16.6654 18.3331C16.6989 18.3336 16.9574 18.3761 17.2074 18.4171C17.656 18.4908 18.1645 18.5743 18.2882 18.5743C18.4815 18.5743 20.045 18.661 20.0608 18.6619L20.0631 18.662L20.0654 18.662C20.0783 18.6618 21.3601 18.64 21.4896 18.64C21.6252 18.64 22.2617 18.4178 22.3879 18.3733L22.4045 18.3674L22.8542 17.8277L23.2826 17.0856L23.2846 17.0748Z" fill="black"/>
<path d="M12.5944 16.9299C12.7384 16.9001 12.8869 16.8994 13.0312 16.9276L13.0637 16.8043C13.0317 16.7959 12.2716 16.6061 11.5738 17.4164L11.6704 17.4996C12.0071 17.1086 12.3587 16.9739 12.5944 16.9299Z" fill="black"/>
<path d="M12.3964 16.4384L12.8211 16.3358L12.7912 16.2119L12.1553 16.3654L12.1729 16.4384H12.3964Z" fill="black"/>
<path d="M12.1852 16.4894L12.3964 16.4384H12.1729L12.1852 16.4894Z" fill="black"/>
<path d="M19.9576 15.8753C20.2074 16.035 20.4372 16.224 20.642 16.4384H20.8158C20.6416 16.2409 20.4464 16.063 20.2336 15.9078L20.7251 15.9656L21.1519 15.8758L21.1256 15.751L20.7192 15.8366L20.0057 15.7527C19.8921 15.6798 19.7738 15.6147 19.6515 15.5578L19.5945 15.6716L19.9565 15.8752L19.9576 15.8753Z" fill="black"/>
<path d="M21.0399 16.9639L21.1499 16.8996C21.0534 16.7356 20.9415 16.5812 20.8158 16.4384H20.642C20.7942 16.5979 20.9277 16.7742 21.0399 16.9639Z" fill="black"/>
<path d="M13.0021 13.6936L13.2191 13.8202L13.2346 13.9026L13.3298 13.8847L14.024 14.2897L14.0287 14.2922C14.235 14.3904 14.4771 14.5194 14.5074 14.555C14.5509 14.6203 15.0327 14.8886 15.4293 15.102L15.4372 15.1063L15.4461 15.1082C15.7635 15.1762 16.3904 15.3138 16.4918 15.3476C16.566 15.3723 16.7968 15.3784 17.0069 15.3784C17.1887 15.3784 17.3551 15.3739 17.391 15.3728L18.1421 15.2846L18.6833 15.0837L18.6759 15.064L18.8384 15.1684V15.3249L18.6042 15.5396L18.0796 15.7582L17.9828 15.8374L17.9865 15.7937C17.7491 15.7739 17.4663 15.7385 17.4245 15.7165C17.3938 15.6961 17.3426 15.662 16.1612 15.662C15.9336 15.662 15.3742 15.5351 15.3042 15.5118C15.2432 15.4914 14.753 15.346 14.659 15.3181C14.5764 15.2396 14.0837 14.7783 13.6933 14.5522L13.6294 14.6625C14.0345 14.8971 14.5766 15.4156 14.5821 15.4208L14.5932 15.4316L14.6081 15.436C14.614 15.4377 15.1999 15.6113 15.2639 15.6327C15.3395 15.6579 15.9165 15.7894 16.1611 15.7894C17.1399 15.7894 17.3248 15.814 17.3581 15.8252C17.426 15.8641 17.6912 15.8949 17.8901 15.9132L17.8229 15.9682L17.5335 16.4384H17.6832L17.9202 16.0533L18.1459 15.8686L18.6738 15.6487L18.9659 15.381V15.0988L18.6491 14.8952L18.4334 14.2051L17.9587 13.5722L17.4623 13.279L16.2673 12.6594L15.3497 12.5698L14.2606 12.6809L13.4253 12.997L12.9621 13.5705L12.6835 13.7191L12.5679 13.618L12.6244 13.2792L13.1555 12.7693L13.6235 12.3864L14.2824 12.2589L15.0209 12.2371L15.8082 12.2371L16.4508 12.2585L17.1186 12.6247C17.4051 12.7729 17.7363 12.9644 17.7707 13.0132C17.8158 13.1034 18.3048 13.5629 18.4603 13.7076L18.9071 14.2822L18.9705 14.7476L19.0968 14.7303L19.0287 14.231L18.5577 13.6254L18.5509 13.6179C18.2462 13.3342 17.9136 13.009 17.8847 12.9562C17.8384 12.8638 17.4216 12.6379 17.1785 12.5122L16.7247 12.2633L17.7654 12.2807L18.1401 12.5097L18.6364 12.9628L18.9081 13.2973L19.0368 14.0048L19.1622 13.982L19.0277 13.2423L18.7323 12.8787L18.2215 12.4114L17.8022 12.1538L16.4693 12.1316L15.8103 12.1097L15.0191 12.1097L14.2735 12.1316L13.5677 12.2674L13.0728 12.6723L12.5056 13.2165L12.4305 13.6671L12.6658 13.873L13.0021 13.6936ZM17.872 13.6691L18.3183 14.2641L18.5412 14.9774L18.5642 14.9922L18.1195 15.159L17.3844 15.2455C17.1002 15.2537 16.6199 15.2559 16.5322 15.2267C16.4043 15.1841 15.5825 15.0071 15.4817 14.9855C15.0881 14.7735 14.6588 14.529 14.6114 14.4815C14.5588 14.4106 14.2617 14.262 14.0859 14.1782L13.5212 13.8488L13.9342 13.7714C14.1909 13.7408 14.8685 13.6624 14.9551 13.6624C14.9923 13.6624 15.129 13.6747 15.2737 13.6876C15.7007 13.7258 15.9007 13.7404 15.9573 13.7263C16.0182 13.7111 16.6143 13.6534 16.999 13.6184L17.6129 13.5746L17.6086 13.5134L17.872 13.6691ZM13.5028 13.104L14.2901 12.8061L15.35 12.698L16.2304 12.7838L17.4005 13.3904L17.5085 13.4542L16.9886 13.4914C16.8894 13.5004 16.0163 13.5802 15.9269 13.6026C15.8737 13.6133 15.5052 13.5804 15.285 13.5607C15.1246 13.5463 14.998 13.535 14.9551 13.535C14.843 13.535 13.9547 13.6406 13.917 13.6451L13.353 13.7507L13.0997 13.603L13.5028 13.104Z" fill="black"/>
<path d="M17.4756 16.5326C17.3348 16.6108 17.1887 16.6789 17.0383 16.7365C16.9721 16.7365 16.5847 16.9171 16.2694 17.0696C16.2149 17.0863 15.7004 17.2436 15.5806 17.2636L15.6015 17.3893C15.7357 17.3669 16.288 17.1972 16.3115 17.19L16.3205 17.1865C16.6328 17.0353 16.9866 16.874 17.0418 16.8638C17.118 16.8594 17.3921 16.7206 17.5504 16.6373L17.5658 16.6291L17.6832 16.4384H17.5335L17.4756 16.5326Z" fill="black"/>
<path d="M18.0774 11.4135L17.9955 11.4702C18.0329 11.4656 18.0701 11.4609 18.107 11.4563L18.0774 11.4135Z" fill="black"/>
<path d="M18.3657 12.0539L18.5265 12.3352L18.4462 12.6164L18.5687 12.6514L18.6638 12.3186L18.475 11.9883L18.107 11.4563C18.0702 11.4609 18.033 11.4655 17.9955 11.4702L17.9726 11.4861L18.3657 12.0539Z" fill="black"/>
<path d="M22.1917 11.9053L22.7503 11.8513C22.7503 11.8513 24.1378 12.2657 24.1919 12.3198C24.2459 12.3739 24.9487 12.6802 24.9487 12.6802L25.3608 12.716L25.4146 12.3399L25.1109 11.9053L24.2279 11.2566L23.2188 10.7701L22.5882 10.5539L22.3645 7.36698L21.8313 6.57159L21.0385 5.92289L20.0114 5.41835L18.9482 5.40033L16.9481 5.6526L15.1101 6.01299L15.0011 5.69794C14.8593 5.66067 14.7151 5.63348 14.5695 5.61657C14.4614 5.61657 13.4892 5.91775 13.4892 5.91775L12.8937 6.22922L12.7676 6.58961L11.9206 7.05812L11.2359 7.92305L10.8395 8.75195C10.8395 8.75195 10.6413 9.58084 10.6413 9.6349C10.6413 9.68896 10.7494 10.1394 10.8215 10.1755C10.8935 10.2115 11.4521 10.3557 11.4521 10.3557L12.1808 10.7162L13.2361 11.3287L14.5515 11.7612C14.5515 11.7612 15.7948 11.6711 15.921 11.6711C16.0471 11.6711 17.9211 11.4729 18.0292 11.4729C18.1373 11.4729 20.1916 11.3107 20.2456 11.3107C20.2997 11.3107 21.525 11.2927 21.525 11.2927L22.0115 11.7252L22.1917 11.9053Z" fill="#C82727"/>
<path d="M21.7034 13.6754L21.8679 14.0208L21.9666 14.4155L21.9172 14.6622L21.7034 15.2049L21.0291 15.3201L19.9437 15.1227L19.8121 14.7444L19.8615 14.3991L19.9766 13.8564L20.2562 13.5439L20.4371 13.6426L21.6376 13.6754" fill="black"/>
<path d="M16.7532 13.6261L16.9506 14.0044L16.967 14.4649L16.8683 14.876L16.6545 15.2049L16.3092 15.2214L14.9935 14.8267L14.4672 14.3662L14.533 14.0702L14.7139 13.7906L14.9551 13.5987L15.8816 13.6261C15.8816 13.6261 16.7203 13.6919 16.7532 13.6261Z" fill="black"/>
<path d="M25.2481 11.9593L24.7329 11.5113L23.9964 11.0198L22.7842 10.579L22.6127 10.5133L22.5616 9.46867C22.5001 8.95897 22.4085 8.1783 22.4085 8.11677C22.4085 8.02794 22.3663 7.3939 22.3645 7.36697L22.3636 7.35283L22.0018 6.69713L21.3976 6.07051L20.4687 5.53969L19.7007 5.31204H18.639L17.5979 5.44448C17.1769 5.51464 16.5228 5.61902 16.4462 5.61902C16.3327 5.61902 15.4571 5.8173 15.3556 5.84041L15.0502 5.9203L15.0998 5.89547L15.0011 5.69794L14.679 5.57405L14.2035 5.61931L13.4388 5.79867L12.8639 6.16664L12.7467 6.47122L12.8265 6.50186L12.505 6.58594L12.4954 6.58843L11.8214 7.01531L11.3549 7.54853L10.9314 8.25966L10.5935 9.4234V9.84382L10.8108 10.23L12.1808 10.7162L12.6392 11.1309L13.6568 11.5955L14.5547 11.821L16.2338 11.7105L18.6657 11.4475L20.3952 11.3162L21.8355 11.338L23.3569 11.5554L24.5542 12.1214L24.6087 12.0061L23.3939 11.4319L21.8495 11.2113L20.3913 11.1887L18.6541 11.3206L16.2227 11.5835L14.5662 11.6925L13.7045 11.4771L12.7101 11.0231L12.2475 10.6046L10.8984 10.1259L10.721 9.81045V9.4414L11.0452 8.3177L11.4546 7.62802L11.9052 7.11314L12.5469 6.70675L15.3859 5.96421C15.7562 5.88003 16.3716 5.74647 16.4462 5.74647C16.5579 5.74647 17.5106 5.58823 17.6165 5.57056L18.643 5.4395H19.6824L20.412 5.65408L21.3185 6.17216L21.8984 6.77347L22.2383 7.38959C22.2536 7.62031 22.2811 8.05047 22.2811 8.11677C22.2811 8.20573 22.4193 9.35337 22.4347 9.48053L22.4827 10.4635L21.7458 10.1813L20.2899 10.0269L19.1878 9.91663L18.1061 10.0049L16.8562 10.1365L15.4007 10.4668L14.3098 10.7287L13.5781 10.7717L12.6431 10.5847L13.1196 10.9312L13.5054 11.1585L14.3915 11.38L15.2605 11.4039L15.2649 11.4039L16.0397 11.3154L17.1363 11.1399L18.2079 10.9649L19.4098 10.8775L20.2393 10.8339L21.2403 10.899L22.5976 11.0741L24.3477 11.4071L24.6523 11.6102L25.1428 12.0367L25.2833 12.3577L25.2493 12.5956L24.988 12.6131L24.4733 12.3773L23.5304 12.0045L22.7896 11.7798L22.1409 11.8469L22.154 11.9737L22.7772 11.9092L23.486 12.124L24.4233 12.4945L24.9643 12.7424L25.3608 12.716L25.4146 12.3399L25.2481 11.9593ZM12.8765 6.48877L12.9678 6.25145L13.4892 5.91775L14.2199 5.74577L14.6612 5.70374L14.9092 5.79917L14.9791 5.93891L12.8765 6.48877ZM22.6198 10.9486L22.6079 11.0112L22.6161 10.9481L21.2526 10.7722L20.2401 10.7062L19.4018 10.7503L18.1958 10.838L17.1159 11.0141L16.0224 11.1891L15.2593 11.2763L14.4156 11.2547L13.5542 11.0394L13.192 10.8263L13.1885 10.8238L13.5692 10.8999L14.323 10.8555L15.4297 10.591L16.8733 10.2629L18.1179 10.1318L19.1866 10.0446L20.2769 10.1536L21.7158 10.3063L22.7396 10.6984L23.9385 11.1343L24.0753 11.2255L22.6198 10.9486Z" fill="black"/>
<path d="M16.341 14.6582C16.5479 14.5966 16.6737 14.4055 16.6219 14.2314C16.5701 14.0573 16.3603 13.9661 16.1534 14.0276C15.9465 14.0892 15.8207 14.2802 15.8725 14.4543C15.9243 14.6285 16.134 14.7197 16.341 14.6582Z" fill="white"/>
<path d="M15.3224 14.6293C15.4132 14.6293 15.4869 14.5557 15.4869 14.4649C15.4869 14.374 15.4132 14.3004 15.3224 14.3004C15.2316 14.3004 15.158 14.374 15.158 14.4649C15.158 14.5557 15.2316 14.6293 15.3224 14.6293Z" fill="white"/>
<path d="M15.2237 14.1195C15.3146 14.1195 15.3882 14.0459 15.3882 13.955C15.3882 13.8642 15.3146 13.7906 15.2237 13.7906C15.1329 13.7906 15.0593 13.8642 15.0593 13.955C15.0593 14.0459 15.1329 14.1195 15.2237 14.1195Z" fill="white"/>
<path d="M20.5193 14.8267C20.6011 14.8267 20.6673 14.7604 20.6673 14.6787C20.6673 14.5969 20.6011 14.5306 20.5193 14.5306C20.4376 14.5306 20.3713 14.5969 20.3713 14.6787C20.3713 14.7604 20.4376 14.8267 20.5193 14.8267Z" fill="white"/>
<path d="M20.5029 14.2675C20.5937 14.2675 20.6673 14.1939 20.6673 14.103C20.6673 14.0122 20.5937 13.9386 20.5029 13.9386C20.412 13.9386 20.3384 14.0122 20.3384 14.103C20.3384 14.1939 20.412 14.2675 20.5029 14.2675Z" fill="white"/>
<path d="M21.3909 14.728C21.5544 14.728 21.687 14.5955 21.687 14.432C21.687 14.2685 21.5544 14.1359 21.3909 14.1359C21.2275 14.1359 21.0949 14.2685 21.0949 14.432C21.0949 14.5955 21.2275 14.728 21.3909 14.728Z" fill="white"/>
</svg>
