<svg width="32" height="32" viewBox="0 0 32 32" fill="none" xmlns="http://www.w3.org/2000/svg">
<path d="M16 32C24.8366 32 32 24.8366 32 16C32 7.16344 24.8366 0 16 0C7.16344 0 0 7.16344 0 16C0 24.8366 7.16344 32 16 32Z" fill="#ACBFF5"/>
<path d="M17.4047 7.59464C17.5404 7.45972 17.617 7.27647 17.6176 7.08513C17.62 6.9893 17.6031 6.89397 17.568 6.80476C17.5329 6.71556 17.4803 6.63429 17.4133 6.56576C17.3463 6.49722 17.2662 6.44282 17.1778 6.40575C17.0894 6.36869 16.9944 6.34971 16.8986 6.34995C16.8028 6.34922 16.7078 6.36742 16.619 6.40351C16.5303 6.43959 16.4495 6.49286 16.3814 6.56023C16.3133 6.62761 16.2592 6.70778 16.2222 6.79613C16.1851 6.88448 16.1659 6.97928 16.1656 7.07508C16.1653 7.17089 16.184 7.2658 16.2204 7.35438C16.2569 7.44296 16.3106 7.52346 16.3782 7.59126C16.4459 7.65906 16.5263 7.71282 16.6149 7.74945C16.7034 7.78609 16.7983 7.80488 16.8941 7.80474C17.0854 7.80512 17.2691 7.72956 17.4047 7.59464Z" fill="#0645F7"/>
<path d="M15.5916 9.88186V8.42795L15.4617 8.42796C15.3654 8.42796 15.269 8.42754 15.1727 8.42713C14.9257 8.42606 14.6787 8.425 14.4319 8.43092C14.3817 8.43344 14.3315 8.42455 14.2853 8.40489C14.239 8.38524 14.1978 8.35535 14.1648 8.31747C13.8003 7.94733 13.4327 7.58019 13.0651 7.21305L12.8533 7.00146C12.809 6.95572 12.7616 6.91307 12.7114 6.87384C12.5881 6.78186 12.4389 6.73112 12.2851 6.72884C12.1312 6.72656 11.9806 6.77285 11.8546 6.86114C11.7286 6.94942 11.6337 7.07519 11.5833 7.22055C11.5329 7.36592 11.5296 7.52347 11.574 7.67079C11.6205 7.80891 11.7007 7.93324 11.8074 8.03255L13.4219 9.64761C13.4442 9.66988 13.4665 9.69224 13.4905 9.71258C13.6185 9.82676 13.784 9.88985 13.9555 9.88983C14.2448 9.88939 14.5342 9.88943 14.8236 9.88948C15.0438 9.88951 15.2641 9.88954 15.4843 9.88936C15.5072 9.88934 15.5301 9.88725 15.5546 9.88501C15.5665 9.88392 15.5787 9.8828 15.5916 9.88186Z" fill="#0645F7"/>
<path d="M15.8263 12.0529L15.0706 12.0527C14.381 12.0524 13.6913 12.0521 13.0017 12.0539C12.8919 12.0567 12.7828 12.0367 12.6811 11.9951C12.5795 11.9536 12.4876 11.8913 12.4113 11.8124C11.549 10.9477 10.6862 10.0836 9.82273 9.22007C9.7395 9.14281 9.67403 9.0484 9.63084 8.94336C9.58765 8.83832 9.56778 8.72516 9.57259 8.61169C9.58639 8.4468 9.65474 8.29121 9.76682 8.16949C9.87891 8.04777 10.0284 7.96686 10.1915 7.93954C10.3145 7.92251 10.4398 7.93566 10.5565 7.97784C10.6732 8.02003 10.7779 8.08999 10.8616 8.18168C11.2044 8.5262 11.5478 8.87003 11.8913 9.21385C12.3158 9.63882 12.7403 10.0638 13.1635 10.49C13.1918 10.5206 13.2264 10.5445 13.2649 10.5602C13.3035 10.5759 13.345 10.583 13.3866 10.581C15.0113 10.5789 16.636 10.5791 18.2607 10.5815C18.304 10.5832 18.3471 10.5753 18.3871 10.5586C18.427 10.5418 18.4629 10.5165 18.492 10.4844C19.248 9.72366 20.0055 8.96445 20.7645 8.20674C20.8657 8.09698 20.9925 8.01405 21.1336 7.96539C21.2829 7.91737 21.4439 7.91961 21.5918 7.97176C21.7397 8.02392 21.8665 8.12312 21.9527 8.25417C22.042 8.3854 22.0861 8.54222 22.0782 8.7008C22.0702 8.85938 22.0107 9.01102 21.9087 9.13267C21.8817 9.16532 21.8516 9.19559 21.8216 9.22561C20.9687 10.0796 20.1161 10.9339 19.2637 11.7885C19.181 11.8757 19.0809 11.9445 18.9698 11.9904C18.8587 12.0363 18.7392 12.0583 18.6191 12.0549C17.9441 12.0513 17.269 12.0519 16.594 12.0525C16.3381 12.0527 16.0822 12.0529 15.8263 12.0529Z" fill="#0645F7"/>
<path d="M19.407 15.7C19.407 15.4442 19.4073 15.1884 19.4075 14.9326C19.4083 14.2575 19.4091 13.582 19.4045 12.9069C19.401 12.7851 19.4234 12.6639 19.4702 12.5513C19.517 12.4387 19.5871 12.3373 19.6759 12.2538C20.5221 11.4128 21.3656 10.5692 22.2065 9.72284C22.3213 9.59642 22.4704 9.50602 22.6355 9.46258C22.7384 9.43872 22.8452 9.4376 22.9485 9.45931C23.0518 9.48102 23.1491 9.52503 23.2336 9.58826C23.3182 9.65149 23.3879 9.73242 23.4379 9.82539C23.4879 9.91836 23.517 10.0211 23.5232 10.1265C23.5291 10.2382 23.5103 10.3497 23.4682 10.4533C23.426 10.5568 23.3616 10.6498 23.2794 10.7256C22.7003 11.303 22.1221 11.8814 21.545 12.4607C21.49 12.5157 21.4352 12.5709 21.3804 12.6261C21.2381 12.7693 21.0958 12.9126 20.9508 13.053C20.9226 13.0789 20.9006 13.1107 20.8863 13.1462C20.8719 13.1816 20.8656 13.2198 20.8677 13.258C20.8699 14.8864 20.8698 16.5148 20.8675 18.1433C20.8657 18.1849 20.873 18.2264 20.8889 18.2649C20.9048 18.3035 20.9289 18.3381 20.9595 18.3663C22.1398 19.5441 23.3188 20.7232 24.4966 21.9035L24.6194 22.0261C24.7263 22.1328 24.8331 22.2395 24.9391 22.3471C25.0189 22.423 25.0815 22.5151 25.1228 22.6173C25.1641 22.7194 25.183 22.8292 25.1783 22.9392C25.1676 23.0822 25.1154 23.2189 25.0282 23.3326C24.9409 23.4464 24.8224 23.5321 24.6871 23.5795C24.5518 23.6268 24.4056 23.6336 24.2665 23.599C24.1274 23.5644 24.0014 23.49 23.904 23.3849C23.6064 23.0867 23.3086 22.7887 23.0107 22.4909C21.8971 21.3765 20.7834 20.2623 19.6696 19.1482C19.5444 19.0369 19.4577 18.8888 19.4218 18.7252C19.4108 18.6518 19.406 18.5776 19.4076 18.5035C19.4067 17.569 19.4065 16.6345 19.407 15.7Z" fill="#0645F7"/>
<path d="M15.8228 19.2185C16.0765 19.2185 16.3302 19.2186 16.5839 19.2188C17.2683 19.2192 17.9527 19.2196 18.6371 19.217C18.7486 19.2141 18.8594 19.2344 18.9626 19.2768C19.0657 19.3191 19.1589 19.3825 19.2362 19.4629C20.6438 20.8736 22.0522 22.2836 23.4613 23.6929C23.5969 23.8238 23.6868 23.9949 23.7175 24.1808C23.7361 24.3548 23.6917 24.5298 23.5923 24.6738C23.4929 24.8178 23.3451 24.9213 23.1758 24.9655C23.0558 24.9995 22.929 25.0014 22.8081 24.971C22.6872 24.9406 22.5764 24.879 22.4868 24.7923C22.4549 24.7636 22.4246 24.7331 22.3943 24.7026L22.3729 24.681C21.0769 23.3838 19.7816 22.086 18.4868 20.7876C18.4527 20.7508 18.4108 20.7218 18.3643 20.7029C18.3178 20.6839 18.2676 20.6754 18.2174 20.6779C16.6068 20.6812 14.9961 20.6814 13.3854 20.6784C13.3455 20.6765 13.3056 20.6834 13.2687 20.6985C13.2317 20.7136 13.1984 20.7367 13.1713 20.766C12.4103 21.5319 11.6479 22.2963 10.8839 23.0592C10.771 23.1824 10.6256 23.2712 10.4645 23.3155C10.3104 23.3522 10.1486 23.3378 10.0034 23.2745C9.85819 23.2111 9.73751 23.1024 9.65951 22.9645C9.58152 22.8267 9.55043 22.6672 9.57094 22.5102C9.59145 22.3531 9.66244 22.207 9.77322 22.0938C9.78523 22.0808 9.79764 22.0681 9.81015 22.0556C10.6733 21.1917 11.5363 20.3276 12.3992 19.4634C12.5107 19.3432 12.6575 19.2616 12.8185 19.2305C12.8779 19.2216 12.9379 19.2177 12.998 19.219C13.9396 19.2183 14.8812 19.2181 15.8228 19.2185Z" fill="#0645F7"/>
<path d="M12.2416 16.4852C12.2418 16.23 12.242 15.9748 12.242 15.7195C12.242 15.4634 12.2417 15.2072 12.2415 14.9511C12.2408 14.2799 12.2401 13.6087 12.2441 12.9375C12.2481 12.8103 12.2251 12.6837 12.1767 12.5661C12.1282 12.4485 12.0553 12.3425 11.9629 12.2551C11.1161 11.4099 10.2698 10.5642 9.42409 9.71802L9.40887 9.7027C9.39152 9.68517 9.37414 9.66763 9.35588 9.65109C9.26679 9.56402 9.15657 9.50165 9.03605 9.47012C8.91553 9.43859 8.78889 9.43899 8.66857 9.47128C8.28344 9.56573 8.02124 9.98333 8.14357 10.3754C8.193 10.5235 8.27843 10.657 8.3922 10.7639C9.14914 11.5237 9.90764 12.282 10.6677 13.0387C10.7012 13.0688 10.7277 13.1059 10.7453 13.1474C10.7629 13.1888 10.7712 13.2336 10.7696 13.2786C10.7663 14.8997 10.7663 16.5208 10.7696 18.1419C10.7712 18.1887 10.7625 18.2353 10.7442 18.2783C10.7259 18.3214 10.6985 18.3599 10.6637 18.3913C9.91221 19.1415 9.16121 19.8923 8.4107 20.6435L8.39709 20.6571C8.36655 20.6876 8.33597 20.7181 8.30749 20.7504C8.22854 20.8349 8.17126 20.9372 8.14056 21.0486C8.10987 21.1601 8.10667 21.2773 8.13125 21.3903C8.15174 21.4957 8.19543 21.5953 8.25916 21.6818C8.32289 21.7683 8.40506 21.8396 8.49972 21.8904C8.59438 21.9412 8.69916 21.9704 8.80647 21.9757C8.91378 21.9811 9.02094 21.9625 9.12018 21.9213C9.2404 21.8685 9.34847 21.7916 9.43767 21.6952C10.2785 20.849 11.122 20.0056 11.9683 19.165C12.0583 19.08 12.1293 18.977 12.1768 18.8627C12.2242 18.7484 12.2471 18.6253 12.2437 18.5016C12.2405 17.8295 12.241 17.1573 12.2416 16.4852Z" fill="#0645F7"/>
<path d="M15.5922 22.8349V21.3847C15.5501 21.3781 15.5077 21.3738 15.4651 21.3716C14.9908 21.3707 14.5164 21.3698 14.0421 21.3722C13.9608 21.3727 13.8798 21.3814 13.8003 21.3982C13.6549 21.4334 13.5233 21.511 13.4222 21.6212L12.2969 22.7487C12.2435 22.8022 12.1898 22.8555 12.1362 22.9087C12.0089 23.035 11.8817 23.1614 11.7577 23.2908C11.6544 23.3896 11.5834 23.5173 11.554 23.6572C11.5247 23.7971 11.5383 23.9426 11.5931 24.0745C11.6575 24.2472 11.7859 24.3885 11.9516 24.469C12.1173 24.5496 12.3077 24.5633 12.4833 24.5072C12.624 24.4583 12.751 24.3764 12.8536 24.2684C13.3049 23.8187 13.7549 23.3676 14.2036 22.9152C14.226 22.8909 14.2535 22.8717 14.284 22.8592C14.3146 22.8466 14.3476 22.8409 14.3806 22.8425C14.6907 22.8451 15.0008 22.8445 15.3109 22.8438L15.4638 22.8435C15.4914 22.8435 15.519 22.8411 15.5483 22.8385C15.5623 22.8373 15.5772 22.836 15.5922 22.8349Z" fill="#0645F7"/>
<path d="M16.2934 22.8439V21.3862C16.3303 21.3789 16.3677 21.3741 16.4053 21.3717C16.8902 21.3708 17.3751 21.3707 17.86 21.3715C17.9733 21.3697 18.0858 21.3915 18.1903 21.4354C18.2948 21.4794 18.3891 21.5445 18.4671 21.6267C18.8934 22.0584 19.3228 22.4869 19.7522 22.9153L19.7537 22.9169L20.0723 23.2349C20.1869 23.3413 20.2709 23.4765 20.3157 23.6263C20.3402 23.7197 20.3459 23.8171 20.3325 23.9127C20.3192 24.0083 20.287 24.1003 20.2378 24.1834C20.1886 24.2665 20.1235 24.339 20.0461 24.3968C19.9687 24.4545 19.8806 24.4963 19.787 24.5198C19.6682 24.5507 19.5436 24.5508 19.4248 24.5202C19.306 24.4895 19.197 24.4291 19.108 24.3446C19.0817 24.3213 19.0569 24.2964 19.0321 24.2714L19.0166 24.2559C18.9073 24.1464 18.7978 24.0371 18.6883 23.9277C18.372 23.6119 18.0557 23.2962 17.743 22.9768C17.7034 22.9309 17.6538 22.8947 17.598 22.8711C17.5421 22.8474 17.4816 22.8369 17.4211 22.8404C17.1868 22.8481 16.9522 22.8466 16.7177 22.8451C16.623 22.8445 16.5284 22.8439 16.4337 22.8439L16.2934 22.8439Z" fill="#0645F7"/>
<path d="M16.2939 9.88209V8.43371C16.3098 8.43301 16.3248 8.43219 16.3394 8.43139C16.3694 8.42975 16.3972 8.42823 16.425 8.42819L16.6364 8.42786C16.9268 8.42733 17.2172 8.42681 17.5076 8.4295C17.5389 8.43074 17.57 8.42508 17.5988 8.41293C17.6277 8.40078 17.6535 8.38244 17.6744 8.3592C18.1231 7.90729 18.5728 7.45642 19.0235 7.0066C19.1233 6.90088 19.246 6.81943 19.3821 6.76851C19.5341 6.71857 19.6983 6.71993 19.8495 6.77239C20.0006 6.82484 20.1304 6.92548 20.2188 7.05884C20.3072 7.19221 20.3494 7.35091 20.3388 7.51056C20.3282 7.67022 20.2655 7.82198 20.1604 7.94254C20.1357 7.9717 20.1086 7.99885 20.0816 8.02589L18.4677 9.64194C18.3649 9.75522 18.2305 9.83515 18.0819 9.87144C18.0373 9.88176 17.9917 9.88752 17.946 9.88863C17.4259 9.8899 16.9058 9.89014 16.3857 9.88935C16.3674 9.88934 16.3491 9.88747 16.3282 9.88534C16.3175 9.88426 16.3062 9.8831 16.2939 9.88209Z" fill="#0645F7"/>
<path d="M21.5603 16.7473L21.5603 16.9696C21.5603 17.0361 21.5609 17.1026 21.5615 17.1691C21.5627 17.3185 21.564 17.468 21.5588 17.6172C21.5527 17.7427 21.5744 17.8681 21.6225 17.9843C21.6706 18.1005 21.7439 18.2046 21.837 18.2891C22.2003 18.643 22.5602 19.0004 22.92 19.3579L22.9212 19.359L22.9219 19.3597C23.0837 19.5204 23.2455 19.6811 23.4076 19.8415C23.4469 19.8823 23.4889 19.9203 23.5335 19.9552C23.6216 20.0269 23.7248 20.0776 23.8355 20.1033C23.9461 20.1291 24.0611 20.1292 24.1718 20.1037C24.352 20.0586 24.5085 19.9469 24.6097 19.7911C24.7109 19.6353 24.7494 19.447 24.7174 19.264C24.6854 19.107 24.6054 18.9638 24.4884 18.8543C24.3161 18.684 24.1442 18.5134 23.9723 18.3428L23.9707 18.3412L23.9691 18.3397C23.685 18.0577 23.4007 17.7754 23.115 17.495C23.0868 17.4693 23.0646 17.4377 23.0502 17.4023C23.0358 17.367 23.0294 17.3289 23.0316 17.2908C23.0348 17.0305 23.0343 16.7701 23.0337 16.5097L23.0337 16.5065C23.0336 16.4176 23.0334 16.3287 23.0333 16.2398C23.0333 16.2115 23.0328 16.1831 23.0315 16.1549C23.0319 16.1478 23.0308 16.1406 23.0283 16.134C23.0258 16.1273 23.0219 16.1212 23.017 16.1161C23.012 16.111 23.006 16.1069 22.9994 16.1042C22.9928 16.1016 22.9857 16.1003 22.9786 16.1005C22.9574 16.099 22.9362 16.0982 22.915 16.0982C22.5044 16.0978 22.0939 16.0978 21.6833 16.0983C21.5648 16.0984 21.5609 16.1024 21.5606 16.2264C21.5601 16.4 21.5602 16.5737 21.5603 16.7473Z" fill="#0645F7"/>
<path d="M23.0269 15.4036H21.5726C21.5712 15.3896 21.5694 15.3762 21.5677 15.3632C21.5642 15.3362 21.5609 15.3108 21.5609 15.2854C21.5602 14.797 21.5601 14.3087 21.5606 13.8203C21.5586 13.7192 21.5776 13.6187 21.6161 13.5251C21.6547 13.4315 21.7121 13.3469 21.7848 13.2765C22.34 12.7256 22.8956 12.1752 23.4516 11.6252C23.5934 11.4782 23.787 11.3923 23.9911 11.3858C24.1444 11.3845 24.2941 11.4313 24.4194 11.5197C24.5446 11.608 24.6389 11.7334 24.6891 11.8782C24.7364 12.0054 24.7456 12.1436 24.7153 12.2759C24.6851 12.4081 24.6169 12.5287 24.519 12.6226C24.3943 12.7534 24.2653 12.8799 24.1363 13.0065C24.086 13.056 24.0356 13.1054 23.9855 13.1551L23.817 13.3222C23.5792 13.5581 23.3415 13.794 23.1018 14.0279C23.0785 14.0488 23.0602 14.0747 23.0481 14.1035C23.0361 14.1324 23.0306 14.1636 23.0321 14.1948C23.0345 14.4897 23.034 14.7845 23.0334 15.0794L23.0331 15.2671C23.0331 15.2947 23.0315 15.3224 23.0296 15.3536C23.0287 15.3692 23.0277 15.3857 23.0269 15.4036Z" fill="#0645F7"/>
<path d="M8.61999 15.4036H10.0707C10.0719 15.3896 10.0731 15.3771 10.0743 15.3657C10.0765 15.3438 10.0783 15.3255 10.0783 15.3073C10.079 14.8046 10.0787 14.3019 10.0774 13.7993C10.0773 13.7463 10.072 13.6935 10.0617 13.6415C10.0277 13.4921 9.94869 13.3567 9.8354 13.2535L8.4776 11.9078C8.45052 11.881 8.42356 11.854 8.3966 11.827C8.31591 11.7463 8.23519 11.6656 8.15127 11.5884C8.03661 11.4794 7.88966 11.4107 7.73254 11.3925C7.57542 11.3742 7.41663 11.4075 7.28008 11.4874C7.14352 11.5672 7.03659 11.6892 6.97537 11.835C6.91415 11.9809 6.90195 12.1427 6.94062 12.296C6.98356 12.4429 7.06547 12.5753 7.17765 12.6794C7.32295 12.8231 7.46804 12.9671 7.61312 13.1111C7.91273 13.4084 8.21261 13.706 8.51408 14.0014C8.54636 14.0307 8.57172 14.0668 8.58829 14.1071C8.60487 14.1474 8.61225 14.1909 8.6099 14.2344C8.60596 14.5161 8.60698 14.7978 8.608 15.0795L8.60858 15.2539C8.60868 15.2866 8.61193 15.3192 8.61533 15.3534C8.61696 15.3697 8.61862 15.3864 8.61999 15.4036Z" fill="#0645F7"/>
<path d="M8.61668 16.1051H10.0691C10.0703 16.1181 10.0717 16.1306 10.073 16.1425C10.0757 16.167 10.0782 16.1897 10.0783 16.2124C10.0784 16.3819 10.0783 16.5513 10.0781 16.7208C10.0777 17.0431 10.0774 17.3653 10.0795 17.6876C10.0816 17.7921 10.0619 17.896 10.0214 17.9924C9.98101 18.0888 9.92083 18.1757 9.84478 18.2475C9.29919 18.7876 8.7539 19.3279 8.20891 19.8686C8.13311 19.9509 8.0407 20.0161 7.9378 20.0599C7.8349 20.1038 7.72386 20.1252 7.61204 20.1229C7.43207 20.1142 7.26162 20.0395 7.13321 19.9131C7.0048 19.7867 6.92742 19.6174 6.91582 19.4376C6.91088 19.3279 6.92998 19.2183 6.97179 19.1167C7.01359 19.0151 7.0771 18.9239 7.15785 18.8494C7.32314 18.6864 7.48803 18.5229 7.65291 18.3595C7.93762 18.0773 8.22279 17.7946 8.50957 17.5145C8.54334 17.4844 8.5699 17.4472 8.5873 17.4054C8.6047 17.3637 8.61248 17.3186 8.61006 17.2735C8.6059 17.0107 8.60682 16.7479 8.60774 16.4851L8.6084 16.2653C8.60847 16.2327 8.61063 16.2002 8.61306 16.1636C8.61427 16.1453 8.61555 16.126 8.61668 16.1051Z" fill="#0645F7"/>
<path d="M6.47252 16.7798C6.47288 16.6359 6.51589 16.4954 6.59609 16.3759C6.67629 16.2565 6.7901 16.1635 6.92313 16.1088C7.05616 16.054 7.20244 16.0399 7.34348 16.0682C7.48452 16.0966 7.61399 16.1661 7.71554 16.268C7.81708 16.3699 7.88613 16.4996 7.91397 16.6408C7.94181 16.7819 7.92719 16.9282 7.87195 17.061C7.81671 17.1938 7.72333 17.3073 7.60361 17.3871C7.4839 17.4668 7.34322 17.5093 7.19936 17.5092C7.10348 17.51 7.00841 17.4916 6.91971 17.4552C6.83102 17.4187 6.75047 17.365 6.68279 17.2971C6.61511 17.2292 6.56166 17.1484 6.52555 17.0596C6.48945 16.9708 6.47142 16.8756 6.47252 16.7798Z" fill="#0645F7"/>
<path d="M6.92273 15.3144C7.0113 15.3507 7.10616 15.3691 7.20187 15.3686C7.39447 15.3686 7.57919 15.2922 7.71541 15.156C7.85162 15.0199 7.92817 14.8352 7.92821 14.6426C7.92824 14.45 7.85177 14.2652 7.71561 14.129C7.57945 13.9928 7.39476 13.9163 7.20216 13.9162C7.10646 13.9157 7.01159 13.934 6.92301 13.9703C6.83443 14.0065 6.75388 14.0599 6.68601 14.1274C6.61813 14.1949 6.56426 14.2751 6.52749 14.3634C6.49073 14.4518 6.47179 14.5466 6.47177 14.6423C6.47175 14.738 6.49065 14.8327 6.52738 14.9211C6.56411 15.0095 6.61795 15.0897 6.6858 15.1572C6.75365 15.2247 6.83417 15.2782 6.92273 15.3144Z" fill="#0645F7"/>
<path d="M14.0322 24.3473C14.0321 24.155 14.1083 23.9706 14.244 23.8344C14.3797 23.6982 14.5639 23.6214 14.7561 23.6208C14.9484 23.6202 15.133 23.6959 15.2696 23.8312C15.4061 23.9665 15.4835 24.1505 15.4846 24.3427C15.4853 24.4384 15.4671 24.5332 15.4311 24.6218C15.395 24.7103 15.3419 24.7909 15.2746 24.8589C15.2073 24.9269 15.1273 24.9809 15.0391 25.0178C14.9509 25.0548 14.8563 25.074 14.7607 25.0743C14.6651 25.0746 14.5703 25.056 14.4819 25.0196C14.3935 24.9832 14.3131 24.9297 14.2454 24.8621C14.1777 24.7946 14.1241 24.7143 14.0875 24.626C14.0509 24.5376 14.0321 24.4429 14.0322 24.3473Z" fill="#0645F7"/>
<path d="M17.4916 24.7556C17.5724 24.6371 17.6163 24.4972 17.6177 24.3538C17.6193 24.2581 17.6019 24.1631 17.5664 24.0742C17.5309 23.9854 17.4781 23.9045 17.411 23.8363C17.3439 23.768 17.2639 23.7139 17.1756 23.6769C17.0874 23.64 16.9926 23.621 16.897 23.621C16.7535 23.62 16.613 23.6616 16.4931 23.7404C16.3733 23.8192 16.2795 23.9318 16.2235 24.0639C16.1676 24.1961 16.1521 24.3418 16.179 24.4827C16.2059 24.6236 16.2739 24.7534 16.3745 24.8557C16.4751 24.958 16.6037 25.0281 16.7442 25.0573C16.8846 25.0865 17.0306 25.0735 17.1636 25.0198C17.2967 24.9661 17.4108 24.8741 17.4916 24.7556Z" fill="#0645F7"/>
<path d="M14.0322 7.07691C14.0322 6.88465 14.1084 6.70024 14.2442 6.5641C14.3799 6.42796 14.5641 6.35121 14.7564 6.35068C14.9486 6.35015 15.1333 6.42587 15.2698 6.56125C15.4063 6.69664 15.4836 6.88063 15.4846 7.07289C15.4854 7.16856 15.4672 7.26344 15.4312 7.35207C15.3951 7.44071 15.3419 7.52135 15.2746 7.58936C15.2074 7.65737 15.1273 7.71141 15.039 7.74838C14.9508 7.78535 14.8561 7.80452 14.7604 7.80479C14.6647 7.80505 14.57 7.78641 14.4815 7.74993C14.3931 7.71345 14.3127 7.65985 14.245 7.59221C14.1773 7.52458 14.1237 7.44423 14.0872 7.3558C14.0506 7.26737 14.0319 7.17259 14.0322 7.07691Z" fill="#0645F7"/>
<path d="M23.9386 15.1573C24.0746 15.2922 24.2585 15.3678 24.4501 15.3676C24.5458 15.3678 24.6407 15.3491 24.7292 15.3126C24.8176 15.276 24.898 15.2223 24.9656 15.1545C25.0332 15.0867 25.0868 15.0062 25.1231 14.9177C25.1595 14.8291 25.1779 14.7342 25.1774 14.6385C25.1758 14.4461 25.0979 14.2622 24.9608 14.1271C24.8237 13.9921 24.6387 13.9169 24.4463 13.9181C24.2539 13.9193 24.0698 13.9968 23.9344 14.1335C23.799 14.2703 23.7234 14.4551 23.7242 14.6475C23.7255 14.8391 23.8026 15.0224 23.9386 15.1573Z" fill="#0645F7"/>
<path d="M24.4507 16.0553C24.644 16.0564 24.8291 16.1341 24.9653 16.2713C25.1015 16.4086 25.1778 16.5942 25.1774 16.7876C25.1759 16.9802 25.0979 17.1643 24.9607 17.2995C24.8234 17.4347 24.6381 17.5098 24.4455 17.5084C24.2529 17.5071 24.0687 17.4293 23.9334 17.2922C23.7981 17.1551 23.7228 16.9698 23.724 16.7772C23.7264 16.5857 23.8039 16.4027 23.9398 16.2677C24.0757 16.1327 24.2591 16.0564 24.4507 16.0553Z" fill="#0645F7"/>
<path d="M25.2116 23.8229C25.0948 23.7434 24.9571 23.7002 24.8158 23.6988C24.7209 23.6961 24.6264 23.7128 24.5381 23.7476C24.4498 23.7825 24.3695 23.8349 24.3019 23.9016C24.2344 23.9684 24.1811 24.0481 24.1452 24.136C24.1093 24.2239 24.0915 24.3181 24.093 24.4131C24.0928 24.5544 24.1343 24.6926 24.2125 24.8103C24.2907 24.928 24.4019 25.0199 24.5323 25.0745C24.6626 25.1291 24.8062 25.1439 24.9449 25.117C25.0836 25.0901 25.2113 25.0228 25.3118 24.9234C25.4123 24.8241 25.4811 24.6973 25.5096 24.5589C25.5382 24.4205 25.5251 24.2767 25.472 24.1458C25.419 24.0148 25.3284 23.9025 25.2116 23.8229Z" fill="#0645F7"/>
</svg>
