<svg width="32" height="32" viewBox="0 0 32 32" fill="none" xmlns="http://www.w3.org/2000/svg">
<path d="M30.4126 19.594C28.4281 27.5533 20.3658 32.3971 12.4046 30.4123C4.44688 28.4281 -0.397518 20.3661 1.58786 12.4075C3.57149 4.44736 11.6338 -0.39685 19.5925 1.58743C27.553 3.57171 32.3971 11.6345 30.4124 19.5942L30.4126 19.594Z" fill="url(#paint0_radial_4_712)"/>
<circle cx="16" cy="16" r="16" fill="#362425"/>
<path d="M24.9149 13.394C24.0882 12.619 22.9446 11.4357 22.0132 10.5964L21.958 10.5572C21.8663 10.4825 21.763 10.4238 21.6522 10.3838C19.4063 9.95854 8.95413 7.97506 8.75021 8.00024C8.69307 8.00836 8.63845 8.02939 8.59038 8.06178L8.53802 8.10375C8.47355 8.17022 8.42459 8.25052 8.39473 8.33874L8.38095 8.37511V8.57374V8.60452C9.55761 11.9308 14.2036 22.8274 15.1185 25.3844C15.1736 25.5579 15.2783 25.888 15.474 25.9048H15.5181C15.6228 25.9048 16.0692 25.3061 16.0692 25.3061C16.0692 25.3061 24.0496 15.481 24.857 14.4347C24.9615 14.3058 25.0538 14.1672 25.1326 14.0206C25.1735 13.7874 25.0908 13.5495 24.9149 13.394ZM18.1167 14.5382L21.5227 11.6707L23.5205 13.5394L18.1167 14.5382ZM16.794 14.3507L10.9299 9.47177L20.4176 11.2482L16.794 14.3507ZM17.323 15.6292L23.3249 14.6473L16.4633 23.04L17.323 15.6292ZM10.1335 9.95854L16.3034 15.274L15.4106 23.0456L10.1335 9.95854Z" fill="#FF060A"/>
<defs>
<radialGradient id="paint0_radial_4_712" cx="0" cy="0" r="1" gradientUnits="userSpaceOnUse" gradientTransform="translate(860.579 2051.98) scale(2932.22)">
<stop stop-color="#2C2C2C"/>
<stop offset="0.585226" stop-color="#1C1C1C"/>
<stop offset="1" stop-color="#212121"/>
</radialGradient>
</defs>
</svg>
