<svg width="32" height="32" viewBox="0 0 32 32" fill="none" xmlns="http://www.w3.org/2000/svg">
<path d="M16 32C24.8366 32 32 24.8366 32 16C32 7.16344 24.8366 0 16 0C7.16344 0 0 7.16344 0 16C0 24.8366 7.16344 32 16 32Z" fill="#C0D5FF"/>
<path fill-rule="evenodd" clip-rule="evenodd" d="M9.3312 6.2976L8.064 7.5776L11.136 10.7008L14.208 13.824V16.7424V19.6608H16H17.792V16.7424V13.824L20.864 10.7008L23.936 7.5776L22.6688 6.2848L21.4016 4.992L18.7136 7.7184C17.2416 9.216 16.0128 10.4448 16 10.4448C15.9744 10.4448 14.7584 9.2288 13.2864 7.7312C11.8144 6.2336 10.6112 5.0176 10.5984 5.0176C10.5856 5.0176 10.0096 5.5936 9.3184 6.2976H9.3312ZM8.0128 13.6064C7.5648 14.4 7.1552 15.7952 7.04 16.9216C6.9888 17.472 7.0144 18.6752 7.0912 19.2256C7.872 24.2944 12.5824 27.7504 17.5488 26.8672C20.8256 26.2912 23.5136 23.9488 24.5504 20.7616C24.896 19.712 25.0112 19.008 25.0112 17.856C25.0112 16.6144 24.8704 15.7952 24.4736 14.656C24.3328 14.2592 23.9872 13.4912 23.936 13.4912C23.9232 13.4912 23.296 14.1056 22.5664 14.8608C21.3248 16.128 21.2224 16.2304 21.248 16.3328C21.2608 16.3968 21.2992 16.5632 21.3248 16.7168C21.4144 17.152 21.4528 17.7536 21.4272 18.24C21.3888 18.7648 21.3248 19.0848 21.1712 19.5712C20.672 21.1584 19.3536 22.5152 17.7664 23.0656C17.1648 23.2704 16.8192 23.3216 16.0384 23.3344C15.2448 23.3344 14.9504 23.296 14.336 23.0912C12.6592 22.5408 11.3024 21.1072 10.816 19.4048C10.6624 18.8544 10.6112 18.496 10.6112 17.8304C10.6112 17.216 10.6368 17.0496 10.7904 16.3328C10.8032 16.2688 10.5088 15.9488 9.4464 14.8736L8.0896 13.4912L8.0128 13.6192V13.6064Z" fill="#0657F9"/>
</svg>
