<svg width="28" height="28" viewBox="0 0 28 28" fill="none" xmlns="http://www.w3.org/2000/svg">
<path d="M14 28C21.732 28 28 21.732 28 14C28 6.26801 21.732 0 14 0C6.26801 0 0 6.26801 0 14C0 21.732 6.26801 28 14 28Z" fill="#1969FF"/>
<path d="M13.151 4.45212C13.6227 4.20346 14.3404 4.20346 14.8121 4.45212L19.625 6.98948C19.9091 7.13923 20.0651 7.36239 20.0931 7.59276H20.0977V20.3468C20.0914 20.5981 19.9339 20.8477 19.625 21.0105L14.8121 23.5479C14.3404 23.7965 13.6227 23.7965 13.151 23.5479L8.3381 21.0105C8.03052 20.8484 7.8829 20.597 7.87559 20.3468C7.87484 20.3211 7.87477 20.2999 7.87557 20.2825L7.87559 7.67863C7.87487 7.6609 7.87487 7.64325 7.87557 7.62567L7.87559 7.59276H7.87774C7.89912 7.35984 8.04805 7.14238 8.3381 6.98948L13.151 4.45212ZM19.332 14.6836L14.8106 17.0751C14.3396 17.3242 13.623 17.3242 13.152 17.0751L8.64062 14.6889V20.3074L13.152 22.6809C13.4186 22.8235 13.6958 22.9625 13.9657 22.9685L13.9813 22.9688C14.2507 22.9696 14.5123 22.8326 14.7775 22.703L19.332 20.2869V14.6836ZM7.12096 20.0703C7.12096 20.5592 7.17728 20.8806 7.28911 21.107C7.38179 21.2946 7.52086 21.438 7.77479 21.6125L7.78929 21.6224C7.84501 21.6603 7.9064 21.7001 7.98113 21.7467L8.06925 21.8012L8.33984 21.9659L7.95173 22.6133L7.64887 22.4287L7.59796 22.3972C7.51039 22.3426 7.43781 22.2958 7.37011 22.2497C6.6464 21.7575 6.3765 21.2208 6.37117 20.1043L6.37109 20.0703H7.12096ZM13.6172 11.293C13.5822 11.305 13.5493 11.319 13.5194 11.3348L8.71381 13.8803C8.70877 13.883 8.70396 13.8857 8.69938 13.8883L8.69531 13.8906L8.70286 13.895L8.71381 13.9009L13.5194 16.4464C13.5493 16.4623 13.5822 16.4762 13.6172 16.4883V11.293ZM14.3828 11.293V16.4883C14.4179 16.4762 14.4507 16.4623 14.4806 16.4464L19.2862 13.9009C19.2912 13.8983 19.296 13.8956 19.3006 13.893L19.3047 13.8906L19.2971 13.8863L19.2862 13.8803L14.4806 11.3348C14.4507 11.319 14.4179 11.305 14.3828 11.293ZM19.332 8.50391L15.0117 10.7734L19.332 13.043V8.50391ZM8.64062 8.50391V13.043L12.9609 10.7734L8.64062 8.50391ZM14.4764 5.13043C14.2263 4.99819 13.7737 4.99819 13.5236 5.13043L8.71383 7.6733C8.70878 7.67598 8.70397 7.67861 8.69939 7.68124L8.69531 7.68359L8.70287 7.68791L8.71383 7.69388L13.5236 10.2367C13.7737 10.369 14.2263 10.369 14.4764 10.2367L19.2862 7.69388C19.2912 7.6912 19.296 7.68857 19.3006 7.68597L19.3047 7.68359L19.2971 7.67927L19.2862 7.6733L14.4764 5.13043ZM20.0483 5.38672L20.3511 5.57127L20.402 5.6028C20.4896 5.65734 20.5622 5.70419 20.6299 5.75025C21.3536 6.24251 21.6235 6.7792 21.6288 7.89567L21.6289 7.92969H20.879C20.879 7.44074 20.8227 7.11941 20.7109 6.893C20.6182 6.70537 20.4792 6.56197 20.2252 6.38748L20.2107 6.37757C20.155 6.33966 20.0936 6.29995 20.0189 6.25328L19.9308 6.19883L19.6602 6.03407L20.0483 5.38672Z" fill="white"/>
</svg>
