<svg width="260" height="64" viewBox="0 0 260 64" fill="none" xmlns="http://www.w3.org/2000/svg">
<g opacity="0.07">
<path d="M1.06086 10.4188L4.41885 7.06083C4.73981 6.73987 5.26019 6.73987 5.58115 7.06083L8.93915 10.4188C9.26011 10.7398 9.26011 11.2602 8.93915 11.5811L5.58116 14.9391C5.26019 15.2601 4.73982 15.2601 4.41885 14.9391L1.06086 11.5811C0.7399 11.2602 0.7399 10.7398 1.06086 10.4188Z" stroke="url(#paint0_linear_3686_8851)" stroke-width="2" stroke-miterlimit="10"/>
<path fill-rule="evenodd" clip-rule="evenodd" d="M4.41884 -23.7593L-29.7593 10.4188C-30.0802 10.7398 -30.0802 11.2602 -29.7593 11.5811L4.41886 45.7593C4.73982 46.0802 5.2602 46.0802 5.58116 45.7593L39.7593 11.5812C40.0802 11.2602 40.0802 10.7398 39.7593 10.4189L5.58115 -23.7593C5.26018 -24.0802 4.73981 -24.0802 4.41884 -23.7593ZM-0.110451 -11.7573L5.15698 -6.48992L10.4244 -11.7573C14.5465 -10.8073 18.4608 -8.7265 21.6725 -5.51482C24.8843 -2.30302 26.9651 1.61147 27.9151 5.73377L22.6476 11.0013L27.9149 16.2686C26.9649 20.3906 24.8841 24.3048 21.6725 27.5164C18.4606 30.7283 14.546 32.8092 10.4235 33.7591L5.15664 28.4922L-0.110137 33.759C-4.23246 32.8091 -8.14695 30.7282 -11.3588 27.5164C-14.5705 24.3047 -16.6513 20.3904 -17.6013 16.2682L-12.3343 11.0013L-17.6014 5.73412C-16.6516 1.61168 -14.5707 -2.30293 -11.3588 -5.51482C-8.14704 -8.72656 -4.23266 -10.8074 -0.110451 -11.7573Z" stroke="url(#paint1_linear_3686_8851)" stroke-width="2" stroke-miterlimit="10"/>
<path d="M74.0609 10.4188L77.4189 7.06083C77.7398 6.73987 78.2602 6.73987 78.5812 7.06083L81.9391 10.4188C82.2601 10.7398 82.2601 11.2602 81.9391 11.5811L78.5812 14.9391C78.2602 15.2601 77.7398 15.2601 77.4189 14.9391L74.0609 11.5811C73.7399 11.2602 73.7399 10.7398 74.0609 10.4188Z" stroke="url(#paint2_linear_3686_8851)" stroke-width="2" stroke-miterlimit="10"/>
<path fill-rule="evenodd" clip-rule="evenodd" d="M77.4188 -23.7593L43.2407 10.4188C42.9198 10.7398 42.9198 11.2602 43.2407 11.5811L77.4189 45.7593C77.7398 46.0802 78.2602 46.0802 78.5812 45.7593L112.759 11.5812C113.08 11.2602 113.08 10.7398 112.759 10.4189L78.5811 -23.7593C78.2602 -24.0802 77.7398 -24.0802 77.4188 -23.7593ZM72.8895 -11.7573L78.157 -6.48992L83.4244 -11.7573C87.5465 -10.8073 91.4608 -8.7265 94.6725 -5.51482C97.8843 -2.30302 99.9651 1.61147 100.915 5.73377L95.6476 11.0013L100.915 16.2686C99.9649 20.3906 97.8841 24.3048 94.6725 27.5164C91.4606 30.7283 87.546 32.8092 83.4235 33.7591L78.1566 28.4922L72.8899 33.759C68.7675 32.8091 64.853 30.7282 61.6412 27.5164C58.4295 24.3047 56.3487 20.3904 55.3987 16.2682L60.6657 11.0013L55.3986 5.73412C56.3484 1.61168 58.4293 -2.30293 61.6412 -5.51482C64.853 -8.72656 68.7673 -10.8074 72.8895 -11.7573Z" stroke="url(#paint3_linear_3686_8851)" stroke-width="2" stroke-miterlimit="10"/>
<path d="M147.061 10.4188L150.419 7.06083C150.74 6.73987 151.26 6.73987 151.581 7.06083L154.939 10.4188C155.26 10.7398 155.26 11.2602 154.939 11.5811L151.581 14.9391C151.26 15.2601 150.74 15.2601 150.419 14.9391L147.061 11.5811C146.74 11.2602 146.74 10.7398 147.061 10.4188Z" stroke="url(#paint4_linear_3686_8851)" stroke-width="2" stroke-miterlimit="10"/>
<path fill-rule="evenodd" clip-rule="evenodd" d="M150.419 -23.7593L116.241 10.4188C115.92 10.7398 115.92 11.2602 116.241 11.5811L150.419 45.7593C150.74 46.0802 151.26 46.0802 151.581 45.7593L185.759 11.5812C186.08 11.2602 186.08 10.7398 185.759 10.4189L151.581 -23.7593C151.26 -24.0802 150.74 -24.0802 150.419 -23.7593ZM145.89 -11.7573L151.157 -6.48992L156.424 -11.7573C160.546 -10.8073 164.461 -8.7265 167.672 -5.51482C170.884 -2.30302 172.965 1.61147 173.915 5.73377L168.648 11.0013L173.915 16.2686C172.965 20.3906 170.884 24.3048 167.672 27.5164C164.461 30.7283 160.546 32.8092 156.424 33.7591L151.157 28.4922L145.89 33.759C141.768 32.8091 137.853 30.7282 134.641 27.5164C131.43 24.3047 129.349 20.3904 128.399 16.2682L133.666 11.0013L128.399 5.73412C129.348 1.61168 131.429 -2.30293 134.641 -5.51482C137.853 -8.72656 141.767 -10.8074 145.89 -11.7573Z" stroke="url(#paint5_linear_3686_8851)" stroke-width="2" stroke-miterlimit="10"/>
<path d="M220.061 10.4188L223.419 7.06083C223.74 6.73987 224.26 6.73987 224.581 7.06083L227.939 10.4188C228.26 10.7398 228.26 11.2602 227.939 11.5811L224.581 14.9391C224.26 15.2601 223.74 15.2601 223.419 14.9391L220.061 11.5811C219.74 11.2602 219.74 10.7398 220.061 10.4188Z" stroke="url(#paint6_linear_3686_8851)" stroke-width="2" stroke-miterlimit="10"/>
<path fill-rule="evenodd" clip-rule="evenodd" d="M223.419 -23.7593L189.241 10.4188C188.92 10.7398 188.92 11.2602 189.241 11.5811L223.419 45.7593C223.74 46.0802 224.26 46.0802 224.581 45.7593L258.759 11.5812C259.08 11.2602 259.08 10.7398 258.759 10.4189L224.581 -23.7593C224.26 -24.0802 223.74 -24.0802 223.419 -23.7593ZM218.89 -11.7573L224.157 -6.48992L229.424 -11.7573C233.546 -10.8073 237.461 -8.7265 240.672 -5.51482C243.884 -2.30302 245.965 1.61147 246.915 5.73377L241.648 11.0013L246.915 16.2686C245.965 20.3906 243.884 24.3048 240.672 27.5164C237.461 30.7283 233.546 32.8092 229.424 33.7591L224.157 28.4922L218.89 33.759C214.768 32.8091 210.853 30.7282 207.641 27.5164C204.43 24.3047 202.349 20.3904 201.399 16.2682L206.666 11.0013L201.399 5.73412C202.348 1.61168 204.429 -2.30293 207.641 -5.51482C210.853 -8.72656 214.767 -10.8074 218.89 -11.7573Z" stroke="url(#paint7_linear_3686_8851)" stroke-width="2" stroke-miterlimit="10"/>
<path d="M1.06086 72.4188L4.41885 69.0608C4.73981 68.7399 5.26019 68.7399 5.58115 69.0608L8.93915 72.4188C9.26011 72.7398 9.26011 73.2602 8.93915 73.5811L5.58116 76.9391C5.26019 77.2601 4.73982 77.2601 4.41885 76.9391L1.06086 73.5811C0.7399 73.2602 0.7399 72.7398 1.06086 72.4188Z" stroke="url(#paint8_linear_3686_8851)" stroke-width="2" stroke-miterlimit="10"/>
<path fill-rule="evenodd" clip-rule="evenodd" d="M4.41884 38.2407L-29.7593 72.4188C-30.0802 72.7398 -30.0802 73.2602 -29.7593 73.5811L4.41886 107.759C4.73982 108.08 5.2602 108.08 5.58116 107.759L39.7593 73.5812C40.0802 73.2602 40.0802 72.7398 39.7593 72.4189L5.58115 38.2407C5.26018 37.9198 4.73981 37.9198 4.41884 38.2407ZM-0.110451 50.2427L5.15698 55.5101L10.4244 50.2427C14.5465 51.1927 18.4608 53.2735 21.6725 56.4852C24.8843 59.697 26.9651 63.6115 27.9151 67.7338L22.6476 73.0013L27.9149 78.2686C26.9649 82.3906 24.8841 86.3048 21.6725 89.5164C18.4606 92.7283 14.546 94.8092 10.4235 95.7591L5.15664 90.4922L-0.110137 95.759C-4.23246 94.8091 -8.14695 92.7282 -11.3588 89.5164C-14.5705 86.3047 -16.6513 82.3904 -17.6013 78.2682L-12.3343 73.0013L-17.6014 67.7341C-16.6516 63.6117 -14.5707 59.6971 -11.3588 56.4852C-8.14704 53.2734 -4.23266 51.1926 -0.110451 50.2427Z" stroke="url(#paint9_linear_3686_8851)" stroke-width="2" stroke-miterlimit="10"/>
<path d="M74.0609 72.4188L77.4189 69.0608C77.7398 68.7399 78.2602 68.7399 78.5812 69.0608L81.9391 72.4188C82.2601 72.7398 82.2601 73.2602 81.9391 73.5811L78.5812 76.9391C78.2602 77.2601 77.7398 77.2601 77.4189 76.9391L74.0609 73.5811C73.7399 73.2602 73.7399 72.7398 74.0609 72.4188Z" stroke="url(#paint10_linear_3686_8851)" stroke-width="2" stroke-miterlimit="10"/>
<path fill-rule="evenodd" clip-rule="evenodd" d="M77.4188 38.2407L43.2407 72.4188C42.9198 72.7398 42.9198 73.2602 43.2407 73.5811L77.4189 107.759C77.7398 108.08 78.2602 108.08 78.5812 107.759L112.759 73.5812C113.08 73.2602 113.08 72.7398 112.759 72.4189L78.5811 38.2407C78.2602 37.9198 77.7398 37.9198 77.4188 38.2407ZM72.8895 50.2427L78.157 55.5101L83.4244 50.2427C87.5465 51.1927 91.4608 53.2735 94.6725 56.4852C97.8843 59.697 99.9651 63.6115 100.915 67.7338L95.6476 73.0013L100.915 78.2686C99.9649 82.3906 97.8841 86.3048 94.6725 89.5164C91.4606 92.7283 87.546 94.8092 83.4235 95.7591L78.1566 90.4922L72.8899 95.759C68.7675 94.8091 64.853 92.7282 61.6412 89.5164C58.4295 86.3047 56.3487 82.3904 55.3987 78.2682L60.6657 73.0013L55.3986 67.7341C56.3484 63.6117 58.4293 59.6971 61.6412 56.4852C64.853 53.2734 68.7673 51.1926 72.8895 50.2427Z" stroke="url(#paint11_linear_3686_8851)" stroke-width="2" stroke-miterlimit="10"/>
<path d="M147.061 72.4188L150.419 69.0608C150.74 68.7399 151.26 68.7399 151.581 69.0608L154.939 72.4188C155.26 72.7398 155.26 73.2602 154.939 73.5811L151.581 76.9391C151.26 77.2601 150.74 77.2601 150.419 76.9391L147.061 73.5811C146.74 73.2602 146.74 72.7398 147.061 72.4188Z" stroke="url(#paint12_linear_3686_8851)" stroke-width="2" stroke-miterlimit="10"/>
<path fill-rule="evenodd" clip-rule="evenodd" d="M150.419 38.2407L116.241 72.4188C115.92 72.7398 115.92 73.2602 116.241 73.5811L150.419 107.759C150.74 108.08 151.26 108.08 151.581 107.759L185.759 73.5812C186.08 73.2602 186.08 72.7398 185.759 72.4189L151.581 38.2407C151.26 37.9198 150.74 37.9198 150.419 38.2407ZM145.89 50.2427L151.157 55.5101L156.424 50.2427C160.546 51.1927 164.461 53.2735 167.672 56.4852C170.884 59.697 172.965 63.6115 173.915 67.7338L168.648 73.0013L173.915 78.2686C172.965 82.3906 170.884 86.3048 167.672 89.5164C164.461 92.7283 160.546 94.8092 156.424 95.7591L151.157 90.4922L145.89 95.759C141.768 94.8091 137.853 92.7282 134.641 89.5164C131.43 86.3047 129.349 82.3904 128.399 78.2682L133.666 73.0013L128.399 67.7341C129.348 63.6117 131.429 59.6971 134.641 56.4852C137.853 53.2734 141.767 51.1926 145.89 50.2427Z" stroke="url(#paint13_linear_3686_8851)" stroke-width="2" stroke-miterlimit="10"/>
<path d="M220.061 72.4188L223.419 69.0608C223.74 68.7399 224.26 68.7399 224.581 69.0608L227.939 72.4188C228.26 72.7398 228.26 73.2602 227.939 73.5811L224.581 76.9391C224.26 77.2601 223.74 77.2601 223.419 76.9391L220.061 73.5811C219.74 73.2602 219.74 72.7398 220.061 72.4188Z" stroke="url(#paint14_linear_3686_8851)" stroke-width="2" stroke-miterlimit="10"/>
<path fill-rule="evenodd" clip-rule="evenodd" d="M223.419 38.2407L189.241 72.4188C188.92 72.7398 188.92 73.2602 189.241 73.5811L223.419 107.759C223.74 108.08 224.26 108.08 224.581 107.759L258.759 73.5812C259.08 73.2602 259.08 72.7398 258.759 72.4189L224.581 38.2407C224.26 37.9198 223.74 37.9198 223.419 38.2407ZM218.89 50.2427L224.157 55.5101L229.424 50.2427C233.546 51.1927 237.461 53.2735 240.672 56.4852C243.884 59.697 245.965 63.6115 246.915 67.7338L241.648 73.0013L246.915 78.2686C245.965 82.3906 243.884 86.3048 240.672 89.5164C237.461 92.7283 233.546 94.8092 229.424 95.7591L224.157 90.4922L218.89 95.759C214.768 94.8091 210.853 92.7282 207.641 89.5164C204.43 86.3047 202.349 82.3904 201.399 78.2682L206.666 73.0013L201.399 67.7341C202.348 63.6117 204.429 59.6971 207.641 56.4852C210.853 53.2734 214.767 51.1926 218.89 50.2427Z" stroke="url(#paint15_linear_3686_8851)" stroke-width="2" stroke-miterlimit="10"/>
</g>
<defs>
<linearGradient id="paint0_linear_3686_8851" x1="-30" y1="11" x2="40" y2="11" gradientUnits="userSpaceOnUse">
<stop stop-color="#E5F1F3"/>
<stop offset="0.5" stop-color="#AEE3FA"/>
<stop offset="1" stop-color="#E5F1F3"/>
</linearGradient>
<linearGradient id="paint1_linear_3686_8851" x1="-30" y1="11" x2="40" y2="11" gradientUnits="userSpaceOnUse">
<stop stop-color="#E5F1F3"/>
<stop offset="0.5" stop-color="#AEE3FA"/>
<stop offset="1" stop-color="#E5F1F3"/>
</linearGradient>
<linearGradient id="paint2_linear_3686_8851" x1="43" y1="11" x2="113" y2="11" gradientUnits="userSpaceOnUse">
<stop stop-color="#E5F1F3"/>
<stop offset="0.5" stop-color="#AEE3FA"/>
<stop offset="1" stop-color="#E5F1F3"/>
</linearGradient>
<linearGradient id="paint3_linear_3686_8851" x1="43" y1="11" x2="113" y2="11" gradientUnits="userSpaceOnUse">
<stop stop-color="#E5F1F3"/>
<stop offset="0.5" stop-color="#AEE3FA"/>
<stop offset="1" stop-color="#E5F1F3"/>
</linearGradient>
<linearGradient id="paint4_linear_3686_8851" x1="116" y1="11" x2="186" y2="11" gradientUnits="userSpaceOnUse">
<stop stop-color="#E5F1F3"/>
<stop offset="0.5" stop-color="#AEE3FA"/>
<stop offset="1" stop-color="#E5F1F3"/>
</linearGradient>
<linearGradient id="paint5_linear_3686_8851" x1="116" y1="11" x2="186" y2="11" gradientUnits="userSpaceOnUse">
<stop stop-color="#E5F1F3"/>
<stop offset="0.5" stop-color="#AEE3FA"/>
<stop offset="1" stop-color="#E5F1F3"/>
</linearGradient>
<linearGradient id="paint6_linear_3686_8851" x1="189" y1="11" x2="259" y2="11" gradientUnits="userSpaceOnUse">
<stop stop-color="#E5F1F3"/>
<stop offset="0.5" stop-color="#AEE3FA"/>
<stop offset="1" stop-color="#E5F1F3"/>
</linearGradient>
<linearGradient id="paint7_linear_3686_8851" x1="189" y1="11" x2="259" y2="11" gradientUnits="userSpaceOnUse">
<stop stop-color="#E5F1F3"/>
<stop offset="0.5" stop-color="#AEE3FA"/>
<stop offset="1" stop-color="#E5F1F3"/>
</linearGradient>
<linearGradient id="paint8_linear_3686_8851" x1="-30" y1="73" x2="40" y2="73" gradientUnits="userSpaceOnUse">
<stop stop-color="#E5F1F3"/>
<stop offset="0.5" stop-color="#AEE3FA"/>
<stop offset="1" stop-color="#E5F1F3"/>
</linearGradient>
<linearGradient id="paint9_linear_3686_8851" x1="-30" y1="73" x2="40" y2="73" gradientUnits="userSpaceOnUse">
<stop stop-color="#E5F1F3"/>
<stop offset="0.5" stop-color="#AEE3FA"/>
<stop offset="1" stop-color="#E5F1F3"/>
</linearGradient>
<linearGradient id="paint10_linear_3686_8851" x1="43" y1="73" x2="113" y2="73" gradientUnits="userSpaceOnUse">
<stop stop-color="#E5F1F3"/>
<stop offset="0.5" stop-color="#AEE3FA"/>
<stop offset="1" stop-color="#E5F1F3"/>
</linearGradient>
<linearGradient id="paint11_linear_3686_8851" x1="43" y1="73" x2="113" y2="73" gradientUnits="userSpaceOnUse">
<stop stop-color="#E5F1F3"/>
<stop offset="0.5" stop-color="#AEE3FA"/>
<stop offset="1" stop-color="#E5F1F3"/>
</linearGradient>
<linearGradient id="paint12_linear_3686_8851" x1="116" y1="73" x2="186" y2="73" gradientUnits="userSpaceOnUse">
<stop stop-color="#E5F1F3"/>
<stop offset="0.5" stop-color="#AEE3FA"/>
<stop offset="1" stop-color="#E5F1F3"/>
</linearGradient>
<linearGradient id="paint13_linear_3686_8851" x1="116" y1="73" x2="186" y2="73" gradientUnits="userSpaceOnUse">
<stop stop-color="#E5F1F3"/>
<stop offset="0.5" stop-color="#AEE3FA"/>
<stop offset="1" stop-color="#E5F1F3"/>
</linearGradient>
<linearGradient id="paint14_linear_3686_8851" x1="189" y1="73" x2="259" y2="73" gradientUnits="userSpaceOnUse">
<stop stop-color="#E5F1F3"/>
<stop offset="0.5" stop-color="#AEE3FA"/>
<stop offset="1" stop-color="#E5F1F3"/>
</linearGradient>
<linearGradient id="paint15_linear_3686_8851" x1="189" y1="73" x2="259" y2="73" gradientUnits="userSpaceOnUse">
<stop stop-color="#E5F1F3"/>
<stop offset="0.5" stop-color="#AEE3FA"/>
<stop offset="1" stop-color="#E5F1F3"/>
</linearGradient>
</defs>
</svg>
