<svg width="40" height="40" viewBox="0 0 40 40" fill="none" xmlns="http://www.w3.org/2000/svg">
<path d="M0 0H36C38.2091 0 40 1.79086 40 4V36C40 38.2091 38.2091 40 36 40H0V0Z" fill="#7151F2"/>
<g clip-path="url(#clip0_3686_8865)">
<path d="M30.0101 10.7944C28.353 9.96386 26.5759 9.35194 24.7179 9.00147C24.684 8.99471 24.6502 9.01161 24.6328 9.04542C24.4042 9.48942 24.1511 10.0687 23.9739 10.5239C21.9755 10.1971 19.9873 10.1971 18.0299 10.5239C17.8525 10.0585 17.5902 9.48942 17.3606 9.04542C17.3432 9.01274 17.3094 8.99583 17.2756 9.00147C15.4186 9.35082 13.6415 9.96274 11.9833 10.7944C11.969 10.8012 11.9567 10.8125 11.9485 10.8271C8.57784 16.3277 7.65447 21.6931 8.10745 26.9918C8.10949 27.0178 8.12282 27.0426 8.14126 27.0583C10.3651 28.8423 12.5194 29.9253 14.6336 30.6431C14.6674 30.6544 14.7032 30.6409 14.7248 30.6104C15.2249 29.8644 15.6707 29.0778 16.053 28.2506C16.0755 28.2021 16.054 28.1447 16.0078 28.1255C15.3007 27.8326 14.6274 27.4753 13.9797 27.0696C13.9285 27.0369 13.9244 26.9569 13.9715 26.9186C14.1078 26.807 14.2441 26.6909 14.3743 26.5738C14.3978 26.5523 14.4306 26.5478 14.4583 26.5613C18.7134 28.6834 23.32 28.6834 27.5249 26.5613C27.5525 26.5467 27.5853 26.5512 27.61 26.5727C27.7401 26.6898 27.8764 26.807 28.0137 26.9186C28.0608 26.9569 28.0578 27.0369 28.0065 27.0696C27.3588 27.4832 26.6855 27.8326 25.9774 28.1244C25.9313 28.1436 25.9108 28.2021 25.9333 28.2506C26.3238 29.0766 26.7696 29.8632 27.2605 30.6093C27.281 30.6409 27.3178 30.6544 27.3517 30.6431C29.4762 29.9253 31.6303 28.8423 33.8542 27.0583C33.8737 27.0426 33.886 27.0189 33.888 26.993C34.4301 20.867 32.98 15.5456 30.0439 10.8282C30.0368 10.8125 30.0244 10.8012 30.0101 10.7944ZM16.6884 23.7655C15.4073 23.7655 14.3517 22.4807 14.3517 20.903C14.3517 19.3253 15.3868 18.0406 16.6884 18.0406C18.0001 18.0406 19.0455 19.3366 19.0249 20.903C19.0249 22.4807 17.9899 23.7655 16.6884 23.7655ZM25.3276 23.7655C24.0466 23.7655 22.9911 22.4807 22.9911 20.903C22.9911 19.3253 24.0261 18.0406 25.3276 18.0406C26.6394 18.0406 27.6848 19.3366 27.6643 20.903C27.6643 22.4807 26.6394 23.7655 25.3276 23.7655Z" fill="#ECE8FD"/>
</g>
<defs>
<clipPath id="clip0_3686_8865">
<rect width="26" height="22" fill="white" transform="translate(8 9)"/>
</clipPath>
</defs>
</svg>
