<svg width="20" height="20" viewBox="0 0 20 20" fill="none" xmlns="http://www.w3.org/2000/svg">
<g clip-path="url(#clip0_4080_3445)">
<circle cx="9.99958" cy="9.99995" r="8.92857" stroke="#496C7B" stroke-width="0.714286"/>
<path fill-rule="evenodd" clip-rule="evenodd" d="M7.15169 4.63911C7.71498 4.40579 8.31872 4.2857 8.92843 4.2857V3.57141C8.22492 3.57141 7.5283 3.70998 6.87834 3.9792C6.22838 4.24842 5.63782 4.64303 5.14036 5.14048C4.6429 5.63794 4.2483 6.22851 3.97908 6.87846C3.70986 7.52842 3.57129 8.22504 3.57129 8.92855H4.28557C4.28557 8.31884 4.40567 7.71511 4.63899 7.15181C4.87232 6.58851 5.21431 6.07669 5.64544 5.64556C6.07657 5.21443 6.58839 4.87244 7.15169 4.63911ZM11.0712 4.2857C11.6809 4.2857 12.2846 4.40579 12.8479 4.63911C13.4112 4.87244 13.923 5.21443 14.3542 5.64556C14.7853 6.07669 15.1273 6.58851 15.3606 7.15181C15.5939 7.71511 15.714 8.31884 15.714 8.92855H16.4283C16.4283 8.22504 16.2897 7.52842 16.0205 6.87846C15.7513 6.22851 15.3567 5.63794 14.8592 5.14048C14.3618 4.64303 13.7712 4.24842 13.1213 3.9792C12.4713 3.70998 11.7747 3.57141 11.0712 3.57141V4.2857ZM11.0712 15.7143C11.6809 15.7143 12.2846 15.5942 12.8479 15.3609C13.4112 15.1275 13.923 14.7856 14.3542 14.3544C14.7853 13.9233 15.1273 13.4115 15.3606 12.8482C15.5939 12.2849 15.714 11.6811 15.714 11.0714H16.4283C16.4283 11.7749 16.2897 12.4716 16.0205 13.1215C15.7513 13.7715 15.3567 14.362 14.8592 14.8595C14.3618 15.357 13.7712 15.7516 13.1213 16.0208C12.4713 16.29 11.7747 16.4286 11.0712 16.4286V15.7143ZM8.92843 15.7143C8.31872 15.7143 7.71498 15.5942 7.15169 15.3609C6.58839 15.1275 6.07657 14.7856 5.64544 14.3544C5.21431 13.9233 4.87232 13.4115 4.63899 12.8482C4.40567 12.2849 4.28557 11.6811 4.28557 11.0714H3.57129C3.57129 11.7749 3.70986 12.4716 3.97908 13.1215C4.2483 13.7715 4.6429 14.362 5.14036 14.8595C5.63782 15.357 6.22838 15.7516 6.87834 16.0208C7.5283 16.29 8.22492 16.4286 8.92843 16.4286V15.7143Z" fill="#AEE3FA"/>
<path d="M12.1431 7.85718L7.85742 12.1429" stroke="#496C7B" stroke-width="0.714286"/>
<path d="M7.85735 7.85718L12.1431 12.1429" stroke="#496C7B" stroke-width="0.714286"/>
<rect x="9.64258" width="0.714286" height="20" fill="#AEE3FA"/>
<rect y="9.64282" width="20" height="0.714286" fill="#AEE3FA"/>
</g>
<defs>
<clipPath id="clip0_4080_3445">
<rect width="20" height="20" fill="white"/>
</clipPath>
</defs>
</svg>
