<svg width="123" height="122" viewBox="0 0 123 122" fill="none" xmlns="http://www.w3.org/2000/svg">
<path d="M0 61.0508C0.0109329 74.069 4.22047 86.7422 12.0131 97.2174C19.8056 107.693 30.7726 115.42 43.3102 119.271C55.8478 123.121 69.2985 122.892 81.6955 118.617C94.0925 114.342 104.785 106.246 112.211 95.5114C119.637 84.7771 123.405 71.968 122.965 58.9572C122.526 45.9464 117.901 33.4163 109.768 23.199C101.635 12.9818 90.4194 5.61332 77.7617 2.1711C65.104 -1.27112 51.668 -0.606551 39.4183 4.06762C27.8132 8.50397 17.8351 16.3232 10.7986 26.4951C3.76212 36.6671 -0.00276184 48.7147 0 61.0508Z" fill="url(#paint0_radial_861_2047)"/>
<defs>
<radialGradient id="paint0_radial_861_2047" cx="0" cy="0" r="1" gradientUnits="userSpaceOnUse" gradientTransform="translate(38.4375 24.4) rotate(52.0719) scale(144.93 127.008)">
<stop stop-color="#121034" stop-opacity="0.79"/>
<stop offset="0.33" stop-color="#1A1646" stop-opacity="0.47"/>
<stop offset="0.54" stop-color="#2D2962" stop-opacity="0.35"/>
<stop offset="0.77" stop-color="#474388" stop-opacity="0.02"/>
<stop offset="1" stop-color="#6762B5" stop-opacity="0"/>
</radialGradient>
</defs>
</svg>
